%
M48
M72
T01C0.00800
T02C0.01000
T03C0.01600
T04C0.02000
T05C0.03000
T06C0.03200
T07C0.03500
T08C0.04000
T09C0.06500
T10C0.14000
%
T01
X69700Y69100
X60700Y82900
X55200Y85500
X69700Y99700
X72700Y100900
X69100Y115300
X62500Y118900
X57700Y118900
X65500Y123700
X79300Y133900
X79300Y137500
X79900Y140500
X79600Y144500
X79900Y147700
X87100Y158500
X76300Y161500
X75100Y175900
X91300Y182500
X106300Y192700
X120100Y176500
X121300Y169900
X133900Y161500
X135700Y165100
X131500Y158500
X129100Y156100
X121300Y141700
X131500Y133900
X141100Y123700
X129700Y118900
X121300Y118900
X114700Y123100
X108700Y120100
X88900Y96700
X89000Y93300
X91300Y91100
X96700Y88300
X71800Y85500
X57100Y101500
X54200Y100200
X36700Y100300
X26500Y93100
X22300Y98500
X11500Y99700
X19300Y121300
X20500Y130300
X33600Y121600
X41500Y123700
X41500Y118900
X45100Y118300
X48700Y118900
X37900Y88900
X20500Y143500
X37300Y164500
X40300Y166300
X91900Y147100
X100900Y147100
X129700Y183100
X151900Y171100
X156100Y177700
X168100Y169300
X159100Y145900
X159700Y135100
X147700Y150400
X160900Y193300
T02
X91900Y114100
X94300Y106900
X72700Y114700
X33700Y111700
X19000Y107400
T03
X84700Y82900
X103900Y96100
X102700Y119500
X104500Y124300
X93700Y119500
X168800Y119000
X167500Y96100
T04
X36700Y26500
X84100Y54100
X94900Y69100
X166900Y123700
T05
X76900Y75700
T06
X111500Y39400
X121500Y39400
X153500Y39400
X163500Y39400
X150000Y83900
X140000Y83900
X130000Y83900
X120000Y83900
X125000Y93900
X135000Y93900
X145000Y93900
X155000Y93900
T07
X26100Y80500
X26100Y70500
X26100Y60500
X16100Y60500
X16100Y70500
X16100Y80500
X22900Y159900
X22900Y169900
X22900Y179900
T08
X27600Y38400
X44600Y38400
T09
X106000Y70400
X169000Y70400
T10
X160000Y58900
X115000Y58900
M30
