G75*
%MOIN*%
%OFA0B0*%
%FSLAX25Y25*%
%IPPOS*%
%LPD*%
%AMOC8*
5,1,8,0,0,1.08239X$1,22.5*
%
%ADD10C,0.00950*%
%ADD11C,0.00825*%
%ADD12R,0.07674X0.07674*%
%ADD13R,0.03737X0.06690*%
%ADD14R,0.00981X0.06099*%
%ADD15R,0.06099X0.00981*%
%ADD16R,0.04800X0.08800*%
%ADD17R,0.13800X0.08300*%
%ADD18R,0.01800X0.09800*%
%ADD19R,0.07674X0.10800*%
%ADD20R,0.00587X0.03737*%
%ADD21R,0.03737X0.00587*%
%ADD22C,0.01650*%
D10*
X0071975Y0061475D02*
X0074825Y0061475D01*
X0074825Y0057125D01*
X0071975Y0057125D01*
X0071975Y0061475D01*
X0071975Y0058074D02*
X0074825Y0058074D01*
X0074825Y0059023D02*
X0071975Y0059023D01*
X0071975Y0059972D02*
X0074825Y0059972D01*
X0074825Y0060921D02*
X0071975Y0060921D01*
X0078975Y0061475D02*
X0081825Y0061475D01*
X0081825Y0057125D01*
X0078975Y0057125D01*
X0078975Y0061475D01*
X0078975Y0058074D02*
X0081825Y0058074D01*
X0081825Y0059023D02*
X0078975Y0059023D01*
X0078975Y0059972D02*
X0081825Y0059972D01*
X0081825Y0060921D02*
X0078975Y0060921D01*
X0088375Y0065275D02*
X0091225Y0065275D01*
X0091225Y0060925D01*
X0088375Y0060925D01*
X0088375Y0065275D01*
X0088375Y0061874D02*
X0091225Y0061874D01*
X0091225Y0062823D02*
X0088375Y0062823D01*
X0088375Y0063772D02*
X0091225Y0063772D01*
X0091225Y0064721D02*
X0088375Y0064721D01*
X0095375Y0065275D02*
X0098225Y0065275D01*
X0098225Y0060925D01*
X0095375Y0060925D01*
X0095375Y0065275D01*
X0095375Y0061874D02*
X0098225Y0061874D01*
X0098225Y0062823D02*
X0095375Y0062823D01*
X0095375Y0063772D02*
X0098225Y0063772D01*
X0098225Y0064721D02*
X0095375Y0064721D01*
X0092525Y0093175D02*
X0092525Y0096025D01*
X0096875Y0096025D01*
X0096875Y0093175D01*
X0092525Y0093175D01*
X0092525Y0094124D02*
X0096875Y0094124D01*
X0096875Y0095073D02*
X0092525Y0095073D01*
X0092525Y0096022D02*
X0096875Y0096022D01*
X0092525Y0100175D02*
X0092525Y0103025D01*
X0096875Y0103025D01*
X0096875Y0100175D01*
X0092525Y0100175D01*
X0092525Y0101124D02*
X0096875Y0101124D01*
X0096875Y0102073D02*
X0092525Y0102073D01*
X0092525Y0103022D02*
X0096875Y0103022D01*
X0161875Y0121575D02*
X0161875Y0124425D01*
X0161875Y0121575D02*
X0157525Y0121575D01*
X0157525Y0124425D01*
X0161875Y0124425D01*
X0161875Y0122524D02*
X0157525Y0122524D01*
X0157525Y0123473D02*
X0161875Y0123473D01*
X0161875Y0124422D02*
X0157525Y0124422D01*
X0161875Y0128575D02*
X0161875Y0131425D01*
X0161875Y0128575D02*
X0157525Y0128575D01*
X0157525Y0131425D01*
X0161875Y0131425D01*
X0161875Y0129524D02*
X0157525Y0129524D01*
X0157525Y0130473D02*
X0161875Y0130473D01*
X0161875Y0131422D02*
X0157525Y0131422D01*
X0161575Y0147125D02*
X0164425Y0147125D01*
X0161575Y0147125D02*
X0161575Y0151475D01*
X0164425Y0151475D01*
X0164425Y0147125D01*
X0164425Y0148074D02*
X0161575Y0148074D01*
X0161575Y0149023D02*
X0164425Y0149023D01*
X0164425Y0149972D02*
X0161575Y0149972D01*
X0161575Y0150921D02*
X0164425Y0150921D01*
X0168575Y0147125D02*
X0171425Y0147125D01*
X0168575Y0147125D02*
X0168575Y0151475D01*
X0171425Y0151475D01*
X0171425Y0147125D01*
X0171425Y0148074D02*
X0168575Y0148074D01*
X0168575Y0149023D02*
X0171425Y0149023D01*
X0171425Y0149972D02*
X0168575Y0149972D01*
X0168575Y0150921D02*
X0171425Y0150921D01*
X0099625Y0032075D02*
X0096775Y0032075D01*
X0099625Y0032075D02*
X0099625Y0027725D01*
X0096775Y0027725D01*
X0096775Y0032075D01*
X0096775Y0028674D02*
X0099625Y0028674D01*
X0099625Y0029623D02*
X0096775Y0029623D01*
X0096775Y0030572D02*
X0099625Y0030572D01*
X0099625Y0031521D02*
X0096775Y0031521D01*
X0092625Y0032075D02*
X0089775Y0032075D01*
X0092625Y0032075D02*
X0092625Y0027725D01*
X0089775Y0027725D01*
X0089775Y0032075D01*
X0089775Y0028674D02*
X0092625Y0028674D01*
X0092625Y0029623D02*
X0089775Y0029623D01*
X0089775Y0030572D02*
X0092625Y0030572D01*
X0092625Y0031521D02*
X0089775Y0031521D01*
X0090175Y0023675D02*
X0093025Y0023675D01*
X0093025Y0019325D01*
X0090175Y0019325D01*
X0090175Y0023675D01*
X0090175Y0020274D02*
X0093025Y0020274D01*
X0093025Y0021223D02*
X0090175Y0021223D01*
X0090175Y0022172D02*
X0093025Y0022172D01*
X0093025Y0023121D02*
X0090175Y0023121D01*
X0097175Y0023675D02*
X0100025Y0023675D01*
X0100025Y0019325D01*
X0097175Y0019325D01*
X0097175Y0023675D01*
X0097175Y0020274D02*
X0100025Y0020274D01*
X0100025Y0021223D02*
X0097175Y0021223D01*
X0097175Y0022172D02*
X0100025Y0022172D01*
X0100025Y0023121D02*
X0097175Y0023121D01*
X0013025Y0102475D02*
X0013025Y0105325D01*
X0017375Y0105325D01*
X0017375Y0102475D01*
X0013025Y0102475D01*
X0013025Y0103424D02*
X0017375Y0103424D01*
X0017375Y0104373D02*
X0013025Y0104373D01*
X0013025Y0105322D02*
X0017375Y0105322D01*
X0013025Y0109475D02*
X0013025Y0112325D01*
X0017375Y0112325D01*
X0017375Y0109475D01*
X0013025Y0109475D01*
X0013025Y0110424D02*
X0017375Y0110424D01*
X0017375Y0111373D02*
X0013025Y0111373D01*
X0013025Y0112322D02*
X0017375Y0112322D01*
D11*
X0015538Y0116462D02*
X0015538Y0118938D01*
X0015538Y0116462D02*
X0013062Y0116462D01*
X0013062Y0118938D01*
X0015538Y0118938D01*
X0015538Y0117286D02*
X0013062Y0117286D01*
X0013062Y0118110D02*
X0015538Y0118110D01*
X0015538Y0118934D02*
X0013062Y0118934D01*
X0015538Y0122462D02*
X0015538Y0124938D01*
X0015538Y0122462D02*
X0013062Y0122462D01*
X0013062Y0124938D01*
X0015538Y0124938D01*
X0015538Y0123286D02*
X0013062Y0123286D01*
X0013062Y0124110D02*
X0015538Y0124110D01*
X0015538Y0124934D02*
X0013062Y0124934D01*
X0017388Y0129062D02*
X0017388Y0131538D01*
X0017388Y0129062D02*
X0013412Y0129062D01*
X0013412Y0131538D01*
X0017388Y0131538D01*
X0017388Y0129886D02*
X0013412Y0129886D01*
X0013412Y0130710D02*
X0017388Y0130710D01*
X0017388Y0131534D02*
X0013412Y0131534D01*
X0017388Y0136062D02*
X0017388Y0138538D01*
X0017388Y0136062D02*
X0013412Y0136062D01*
X0013412Y0138538D01*
X0017388Y0138538D01*
X0017388Y0136886D02*
X0013412Y0136886D01*
X0013412Y0137710D02*
X0017388Y0137710D01*
X0017388Y0138534D02*
X0013412Y0138534D01*
X0015538Y0142462D02*
X0015538Y0144938D01*
X0015538Y0142462D02*
X0013062Y0142462D01*
X0013062Y0144938D01*
X0015538Y0144938D01*
X0015538Y0143286D02*
X0013062Y0143286D01*
X0013062Y0144110D02*
X0015538Y0144110D01*
X0015538Y0144934D02*
X0013062Y0144934D01*
X0015538Y0148462D02*
X0015538Y0150938D01*
X0015538Y0148462D02*
X0013062Y0148462D01*
X0013062Y0150938D01*
X0015538Y0150938D01*
X0015538Y0149286D02*
X0013062Y0149286D01*
X0013062Y0150110D02*
X0015538Y0150110D01*
X0015538Y0150934D02*
X0013062Y0150934D01*
X0038462Y0172138D02*
X0040938Y0172138D01*
X0040938Y0169662D01*
X0038462Y0169662D01*
X0038462Y0172138D01*
X0038462Y0170486D02*
X0040938Y0170486D01*
X0040938Y0171310D02*
X0038462Y0171310D01*
X0038462Y0172134D02*
X0040938Y0172134D01*
X0044462Y0172138D02*
X0046938Y0172138D01*
X0046938Y0169662D01*
X0044462Y0169662D01*
X0044462Y0172138D01*
X0044462Y0170486D02*
X0046938Y0170486D01*
X0046938Y0171310D02*
X0044462Y0171310D01*
X0044462Y0172134D02*
X0046938Y0172134D01*
X0049262Y0160862D02*
X0051738Y0160862D01*
X0049262Y0160862D02*
X0049262Y0163338D01*
X0051738Y0163338D01*
X0051738Y0160862D01*
X0051738Y0161686D02*
X0049262Y0161686D01*
X0049262Y0162510D02*
X0051738Y0162510D01*
X0051738Y0163334D02*
X0049262Y0163334D01*
X0055262Y0160862D02*
X0057738Y0160862D01*
X0055262Y0160862D02*
X0055262Y0163338D01*
X0057738Y0163338D01*
X0057738Y0160862D01*
X0057738Y0161686D02*
X0055262Y0161686D01*
X0055262Y0162510D02*
X0057738Y0162510D01*
X0057738Y0163334D02*
X0055262Y0163334D01*
X0067862Y0169662D02*
X0070338Y0169662D01*
X0067862Y0169662D02*
X0067862Y0172138D01*
X0070338Y0172138D01*
X0070338Y0169662D01*
X0070338Y0170486D02*
X0067862Y0170486D01*
X0067862Y0171310D02*
X0070338Y0171310D01*
X0070338Y0172134D02*
X0067862Y0172134D01*
X0073862Y0169662D02*
X0076338Y0169662D01*
X0073862Y0169662D02*
X0073862Y0172138D01*
X0076338Y0172138D01*
X0076338Y0169662D01*
X0076338Y0170486D02*
X0073862Y0170486D01*
X0073862Y0171310D02*
X0076338Y0171310D01*
X0076338Y0172134D02*
X0073862Y0172134D01*
X0079862Y0172238D02*
X0082338Y0172238D01*
X0082338Y0169762D01*
X0079862Y0169762D01*
X0079862Y0172238D01*
X0079862Y0170586D02*
X0082338Y0170586D01*
X0082338Y0171410D02*
X0079862Y0171410D01*
X0079862Y0172234D02*
X0082338Y0172234D01*
X0085862Y0172238D02*
X0088338Y0172238D01*
X0088338Y0169762D01*
X0085862Y0169762D01*
X0085862Y0172238D01*
X0085862Y0170586D02*
X0088338Y0170586D01*
X0088338Y0171410D02*
X0085862Y0171410D01*
X0085862Y0172234D02*
X0088338Y0172234D01*
X0088338Y0162562D02*
X0085862Y0162562D01*
X0085862Y0165038D01*
X0088338Y0165038D01*
X0088338Y0162562D01*
X0088338Y0163386D02*
X0085862Y0163386D01*
X0085862Y0164210D02*
X0088338Y0164210D01*
X0088338Y0165034D02*
X0085862Y0165034D01*
X0082338Y0162562D02*
X0079862Y0162562D01*
X0079862Y0165038D01*
X0082338Y0165038D01*
X0082338Y0162562D01*
X0082338Y0163386D02*
X0079862Y0163386D01*
X0079862Y0164210D02*
X0082338Y0164210D01*
X0082338Y0165034D02*
X0079862Y0165034D01*
X0094062Y0143538D02*
X0094062Y0141062D01*
X0094062Y0143538D02*
X0096538Y0143538D01*
X0096538Y0141062D01*
X0094062Y0141062D01*
X0094062Y0141886D02*
X0096538Y0141886D01*
X0096538Y0142710D02*
X0094062Y0142710D01*
X0094062Y0143534D02*
X0096538Y0143534D01*
X0094062Y0137538D02*
X0094062Y0135062D01*
X0094062Y0137538D02*
X0096538Y0137538D01*
X0096538Y0135062D01*
X0094062Y0135062D01*
X0094062Y0135886D02*
X0096538Y0135886D01*
X0096538Y0136710D02*
X0094062Y0136710D01*
X0094062Y0137534D02*
X0096538Y0137534D01*
X0103462Y0134162D02*
X0105938Y0134162D01*
X0103462Y0134162D02*
X0103462Y0136638D01*
X0105938Y0136638D01*
X0105938Y0134162D01*
X0105938Y0134986D02*
X0103462Y0134986D01*
X0103462Y0135810D02*
X0105938Y0135810D01*
X0105938Y0136634D02*
X0103462Y0136634D01*
X0103462Y0140062D02*
X0105938Y0140062D01*
X0103462Y0140062D02*
X0103462Y0142538D01*
X0105938Y0142538D01*
X0105938Y0140062D01*
X0105938Y0140886D02*
X0103462Y0140886D01*
X0103462Y0141710D02*
X0105938Y0141710D01*
X0105938Y0142534D02*
X0103462Y0142534D01*
X0103462Y0148438D02*
X0105938Y0148438D01*
X0105938Y0145962D01*
X0103462Y0145962D01*
X0103462Y0148438D01*
X0103462Y0146786D02*
X0105938Y0146786D01*
X0105938Y0147610D02*
X0103462Y0147610D01*
X0103462Y0148434D02*
X0105938Y0148434D01*
X0105938Y0154338D02*
X0103462Y0154338D01*
X0105938Y0154338D02*
X0105938Y0151862D01*
X0103462Y0151862D01*
X0103462Y0154338D01*
X0103462Y0152686D02*
X0105938Y0152686D01*
X0105938Y0153510D02*
X0103462Y0153510D01*
X0103462Y0154334D02*
X0105938Y0154334D01*
X0109462Y0154338D02*
X0111938Y0154338D01*
X0111938Y0151862D01*
X0109462Y0151862D01*
X0109462Y0154338D01*
X0109462Y0152686D02*
X0111938Y0152686D01*
X0111938Y0153510D02*
X0109462Y0153510D01*
X0109462Y0154334D02*
X0111938Y0154334D01*
X0111938Y0160238D02*
X0109462Y0160238D01*
X0111938Y0160238D02*
X0111938Y0157762D01*
X0109462Y0157762D01*
X0109462Y0160238D01*
X0109462Y0158586D02*
X0111938Y0158586D01*
X0111938Y0159410D02*
X0109462Y0159410D01*
X0109462Y0160234D02*
X0111938Y0160234D01*
X0111938Y0166138D02*
X0109462Y0166138D01*
X0111938Y0166138D02*
X0111938Y0163662D01*
X0109462Y0163662D01*
X0109462Y0166138D01*
X0109462Y0164486D02*
X0111938Y0164486D01*
X0111938Y0165310D02*
X0109462Y0165310D01*
X0109462Y0166134D02*
X0111938Y0166134D01*
X0111938Y0171938D02*
X0109462Y0171938D01*
X0111938Y0171938D02*
X0111938Y0169462D01*
X0109462Y0169462D01*
X0109462Y0171938D01*
X0109462Y0170286D02*
X0111938Y0170286D01*
X0111938Y0171110D02*
X0109462Y0171110D01*
X0109462Y0171934D02*
X0111938Y0171934D01*
X0111938Y0177738D02*
X0109462Y0177738D01*
X0111938Y0177738D02*
X0111938Y0175262D01*
X0109462Y0175262D01*
X0109462Y0177738D01*
X0109462Y0176086D02*
X0111938Y0176086D01*
X0111938Y0176910D02*
X0109462Y0176910D01*
X0109462Y0177734D02*
X0111938Y0177734D01*
X0105938Y0177738D02*
X0103462Y0177738D01*
X0105938Y0177738D02*
X0105938Y0175262D01*
X0103462Y0175262D01*
X0103462Y0177738D01*
X0103462Y0176086D02*
X0105938Y0176086D01*
X0105938Y0176910D02*
X0103462Y0176910D01*
X0103462Y0177734D02*
X0105938Y0177734D01*
X0105938Y0171938D02*
X0103462Y0171938D01*
X0105938Y0171938D02*
X0105938Y0169462D01*
X0103462Y0169462D01*
X0103462Y0171938D01*
X0103462Y0170286D02*
X0105938Y0170286D01*
X0105938Y0171110D02*
X0103462Y0171110D01*
X0103462Y0171934D02*
X0105938Y0171934D01*
X0105938Y0166138D02*
X0103462Y0166138D01*
X0105938Y0166138D02*
X0105938Y0163662D01*
X0103462Y0163662D01*
X0103462Y0166138D01*
X0103462Y0164486D02*
X0105938Y0164486D01*
X0105938Y0165310D02*
X0103462Y0165310D01*
X0103462Y0166134D02*
X0105938Y0166134D01*
X0105938Y0160238D02*
X0103462Y0160238D01*
X0105938Y0160238D02*
X0105938Y0157762D01*
X0103462Y0157762D01*
X0103462Y0160238D01*
X0103462Y0158586D02*
X0105938Y0158586D01*
X0105938Y0159410D02*
X0103462Y0159410D01*
X0103462Y0160234D02*
X0105938Y0160234D01*
X0109462Y0148438D02*
X0111938Y0148438D01*
X0111938Y0145962D01*
X0109462Y0145962D01*
X0109462Y0148438D01*
X0109462Y0146786D02*
X0111938Y0146786D01*
X0111938Y0147610D02*
X0109462Y0147610D01*
X0109462Y0148434D02*
X0111938Y0148434D01*
X0111938Y0140062D02*
X0109462Y0140062D01*
X0109462Y0142538D01*
X0111938Y0142538D01*
X0111938Y0140062D01*
X0111938Y0140886D02*
X0109462Y0140886D01*
X0109462Y0141710D02*
X0111938Y0141710D01*
X0111938Y0142534D02*
X0109462Y0142534D01*
X0109462Y0134162D02*
X0111938Y0134162D01*
X0109462Y0134162D02*
X0109462Y0136638D01*
X0111938Y0136638D01*
X0111938Y0134162D01*
X0111938Y0134986D02*
X0109462Y0134986D01*
X0109462Y0135810D02*
X0111938Y0135810D01*
X0111938Y0136634D02*
X0109462Y0136634D01*
X0109462Y0128262D02*
X0111938Y0128262D01*
X0109462Y0128262D02*
X0109462Y0130738D01*
X0111938Y0130738D01*
X0111938Y0128262D01*
X0111938Y0129086D02*
X0109462Y0129086D01*
X0109462Y0129910D02*
X0111938Y0129910D01*
X0111938Y0130734D02*
X0109462Y0130734D01*
X0105938Y0128262D02*
X0103462Y0128262D01*
X0103462Y0130738D01*
X0105938Y0130738D01*
X0105938Y0128262D01*
X0105938Y0129086D02*
X0103462Y0129086D01*
X0103462Y0129910D02*
X0105938Y0129910D01*
X0105938Y0130734D02*
X0103462Y0130734D01*
X0101038Y0122762D02*
X0098562Y0122762D01*
X0098562Y0125238D01*
X0101038Y0125238D01*
X0101038Y0122762D01*
X0101038Y0123586D02*
X0098562Y0123586D01*
X0098562Y0124410D02*
X0101038Y0124410D01*
X0101038Y0125234D02*
X0098562Y0125234D01*
X0095038Y0122762D02*
X0092562Y0122762D01*
X0092562Y0125238D01*
X0095038Y0125238D01*
X0095038Y0122762D01*
X0095038Y0123586D02*
X0092562Y0123586D01*
X0092562Y0124410D02*
X0095038Y0124410D01*
X0095038Y0125234D02*
X0092562Y0125234D01*
X0103738Y0116038D02*
X0103738Y0113562D01*
X0101262Y0113562D01*
X0101262Y0116038D01*
X0103738Y0116038D01*
X0103738Y0114386D02*
X0101262Y0114386D01*
X0101262Y0115210D02*
X0103738Y0115210D01*
X0103738Y0116034D02*
X0101262Y0116034D01*
X0103738Y0110038D02*
X0103738Y0107562D01*
X0101262Y0107562D01*
X0101262Y0110038D01*
X0103738Y0110038D01*
X0103738Y0108386D02*
X0101262Y0108386D01*
X0101262Y0109210D02*
X0103738Y0109210D01*
X0103738Y0110034D02*
X0101262Y0110034D01*
X0109838Y0110038D02*
X0109838Y0107562D01*
X0107362Y0107562D01*
X0107362Y0110038D01*
X0109838Y0110038D01*
X0109838Y0108386D02*
X0107362Y0108386D01*
X0107362Y0109210D02*
X0109838Y0109210D01*
X0109838Y0110034D02*
X0107362Y0110034D01*
X0109838Y0113562D02*
X0109838Y0116038D01*
X0109838Y0113562D02*
X0107362Y0113562D01*
X0107362Y0116038D01*
X0109838Y0116038D01*
X0109838Y0114386D02*
X0107362Y0114386D01*
X0107362Y0115210D02*
X0109838Y0115210D01*
X0109838Y0116034D02*
X0107362Y0116034D01*
X0113662Y0115938D02*
X0113662Y0113462D01*
X0113662Y0115938D02*
X0116138Y0115938D01*
X0116138Y0113462D01*
X0113662Y0113462D01*
X0113662Y0114286D02*
X0116138Y0114286D01*
X0116138Y0115110D02*
X0113662Y0115110D01*
X0113662Y0115934D02*
X0116138Y0115934D01*
X0119862Y0115938D02*
X0119862Y0113462D01*
X0119862Y0115938D02*
X0122338Y0115938D01*
X0122338Y0113462D01*
X0119862Y0113462D01*
X0119862Y0114286D02*
X0122338Y0114286D01*
X0122338Y0115110D02*
X0119862Y0115110D01*
X0119862Y0115934D02*
X0122338Y0115934D01*
X0119762Y0121662D02*
X0119762Y0124138D01*
X0122238Y0124138D01*
X0122238Y0121662D01*
X0119762Y0121662D01*
X0119762Y0122486D02*
X0122238Y0122486D01*
X0122238Y0123310D02*
X0119762Y0123310D01*
X0119762Y0124134D02*
X0122238Y0124134D01*
X0119762Y0127662D02*
X0119762Y0130138D01*
X0122238Y0130138D01*
X0122238Y0127662D01*
X0119762Y0127662D01*
X0119762Y0128486D02*
X0122238Y0128486D01*
X0122238Y0129310D02*
X0119762Y0129310D01*
X0119762Y0130134D02*
X0122238Y0130134D01*
X0129262Y0130238D02*
X0129262Y0127762D01*
X0129262Y0130238D02*
X0131738Y0130238D01*
X0131738Y0127762D01*
X0129262Y0127762D01*
X0129262Y0128586D02*
X0131738Y0128586D01*
X0131738Y0129410D02*
X0129262Y0129410D01*
X0129262Y0130234D02*
X0131738Y0130234D01*
X0129262Y0124238D02*
X0129262Y0121762D01*
X0129262Y0124238D02*
X0131738Y0124238D01*
X0131738Y0121762D01*
X0129262Y0121762D01*
X0129262Y0122586D02*
X0131738Y0122586D01*
X0131738Y0123410D02*
X0129262Y0123410D01*
X0129262Y0124234D02*
X0131738Y0124234D01*
X0129362Y0115938D02*
X0129362Y0113462D01*
X0129362Y0115938D02*
X0131838Y0115938D01*
X0131838Y0113462D01*
X0129362Y0113462D01*
X0129362Y0114286D02*
X0131838Y0114286D01*
X0131838Y0115110D02*
X0129362Y0115110D01*
X0129362Y0115934D02*
X0131838Y0115934D01*
X0135462Y0116038D02*
X0135462Y0113562D01*
X0135462Y0116038D02*
X0137938Y0116038D01*
X0137938Y0113562D01*
X0135462Y0113562D01*
X0135462Y0114386D02*
X0137938Y0114386D01*
X0137938Y0115210D02*
X0135462Y0115210D01*
X0135462Y0116034D02*
X0137938Y0116034D01*
X0141762Y0116038D02*
X0141762Y0113562D01*
X0141762Y0116038D02*
X0144238Y0116038D01*
X0144238Y0113562D01*
X0141762Y0113562D01*
X0141762Y0114386D02*
X0144238Y0114386D01*
X0144238Y0115210D02*
X0141762Y0115210D01*
X0141762Y0116034D02*
X0144238Y0116034D01*
X0147862Y0116038D02*
X0147862Y0113562D01*
X0147862Y0116038D02*
X0150338Y0116038D01*
X0150338Y0113562D01*
X0147862Y0113562D01*
X0147862Y0114386D02*
X0150338Y0114386D01*
X0150338Y0115210D02*
X0147862Y0115210D01*
X0147862Y0116034D02*
X0150338Y0116034D01*
X0156438Y0116038D02*
X0156438Y0113562D01*
X0153962Y0113562D01*
X0153962Y0116038D01*
X0156438Y0116038D01*
X0156438Y0114386D02*
X0153962Y0114386D01*
X0153962Y0115210D02*
X0156438Y0115210D01*
X0156438Y0116034D02*
X0153962Y0116034D01*
X0153738Y0121262D02*
X0153738Y0123738D01*
X0153738Y0121262D02*
X0151262Y0121262D01*
X0151262Y0123738D01*
X0153738Y0123738D01*
X0153738Y0122086D02*
X0151262Y0122086D01*
X0151262Y0122910D02*
X0153738Y0122910D01*
X0153738Y0123734D02*
X0151262Y0123734D01*
X0147538Y0123738D02*
X0147538Y0121262D01*
X0145062Y0121262D01*
X0145062Y0123738D01*
X0147538Y0123738D01*
X0147538Y0122086D02*
X0145062Y0122086D01*
X0145062Y0122910D02*
X0147538Y0122910D01*
X0147538Y0123734D02*
X0145062Y0123734D01*
X0147538Y0127262D02*
X0147538Y0129738D01*
X0147538Y0127262D02*
X0145062Y0127262D01*
X0145062Y0129738D01*
X0147538Y0129738D01*
X0147538Y0128086D02*
X0145062Y0128086D01*
X0145062Y0128910D02*
X0147538Y0128910D01*
X0147538Y0129734D02*
X0145062Y0129734D01*
X0153738Y0129738D02*
X0153738Y0127262D01*
X0151262Y0127262D01*
X0151262Y0129738D01*
X0153738Y0129738D01*
X0153738Y0128086D02*
X0151262Y0128086D01*
X0151262Y0128910D02*
X0153738Y0128910D01*
X0153738Y0129734D02*
X0151262Y0129734D01*
X0168238Y0129738D02*
X0168238Y0127262D01*
X0165762Y0127262D01*
X0165762Y0129738D01*
X0168238Y0129738D01*
X0168238Y0128086D02*
X0165762Y0128086D01*
X0165762Y0128910D02*
X0168238Y0128910D01*
X0168238Y0129734D02*
X0165762Y0129734D01*
X0168238Y0133262D02*
X0168238Y0135738D01*
X0168238Y0133262D02*
X0165762Y0133262D01*
X0165762Y0135738D01*
X0168238Y0135738D01*
X0168238Y0134086D02*
X0165762Y0134086D01*
X0165762Y0134910D02*
X0168238Y0134910D01*
X0168238Y0135734D02*
X0165762Y0135734D01*
X0167262Y0116138D02*
X0167262Y0113662D01*
X0167262Y0116138D02*
X0169738Y0116138D01*
X0169738Y0113662D01*
X0167262Y0113662D01*
X0167262Y0114486D02*
X0169738Y0114486D01*
X0169738Y0115310D02*
X0167262Y0115310D01*
X0167262Y0116134D02*
X0169738Y0116134D01*
X0167262Y0110138D02*
X0167262Y0107662D01*
X0167262Y0110138D02*
X0169738Y0110138D01*
X0169738Y0107662D01*
X0167262Y0107662D01*
X0167262Y0108486D02*
X0169738Y0108486D01*
X0169738Y0109310D02*
X0167262Y0109310D01*
X0167262Y0110134D02*
X0169738Y0110134D01*
X0162538Y0109938D02*
X0162538Y0107462D01*
X0160062Y0107462D01*
X0160062Y0109938D01*
X0162538Y0109938D01*
X0162538Y0108286D02*
X0160062Y0108286D01*
X0160062Y0109110D02*
X0162538Y0109110D01*
X0162538Y0109934D02*
X0160062Y0109934D01*
X0162538Y0113462D02*
X0162538Y0115938D01*
X0162538Y0113462D02*
X0160062Y0113462D01*
X0160062Y0115938D01*
X0162538Y0115938D01*
X0162538Y0114286D02*
X0160062Y0114286D01*
X0160062Y0115110D02*
X0162538Y0115110D01*
X0162538Y0115934D02*
X0160062Y0115934D01*
X0156438Y0110038D02*
X0156438Y0107562D01*
X0153962Y0107562D01*
X0153962Y0110038D01*
X0156438Y0110038D01*
X0156438Y0108386D02*
X0153962Y0108386D01*
X0153962Y0109210D02*
X0156438Y0109210D01*
X0156438Y0110034D02*
X0153962Y0110034D01*
X0147862Y0110038D02*
X0147862Y0107562D01*
X0147862Y0110038D02*
X0150338Y0110038D01*
X0150338Y0107562D01*
X0147862Y0107562D01*
X0147862Y0108386D02*
X0150338Y0108386D01*
X0150338Y0109210D02*
X0147862Y0109210D01*
X0147862Y0110034D02*
X0150338Y0110034D01*
X0141762Y0110038D02*
X0141762Y0107562D01*
X0141762Y0110038D02*
X0144238Y0110038D01*
X0144238Y0107562D01*
X0141762Y0107562D01*
X0141762Y0108386D02*
X0144238Y0108386D01*
X0144238Y0109210D02*
X0141762Y0109210D01*
X0141762Y0110034D02*
X0144238Y0110034D01*
X0135462Y0110038D02*
X0135462Y0107562D01*
X0135462Y0110038D02*
X0137938Y0110038D01*
X0137938Y0107562D01*
X0135462Y0107562D01*
X0135462Y0108386D02*
X0137938Y0108386D01*
X0137938Y0109210D02*
X0135462Y0109210D01*
X0135462Y0110034D02*
X0137938Y0110034D01*
X0129362Y0109938D02*
X0129362Y0107462D01*
X0129362Y0109938D02*
X0131838Y0109938D01*
X0131838Y0107462D01*
X0129362Y0107462D01*
X0129362Y0108286D02*
X0131838Y0108286D01*
X0131838Y0109110D02*
X0129362Y0109110D01*
X0129362Y0109934D02*
X0131838Y0109934D01*
X0119862Y0109938D02*
X0119862Y0107462D01*
X0119862Y0109938D02*
X0122338Y0109938D01*
X0122338Y0107462D01*
X0119862Y0107462D01*
X0119862Y0108286D02*
X0122338Y0108286D01*
X0122338Y0109110D02*
X0119862Y0109110D01*
X0119862Y0109934D02*
X0122338Y0109934D01*
X0113662Y0109938D02*
X0113662Y0107462D01*
X0113662Y0109938D02*
X0116138Y0109938D01*
X0116138Y0107462D01*
X0113662Y0107462D01*
X0113662Y0108286D02*
X0116138Y0108286D01*
X0116138Y0109110D02*
X0113662Y0109110D01*
X0113662Y0109934D02*
X0116138Y0109934D01*
X0098538Y0083938D02*
X0098538Y0081462D01*
X0096062Y0081462D01*
X0096062Y0083938D01*
X0098538Y0083938D01*
X0098538Y0082286D02*
X0096062Y0082286D01*
X0096062Y0083110D02*
X0098538Y0083110D01*
X0098538Y0083934D02*
X0096062Y0083934D01*
X0098538Y0077938D02*
X0098538Y0075462D01*
X0096062Y0075462D01*
X0096062Y0077938D01*
X0098538Y0077938D01*
X0098538Y0076286D02*
X0096062Y0076286D01*
X0096062Y0077110D02*
X0098538Y0077110D01*
X0098538Y0077934D02*
X0096062Y0077934D01*
X0092138Y0077262D02*
X0092138Y0079738D01*
X0092138Y0077262D02*
X0089662Y0077262D01*
X0089662Y0079738D01*
X0092138Y0079738D01*
X0092138Y0078086D02*
X0089662Y0078086D01*
X0089662Y0078910D02*
X0092138Y0078910D01*
X0092138Y0079734D02*
X0089662Y0079734D01*
X0085738Y0079738D02*
X0085738Y0077262D01*
X0083262Y0077262D01*
X0083262Y0079738D01*
X0085738Y0079738D01*
X0085738Y0078086D02*
X0083262Y0078086D01*
X0083262Y0078910D02*
X0085738Y0078910D01*
X0085738Y0079734D02*
X0083262Y0079734D01*
X0085738Y0073738D02*
X0085738Y0071262D01*
X0083262Y0071262D01*
X0083262Y0073738D01*
X0085738Y0073738D01*
X0085738Y0072086D02*
X0083262Y0072086D01*
X0083262Y0072910D02*
X0085738Y0072910D01*
X0085738Y0073734D02*
X0083262Y0073734D01*
X0092138Y0073738D02*
X0092138Y0071262D01*
X0089662Y0071262D01*
X0089662Y0073738D01*
X0092138Y0073738D01*
X0092138Y0072086D02*
X0089662Y0072086D01*
X0089662Y0072910D02*
X0092138Y0072910D01*
X0092138Y0073734D02*
X0089662Y0073734D01*
X0080338Y0067538D02*
X0077862Y0067538D01*
X0080338Y0067538D02*
X0080338Y0065062D01*
X0077862Y0065062D01*
X0077862Y0067538D01*
X0077862Y0065886D02*
X0080338Y0065886D01*
X0080338Y0066710D02*
X0077862Y0066710D01*
X0077862Y0067534D02*
X0080338Y0067534D01*
X0074338Y0067538D02*
X0071862Y0067538D01*
X0074338Y0067538D02*
X0074338Y0065062D01*
X0071862Y0065062D01*
X0071862Y0067538D01*
X0071862Y0065886D02*
X0074338Y0065886D01*
X0074338Y0066710D02*
X0071862Y0066710D01*
X0071862Y0067534D02*
X0074338Y0067534D01*
X0067588Y0067038D02*
X0067588Y0064562D01*
X0063612Y0064562D01*
X0063612Y0067038D01*
X0067588Y0067038D01*
X0067588Y0065386D02*
X0063612Y0065386D01*
X0063612Y0066210D02*
X0067588Y0066210D01*
X0067588Y0067034D02*
X0063612Y0067034D01*
X0057162Y0065938D02*
X0057162Y0063462D01*
X0057162Y0065938D02*
X0059638Y0065938D01*
X0059638Y0063462D01*
X0057162Y0063462D01*
X0057162Y0064286D02*
X0059638Y0064286D01*
X0059638Y0065110D02*
X0057162Y0065110D01*
X0057162Y0065934D02*
X0059638Y0065934D01*
X0057162Y0059938D02*
X0057162Y0057462D01*
X0057162Y0059938D02*
X0059638Y0059938D01*
X0059638Y0057462D01*
X0057162Y0057462D01*
X0057162Y0058286D02*
X0059638Y0058286D01*
X0059638Y0059110D02*
X0057162Y0059110D01*
X0057162Y0059934D02*
X0059638Y0059934D01*
X0067588Y0060038D02*
X0067588Y0057562D01*
X0063612Y0057562D01*
X0063612Y0060038D01*
X0067588Y0060038D01*
X0067588Y0058386D02*
X0063612Y0058386D01*
X0063612Y0059210D02*
X0067588Y0059210D01*
X0067588Y0060034D02*
X0063612Y0060034D01*
X0089862Y0057138D02*
X0092338Y0057138D01*
X0092338Y0054662D01*
X0089862Y0054662D01*
X0089862Y0057138D01*
X0089862Y0055486D02*
X0092338Y0055486D01*
X0092338Y0056310D02*
X0089862Y0056310D01*
X0089862Y0057134D02*
X0092338Y0057134D01*
X0095862Y0057138D02*
X0098338Y0057138D01*
X0098338Y0054662D01*
X0095862Y0054662D01*
X0095862Y0057138D01*
X0095862Y0055486D02*
X0098338Y0055486D01*
X0098338Y0056310D02*
X0095862Y0056310D01*
X0095862Y0057134D02*
X0098338Y0057134D01*
X0098538Y0048262D02*
X0096062Y0048262D01*
X0096062Y0050738D01*
X0098538Y0050738D01*
X0098538Y0048262D01*
X0098538Y0049086D02*
X0096062Y0049086D01*
X0096062Y0049910D02*
X0098538Y0049910D01*
X0098538Y0050734D02*
X0096062Y0050734D01*
X0092538Y0048262D02*
X0090062Y0048262D01*
X0090062Y0050738D01*
X0092538Y0050738D01*
X0092538Y0048262D01*
X0092538Y0049086D02*
X0090062Y0049086D01*
X0090062Y0049910D02*
X0092538Y0049910D01*
X0092538Y0050734D02*
X0090062Y0050734D01*
X0090662Y0042262D02*
X0093138Y0042262D01*
X0090662Y0042262D02*
X0090662Y0044738D01*
X0093138Y0044738D01*
X0093138Y0042262D01*
X0093138Y0043086D02*
X0090662Y0043086D01*
X0090662Y0043910D02*
X0093138Y0043910D01*
X0093138Y0044734D02*
X0090662Y0044734D01*
X0091062Y0035862D02*
X0093538Y0035862D01*
X0091062Y0035862D02*
X0091062Y0038338D01*
X0093538Y0038338D01*
X0093538Y0035862D01*
X0093538Y0036686D02*
X0091062Y0036686D01*
X0091062Y0037510D02*
X0093538Y0037510D01*
X0093538Y0038334D02*
X0091062Y0038334D01*
X0097062Y0035862D02*
X0099538Y0035862D01*
X0097062Y0035862D02*
X0097062Y0038338D01*
X0099538Y0038338D01*
X0099538Y0035862D01*
X0099538Y0036686D02*
X0097062Y0036686D01*
X0097062Y0037510D02*
X0099538Y0037510D01*
X0099538Y0038334D02*
X0097062Y0038334D01*
X0096662Y0042262D02*
X0099138Y0042262D01*
X0096662Y0042262D02*
X0096662Y0044738D01*
X0099138Y0044738D01*
X0099138Y0042262D01*
X0099138Y0043086D02*
X0096662Y0043086D01*
X0096662Y0043910D02*
X0099138Y0043910D01*
X0099138Y0044734D02*
X0096662Y0044734D01*
X0160862Y0155862D02*
X0163338Y0155862D01*
X0160862Y0155862D02*
X0160862Y0158338D01*
X0163338Y0158338D01*
X0163338Y0155862D01*
X0163338Y0156686D02*
X0160862Y0156686D01*
X0160862Y0157510D02*
X0163338Y0157510D01*
X0163338Y0158334D02*
X0160862Y0158334D01*
X0160862Y0162862D02*
X0163338Y0162862D01*
X0160862Y0162862D02*
X0160862Y0165338D01*
X0163338Y0165338D01*
X0163338Y0162862D01*
X0163338Y0163686D02*
X0160862Y0163686D01*
X0160862Y0164510D02*
X0163338Y0164510D01*
X0163338Y0165334D02*
X0160862Y0165334D01*
X0166862Y0162862D02*
X0169338Y0162862D01*
X0166862Y0162862D02*
X0166862Y0165338D01*
X0169338Y0165338D01*
X0169338Y0162862D01*
X0169338Y0163686D02*
X0166862Y0163686D01*
X0166862Y0164510D02*
X0169338Y0164510D01*
X0169338Y0165334D02*
X0166862Y0165334D01*
X0166862Y0155862D02*
X0169338Y0155862D01*
X0166862Y0155862D02*
X0166862Y0158338D01*
X0169338Y0158338D01*
X0169338Y0155862D01*
X0169338Y0156686D02*
X0166862Y0156686D01*
X0166862Y0157510D02*
X0169338Y0157510D01*
X0169338Y0158334D02*
X0166862Y0158334D01*
X0142538Y0180938D02*
X0140062Y0180938D01*
X0142538Y0180938D02*
X0142538Y0178462D01*
X0140062Y0178462D01*
X0140062Y0180938D01*
X0140062Y0179286D02*
X0142538Y0179286D01*
X0142538Y0180110D02*
X0140062Y0180110D01*
X0140062Y0180934D02*
X0142538Y0180934D01*
X0136538Y0180938D02*
X0134062Y0180938D01*
X0136538Y0180938D02*
X0136538Y0178462D01*
X0134062Y0178462D01*
X0134062Y0180938D01*
X0134062Y0179286D02*
X0136538Y0179286D01*
X0136538Y0180110D02*
X0134062Y0180110D01*
X0134062Y0180934D02*
X0136538Y0180934D01*
X0125962Y0186362D02*
X0125962Y0188838D01*
X0128438Y0188838D01*
X0128438Y0186362D01*
X0125962Y0186362D01*
X0125962Y0187186D02*
X0128438Y0187186D01*
X0128438Y0188010D02*
X0125962Y0188010D01*
X0125962Y0188834D02*
X0128438Y0188834D01*
X0125962Y0192362D02*
X0125962Y0194838D01*
X0128438Y0194838D01*
X0128438Y0192362D01*
X0125962Y0192362D01*
X0125962Y0193186D02*
X0128438Y0193186D01*
X0128438Y0194010D02*
X0125962Y0194010D01*
X0125962Y0194834D02*
X0128438Y0194834D01*
X0122338Y0194838D02*
X0122338Y0192362D01*
X0119862Y0192362D01*
X0119862Y0194838D01*
X0122338Y0194838D01*
X0122338Y0193186D02*
X0119862Y0193186D01*
X0119862Y0194010D02*
X0122338Y0194010D01*
X0122338Y0194834D02*
X0119862Y0194834D01*
X0116338Y0194838D02*
X0116338Y0192362D01*
X0113862Y0192362D01*
X0113862Y0194838D01*
X0116338Y0194838D01*
X0116338Y0193186D02*
X0113862Y0193186D01*
X0113862Y0194010D02*
X0116338Y0194010D01*
X0116338Y0194834D02*
X0113862Y0194834D01*
X0116338Y0188838D02*
X0116338Y0186362D01*
X0113862Y0186362D01*
X0113862Y0188838D01*
X0116338Y0188838D01*
X0116338Y0187186D02*
X0113862Y0187186D01*
X0113862Y0188010D02*
X0116338Y0188010D01*
X0116338Y0188834D02*
X0113862Y0188834D01*
X0122338Y0188838D02*
X0122338Y0186362D01*
X0119862Y0186362D01*
X0119862Y0188838D01*
X0122338Y0188838D01*
X0122338Y0187186D02*
X0119862Y0187186D01*
X0119862Y0188010D02*
X0122338Y0188010D01*
X0122338Y0188834D02*
X0119862Y0188834D01*
X0151338Y0188738D02*
X0151338Y0186262D01*
X0148862Y0186262D01*
X0148862Y0188738D01*
X0151338Y0188738D01*
X0151338Y0187086D02*
X0148862Y0187086D01*
X0148862Y0187910D02*
X0151338Y0187910D01*
X0151338Y0188734D02*
X0148862Y0188734D01*
X0151338Y0192262D02*
X0151338Y0194738D01*
X0151338Y0192262D02*
X0148862Y0192262D01*
X0148862Y0194738D01*
X0151338Y0194738D01*
X0151338Y0193086D02*
X0148862Y0193086D01*
X0148862Y0193910D02*
X0151338Y0193910D01*
X0151338Y0194734D02*
X0148862Y0194734D01*
X0155062Y0194738D02*
X0155062Y0192262D01*
X0155062Y0194738D02*
X0157538Y0194738D01*
X0157538Y0192262D01*
X0155062Y0192262D01*
X0155062Y0193086D02*
X0157538Y0193086D01*
X0157538Y0193910D02*
X0155062Y0193910D01*
X0155062Y0194734D02*
X0157538Y0194734D01*
X0155062Y0188738D02*
X0155062Y0186262D01*
X0155062Y0188738D02*
X0157538Y0188738D01*
X0157538Y0186262D01*
X0155062Y0186262D01*
X0155062Y0187086D02*
X0157538Y0187086D01*
X0157538Y0187910D02*
X0155062Y0187910D01*
X0155062Y0188734D02*
X0157538Y0188734D01*
D12*
X0046000Y0074974D03*
X0046000Y0059226D03*
D13*
X0095700Y0152244D03*
X0095700Y0182756D03*
D14*
X0079322Y0154421D03*
X0077354Y0154421D03*
X0075385Y0154421D03*
X0073417Y0154421D03*
X0071448Y0154421D03*
X0069480Y0154421D03*
X0067511Y0154421D03*
X0065543Y0154421D03*
X0063574Y0154421D03*
X0061606Y0154421D03*
X0059637Y0154421D03*
X0057669Y0154421D03*
X0055700Y0154421D03*
X0053731Y0154421D03*
X0051763Y0154421D03*
X0049794Y0154421D03*
X0047826Y0154421D03*
X0045857Y0154421D03*
X0043889Y0154421D03*
X0041920Y0154421D03*
X0039952Y0154421D03*
X0037983Y0154421D03*
X0036015Y0154421D03*
X0034046Y0154421D03*
X0032078Y0154421D03*
X0032078Y0094579D03*
X0034046Y0094579D03*
X0036015Y0094579D03*
X0037983Y0094579D03*
X0039952Y0094579D03*
X0041920Y0094579D03*
X0043889Y0094579D03*
X0045857Y0094579D03*
X0047826Y0094579D03*
X0049794Y0094579D03*
X0051763Y0094579D03*
X0053731Y0094579D03*
X0055700Y0094579D03*
X0057669Y0094579D03*
X0059637Y0094579D03*
X0061606Y0094579D03*
X0063574Y0094579D03*
X0065543Y0094579D03*
X0067511Y0094579D03*
X0069480Y0094579D03*
X0071448Y0094579D03*
X0073417Y0094579D03*
X0075385Y0094579D03*
X0077354Y0094579D03*
X0079322Y0094579D03*
D15*
X0085621Y0100878D03*
X0085621Y0102846D03*
X0085621Y0104815D03*
X0085621Y0106783D03*
X0085621Y0108752D03*
X0085621Y0110720D03*
X0085621Y0112689D03*
X0085621Y0114657D03*
X0085621Y0116626D03*
X0085621Y0118594D03*
X0085621Y0120563D03*
X0085621Y0122531D03*
X0085621Y0124500D03*
X0085621Y0126469D03*
X0085621Y0128437D03*
X0085621Y0130406D03*
X0085621Y0132374D03*
X0085621Y0134343D03*
X0085621Y0136311D03*
X0085621Y0138280D03*
X0085621Y0140248D03*
X0085621Y0142217D03*
X0085621Y0144185D03*
X0085621Y0146154D03*
X0085621Y0148122D03*
X0025779Y0148122D03*
X0025779Y0146154D03*
X0025779Y0144185D03*
X0025779Y0142217D03*
X0025779Y0140248D03*
X0025779Y0138280D03*
X0025779Y0136311D03*
X0025779Y0134343D03*
X0025779Y0132374D03*
X0025779Y0130406D03*
X0025779Y0128437D03*
X0025779Y0126469D03*
X0025779Y0124500D03*
X0025779Y0122531D03*
X0025779Y0120563D03*
X0025779Y0118594D03*
X0025779Y0116626D03*
X0025779Y0114657D03*
X0025779Y0112689D03*
X0025779Y0110720D03*
X0025779Y0108752D03*
X0025779Y0106783D03*
X0025779Y0104815D03*
X0025779Y0102846D03*
X0025779Y0100878D03*
D16*
X0065100Y0046200D03*
X0074100Y0046200D03*
X0083100Y0046200D03*
D17*
X0074100Y0021200D03*
D18*
X0042399Y0049400D03*
X0039250Y0049400D03*
X0036100Y0049400D03*
X0032950Y0049400D03*
X0029801Y0049400D03*
D19*
X0018383Y0026589D03*
X0018383Y0048243D03*
X0053817Y0048243D03*
X0053817Y0026589D03*
D20*
X0127073Y0138568D03*
X0129042Y0138568D03*
X0131010Y0138568D03*
X0132979Y0138568D03*
X0134947Y0138568D03*
X0136916Y0138568D03*
X0138884Y0138568D03*
X0140853Y0138568D03*
X0142821Y0138568D03*
X0144790Y0138568D03*
X0146758Y0138568D03*
X0148727Y0138568D03*
X0148727Y0172032D03*
X0146758Y0172032D03*
X0144790Y0172032D03*
X0142821Y0172032D03*
X0140853Y0172032D03*
X0138884Y0172032D03*
X0136916Y0172032D03*
X0134947Y0172032D03*
X0132979Y0172032D03*
X0131010Y0172032D03*
X0129042Y0172032D03*
X0127073Y0172032D03*
D21*
X0121168Y0166127D03*
X0121168Y0164158D03*
X0121168Y0162190D03*
X0121168Y0160221D03*
X0121168Y0158253D03*
X0121168Y0156284D03*
X0121168Y0154316D03*
X0121168Y0152347D03*
X0121168Y0150379D03*
X0121168Y0148410D03*
X0121168Y0146442D03*
X0121168Y0144473D03*
X0154632Y0144473D03*
X0154632Y0146442D03*
X0154632Y0148410D03*
X0154632Y0150379D03*
X0154632Y0152347D03*
X0154632Y0154316D03*
X0154632Y0156284D03*
X0154632Y0158253D03*
X0154632Y0160221D03*
X0154632Y0162190D03*
X0154632Y0164158D03*
X0154632Y0166127D03*
D22*
X0144825Y0186925D02*
X0142175Y0186925D01*
X0144825Y0186925D02*
X0144825Y0185275D01*
X0142175Y0185275D01*
X0142175Y0186925D01*
X0142175Y0186924D02*
X0144825Y0186924D01*
X0144825Y0194925D02*
X0142175Y0194925D01*
X0144825Y0194925D02*
X0144825Y0193275D01*
X0142175Y0193275D01*
X0142175Y0194925D01*
X0142175Y0194924D02*
X0144825Y0194924D01*
X0134825Y0194925D02*
X0132175Y0194925D01*
X0134825Y0194925D02*
X0134825Y0193275D01*
X0132175Y0193275D01*
X0132175Y0194925D01*
X0132175Y0194924D02*
X0134825Y0194924D01*
X0134825Y0186925D02*
X0132175Y0186925D01*
X0134825Y0186925D02*
X0134825Y0185275D01*
X0132175Y0185275D01*
X0132175Y0186925D01*
X0132175Y0186924D02*
X0134825Y0186924D01*
X0063625Y0176725D02*
X0060975Y0176725D01*
X0063625Y0176725D02*
X0063625Y0175075D01*
X0060975Y0175075D01*
X0060975Y0176725D01*
X0060975Y0176724D02*
X0063625Y0176724D01*
X0063625Y0168725D02*
X0060975Y0168725D01*
X0063625Y0168725D02*
X0063625Y0167075D01*
X0060975Y0167075D01*
X0060975Y0168725D01*
X0060975Y0168724D02*
X0063625Y0168724D01*
X0053625Y0168725D02*
X0050975Y0168725D01*
X0053625Y0168725D02*
X0053625Y0167075D01*
X0050975Y0167075D01*
X0050975Y0168725D01*
X0050975Y0168724D02*
X0053625Y0168724D01*
X0053625Y0176725D02*
X0050975Y0176725D01*
X0053625Y0176725D02*
X0053625Y0175075D01*
X0050975Y0175075D01*
X0050975Y0176725D01*
X0050975Y0176724D02*
X0053625Y0176724D01*
M02*
