G75*
%MOIN*%
%OFA0B0*%
%FSLAX25Y25*%
%IPPOS*%
%LPD*%
%AMOC8*
5,1,8,0,0,1.08239X$1,22.5*
%
%ADD10C,0.05500*%
%ADD11C,0.05200*%
%ADD12C,0.09750*%
%ADD13C,0.02400*%
%ADD14C,0.03600*%
%ADD15C,0.00600*%
%ADD16C,0.03200*%
%ADD17C,0.02600*%
%ADD18C,0.04600*%
D10*
X0016100Y0060500D03*
X0016100Y0070500D03*
X0016100Y0080500D03*
X0026100Y0080500D03*
X0026100Y0070500D03*
X0026100Y0060500D03*
X0022900Y0159900D03*
X0022900Y0169900D03*
X0022900Y0179900D03*
D11*
X0120000Y0083900D03*
X0130000Y0083900D03*
X0140000Y0083900D03*
X0150000Y0083900D03*
X0145000Y0093900D03*
X0135000Y0093900D03*
X0125000Y0093900D03*
X0155000Y0093900D03*
X0153500Y0039400D03*
X0163500Y0039400D03*
X0121500Y0039400D03*
X0111500Y0039400D03*
D12*
X0106000Y0070400D03*
X0169000Y0070400D03*
D13*
X0129700Y0118900D03*
X0121300Y0118900D03*
X0114700Y0123100D03*
X0108700Y0120100D03*
X0121300Y0141700D03*
X0131500Y0133900D03*
X0141100Y0123700D03*
X0159700Y0135100D03*
X0159100Y0145900D03*
X0147700Y0150400D03*
X0133900Y0161500D03*
X0135700Y0165100D03*
X0131500Y0158500D03*
X0129100Y0156100D03*
X0121300Y0169900D03*
X0120100Y0176500D03*
X0129700Y0183100D03*
X0151900Y0171100D03*
X0156100Y0177700D03*
X0168100Y0169300D03*
X0160900Y0193300D03*
X0106300Y0192700D03*
X0091300Y0182500D03*
X0075100Y0175900D03*
X0076300Y0161500D03*
X0087100Y0158500D03*
X0091900Y0147100D03*
X0100900Y0147100D03*
X0079900Y0147700D03*
X0079600Y0144500D03*
X0079900Y0140500D03*
X0079300Y0137500D03*
X0079300Y0133900D03*
X0065500Y0123700D03*
X0062500Y0118900D03*
X0057700Y0118900D03*
X0048700Y0118900D03*
X0045100Y0118300D03*
X0041500Y0118900D03*
X0041500Y0123700D03*
X0033600Y0121600D03*
X0019300Y0121300D03*
X0020500Y0130300D03*
X0020500Y0143500D03*
X0037300Y0164500D03*
X0040300Y0166300D03*
X0069100Y0115300D03*
X0072700Y0100900D03*
X0069700Y0099700D03*
X0057100Y0101500D03*
X0054200Y0100200D03*
X0055200Y0085500D03*
X0060700Y0082900D03*
X0071800Y0085500D03*
X0069700Y0069100D03*
X0091300Y0091100D03*
X0089000Y0093300D03*
X0088900Y0096700D03*
X0096700Y0088300D03*
X0037900Y0088900D03*
X0026500Y0093100D03*
X0022300Y0098500D03*
X0011500Y0099700D03*
X0036700Y0100300D03*
D14*
X0084100Y0054100D03*
X0094900Y0069100D03*
X0036700Y0026500D03*
X0166900Y0123700D03*
D15*
X0096700Y0017491D02*
X0017162Y0017491D01*
X0017760Y0016893D02*
X0096700Y0016893D01*
X0096700Y0016294D02*
X0018359Y0016294D01*
X0018453Y0016200D02*
X0010200Y0024453D01*
X0010200Y0105100D01*
X0082900Y0105100D01*
X0082900Y0156700D01*
X0036700Y0156700D01*
X0036700Y0162400D01*
X0038170Y0162400D01*
X0039400Y0163630D01*
X0039400Y0165370D01*
X0038170Y0166600D01*
X0036700Y0166600D01*
X0036700Y0191000D01*
X0096700Y0191000D01*
X0096700Y0090400D01*
X0095830Y0090400D01*
X0094600Y0089170D01*
X0094600Y0087430D01*
X0095830Y0086200D01*
X0096700Y0086200D01*
X0096700Y0016200D01*
X0018453Y0016200D01*
X0016563Y0018090D02*
X0096700Y0018090D01*
X0096700Y0018688D02*
X0015965Y0018688D01*
X0015366Y0019287D02*
X0096700Y0019287D01*
X0096700Y0019885D02*
X0014768Y0019885D01*
X0014169Y0020484D02*
X0096700Y0020484D01*
X0096700Y0021082D02*
X0013571Y0021082D01*
X0012972Y0021681D02*
X0096700Y0021681D01*
X0096700Y0022279D02*
X0012374Y0022279D01*
X0011775Y0022878D02*
X0096700Y0022878D01*
X0096700Y0023476D02*
X0011176Y0023476D01*
X0010578Y0024075D02*
X0096700Y0024075D01*
X0096700Y0024673D02*
X0010200Y0024673D01*
X0010200Y0025272D02*
X0096700Y0025272D01*
X0096700Y0025870D02*
X0010200Y0025870D01*
X0010200Y0026469D02*
X0096700Y0026469D01*
X0096700Y0027067D02*
X0010200Y0027067D01*
X0010200Y0027666D02*
X0096700Y0027666D01*
X0096700Y0028264D02*
X0010200Y0028264D01*
X0010200Y0028863D02*
X0096700Y0028863D01*
X0096700Y0029461D02*
X0010200Y0029461D01*
X0010200Y0030060D02*
X0096700Y0030060D01*
X0096700Y0030658D02*
X0010200Y0030658D01*
X0010200Y0031257D02*
X0096700Y0031257D01*
X0096700Y0031855D02*
X0010200Y0031855D01*
X0010200Y0032454D02*
X0096700Y0032454D01*
X0096700Y0033052D02*
X0010200Y0033052D01*
X0010200Y0033651D02*
X0096700Y0033651D01*
X0096700Y0034249D02*
X0045816Y0034249D01*
X0045455Y0034100D02*
X0047036Y0034755D01*
X0048245Y0035964D01*
X0048900Y0037545D01*
X0048900Y0039255D01*
X0048245Y0040836D01*
X0047036Y0042045D01*
X0045455Y0042700D01*
X0043745Y0042700D01*
X0042164Y0042045D01*
X0040955Y0040836D01*
X0040300Y0039255D01*
X0040300Y0037545D01*
X0040955Y0035964D01*
X0042164Y0034755D01*
X0043745Y0034100D01*
X0045455Y0034100D01*
X0047129Y0034848D02*
X0096700Y0034848D01*
X0096700Y0035446D02*
X0047728Y0035446D01*
X0048279Y0036045D02*
X0096700Y0036045D01*
X0096700Y0036643D02*
X0048527Y0036643D01*
X0048775Y0037242D02*
X0096700Y0037242D01*
X0096700Y0037840D02*
X0048900Y0037840D01*
X0048900Y0038439D02*
X0096700Y0038439D01*
X0096700Y0039037D02*
X0048900Y0039037D01*
X0048742Y0039636D02*
X0096700Y0039636D01*
X0096700Y0040234D02*
X0048494Y0040234D01*
X0048246Y0040833D02*
X0096700Y0040833D01*
X0096700Y0041432D02*
X0047650Y0041432D01*
X0047051Y0042030D02*
X0096700Y0042030D01*
X0096700Y0042629D02*
X0045628Y0042629D01*
X0043572Y0042629D02*
X0028628Y0042629D01*
X0028455Y0042700D02*
X0026745Y0042700D01*
X0025164Y0042045D01*
X0023955Y0040836D01*
X0023300Y0039255D01*
X0023300Y0037545D01*
X0023955Y0035964D01*
X0025164Y0034755D01*
X0026745Y0034100D01*
X0028455Y0034100D01*
X0030036Y0034755D01*
X0031245Y0035964D01*
X0031900Y0037545D01*
X0031900Y0039255D01*
X0031245Y0040836D01*
X0030036Y0042045D01*
X0028455Y0042700D01*
X0030051Y0042030D02*
X0042149Y0042030D01*
X0041550Y0041432D02*
X0030650Y0041432D01*
X0031246Y0040833D02*
X0040954Y0040833D01*
X0040706Y0040234D02*
X0031494Y0040234D01*
X0031742Y0039636D02*
X0040458Y0039636D01*
X0040300Y0039037D02*
X0031900Y0039037D01*
X0031900Y0038439D02*
X0040300Y0038439D01*
X0040300Y0037840D02*
X0031900Y0037840D01*
X0031775Y0037242D02*
X0040425Y0037242D01*
X0040673Y0036643D02*
X0031527Y0036643D01*
X0031279Y0036045D02*
X0040921Y0036045D01*
X0041472Y0035446D02*
X0030728Y0035446D01*
X0030129Y0034848D02*
X0042071Y0034848D01*
X0043384Y0034249D02*
X0028816Y0034249D01*
X0026384Y0034249D02*
X0010200Y0034249D01*
X0010200Y0034848D02*
X0025071Y0034848D01*
X0024472Y0035446D02*
X0010200Y0035446D01*
X0010200Y0036045D02*
X0023921Y0036045D01*
X0023673Y0036643D02*
X0010200Y0036643D01*
X0010200Y0037242D02*
X0023425Y0037242D01*
X0023300Y0037840D02*
X0010200Y0037840D01*
X0010200Y0038439D02*
X0023300Y0038439D01*
X0023300Y0039037D02*
X0010200Y0039037D01*
X0010200Y0039636D02*
X0023458Y0039636D01*
X0023706Y0040234D02*
X0010200Y0040234D01*
X0010200Y0040833D02*
X0023954Y0040833D01*
X0024550Y0041432D02*
X0010200Y0041432D01*
X0010200Y0042030D02*
X0025149Y0042030D01*
X0026572Y0042629D02*
X0010200Y0042629D01*
X0010200Y0043227D02*
X0096700Y0043227D01*
X0096700Y0043826D02*
X0010200Y0043826D01*
X0010200Y0044424D02*
X0096700Y0044424D01*
X0096700Y0045023D02*
X0010200Y0045023D01*
X0010200Y0045621D02*
X0096700Y0045621D01*
X0096700Y0046220D02*
X0010200Y0046220D01*
X0010200Y0046818D02*
X0096700Y0046818D01*
X0096700Y0047417D02*
X0010200Y0047417D01*
X0010200Y0048015D02*
X0096700Y0048015D01*
X0096700Y0048614D02*
X0010200Y0048614D01*
X0010200Y0049212D02*
X0096700Y0049212D01*
X0096700Y0049811D02*
X0010200Y0049811D01*
X0010200Y0050409D02*
X0096700Y0050409D01*
X0096700Y0051008D02*
X0010200Y0051008D01*
X0010200Y0051606D02*
X0096700Y0051606D01*
X0096700Y0052205D02*
X0010200Y0052205D01*
X0010200Y0052803D02*
X0096700Y0052803D01*
X0096700Y0053402D02*
X0010200Y0053402D01*
X0010200Y0054000D02*
X0096700Y0054000D01*
X0096700Y0054599D02*
X0010200Y0054599D01*
X0010200Y0055197D02*
X0096700Y0055197D01*
X0096700Y0055796D02*
X0010200Y0055796D01*
X0010200Y0056394D02*
X0096700Y0056394D01*
X0096700Y0056993D02*
X0028141Y0056993D01*
X0028018Y0056911D02*
X0028682Y0057354D01*
X0029246Y0057918D01*
X0029689Y0058582D01*
X0029994Y0059319D01*
X0030150Y0060101D01*
X0030150Y0060200D01*
X0026400Y0060200D01*
X0026400Y0060800D01*
X0030150Y0060800D01*
X0030150Y0060899D01*
X0029994Y0061681D01*
X0029689Y0062418D01*
X0029246Y0063082D01*
X0028682Y0063646D01*
X0028018Y0064089D01*
X0027281Y0064394D01*
X0026499Y0064550D01*
X0026400Y0064550D01*
X0026400Y0060800D01*
X0025800Y0060800D01*
X0025800Y0064550D01*
X0025701Y0064550D01*
X0024919Y0064394D01*
X0024182Y0064089D01*
X0023518Y0063646D01*
X0022954Y0063082D01*
X0022511Y0062418D01*
X0022206Y0061681D01*
X0022050Y0060899D01*
X0022050Y0060800D01*
X0025800Y0060800D01*
X0025800Y0060200D01*
X0026400Y0060200D01*
X0026400Y0056450D01*
X0026499Y0056450D01*
X0027281Y0056606D01*
X0028018Y0056911D01*
X0028919Y0057591D02*
X0096700Y0057591D01*
X0096700Y0058190D02*
X0029427Y0058190D01*
X0029775Y0058788D02*
X0096700Y0058788D01*
X0096700Y0059387D02*
X0030008Y0059387D01*
X0030127Y0059985D02*
X0096700Y0059985D01*
X0096700Y0060584D02*
X0026400Y0060584D01*
X0026400Y0061182D02*
X0025800Y0061182D01*
X0025800Y0060584D02*
X0016400Y0060584D01*
X0016400Y0060800D02*
X0020150Y0060800D01*
X0020150Y0060899D01*
X0019994Y0061681D01*
X0019689Y0062418D01*
X0019246Y0063082D01*
X0018682Y0063646D01*
X0018018Y0064089D01*
X0017281Y0064394D01*
X0016499Y0064550D01*
X0016400Y0064550D01*
X0016400Y0060800D01*
X0016400Y0060200D01*
X0020150Y0060200D01*
X0020150Y0060101D01*
X0019994Y0059319D01*
X0019689Y0058582D01*
X0019246Y0057918D01*
X0018682Y0057354D01*
X0018018Y0056911D01*
X0017281Y0056606D01*
X0016499Y0056450D01*
X0016400Y0056450D01*
X0016400Y0060200D01*
X0015800Y0060200D01*
X0015800Y0056450D01*
X0015701Y0056450D01*
X0014919Y0056606D01*
X0014182Y0056911D01*
X0013518Y0057354D01*
X0012954Y0057918D01*
X0012511Y0058582D01*
X0012206Y0059319D01*
X0012050Y0060101D01*
X0012050Y0060200D01*
X0015800Y0060200D01*
X0015800Y0060800D01*
X0015800Y0064550D01*
X0015701Y0064550D01*
X0014919Y0064394D01*
X0014182Y0064089D01*
X0013518Y0063646D01*
X0012954Y0063082D01*
X0012511Y0062418D01*
X0012206Y0061681D01*
X0012050Y0060899D01*
X0012050Y0060800D01*
X0015800Y0060800D01*
X0016400Y0060800D01*
X0016400Y0061182D02*
X0015800Y0061182D01*
X0015800Y0060584D02*
X0010200Y0060584D01*
X0010200Y0061182D02*
X0012106Y0061182D01*
X0012247Y0061781D02*
X0010200Y0061781D01*
X0010200Y0062379D02*
X0012495Y0062379D01*
X0012885Y0062978D02*
X0010200Y0062978D01*
X0010200Y0063576D02*
X0013449Y0063576D01*
X0014389Y0064175D02*
X0010200Y0064175D01*
X0010200Y0064773D02*
X0096700Y0064773D01*
X0096700Y0064175D02*
X0027811Y0064175D01*
X0028751Y0063576D02*
X0096700Y0063576D01*
X0096700Y0062978D02*
X0029315Y0062978D01*
X0029705Y0062379D02*
X0096700Y0062379D01*
X0096700Y0061781D02*
X0029953Y0061781D01*
X0030094Y0061182D02*
X0096700Y0061182D01*
X0096700Y0065372D02*
X0010200Y0065372D01*
X0010200Y0065970D02*
X0096700Y0065970D01*
X0096700Y0066569D02*
X0010200Y0066569D01*
X0010200Y0067168D02*
X0014607Y0067168D01*
X0014032Y0067406D02*
X0015374Y0066850D01*
X0016826Y0066850D01*
X0018168Y0067406D01*
X0019194Y0068432D01*
X0019750Y0069774D01*
X0019750Y0071226D01*
X0019194Y0072568D01*
X0018168Y0073594D01*
X0016826Y0074150D01*
X0015374Y0074150D01*
X0014032Y0073594D01*
X0013006Y0072568D01*
X0012450Y0071226D01*
X0012450Y0069774D01*
X0013006Y0068432D01*
X0014032Y0067406D01*
X0013672Y0067766D02*
X0010200Y0067766D01*
X0010200Y0068365D02*
X0013074Y0068365D01*
X0012786Y0068963D02*
X0010200Y0068963D01*
X0010200Y0069562D02*
X0012538Y0069562D01*
X0012450Y0070160D02*
X0010200Y0070160D01*
X0010200Y0070759D02*
X0012450Y0070759D01*
X0012504Y0071357D02*
X0010200Y0071357D01*
X0010200Y0071956D02*
X0012752Y0071956D01*
X0013000Y0072554D02*
X0010200Y0072554D01*
X0010200Y0073153D02*
X0013591Y0073153D01*
X0014411Y0073751D02*
X0010200Y0073751D01*
X0010200Y0074350D02*
X0073996Y0074350D01*
X0074187Y0073887D02*
X0075087Y0072987D01*
X0076263Y0072500D01*
X0077537Y0072500D01*
X0078713Y0072987D01*
X0079613Y0073887D01*
X0080100Y0075063D01*
X0080100Y0076337D01*
X0079613Y0077513D01*
X0078713Y0078413D01*
X0077537Y0078900D01*
X0076263Y0078900D01*
X0075087Y0078413D01*
X0074187Y0077513D01*
X0073700Y0076337D01*
X0073700Y0075063D01*
X0074187Y0073887D01*
X0074323Y0073751D02*
X0027789Y0073751D01*
X0028168Y0073594D02*
X0026826Y0074150D01*
X0025374Y0074150D01*
X0024032Y0073594D01*
X0023006Y0072568D01*
X0022450Y0071226D01*
X0022450Y0069774D01*
X0023006Y0068432D01*
X0024032Y0067406D01*
X0025374Y0066850D01*
X0026826Y0066850D01*
X0028168Y0067406D01*
X0029194Y0068432D01*
X0029750Y0069774D01*
X0029750Y0071226D01*
X0029194Y0072568D01*
X0028168Y0073594D01*
X0028609Y0073153D02*
X0074922Y0073153D01*
X0076133Y0072554D02*
X0029200Y0072554D01*
X0029448Y0071956D02*
X0096700Y0071956D01*
X0096700Y0072554D02*
X0077667Y0072554D01*
X0078878Y0073153D02*
X0096700Y0073153D01*
X0096700Y0073751D02*
X0079477Y0073751D01*
X0079804Y0074350D02*
X0096700Y0074350D01*
X0096700Y0074948D02*
X0080052Y0074948D01*
X0080100Y0075547D02*
X0096700Y0075547D01*
X0096700Y0076145D02*
X0080100Y0076145D01*
X0079931Y0076744D02*
X0096700Y0076744D01*
X0096700Y0077342D02*
X0079683Y0077342D01*
X0079185Y0077941D02*
X0096700Y0077941D01*
X0096700Y0078539D02*
X0078407Y0078539D01*
X0082581Y0081484D02*
X0082200Y0082403D01*
X0082200Y0083397D01*
X0082581Y0084316D01*
X0083284Y0085019D01*
X0084203Y0085400D01*
X0085197Y0085400D01*
X0086116Y0085019D01*
X0086819Y0084316D01*
X0087200Y0083397D01*
X0087200Y0082403D01*
X0086819Y0081484D01*
X0086116Y0080781D01*
X0085197Y0080400D01*
X0084203Y0080400D01*
X0083284Y0080781D01*
X0082581Y0081484D01*
X0082561Y0081532D02*
X0062302Y0081532D01*
X0062800Y0082030D02*
X0061570Y0080800D01*
X0059830Y0080800D01*
X0058600Y0082030D01*
X0058600Y0083770D01*
X0059830Y0085000D01*
X0061570Y0085000D01*
X0062800Y0083770D01*
X0062800Y0082030D01*
X0062800Y0082130D02*
X0082313Y0082130D01*
X0082200Y0082729D02*
X0062800Y0082729D01*
X0062800Y0083327D02*
X0082200Y0083327D01*
X0082419Y0083926D02*
X0062644Y0083926D01*
X0062045Y0084524D02*
X0082789Y0084524D01*
X0083534Y0085123D02*
X0010200Y0085123D01*
X0010200Y0085721D02*
X0096700Y0085721D01*
X0096700Y0085123D02*
X0085866Y0085123D01*
X0086611Y0084524D02*
X0096700Y0084524D01*
X0096700Y0083926D02*
X0086981Y0083926D01*
X0087200Y0083327D02*
X0096700Y0083327D01*
X0096700Y0082729D02*
X0087200Y0082729D01*
X0087087Y0082130D02*
X0096700Y0082130D01*
X0096700Y0081532D02*
X0086839Y0081532D01*
X0086269Y0080933D02*
X0096700Y0080933D01*
X0096700Y0080335D02*
X0029750Y0080335D01*
X0029750Y0079774D02*
X0029194Y0078432D01*
X0028168Y0077406D01*
X0026826Y0076850D01*
X0025374Y0076850D01*
X0024032Y0077406D01*
X0023006Y0078432D01*
X0022450Y0079774D01*
X0022450Y0081226D01*
X0023006Y0082568D01*
X0024032Y0083594D01*
X0025374Y0084150D01*
X0026826Y0084150D01*
X0028168Y0083594D01*
X0029194Y0082568D01*
X0029750Y0081226D01*
X0029750Y0079774D01*
X0029734Y0079736D02*
X0096700Y0079736D01*
X0096700Y0079138D02*
X0029486Y0079138D01*
X0029239Y0078539D02*
X0075393Y0078539D01*
X0074615Y0077941D02*
X0028703Y0077941D01*
X0028014Y0077342D02*
X0074117Y0077342D01*
X0073869Y0076744D02*
X0010200Y0076744D01*
X0010200Y0077342D02*
X0014186Y0077342D01*
X0014032Y0077406D02*
X0015374Y0076850D01*
X0016826Y0076850D01*
X0018168Y0077406D01*
X0019194Y0078432D01*
X0019750Y0079774D01*
X0019750Y0081226D01*
X0019194Y0082568D01*
X0018168Y0083594D01*
X0016826Y0084150D01*
X0015374Y0084150D01*
X0014032Y0083594D01*
X0013006Y0082568D01*
X0012450Y0081226D01*
X0012450Y0079774D01*
X0013006Y0078432D01*
X0014032Y0077406D01*
X0013497Y0077941D02*
X0010200Y0077941D01*
X0010200Y0078539D02*
X0012961Y0078539D01*
X0012714Y0079138D02*
X0010200Y0079138D01*
X0010200Y0079736D02*
X0012466Y0079736D01*
X0012450Y0080335D02*
X0010200Y0080335D01*
X0010200Y0080933D02*
X0012450Y0080933D01*
X0012577Y0081532D02*
X0010200Y0081532D01*
X0010200Y0082130D02*
X0012825Y0082130D01*
X0013167Y0082729D02*
X0010200Y0082729D01*
X0010200Y0083327D02*
X0013765Y0083327D01*
X0014833Y0083926D02*
X0010200Y0083926D01*
X0010200Y0084524D02*
X0059354Y0084524D01*
X0058756Y0083926D02*
X0027367Y0083926D01*
X0028435Y0083327D02*
X0058600Y0083327D01*
X0058600Y0082729D02*
X0029033Y0082729D01*
X0029375Y0082130D02*
X0058600Y0082130D01*
X0059098Y0081532D02*
X0029623Y0081532D01*
X0029750Y0080933D02*
X0059697Y0080933D01*
X0061703Y0080933D02*
X0083131Y0080933D01*
X0090430Y0089000D02*
X0092170Y0089000D01*
X0093400Y0090230D01*
X0093400Y0091970D01*
X0092170Y0093200D01*
X0090430Y0093200D01*
X0089200Y0091970D01*
X0089200Y0090230D01*
X0090430Y0089000D01*
X0090118Y0089312D02*
X0040000Y0089312D01*
X0040000Y0089770D02*
X0038770Y0091000D01*
X0037030Y0091000D01*
X0035800Y0089770D01*
X0035800Y0088030D01*
X0037030Y0086800D01*
X0038770Y0086800D01*
X0040000Y0088030D01*
X0040000Y0089770D01*
X0039859Y0089911D02*
X0089519Y0089911D01*
X0089200Y0090509D02*
X0039260Y0090509D01*
X0040000Y0088714D02*
X0094600Y0088714D01*
X0094600Y0088115D02*
X0040000Y0088115D01*
X0039487Y0087517D02*
X0094600Y0087517D01*
X0095112Y0086918D02*
X0038888Y0086918D01*
X0036912Y0086918D02*
X0010200Y0086918D01*
X0010200Y0086320D02*
X0095710Y0086320D01*
X0094743Y0089312D02*
X0092482Y0089312D01*
X0093081Y0089911D02*
X0095341Y0089911D01*
X0096700Y0090509D02*
X0093400Y0090509D01*
X0093400Y0091108D02*
X0096700Y0091108D01*
X0096700Y0091706D02*
X0093400Y0091706D01*
X0093065Y0092305D02*
X0096700Y0092305D01*
X0096700Y0092903D02*
X0092466Y0092903D01*
X0090134Y0092903D02*
X0028600Y0092903D01*
X0028600Y0092305D02*
X0089535Y0092305D01*
X0089200Y0091706D02*
X0028076Y0091706D01*
X0028600Y0092230D02*
X0027370Y0091000D01*
X0025630Y0091000D01*
X0024400Y0092230D01*
X0024400Y0093970D01*
X0025630Y0095200D01*
X0027370Y0095200D01*
X0028600Y0093970D01*
X0028600Y0092230D01*
X0028600Y0093502D02*
X0096700Y0093502D01*
X0096700Y0094101D02*
X0028469Y0094101D01*
X0027871Y0094699D02*
X0087931Y0094699D01*
X0088030Y0094600D02*
X0089770Y0094600D01*
X0091000Y0095830D01*
X0091000Y0097570D01*
X0089770Y0098800D01*
X0088030Y0098800D01*
X0086800Y0097570D01*
X0086800Y0095830D01*
X0088030Y0094600D01*
X0087333Y0095298D02*
X0010200Y0095298D01*
X0010200Y0095896D02*
X0086800Y0095896D01*
X0086800Y0096495D02*
X0010200Y0096495D01*
X0010200Y0097093D02*
X0086800Y0097093D01*
X0086922Y0097692D02*
X0070661Y0097692D01*
X0070570Y0097600D02*
X0071800Y0098830D01*
X0071800Y0098830D01*
X0071830Y0098800D01*
X0073570Y0098800D01*
X0074800Y0100030D01*
X0074800Y0101770D01*
X0073570Y0103000D01*
X0071830Y0103000D01*
X0070600Y0101770D01*
X0070600Y0101770D01*
X0070570Y0101800D01*
X0068830Y0101800D01*
X0067600Y0100570D01*
X0067600Y0098830D01*
X0068830Y0097600D01*
X0070570Y0097600D01*
X0071260Y0098290D02*
X0087520Y0098290D01*
X0090280Y0098290D02*
X0096700Y0098290D01*
X0096700Y0097692D02*
X0090878Y0097692D01*
X0091000Y0097093D02*
X0096700Y0097093D01*
X0096700Y0096495D02*
X0091000Y0096495D01*
X0091000Y0095896D02*
X0096700Y0095896D01*
X0096700Y0095298D02*
X0090467Y0095298D01*
X0089869Y0094699D02*
X0096700Y0094699D01*
X0096700Y0098889D02*
X0073658Y0098889D01*
X0074257Y0099487D02*
X0096700Y0099487D01*
X0096700Y0100086D02*
X0074800Y0100086D01*
X0074800Y0100684D02*
X0096700Y0100684D01*
X0096700Y0101283D02*
X0074800Y0101283D01*
X0074689Y0101881D02*
X0096700Y0101881D01*
X0096700Y0102480D02*
X0074090Y0102480D01*
X0071310Y0102480D02*
X0059090Y0102480D01*
X0059200Y0102370D02*
X0057970Y0103600D01*
X0056230Y0103600D01*
X0055000Y0102370D01*
X0055000Y0102300D01*
X0053330Y0102300D01*
X0052100Y0101070D01*
X0052100Y0099330D01*
X0053330Y0098100D01*
X0055070Y0098100D01*
X0056300Y0099330D01*
X0056300Y0099400D01*
X0057970Y0099400D01*
X0059200Y0100630D01*
X0059200Y0102370D01*
X0059200Y0101881D02*
X0070711Y0101881D01*
X0068313Y0101283D02*
X0059200Y0101283D01*
X0059200Y0100684D02*
X0067714Y0100684D01*
X0067600Y0100086D02*
X0058655Y0100086D01*
X0058057Y0099487D02*
X0067600Y0099487D01*
X0067600Y0098889D02*
X0055858Y0098889D01*
X0055260Y0098290D02*
X0068140Y0098290D01*
X0068739Y0097692D02*
X0010200Y0097692D01*
X0010200Y0098290D02*
X0035740Y0098290D01*
X0035830Y0098200D02*
X0037570Y0098200D01*
X0038800Y0099430D01*
X0038800Y0101170D01*
X0037570Y0102400D01*
X0035830Y0102400D01*
X0034600Y0101170D01*
X0034600Y0099430D01*
X0035830Y0098200D01*
X0035142Y0098889D02*
X0010200Y0098889D01*
X0010200Y0099487D02*
X0034600Y0099487D01*
X0034600Y0100086D02*
X0010200Y0100086D01*
X0010200Y0100684D02*
X0034600Y0100684D01*
X0034713Y0101283D02*
X0010200Y0101283D01*
X0010200Y0101881D02*
X0035311Y0101881D01*
X0037660Y0098290D02*
X0053140Y0098290D01*
X0052542Y0098889D02*
X0038258Y0098889D01*
X0038800Y0099487D02*
X0052100Y0099487D01*
X0052100Y0100086D02*
X0038800Y0100086D01*
X0038800Y0100684D02*
X0052100Y0100684D01*
X0052313Y0101283D02*
X0038687Y0101283D01*
X0038089Y0101881D02*
X0052911Y0101881D01*
X0055110Y0102480D02*
X0010200Y0102480D01*
X0010200Y0103078D02*
X0055708Y0103078D01*
X0058492Y0103078D02*
X0096700Y0103078D01*
X0096700Y0103677D02*
X0010200Y0103677D01*
X0010200Y0104275D02*
X0096700Y0104275D01*
X0096700Y0104874D02*
X0010200Y0104874D01*
X0018100Y0109600D02*
X0018100Y0174100D01*
X0028900Y0174100D01*
X0028900Y0151300D01*
X0076900Y0151300D01*
X0076900Y0109300D01*
X0020211Y0109300D01*
X0019911Y0109600D01*
X0018100Y0109600D01*
X0018100Y0109662D02*
X0032627Y0109662D01*
X0032789Y0109500D02*
X0034611Y0109500D01*
X0035900Y0110789D01*
X0035900Y0112611D01*
X0034611Y0113900D01*
X0032789Y0113900D01*
X0031500Y0112611D01*
X0031500Y0110789D01*
X0032789Y0109500D01*
X0032028Y0110260D02*
X0018100Y0110260D01*
X0018100Y0110859D02*
X0031500Y0110859D01*
X0031500Y0111457D02*
X0018100Y0111457D01*
X0018100Y0112056D02*
X0031500Y0112056D01*
X0031543Y0112654D02*
X0018100Y0112654D01*
X0018100Y0113253D02*
X0032142Y0113253D01*
X0032740Y0113851D02*
X0018100Y0113851D01*
X0018100Y0114450D02*
X0067000Y0114450D01*
X0067000Y0114430D02*
X0068230Y0113200D01*
X0069970Y0113200D01*
X0071200Y0114430D01*
X0071200Y0116170D01*
X0069970Y0117400D01*
X0068230Y0117400D01*
X0067000Y0116170D01*
X0067000Y0114430D01*
X0067000Y0115048D02*
X0018100Y0115048D01*
X0018100Y0115647D02*
X0067000Y0115647D01*
X0067076Y0116245D02*
X0046015Y0116245D01*
X0045970Y0116200D02*
X0047200Y0117430D01*
X0047200Y0119170D01*
X0045970Y0120400D01*
X0044230Y0120400D01*
X0043000Y0119170D01*
X0043000Y0117430D01*
X0044230Y0116200D01*
X0045970Y0116200D01*
X0046614Y0116844D02*
X0067674Y0116844D01*
X0070526Y0116844D02*
X0076900Y0116844D01*
X0076900Y0117442D02*
X0047200Y0117442D01*
X0047200Y0118041D02*
X0076900Y0118041D01*
X0076900Y0118639D02*
X0047200Y0118639D01*
X0047132Y0119238D02*
X0076900Y0119238D01*
X0076900Y0119837D02*
X0046533Y0119837D01*
X0043667Y0119837D02*
X0034806Y0119837D01*
X0034470Y0119500D02*
X0035700Y0120730D01*
X0035700Y0122470D01*
X0034470Y0123700D01*
X0032730Y0123700D01*
X0031500Y0122470D01*
X0031500Y0120730D01*
X0032730Y0119500D01*
X0034470Y0119500D01*
X0035405Y0120435D02*
X0076900Y0120435D01*
X0076900Y0121034D02*
X0035700Y0121034D01*
X0035700Y0121632D02*
X0076900Y0121632D01*
X0076900Y0122231D02*
X0035700Y0122231D01*
X0035341Y0122829D02*
X0076900Y0122829D01*
X0076900Y0123428D02*
X0034742Y0123428D01*
X0032458Y0123428D02*
X0018100Y0123428D01*
X0018100Y0124026D02*
X0076900Y0124026D01*
X0076900Y0124625D02*
X0018100Y0124625D01*
X0018100Y0125223D02*
X0076900Y0125223D01*
X0076900Y0125822D02*
X0018100Y0125822D01*
X0018100Y0126420D02*
X0076900Y0126420D01*
X0076900Y0127019D02*
X0018100Y0127019D01*
X0018100Y0127617D02*
X0076900Y0127617D01*
X0076900Y0128216D02*
X0021386Y0128216D01*
X0021370Y0128200D02*
X0022600Y0129430D01*
X0022600Y0131170D01*
X0021370Y0132400D01*
X0019630Y0132400D01*
X0018400Y0131170D01*
X0018400Y0129430D01*
X0019630Y0128200D01*
X0021370Y0128200D01*
X0021984Y0128814D02*
X0076900Y0128814D01*
X0076900Y0129413D02*
X0022583Y0129413D01*
X0022600Y0130011D02*
X0076900Y0130011D01*
X0076900Y0130610D02*
X0022600Y0130610D01*
X0022562Y0131208D02*
X0076900Y0131208D01*
X0076900Y0131807D02*
X0021963Y0131807D01*
X0019037Y0131807D02*
X0018100Y0131807D01*
X0018100Y0132405D02*
X0076900Y0132405D01*
X0076900Y0133004D02*
X0018100Y0133004D01*
X0018100Y0133602D02*
X0076900Y0133602D01*
X0076900Y0134201D02*
X0018100Y0134201D01*
X0018100Y0134799D02*
X0076900Y0134799D01*
X0076900Y0135398D02*
X0018100Y0135398D01*
X0018100Y0135996D02*
X0076900Y0135996D01*
X0076900Y0136595D02*
X0018100Y0136595D01*
X0018100Y0137193D02*
X0076900Y0137193D01*
X0076900Y0137792D02*
X0018100Y0137792D01*
X0018100Y0138390D02*
X0076900Y0138390D01*
X0076900Y0138989D02*
X0018100Y0138989D01*
X0018100Y0139587D02*
X0076900Y0139587D01*
X0076900Y0140186D02*
X0018100Y0140186D01*
X0018100Y0140784D02*
X0076900Y0140784D01*
X0076900Y0141383D02*
X0018100Y0141383D01*
X0018100Y0141981D02*
X0019049Y0141981D01*
X0019630Y0141400D02*
X0021370Y0141400D01*
X0022600Y0142630D01*
X0022600Y0144370D01*
X0021370Y0145600D01*
X0019630Y0145600D01*
X0018400Y0144370D01*
X0018400Y0142630D01*
X0019630Y0141400D01*
X0018450Y0142580D02*
X0018100Y0142580D01*
X0018100Y0143178D02*
X0018400Y0143178D01*
X0018400Y0143777D02*
X0018100Y0143777D01*
X0018100Y0144375D02*
X0018406Y0144375D01*
X0018100Y0144974D02*
X0019004Y0144974D01*
X0019603Y0145572D02*
X0018100Y0145572D01*
X0018100Y0146171D02*
X0076900Y0146171D01*
X0076900Y0146770D02*
X0018100Y0146770D01*
X0018100Y0147368D02*
X0076900Y0147368D01*
X0076900Y0147967D02*
X0018100Y0147967D01*
X0018100Y0148565D02*
X0076900Y0148565D01*
X0076900Y0149164D02*
X0018100Y0149164D01*
X0018100Y0149762D02*
X0076900Y0149762D01*
X0076900Y0150361D02*
X0018100Y0150361D01*
X0018100Y0150959D02*
X0076900Y0150959D01*
X0076900Y0145572D02*
X0021397Y0145572D01*
X0021996Y0144974D02*
X0076900Y0144974D01*
X0076900Y0144375D02*
X0022594Y0144375D01*
X0022600Y0143777D02*
X0076900Y0143777D01*
X0076900Y0143178D02*
X0022600Y0143178D01*
X0022550Y0142580D02*
X0076900Y0142580D01*
X0076900Y0141981D02*
X0021951Y0141981D01*
X0018100Y0151558D02*
X0028900Y0151558D01*
X0028900Y0152156D02*
X0018100Y0152156D01*
X0018100Y0152755D02*
X0028900Y0152755D01*
X0028900Y0153353D02*
X0018100Y0153353D01*
X0018100Y0153952D02*
X0028900Y0153952D01*
X0028900Y0154550D02*
X0018100Y0154550D01*
X0018100Y0155149D02*
X0028900Y0155149D01*
X0028900Y0155747D02*
X0018100Y0155747D01*
X0018100Y0156346D02*
X0020930Y0156346D01*
X0020982Y0156311D02*
X0021719Y0156006D01*
X0022501Y0155850D01*
X0022600Y0155850D01*
X0022600Y0159600D01*
X0023200Y0159600D01*
X0023200Y0160200D01*
X0026950Y0160200D01*
X0026950Y0160299D01*
X0026794Y0161081D01*
X0026489Y0161818D01*
X0026046Y0162482D01*
X0025482Y0163046D01*
X0024818Y0163489D01*
X0024081Y0163794D01*
X0023299Y0163950D01*
X0023200Y0163950D01*
X0023200Y0160200D01*
X0022600Y0160200D01*
X0022600Y0163950D01*
X0022501Y0163950D01*
X0021719Y0163794D01*
X0020982Y0163489D01*
X0020318Y0163046D01*
X0019754Y0162482D01*
X0019311Y0161818D01*
X0019006Y0161081D01*
X0018850Y0160299D01*
X0018850Y0160200D01*
X0022600Y0160200D01*
X0022600Y0159600D01*
X0018850Y0159600D01*
X0018850Y0159501D01*
X0019006Y0158719D01*
X0019311Y0157982D01*
X0019754Y0157318D01*
X0020318Y0156754D01*
X0020982Y0156311D01*
X0020128Y0156944D02*
X0018100Y0156944D01*
X0018100Y0157543D02*
X0019604Y0157543D01*
X0019245Y0158141D02*
X0018100Y0158141D01*
X0018100Y0158740D02*
X0019001Y0158740D01*
X0018882Y0159338D02*
X0018100Y0159338D01*
X0018100Y0159937D02*
X0022600Y0159937D01*
X0022600Y0160535D02*
X0023200Y0160535D01*
X0023200Y0159937D02*
X0028900Y0159937D01*
X0028900Y0160535D02*
X0026903Y0160535D01*
X0026773Y0161134D02*
X0028900Y0161134D01*
X0028900Y0161732D02*
X0026525Y0161732D01*
X0026147Y0162331D02*
X0028900Y0162331D01*
X0028900Y0162929D02*
X0025598Y0162929D01*
X0024725Y0163528D02*
X0028900Y0163528D01*
X0028900Y0164126D02*
X0018100Y0164126D01*
X0018100Y0163528D02*
X0021075Y0163528D01*
X0020202Y0162929D02*
X0018100Y0162929D01*
X0018100Y0162331D02*
X0019653Y0162331D01*
X0019275Y0161732D02*
X0018100Y0161732D01*
X0018100Y0161134D02*
X0019027Y0161134D01*
X0018897Y0160535D02*
X0018100Y0160535D01*
X0018100Y0164725D02*
X0028900Y0164725D01*
X0028900Y0165323D02*
X0018100Y0165323D01*
X0018100Y0165922D02*
X0022140Y0165922D01*
X0022501Y0165850D02*
X0022600Y0165850D01*
X0022600Y0169600D01*
X0023200Y0169600D01*
X0023200Y0170200D01*
X0026950Y0170200D01*
X0026950Y0170299D01*
X0026794Y0171081D01*
X0026489Y0171818D01*
X0026046Y0172482D01*
X0025482Y0173046D01*
X0024818Y0173489D01*
X0024081Y0173794D01*
X0023299Y0173950D01*
X0023200Y0173950D01*
X0023200Y0170200D01*
X0022600Y0170200D01*
X0022600Y0173950D01*
X0022501Y0173950D01*
X0021719Y0173794D01*
X0020982Y0173489D01*
X0020318Y0173046D01*
X0019754Y0172482D01*
X0019311Y0171818D01*
X0019006Y0171081D01*
X0018850Y0170299D01*
X0018850Y0170200D01*
X0022600Y0170200D01*
X0022600Y0169600D01*
X0018850Y0169600D01*
X0018850Y0169501D01*
X0019006Y0168719D01*
X0019311Y0167982D01*
X0019754Y0167318D01*
X0020318Y0166754D01*
X0020982Y0166311D01*
X0021719Y0166006D01*
X0022501Y0165850D01*
X0022600Y0165922D02*
X0023200Y0165922D01*
X0023200Y0165850D02*
X0023299Y0165850D01*
X0024081Y0166006D01*
X0024818Y0166311D01*
X0025482Y0166754D01*
X0026046Y0167318D01*
X0026489Y0167982D01*
X0026794Y0168719D01*
X0026950Y0169501D01*
X0026950Y0169600D01*
X0023200Y0169600D01*
X0023200Y0165850D01*
X0023660Y0165922D02*
X0028900Y0165922D01*
X0028900Y0166520D02*
X0025132Y0166520D01*
X0025846Y0167119D02*
X0028900Y0167119D01*
X0028900Y0167717D02*
X0026313Y0167717D01*
X0026628Y0168316D02*
X0028900Y0168316D01*
X0028900Y0168914D02*
X0026833Y0168914D01*
X0026950Y0169513D02*
X0028900Y0169513D01*
X0028900Y0170111D02*
X0023200Y0170111D01*
X0023200Y0169513D02*
X0022600Y0169513D01*
X0022600Y0170111D02*
X0018100Y0170111D01*
X0018100Y0169513D02*
X0018850Y0169513D01*
X0018967Y0168914D02*
X0018100Y0168914D01*
X0018100Y0168316D02*
X0019172Y0168316D01*
X0019487Y0167717D02*
X0018100Y0167717D01*
X0018100Y0167119D02*
X0019954Y0167119D01*
X0020668Y0166520D02*
X0018100Y0166520D01*
X0018100Y0170710D02*
X0018932Y0170710D01*
X0019100Y0171308D02*
X0018100Y0171308D01*
X0018100Y0171907D02*
X0019370Y0171907D01*
X0019778Y0172505D02*
X0018100Y0172505D01*
X0018100Y0173104D02*
X0020405Y0173104D01*
X0021497Y0173703D02*
X0018100Y0173703D01*
X0022600Y0173703D02*
X0023200Y0173703D01*
X0023200Y0173104D02*
X0022600Y0173104D01*
X0022600Y0172505D02*
X0023200Y0172505D01*
X0023200Y0171907D02*
X0022600Y0171907D01*
X0022600Y0171308D02*
X0023200Y0171308D01*
X0023200Y0170710D02*
X0022600Y0170710D01*
X0022600Y0168914D02*
X0023200Y0168914D01*
X0023200Y0168316D02*
X0022600Y0168316D01*
X0022600Y0167717D02*
X0023200Y0167717D01*
X0023200Y0167119D02*
X0022600Y0167119D01*
X0022600Y0166520D02*
X0023200Y0166520D01*
X0023200Y0163528D02*
X0022600Y0163528D01*
X0022600Y0162929D02*
X0023200Y0162929D01*
X0023200Y0162331D02*
X0022600Y0162331D01*
X0022600Y0161732D02*
X0023200Y0161732D01*
X0023200Y0161134D02*
X0022600Y0161134D01*
X0023200Y0159600D02*
X0026950Y0159600D01*
X0026950Y0159501D01*
X0026794Y0158719D01*
X0026489Y0157982D01*
X0026046Y0157318D01*
X0025482Y0156754D01*
X0024818Y0156311D01*
X0024081Y0156006D01*
X0023299Y0155850D01*
X0023200Y0155850D01*
X0023200Y0159600D01*
X0023200Y0159338D02*
X0022600Y0159338D01*
X0022600Y0158740D02*
X0023200Y0158740D01*
X0023200Y0158141D02*
X0022600Y0158141D01*
X0022600Y0157543D02*
X0023200Y0157543D01*
X0023200Y0156944D02*
X0022600Y0156944D01*
X0022600Y0156346D02*
X0023200Y0156346D01*
X0024870Y0156346D02*
X0028900Y0156346D01*
X0028900Y0156944D02*
X0025672Y0156944D01*
X0026196Y0157543D02*
X0028900Y0157543D01*
X0028900Y0158141D02*
X0026555Y0158141D01*
X0026799Y0158740D02*
X0028900Y0158740D01*
X0028900Y0159338D02*
X0026918Y0159338D01*
X0036700Y0159338D02*
X0085000Y0159338D01*
X0085000Y0159370D02*
X0085000Y0157630D01*
X0086230Y0156400D01*
X0087970Y0156400D01*
X0089200Y0157630D01*
X0089200Y0159370D01*
X0087970Y0160600D01*
X0086230Y0160600D01*
X0085000Y0159370D01*
X0085000Y0158740D02*
X0036700Y0158740D01*
X0036700Y0158141D02*
X0085000Y0158141D01*
X0085087Y0157543D02*
X0036700Y0157543D01*
X0036700Y0156944D02*
X0085686Y0156944D01*
X0088514Y0156944D02*
X0096700Y0156944D01*
X0096700Y0156346D02*
X0082900Y0156346D01*
X0082900Y0155747D02*
X0096700Y0155747D01*
X0096700Y0155149D02*
X0082900Y0155149D01*
X0082900Y0154550D02*
X0096700Y0154550D01*
X0096700Y0153952D02*
X0082900Y0153952D01*
X0082900Y0153353D02*
X0096700Y0153353D01*
X0096700Y0152755D02*
X0082900Y0152755D01*
X0082900Y0152156D02*
X0096700Y0152156D01*
X0096700Y0151558D02*
X0082900Y0151558D01*
X0082900Y0150959D02*
X0096700Y0150959D01*
X0096700Y0150361D02*
X0082900Y0150361D01*
X0082900Y0149762D02*
X0096700Y0149762D01*
X0096700Y0149164D02*
X0082900Y0149164D01*
X0082900Y0148565D02*
X0096700Y0148565D01*
X0096700Y0147967D02*
X0082900Y0147967D01*
X0082900Y0147368D02*
X0096700Y0147368D01*
X0096700Y0146770D02*
X0082900Y0146770D01*
X0082900Y0146171D02*
X0096700Y0146171D01*
X0096700Y0145572D02*
X0082900Y0145572D01*
X0082900Y0144974D02*
X0096700Y0144974D01*
X0096700Y0144375D02*
X0082900Y0144375D01*
X0082900Y0143777D02*
X0096700Y0143777D01*
X0096700Y0143178D02*
X0082900Y0143178D01*
X0082900Y0142580D02*
X0096700Y0142580D01*
X0096700Y0141981D02*
X0082900Y0141981D01*
X0082900Y0141383D02*
X0096700Y0141383D01*
X0096700Y0140784D02*
X0082900Y0140784D01*
X0082900Y0140186D02*
X0096700Y0140186D01*
X0096700Y0139587D02*
X0082900Y0139587D01*
X0082900Y0138989D02*
X0096700Y0138989D01*
X0096700Y0138390D02*
X0082900Y0138390D01*
X0082900Y0137792D02*
X0096700Y0137792D01*
X0096700Y0137193D02*
X0082900Y0137193D01*
X0082900Y0136595D02*
X0096700Y0136595D01*
X0096700Y0135996D02*
X0082900Y0135996D01*
X0082900Y0135398D02*
X0096700Y0135398D01*
X0096700Y0134799D02*
X0082900Y0134799D01*
X0082900Y0134201D02*
X0096700Y0134201D01*
X0096700Y0133602D02*
X0082900Y0133602D01*
X0082900Y0133004D02*
X0096700Y0133004D01*
X0096700Y0132405D02*
X0082900Y0132405D01*
X0082900Y0131807D02*
X0096700Y0131807D01*
X0096700Y0131208D02*
X0082900Y0131208D01*
X0082900Y0130610D02*
X0096700Y0130610D01*
X0096700Y0130011D02*
X0082900Y0130011D01*
X0082900Y0129413D02*
X0096700Y0129413D01*
X0096700Y0128814D02*
X0082900Y0128814D01*
X0082900Y0128216D02*
X0096700Y0128216D01*
X0096700Y0127617D02*
X0082900Y0127617D01*
X0082900Y0127019D02*
X0096700Y0127019D01*
X0096700Y0126420D02*
X0082900Y0126420D01*
X0082900Y0125822D02*
X0096700Y0125822D01*
X0096700Y0125223D02*
X0082900Y0125223D01*
X0082900Y0124625D02*
X0096700Y0124625D01*
X0096700Y0124026D02*
X0082900Y0124026D01*
X0082900Y0123428D02*
X0096700Y0123428D01*
X0096700Y0122829D02*
X0082900Y0122829D01*
X0082900Y0122231D02*
X0096700Y0122231D01*
X0096700Y0121632D02*
X0082900Y0121632D01*
X0082900Y0121034D02*
X0096700Y0121034D01*
X0096700Y0120435D02*
X0082900Y0120435D01*
X0082900Y0119837D02*
X0096700Y0119837D01*
X0096700Y0119238D02*
X0082900Y0119238D01*
X0082900Y0118639D02*
X0096700Y0118639D01*
X0096700Y0118041D02*
X0082900Y0118041D01*
X0082900Y0117442D02*
X0096700Y0117442D01*
X0096700Y0116844D02*
X0082900Y0116844D01*
X0082900Y0116245D02*
X0096700Y0116245D01*
X0096700Y0115647D02*
X0082900Y0115647D01*
X0082900Y0115048D02*
X0096700Y0115048D01*
X0096700Y0114450D02*
X0082900Y0114450D01*
X0082900Y0113851D02*
X0096700Y0113851D01*
X0096700Y0113253D02*
X0082900Y0113253D01*
X0082900Y0112654D02*
X0096700Y0112654D01*
X0096700Y0112056D02*
X0082900Y0112056D01*
X0082900Y0111457D02*
X0096700Y0111457D01*
X0096700Y0110859D02*
X0082900Y0110859D01*
X0082900Y0110260D02*
X0096700Y0110260D01*
X0096700Y0109662D02*
X0082900Y0109662D01*
X0082900Y0109063D02*
X0096700Y0109063D01*
X0096700Y0108465D02*
X0082900Y0108465D01*
X0082900Y0107866D02*
X0096700Y0107866D01*
X0096700Y0107268D02*
X0082900Y0107268D01*
X0082900Y0106669D02*
X0096700Y0106669D01*
X0096700Y0106071D02*
X0082900Y0106071D01*
X0082900Y0105472D02*
X0096700Y0105472D01*
X0099700Y0105472D02*
X0173600Y0105472D01*
X0173600Y0104874D02*
X0099700Y0104874D01*
X0099700Y0104500D02*
X0099700Y0191000D01*
X0100053Y0191000D01*
X0106053Y0197000D01*
X0161747Y0197000D01*
X0173600Y0185147D01*
X0173600Y0104500D01*
X0099700Y0104500D01*
X0099700Y0106071D02*
X0173600Y0106071D01*
X0173600Y0106669D02*
X0099700Y0106669D01*
X0099700Y0107268D02*
X0173600Y0107268D01*
X0173600Y0107866D02*
X0099700Y0107866D01*
X0099700Y0108465D02*
X0173600Y0108465D01*
X0173600Y0109063D02*
X0099700Y0109063D01*
X0099700Y0109662D02*
X0173600Y0109662D01*
X0173600Y0110260D02*
X0099700Y0110260D01*
X0099700Y0110859D02*
X0173600Y0110859D01*
X0173600Y0111457D02*
X0099700Y0111457D01*
X0099700Y0112056D02*
X0173600Y0112056D01*
X0173600Y0112654D02*
X0099700Y0112654D01*
X0099700Y0113253D02*
X0173600Y0113253D01*
X0173600Y0113851D02*
X0099700Y0113851D01*
X0099700Y0114450D02*
X0173600Y0114450D01*
X0173600Y0115048D02*
X0099700Y0115048D01*
X0099700Y0115647D02*
X0173600Y0115647D01*
X0173600Y0116245D02*
X0099700Y0116245D01*
X0099700Y0116844D02*
X0120386Y0116844D01*
X0120430Y0116800D02*
X0122170Y0116800D01*
X0123400Y0118030D01*
X0123400Y0119770D01*
X0122170Y0121000D01*
X0120430Y0121000D01*
X0119200Y0119770D01*
X0119200Y0118030D01*
X0120430Y0116800D01*
X0119788Y0117442D02*
X0099700Y0117442D01*
X0099700Y0118041D02*
X0107789Y0118041D01*
X0107830Y0118000D02*
X0106600Y0119230D01*
X0106600Y0120970D01*
X0107830Y0122200D01*
X0109570Y0122200D01*
X0110800Y0120970D01*
X0110800Y0119230D01*
X0109570Y0118000D01*
X0107830Y0118000D01*
X0107191Y0118639D02*
X0099700Y0118639D01*
X0099700Y0119238D02*
X0106600Y0119238D01*
X0106600Y0119837D02*
X0099700Y0119837D01*
X0099700Y0120435D02*
X0106600Y0120435D01*
X0106664Y0121034D02*
X0099700Y0121034D01*
X0099700Y0121632D02*
X0107262Y0121632D01*
X0109611Y0118041D02*
X0119200Y0118041D01*
X0119200Y0118639D02*
X0110209Y0118639D01*
X0110800Y0119238D02*
X0119200Y0119238D01*
X0119267Y0119837D02*
X0110800Y0119837D01*
X0110800Y0120435D02*
X0119865Y0120435D01*
X0116800Y0122230D02*
X0115570Y0121000D01*
X0113830Y0121000D01*
X0112600Y0122230D01*
X0112600Y0123970D01*
X0113830Y0125200D01*
X0115570Y0125200D01*
X0116800Y0123970D01*
X0116800Y0122230D01*
X0116800Y0122231D02*
X0164586Y0122231D01*
X0164611Y0122171D02*
X0165371Y0121411D01*
X0166363Y0121000D01*
X0167437Y0121000D01*
X0168429Y0121411D01*
X0169189Y0122171D01*
X0169600Y0123163D01*
X0169600Y0124237D01*
X0169189Y0125229D01*
X0168429Y0125989D01*
X0167437Y0126400D01*
X0166363Y0126400D01*
X0165371Y0125989D01*
X0164611Y0125229D01*
X0164200Y0124237D01*
X0164200Y0123163D01*
X0164611Y0122171D01*
X0164338Y0122829D02*
X0116800Y0122829D01*
X0116800Y0123428D02*
X0164200Y0123428D01*
X0164200Y0124026D02*
X0116744Y0124026D01*
X0116145Y0124625D02*
X0164361Y0124625D01*
X0164608Y0125223D02*
X0099700Y0125223D01*
X0099700Y0124625D02*
X0113255Y0124625D01*
X0112656Y0124026D02*
X0099700Y0124026D01*
X0099700Y0123428D02*
X0112600Y0123428D01*
X0112600Y0122829D02*
X0099700Y0122829D01*
X0099700Y0122231D02*
X0112600Y0122231D01*
X0113198Y0121632D02*
X0110138Y0121632D01*
X0110736Y0121034D02*
X0113797Y0121034D01*
X0115603Y0121034D02*
X0166282Y0121034D01*
X0167518Y0121034D02*
X0173600Y0121034D01*
X0173600Y0121632D02*
X0168650Y0121632D01*
X0169214Y0122231D02*
X0173600Y0122231D01*
X0173600Y0122829D02*
X0169462Y0122829D01*
X0169600Y0123428D02*
X0173600Y0123428D01*
X0173600Y0124026D02*
X0169600Y0124026D01*
X0169439Y0124625D02*
X0173600Y0124625D01*
X0173600Y0125223D02*
X0169192Y0125223D01*
X0168597Y0125822D02*
X0173600Y0125822D01*
X0173600Y0126420D02*
X0099700Y0126420D01*
X0099700Y0125822D02*
X0165203Y0125822D01*
X0165150Y0121632D02*
X0116202Y0121632D01*
X0122214Y0116844D02*
X0128786Y0116844D01*
X0128830Y0116800D02*
X0130570Y0116800D01*
X0131800Y0118030D01*
X0131800Y0119770D01*
X0130570Y0121000D01*
X0128830Y0121000D01*
X0127600Y0119770D01*
X0127600Y0118030D01*
X0128830Y0116800D01*
X0128188Y0117442D02*
X0122812Y0117442D01*
X0123400Y0118041D02*
X0127600Y0118041D01*
X0127600Y0118639D02*
X0123400Y0118639D01*
X0123400Y0119238D02*
X0127600Y0119238D01*
X0127667Y0119837D02*
X0123333Y0119837D01*
X0122735Y0120435D02*
X0128265Y0120435D01*
X0131135Y0120435D02*
X0173600Y0120435D01*
X0173600Y0119837D02*
X0131733Y0119837D01*
X0131800Y0119238D02*
X0173600Y0119238D01*
X0173600Y0118639D02*
X0131800Y0118639D01*
X0131800Y0118041D02*
X0173600Y0118041D01*
X0173600Y0117442D02*
X0131212Y0117442D01*
X0130614Y0116844D02*
X0173600Y0116844D01*
X0173600Y0127019D02*
X0099700Y0127019D01*
X0099700Y0127617D02*
X0173600Y0127617D01*
X0173600Y0128216D02*
X0099700Y0128216D01*
X0099700Y0128814D02*
X0173600Y0128814D01*
X0173600Y0129413D02*
X0099700Y0129413D01*
X0099700Y0130011D02*
X0173600Y0130011D01*
X0173600Y0130610D02*
X0099700Y0130610D01*
X0099700Y0131208D02*
X0173600Y0131208D01*
X0173600Y0131807D02*
X0099700Y0131807D01*
X0099700Y0132405D02*
X0173600Y0132405D01*
X0173600Y0133004D02*
X0160574Y0133004D01*
X0160570Y0133000D02*
X0161800Y0134230D01*
X0161800Y0135970D01*
X0160570Y0137200D01*
X0158830Y0137200D01*
X0157600Y0135970D01*
X0157600Y0134230D01*
X0158830Y0133000D01*
X0160570Y0133000D01*
X0161172Y0133602D02*
X0173600Y0133602D01*
X0173600Y0134201D02*
X0161771Y0134201D01*
X0161800Y0134799D02*
X0173600Y0134799D01*
X0173600Y0135398D02*
X0161800Y0135398D01*
X0161774Y0135996D02*
X0173600Y0135996D01*
X0173600Y0136595D02*
X0161175Y0136595D01*
X0160577Y0137193D02*
X0173600Y0137193D01*
X0173600Y0137792D02*
X0099700Y0137792D01*
X0099700Y0138390D02*
X0173600Y0138390D01*
X0173600Y0138989D02*
X0099700Y0138989D01*
X0099700Y0139587D02*
X0173600Y0139587D01*
X0173600Y0140186D02*
X0099700Y0140186D01*
X0099700Y0140784D02*
X0173600Y0140784D01*
X0173600Y0141383D02*
X0099700Y0141383D01*
X0099700Y0141981D02*
X0173600Y0141981D01*
X0173600Y0142580D02*
X0099700Y0142580D01*
X0099700Y0143178D02*
X0173600Y0143178D01*
X0173600Y0143777D02*
X0099700Y0143777D01*
X0099700Y0144375D02*
X0157655Y0144375D01*
X0158230Y0143800D02*
X0159970Y0143800D01*
X0161200Y0145030D01*
X0161200Y0146770D01*
X0159970Y0148000D01*
X0158230Y0148000D01*
X0157000Y0146770D01*
X0157000Y0145030D01*
X0158230Y0143800D01*
X0157056Y0144974D02*
X0099700Y0144974D01*
X0099700Y0145572D02*
X0157000Y0145572D01*
X0157000Y0146171D02*
X0099700Y0146171D01*
X0099700Y0146770D02*
X0157000Y0146770D01*
X0157598Y0147368D02*
X0099700Y0147368D01*
X0099700Y0147967D02*
X0158197Y0147967D01*
X0160003Y0147967D02*
X0173600Y0147967D01*
X0173600Y0148565D02*
X0099700Y0148565D01*
X0099700Y0149164D02*
X0173600Y0149164D01*
X0173600Y0149762D02*
X0099700Y0149762D01*
X0099700Y0150361D02*
X0173600Y0150361D01*
X0173600Y0150959D02*
X0099700Y0150959D01*
X0099700Y0151558D02*
X0173600Y0151558D01*
X0173600Y0152156D02*
X0099700Y0152156D01*
X0099700Y0152755D02*
X0173600Y0152755D01*
X0173600Y0153353D02*
X0099700Y0153353D01*
X0099700Y0153952D02*
X0173600Y0153952D01*
X0173600Y0154550D02*
X0130520Y0154550D01*
X0129970Y0154000D02*
X0128230Y0154000D01*
X0127000Y0155230D01*
X0127000Y0156970D01*
X0128230Y0158200D01*
X0129400Y0158200D01*
X0129400Y0159370D01*
X0130630Y0160600D01*
X0131830Y0160600D01*
X0131800Y0160630D01*
X0131800Y0162370D01*
X0133030Y0163600D01*
X0134230Y0163600D01*
X0133600Y0164230D01*
X0133600Y0165970D01*
X0134830Y0167200D01*
X0136570Y0167200D01*
X0137800Y0165970D01*
X0137800Y0164230D01*
X0136570Y0163000D01*
X0135370Y0163000D01*
X0136000Y0162370D01*
X0136000Y0160630D01*
X0134770Y0159400D01*
X0133570Y0159400D01*
X0133600Y0159370D01*
X0133600Y0157630D01*
X0132370Y0156400D01*
X0131200Y0156400D01*
X0131200Y0155230D01*
X0129970Y0154000D01*
X0131119Y0155149D02*
X0173600Y0155149D01*
X0173600Y0155747D02*
X0131200Y0155747D01*
X0131200Y0156346D02*
X0173600Y0156346D01*
X0173600Y0156944D02*
X0132914Y0156944D01*
X0133513Y0157543D02*
X0173600Y0157543D01*
X0173600Y0158141D02*
X0133600Y0158141D01*
X0133600Y0158740D02*
X0173600Y0158740D01*
X0173600Y0159338D02*
X0133600Y0159338D01*
X0135307Y0159937D02*
X0173600Y0159937D01*
X0173600Y0160535D02*
X0135905Y0160535D01*
X0136000Y0161134D02*
X0173600Y0161134D01*
X0173600Y0161732D02*
X0136000Y0161732D01*
X0136000Y0162331D02*
X0173600Y0162331D01*
X0173600Y0162929D02*
X0135441Y0162929D01*
X0137098Y0163528D02*
X0173600Y0163528D01*
X0173600Y0164126D02*
X0137696Y0164126D01*
X0137800Y0164725D02*
X0173600Y0164725D01*
X0173600Y0165323D02*
X0137800Y0165323D01*
X0137800Y0165922D02*
X0173600Y0165922D01*
X0173600Y0166520D02*
X0137249Y0166520D01*
X0136651Y0167119D02*
X0173600Y0167119D01*
X0173600Y0167717D02*
X0099700Y0167717D01*
X0099700Y0167119D02*
X0134749Y0167119D01*
X0134151Y0166520D02*
X0099700Y0166520D01*
X0099700Y0165922D02*
X0133600Y0165922D01*
X0133600Y0165323D02*
X0099700Y0165323D01*
X0099700Y0164725D02*
X0133600Y0164725D01*
X0133704Y0164126D02*
X0099700Y0164126D01*
X0099700Y0163528D02*
X0132958Y0163528D01*
X0132359Y0162929D02*
X0099700Y0162929D01*
X0099700Y0162331D02*
X0131800Y0162331D01*
X0131800Y0161732D02*
X0099700Y0161732D01*
X0099700Y0161134D02*
X0131800Y0161134D01*
X0130565Y0160535D02*
X0099700Y0160535D01*
X0099700Y0159937D02*
X0129967Y0159937D01*
X0129400Y0159338D02*
X0099700Y0159338D01*
X0099700Y0158740D02*
X0129400Y0158740D01*
X0128171Y0158141D02*
X0099700Y0158141D01*
X0099700Y0157543D02*
X0127573Y0157543D01*
X0127000Y0156944D02*
X0099700Y0156944D01*
X0099700Y0156346D02*
X0127000Y0156346D01*
X0127000Y0155747D02*
X0099700Y0155747D01*
X0099700Y0155149D02*
X0127081Y0155149D01*
X0127680Y0154550D02*
X0099700Y0154550D01*
X0096700Y0157543D02*
X0089113Y0157543D01*
X0089200Y0158141D02*
X0096700Y0158141D01*
X0096700Y0158740D02*
X0089200Y0158740D01*
X0089200Y0159338D02*
X0096700Y0159338D01*
X0096700Y0159937D02*
X0088633Y0159937D01*
X0088035Y0160535D02*
X0096700Y0160535D01*
X0096700Y0161134D02*
X0078400Y0161134D01*
X0078400Y0160630D02*
X0078400Y0162370D01*
X0077170Y0163600D01*
X0075430Y0163600D01*
X0074200Y0162370D01*
X0074200Y0160630D01*
X0075430Y0159400D01*
X0077170Y0159400D01*
X0078400Y0160630D01*
X0078305Y0160535D02*
X0086165Y0160535D01*
X0085567Y0159937D02*
X0077707Y0159937D01*
X0078400Y0161732D02*
X0096700Y0161732D01*
X0096700Y0162331D02*
X0078400Y0162331D01*
X0077841Y0162929D02*
X0096700Y0162929D01*
X0096700Y0163528D02*
X0077242Y0163528D01*
X0075358Y0163528D02*
X0039298Y0163528D01*
X0039400Y0164126D02*
X0096700Y0164126D01*
X0096700Y0164725D02*
X0039400Y0164725D01*
X0039400Y0165323D02*
X0096700Y0165323D01*
X0096700Y0165922D02*
X0038848Y0165922D01*
X0038249Y0166520D02*
X0096700Y0166520D01*
X0096700Y0167119D02*
X0036700Y0167119D01*
X0036700Y0167717D02*
X0096700Y0167717D01*
X0096700Y0168316D02*
X0036700Y0168316D01*
X0036700Y0168914D02*
X0096700Y0168914D01*
X0096700Y0169513D02*
X0036700Y0169513D01*
X0036700Y0170111D02*
X0096700Y0170111D01*
X0096700Y0170710D02*
X0036700Y0170710D01*
X0036700Y0171308D02*
X0096700Y0171308D01*
X0096700Y0171907D02*
X0036700Y0171907D01*
X0036700Y0172505D02*
X0096700Y0172505D01*
X0096700Y0173104D02*
X0036700Y0173104D01*
X0036700Y0173703D02*
X0096700Y0173703D01*
X0096700Y0174301D02*
X0036700Y0174301D01*
X0036700Y0174900D02*
X0096700Y0174900D01*
X0096700Y0175498D02*
X0036700Y0175498D01*
X0036700Y0176097D02*
X0096700Y0176097D01*
X0096700Y0176695D02*
X0036700Y0176695D01*
X0036700Y0177294D02*
X0096700Y0177294D01*
X0096700Y0177892D02*
X0036700Y0177892D01*
X0036700Y0178491D02*
X0096700Y0178491D01*
X0096700Y0179089D02*
X0036700Y0179089D01*
X0036700Y0179688D02*
X0096700Y0179688D01*
X0096700Y0180286D02*
X0036700Y0180286D01*
X0036700Y0180885D02*
X0096700Y0180885D01*
X0096700Y0181483D02*
X0036700Y0181483D01*
X0036700Y0182082D02*
X0096700Y0182082D01*
X0096700Y0182680D02*
X0036700Y0182680D01*
X0036700Y0183279D02*
X0096700Y0183279D01*
X0096700Y0183877D02*
X0036700Y0183877D01*
X0036700Y0184476D02*
X0096700Y0184476D01*
X0096700Y0185074D02*
X0036700Y0185074D01*
X0036700Y0185673D02*
X0096700Y0185673D01*
X0096700Y0186271D02*
X0036700Y0186271D01*
X0036700Y0186870D02*
X0096700Y0186870D01*
X0096700Y0187468D02*
X0036700Y0187468D01*
X0036700Y0188067D02*
X0096700Y0188067D01*
X0096700Y0188665D02*
X0036700Y0188665D01*
X0036700Y0189264D02*
X0096700Y0189264D01*
X0096700Y0189862D02*
X0036700Y0189862D01*
X0036700Y0190461D02*
X0096700Y0190461D01*
X0099700Y0190461D02*
X0168286Y0190461D01*
X0167688Y0191059D02*
X0107629Y0191059D01*
X0107170Y0190600D02*
X0108400Y0191830D01*
X0108400Y0193570D01*
X0107170Y0194800D01*
X0105430Y0194800D01*
X0104200Y0193570D01*
X0104200Y0191830D01*
X0105430Y0190600D01*
X0107170Y0190600D01*
X0108228Y0191658D02*
X0167089Y0191658D01*
X0166491Y0192256D02*
X0108400Y0192256D01*
X0108400Y0192855D02*
X0165892Y0192855D01*
X0165294Y0193453D02*
X0108400Y0193453D01*
X0107918Y0194052D02*
X0164695Y0194052D01*
X0164097Y0194650D02*
X0107319Y0194650D01*
X0105281Y0194650D02*
X0103703Y0194650D01*
X0103105Y0194052D02*
X0104682Y0194052D01*
X0104200Y0193453D02*
X0102506Y0193453D01*
X0101908Y0192855D02*
X0104200Y0192855D01*
X0104200Y0192256D02*
X0101309Y0192256D01*
X0100711Y0191658D02*
X0104372Y0191658D01*
X0104971Y0191059D02*
X0100112Y0191059D01*
X0099700Y0189862D02*
X0168885Y0189862D01*
X0169483Y0189264D02*
X0099700Y0189264D01*
X0099700Y0188665D02*
X0170082Y0188665D01*
X0170681Y0188067D02*
X0099700Y0188067D01*
X0099700Y0187468D02*
X0171279Y0187468D01*
X0171878Y0186870D02*
X0099700Y0186870D01*
X0099700Y0186271D02*
X0172476Y0186271D01*
X0173075Y0185673D02*
X0099700Y0185673D01*
X0099700Y0185074D02*
X0173600Y0185074D01*
X0173600Y0184476D02*
X0099700Y0184476D01*
X0099700Y0183877D02*
X0173600Y0183877D01*
X0173600Y0183279D02*
X0099700Y0183279D01*
X0099700Y0182680D02*
X0173600Y0182680D01*
X0173600Y0182082D02*
X0099700Y0182082D01*
X0099700Y0181483D02*
X0173600Y0181483D01*
X0173600Y0180885D02*
X0099700Y0180885D01*
X0099700Y0180286D02*
X0173600Y0180286D01*
X0173600Y0179688D02*
X0157082Y0179688D01*
X0156970Y0179800D02*
X0155230Y0179800D01*
X0154000Y0178570D01*
X0154000Y0176830D01*
X0155230Y0175600D01*
X0156970Y0175600D01*
X0158200Y0176830D01*
X0158200Y0178570D01*
X0156970Y0179800D01*
X0157681Y0179089D02*
X0173600Y0179089D01*
X0173600Y0178491D02*
X0158200Y0178491D01*
X0158200Y0177892D02*
X0173600Y0177892D01*
X0173600Y0177294D02*
X0158200Y0177294D01*
X0158065Y0176695D02*
X0173600Y0176695D01*
X0173600Y0176097D02*
X0157466Y0176097D01*
X0154734Y0176097D02*
X0122200Y0176097D01*
X0122200Y0175630D02*
X0122200Y0177370D01*
X0120970Y0178600D01*
X0119230Y0178600D01*
X0118000Y0177370D01*
X0118000Y0175630D01*
X0119230Y0174400D01*
X0120970Y0174400D01*
X0122200Y0175630D01*
X0122068Y0175498D02*
X0173600Y0175498D01*
X0173600Y0174900D02*
X0121469Y0174900D01*
X0122200Y0176695D02*
X0154135Y0176695D01*
X0154000Y0177294D02*
X0122200Y0177294D01*
X0121678Y0177892D02*
X0154000Y0177892D01*
X0154000Y0178491D02*
X0121079Y0178491D01*
X0119121Y0178491D02*
X0099700Y0178491D01*
X0099700Y0179089D02*
X0154519Y0179089D01*
X0155118Y0179688D02*
X0099700Y0179688D01*
X0099700Y0177892D02*
X0118522Y0177892D01*
X0118000Y0177294D02*
X0099700Y0177294D01*
X0099700Y0176695D02*
X0118000Y0176695D01*
X0118000Y0176097D02*
X0099700Y0176097D01*
X0099700Y0175498D02*
X0118132Y0175498D01*
X0118731Y0174900D02*
X0099700Y0174900D01*
X0099700Y0174301D02*
X0173600Y0174301D01*
X0173600Y0173703D02*
X0099700Y0173703D01*
X0099700Y0173104D02*
X0150934Y0173104D01*
X0151030Y0173200D02*
X0149800Y0171970D01*
X0149800Y0170230D01*
X0151030Y0169000D01*
X0152770Y0169000D01*
X0154000Y0170230D01*
X0154000Y0171970D01*
X0152770Y0173200D01*
X0151030Y0173200D01*
X0150336Y0172505D02*
X0099700Y0172505D01*
X0099700Y0171907D02*
X0120337Y0171907D01*
X0120430Y0172000D02*
X0119200Y0170770D01*
X0119200Y0169030D01*
X0120430Y0167800D01*
X0122170Y0167800D01*
X0123400Y0169030D01*
X0123400Y0170770D01*
X0122170Y0172000D01*
X0120430Y0172000D01*
X0119739Y0171308D02*
X0099700Y0171308D01*
X0099700Y0170710D02*
X0119200Y0170710D01*
X0119200Y0170111D02*
X0099700Y0170111D01*
X0099700Y0169513D02*
X0119200Y0169513D01*
X0119316Y0168914D02*
X0099700Y0168914D01*
X0099700Y0168316D02*
X0119914Y0168316D01*
X0122686Y0168316D02*
X0173600Y0168316D01*
X0173600Y0168914D02*
X0123284Y0168914D01*
X0123400Y0169513D02*
X0150517Y0169513D01*
X0149919Y0170111D02*
X0123400Y0170111D01*
X0123400Y0170710D02*
X0149800Y0170710D01*
X0149800Y0171308D02*
X0122861Y0171308D01*
X0122263Y0171907D02*
X0149800Y0171907D01*
X0152866Y0173104D02*
X0173600Y0173104D01*
X0173600Y0172505D02*
X0153464Y0172505D01*
X0154000Y0171907D02*
X0173600Y0171907D01*
X0173600Y0171308D02*
X0154000Y0171308D01*
X0154000Y0170710D02*
X0173600Y0170710D01*
X0173600Y0170111D02*
X0153881Y0170111D01*
X0153283Y0169513D02*
X0173600Y0169513D01*
X0173600Y0147368D02*
X0160602Y0147368D01*
X0161200Y0146770D02*
X0173600Y0146770D01*
X0173600Y0146171D02*
X0161200Y0146171D01*
X0161200Y0145572D02*
X0173600Y0145572D01*
X0173600Y0144974D02*
X0161144Y0144974D01*
X0160545Y0144375D02*
X0173600Y0144375D01*
X0158823Y0137193D02*
X0099700Y0137193D01*
X0099700Y0136595D02*
X0158225Y0136595D01*
X0157626Y0135996D02*
X0099700Y0135996D01*
X0099700Y0135398D02*
X0157600Y0135398D01*
X0157600Y0134799D02*
X0099700Y0134799D01*
X0099700Y0134201D02*
X0157629Y0134201D01*
X0158228Y0133602D02*
X0099700Y0133602D01*
X0099700Y0133004D02*
X0158826Y0133004D01*
X0173600Y0098500D02*
X0173600Y0074533D01*
X0173023Y0075110D01*
X0172236Y0075681D01*
X0171370Y0076123D01*
X0170446Y0076423D01*
X0169486Y0076575D01*
X0169300Y0076575D01*
X0169300Y0070700D01*
X0168700Y0070700D01*
X0168700Y0076575D01*
X0168514Y0076575D01*
X0167554Y0076423D01*
X0166630Y0076123D01*
X0165764Y0075681D01*
X0164977Y0075110D01*
X0164290Y0074423D01*
X0163719Y0073636D01*
X0163277Y0072770D01*
X0162977Y0071846D01*
X0162825Y0070886D01*
X0162825Y0070700D01*
X0168700Y0070700D01*
X0168700Y0070100D01*
X0169300Y0070100D01*
X0169300Y0064225D01*
X0169486Y0064225D01*
X0170446Y0064377D01*
X0171370Y0064677D01*
X0172236Y0065119D01*
X0173023Y0065690D01*
X0173600Y0066267D01*
X0173600Y0021453D01*
X0168347Y0016200D01*
X0101400Y0016200D01*
X0101400Y0066267D01*
X0101977Y0065690D01*
X0102764Y0065119D01*
X0103630Y0064677D01*
X0104554Y0064377D01*
X0105514Y0064225D01*
X0105700Y0064225D01*
X0105700Y0070100D01*
X0106300Y0070100D01*
X0106300Y0070700D01*
X0105700Y0070700D01*
X0105700Y0076575D01*
X0105514Y0076575D01*
X0104554Y0076423D01*
X0103630Y0076123D01*
X0102764Y0075681D01*
X0101977Y0075110D01*
X0101400Y0074533D01*
X0101400Y0098500D01*
X0173600Y0098500D01*
X0173600Y0098290D02*
X0101400Y0098290D01*
X0101400Y0097692D02*
X0154071Y0097692D01*
X0153862Y0097650D02*
X0153153Y0097356D01*
X0152514Y0096929D01*
X0151971Y0096386D01*
X0151544Y0095747D01*
X0151250Y0095038D01*
X0151100Y0094284D01*
X0151100Y0094200D01*
X0154700Y0094200D01*
X0154700Y0097800D01*
X0154616Y0097800D01*
X0153862Y0097650D01*
X0154700Y0097692D02*
X0155300Y0097692D01*
X0155300Y0097800D02*
X0155384Y0097800D01*
X0156138Y0097650D01*
X0156847Y0097356D01*
X0157486Y0096929D01*
X0158029Y0096386D01*
X0158456Y0095747D01*
X0158750Y0095038D01*
X0158900Y0094284D01*
X0158900Y0094200D01*
X0155300Y0094200D01*
X0155300Y0093600D01*
X0158900Y0093600D01*
X0158900Y0093516D01*
X0158750Y0092762D01*
X0158456Y0092053D01*
X0158029Y0091414D01*
X0157486Y0090871D01*
X0156847Y0090444D01*
X0156138Y0090150D01*
X0155384Y0090000D01*
X0155300Y0090000D01*
X0155300Y0093600D01*
X0154700Y0093600D01*
X0154700Y0090000D01*
X0154616Y0090000D01*
X0153862Y0090150D01*
X0153153Y0090444D01*
X0152514Y0090871D01*
X0151971Y0091414D01*
X0151544Y0092053D01*
X0151250Y0092762D01*
X0151100Y0093516D01*
X0151100Y0093600D01*
X0154700Y0093600D01*
X0154700Y0094200D01*
X0155300Y0094200D01*
X0155300Y0097800D01*
X0155929Y0097692D02*
X0173600Y0097692D01*
X0173600Y0097093D02*
X0157241Y0097093D01*
X0157921Y0096495D02*
X0173600Y0096495D01*
X0173600Y0095896D02*
X0158357Y0095896D01*
X0158642Y0095298D02*
X0173600Y0095298D01*
X0173600Y0094699D02*
X0158817Y0094699D01*
X0158897Y0093502D02*
X0173600Y0093502D01*
X0173600Y0094101D02*
X0155300Y0094101D01*
X0155300Y0094699D02*
X0154700Y0094699D01*
X0154700Y0094101D02*
X0148500Y0094101D01*
X0148500Y0094596D02*
X0147967Y0095883D01*
X0146983Y0096867D01*
X0145696Y0097400D01*
X0144304Y0097400D01*
X0143017Y0096867D01*
X0142033Y0095883D01*
X0141500Y0094596D01*
X0141500Y0093204D01*
X0142033Y0091917D01*
X0143017Y0090933D01*
X0144304Y0090400D01*
X0145696Y0090400D01*
X0146983Y0090933D01*
X0147967Y0091917D01*
X0148500Y0093204D01*
X0148500Y0094596D01*
X0148457Y0094699D02*
X0151183Y0094699D01*
X0151358Y0095298D02*
X0148209Y0095298D01*
X0147954Y0095896D02*
X0151643Y0095896D01*
X0152079Y0096495D02*
X0147355Y0096495D01*
X0146437Y0097093D02*
X0152759Y0097093D01*
X0154700Y0097093D02*
X0155300Y0097093D01*
X0155300Y0096495D02*
X0154700Y0096495D01*
X0154700Y0095896D02*
X0155300Y0095896D01*
X0155300Y0095298D02*
X0154700Y0095298D01*
X0154700Y0093502D02*
X0155300Y0093502D01*
X0155300Y0092903D02*
X0154700Y0092903D01*
X0154700Y0092305D02*
X0155300Y0092305D01*
X0155300Y0091706D02*
X0154700Y0091706D01*
X0154700Y0091108D02*
X0155300Y0091108D01*
X0155300Y0090509D02*
X0154700Y0090509D01*
X0153054Y0090509D02*
X0145960Y0090509D01*
X0147158Y0091108D02*
X0152277Y0091108D01*
X0151775Y0091706D02*
X0147756Y0091706D01*
X0148128Y0092305D02*
X0151439Y0092305D01*
X0151222Y0092903D02*
X0148376Y0092903D01*
X0148500Y0093502D02*
X0151103Y0093502D01*
X0150696Y0087400D02*
X0149304Y0087400D01*
X0148017Y0086867D01*
X0147033Y0085883D01*
X0146500Y0084596D01*
X0146500Y0083204D01*
X0147033Y0081917D01*
X0148017Y0080933D01*
X0141983Y0080933D01*
X0142967Y0081917D01*
X0143500Y0083204D01*
X0143500Y0084596D01*
X0142967Y0085883D01*
X0141983Y0086867D01*
X0140696Y0087400D01*
X0139304Y0087400D01*
X0138017Y0086867D01*
X0137033Y0085883D01*
X0136500Y0084596D01*
X0136500Y0083204D01*
X0137033Y0081917D01*
X0138017Y0080933D01*
X0131983Y0080933D01*
X0132967Y0081917D01*
X0133500Y0083204D01*
X0133500Y0084596D01*
X0132967Y0085883D01*
X0131983Y0086867D01*
X0130696Y0087400D01*
X0129304Y0087400D01*
X0128017Y0086867D01*
X0127033Y0085883D01*
X0126500Y0084596D01*
X0126500Y0083204D01*
X0127033Y0081917D01*
X0128017Y0080933D01*
X0121983Y0080933D01*
X0122967Y0081917D01*
X0123500Y0083204D01*
X0123500Y0084596D01*
X0122967Y0085883D01*
X0121983Y0086867D01*
X0120696Y0087400D01*
X0119304Y0087400D01*
X0118017Y0086867D01*
X0117033Y0085883D01*
X0116500Y0084596D01*
X0116500Y0083204D01*
X0117033Y0081917D01*
X0118017Y0080933D01*
X0101400Y0080933D01*
X0101400Y0080335D02*
X0173600Y0080335D01*
X0173600Y0080933D02*
X0151983Y0080933D01*
X0152967Y0081917D01*
X0153500Y0083204D01*
X0153500Y0084596D01*
X0152967Y0085883D01*
X0151983Y0086867D01*
X0150696Y0087400D01*
X0151859Y0086918D02*
X0173600Y0086918D01*
X0173600Y0086320D02*
X0152530Y0086320D01*
X0153034Y0085721D02*
X0173600Y0085721D01*
X0173600Y0085123D02*
X0153282Y0085123D01*
X0153500Y0084524D02*
X0173600Y0084524D01*
X0173600Y0083926D02*
X0153500Y0083926D01*
X0153500Y0083327D02*
X0173600Y0083327D01*
X0173600Y0082729D02*
X0153303Y0082729D01*
X0153055Y0082130D02*
X0173600Y0082130D01*
X0173600Y0081532D02*
X0152582Y0081532D01*
X0151983Y0080933D02*
X0150696Y0080400D01*
X0149304Y0080400D01*
X0148017Y0080933D01*
X0147418Y0081532D02*
X0142582Y0081532D01*
X0143055Y0082130D02*
X0146945Y0082130D01*
X0146697Y0082729D02*
X0143303Y0082729D01*
X0143500Y0083327D02*
X0146500Y0083327D01*
X0146500Y0083926D02*
X0143500Y0083926D01*
X0143500Y0084524D02*
X0146500Y0084524D01*
X0146718Y0085123D02*
X0143282Y0085123D01*
X0143034Y0085721D02*
X0146966Y0085721D01*
X0147470Y0086320D02*
X0142530Y0086320D01*
X0141859Y0086918D02*
X0148141Y0086918D01*
X0144040Y0090509D02*
X0135960Y0090509D01*
X0135696Y0090400D02*
X0136983Y0090933D01*
X0137967Y0091917D01*
X0138500Y0093204D01*
X0138500Y0094596D01*
X0137967Y0095883D01*
X0136983Y0096867D01*
X0135696Y0097400D01*
X0134304Y0097400D01*
X0133017Y0096867D01*
X0132033Y0095883D01*
X0131500Y0094596D01*
X0131500Y0093204D01*
X0132033Y0091917D01*
X0133017Y0090933D01*
X0134304Y0090400D01*
X0135696Y0090400D01*
X0137158Y0091108D02*
X0142842Y0091108D01*
X0142244Y0091706D02*
X0137756Y0091706D01*
X0138128Y0092305D02*
X0141872Y0092305D01*
X0141624Y0092903D02*
X0138376Y0092903D01*
X0138500Y0093502D02*
X0141500Y0093502D01*
X0141500Y0094101D02*
X0138500Y0094101D01*
X0138457Y0094699D02*
X0141543Y0094699D01*
X0141791Y0095298D02*
X0138209Y0095298D01*
X0137954Y0095896D02*
X0142046Y0095896D01*
X0142645Y0096495D02*
X0137355Y0096495D01*
X0136437Y0097093D02*
X0143563Y0097093D01*
X0133563Y0097093D02*
X0126437Y0097093D01*
X0126983Y0096867D02*
X0125696Y0097400D01*
X0124304Y0097400D01*
X0123017Y0096867D01*
X0122033Y0095883D01*
X0121500Y0094596D01*
X0121500Y0093204D01*
X0122033Y0091917D01*
X0123017Y0090933D01*
X0124304Y0090400D01*
X0125696Y0090400D01*
X0126983Y0090933D01*
X0127967Y0091917D01*
X0128500Y0093204D01*
X0128500Y0094596D01*
X0127967Y0095883D01*
X0126983Y0096867D01*
X0127355Y0096495D02*
X0132645Y0096495D01*
X0132046Y0095896D02*
X0127954Y0095896D01*
X0128209Y0095298D02*
X0131791Y0095298D01*
X0131543Y0094699D02*
X0128457Y0094699D01*
X0128500Y0094101D02*
X0131500Y0094101D01*
X0131500Y0093502D02*
X0128500Y0093502D01*
X0128376Y0092903D02*
X0131624Y0092903D01*
X0131872Y0092305D02*
X0128128Y0092305D01*
X0127756Y0091706D02*
X0132244Y0091706D01*
X0132842Y0091108D02*
X0127158Y0091108D01*
X0125960Y0090509D02*
X0134040Y0090509D01*
X0131859Y0086918D02*
X0138141Y0086918D01*
X0137470Y0086320D02*
X0132530Y0086320D01*
X0133034Y0085721D02*
X0136966Y0085721D01*
X0136718Y0085123D02*
X0133282Y0085123D01*
X0133500Y0084524D02*
X0136500Y0084524D01*
X0136500Y0083926D02*
X0133500Y0083926D01*
X0133500Y0083327D02*
X0136500Y0083327D01*
X0136697Y0082729D02*
X0133303Y0082729D01*
X0133055Y0082130D02*
X0136945Y0082130D01*
X0137418Y0081532D02*
X0132582Y0081532D01*
X0131983Y0080933D02*
X0130696Y0080400D01*
X0129304Y0080400D01*
X0128017Y0080933D01*
X0127418Y0081532D02*
X0122582Y0081532D01*
X0123055Y0082130D02*
X0126945Y0082130D01*
X0126697Y0082729D02*
X0123303Y0082729D01*
X0123500Y0083327D02*
X0126500Y0083327D01*
X0126500Y0083926D02*
X0123500Y0083926D01*
X0123500Y0084524D02*
X0126500Y0084524D01*
X0126718Y0085123D02*
X0123282Y0085123D01*
X0123034Y0085721D02*
X0126966Y0085721D01*
X0127470Y0086320D02*
X0122530Y0086320D01*
X0121859Y0086918D02*
X0128141Y0086918D01*
X0124040Y0090509D02*
X0101400Y0090509D01*
X0101400Y0089911D02*
X0173600Y0089911D01*
X0173600Y0090509D02*
X0156945Y0090509D01*
X0157723Y0091108D02*
X0173600Y0091108D01*
X0173600Y0091706D02*
X0158225Y0091706D01*
X0158561Y0092305D02*
X0173600Y0092305D01*
X0173600Y0092903D02*
X0158778Y0092903D01*
X0173600Y0089312D02*
X0101400Y0089312D01*
X0101400Y0088714D02*
X0173600Y0088714D01*
X0173600Y0088115D02*
X0101400Y0088115D01*
X0101400Y0087517D02*
X0173600Y0087517D01*
X0173600Y0079736D02*
X0101400Y0079736D01*
X0101400Y0079138D02*
X0173600Y0079138D01*
X0173600Y0078539D02*
X0101400Y0078539D01*
X0101400Y0077941D02*
X0173600Y0077941D01*
X0173600Y0077342D02*
X0101400Y0077342D01*
X0101400Y0076744D02*
X0173600Y0076744D01*
X0173600Y0076145D02*
X0171301Y0076145D01*
X0172422Y0075547D02*
X0173600Y0075547D01*
X0173600Y0074948D02*
X0173185Y0074948D01*
X0169300Y0074948D02*
X0168700Y0074948D01*
X0168700Y0074350D02*
X0169300Y0074350D01*
X0169300Y0073751D02*
X0168700Y0073751D01*
X0168700Y0073153D02*
X0169300Y0073153D01*
X0169300Y0072554D02*
X0168700Y0072554D01*
X0168700Y0071956D02*
X0169300Y0071956D01*
X0169300Y0071357D02*
X0168700Y0071357D01*
X0168700Y0070759D02*
X0169300Y0070759D01*
X0168700Y0070160D02*
X0106300Y0070160D01*
X0106300Y0070100D02*
X0112175Y0070100D01*
X0112175Y0069914D01*
X0112023Y0068954D01*
X0111723Y0068030D01*
X0111451Y0067496D01*
X0113150Y0068200D01*
X0116850Y0068200D01*
X0120268Y0066784D01*
X0122884Y0064168D01*
X0124300Y0060750D01*
X0124300Y0057050D01*
X0122884Y0053632D01*
X0120268Y0051016D01*
X0116850Y0049600D01*
X0113150Y0049600D01*
X0109732Y0051016D01*
X0107116Y0053632D01*
X0105700Y0057050D01*
X0105700Y0060750D01*
X0107116Y0064168D01*
X0107302Y0064354D01*
X0106486Y0064225D01*
X0106300Y0064225D01*
X0106300Y0070100D01*
X0106300Y0069562D02*
X0105700Y0069562D01*
X0105700Y0068963D02*
X0106300Y0068963D01*
X0106300Y0068365D02*
X0105700Y0068365D01*
X0105700Y0067766D02*
X0106300Y0067766D01*
X0106300Y0067168D02*
X0105700Y0067168D01*
X0105700Y0066569D02*
X0106300Y0066569D01*
X0106300Y0065970D02*
X0105700Y0065970D01*
X0105700Y0065372D02*
X0106300Y0065372D01*
X0106300Y0064773D02*
X0105700Y0064773D01*
X0107123Y0064175D02*
X0101400Y0064175D01*
X0101400Y0064773D02*
X0103441Y0064773D01*
X0102415Y0065372D02*
X0101400Y0065372D01*
X0101400Y0065970D02*
X0101697Y0065970D01*
X0101400Y0063576D02*
X0106871Y0063576D01*
X0106623Y0062978D02*
X0101400Y0062978D01*
X0101400Y0062379D02*
X0106375Y0062379D01*
X0106127Y0061781D02*
X0101400Y0061781D01*
X0101400Y0061182D02*
X0105879Y0061182D01*
X0105700Y0060584D02*
X0101400Y0060584D01*
X0101400Y0059985D02*
X0105700Y0059985D01*
X0105700Y0059387D02*
X0101400Y0059387D01*
X0101400Y0058788D02*
X0105700Y0058788D01*
X0105700Y0058190D02*
X0101400Y0058190D01*
X0101400Y0057591D02*
X0105700Y0057591D01*
X0105724Y0056993D02*
X0101400Y0056993D01*
X0101400Y0056394D02*
X0105972Y0056394D01*
X0106220Y0055796D02*
X0101400Y0055796D01*
X0101400Y0055197D02*
X0106467Y0055197D01*
X0106715Y0054599D02*
X0101400Y0054599D01*
X0101400Y0054000D02*
X0106963Y0054000D01*
X0107346Y0053402D02*
X0101400Y0053402D01*
X0101400Y0052803D02*
X0107945Y0052803D01*
X0108543Y0052205D02*
X0101400Y0052205D01*
X0101400Y0051606D02*
X0109142Y0051606D01*
X0109752Y0051008D02*
X0101400Y0051008D01*
X0101400Y0050409D02*
X0111197Y0050409D01*
X0112641Y0049811D02*
X0101400Y0049811D01*
X0101400Y0049212D02*
X0173600Y0049212D01*
X0173600Y0048614D02*
X0101400Y0048614D01*
X0101400Y0048015D02*
X0173600Y0048015D01*
X0173600Y0047417D02*
X0101400Y0047417D01*
X0101400Y0046818D02*
X0173600Y0046818D01*
X0173600Y0046220D02*
X0101400Y0046220D01*
X0101400Y0045621D02*
X0173600Y0045621D01*
X0173600Y0045023D02*
X0101400Y0045023D01*
X0101400Y0044424D02*
X0173600Y0044424D01*
X0173600Y0043826D02*
X0101400Y0043826D01*
X0101400Y0043227D02*
X0173600Y0043227D01*
X0173600Y0042629D02*
X0164852Y0042629D01*
X0165483Y0042367D02*
X0164196Y0042900D01*
X0162804Y0042900D01*
X0161517Y0042367D01*
X0160533Y0041383D01*
X0160000Y0040096D01*
X0160000Y0038704D01*
X0160533Y0037417D01*
X0161517Y0036433D01*
X0162804Y0035900D01*
X0164196Y0035900D01*
X0165483Y0036433D01*
X0166467Y0037417D01*
X0167000Y0038704D01*
X0167000Y0040096D01*
X0166467Y0041383D01*
X0165483Y0042367D01*
X0165820Y0042030D02*
X0173600Y0042030D01*
X0173600Y0041432D02*
X0166418Y0041432D01*
X0166695Y0040833D02*
X0173600Y0040833D01*
X0173600Y0040234D02*
X0166943Y0040234D01*
X0167000Y0039636D02*
X0173600Y0039636D01*
X0173600Y0039037D02*
X0167000Y0039037D01*
X0166890Y0038439D02*
X0173600Y0038439D01*
X0173600Y0037840D02*
X0166642Y0037840D01*
X0166292Y0037242D02*
X0173600Y0037242D01*
X0173600Y0036643D02*
X0165693Y0036643D01*
X0164546Y0036045D02*
X0173600Y0036045D01*
X0173600Y0035446D02*
X0101400Y0035446D01*
X0101400Y0034848D02*
X0173600Y0034848D01*
X0173600Y0034249D02*
X0101400Y0034249D01*
X0101400Y0033651D02*
X0173600Y0033651D01*
X0173600Y0033052D02*
X0101400Y0033052D01*
X0101400Y0032454D02*
X0173600Y0032454D01*
X0173600Y0031855D02*
X0101400Y0031855D01*
X0101400Y0031257D02*
X0173600Y0031257D01*
X0173600Y0030658D02*
X0101400Y0030658D01*
X0101400Y0030060D02*
X0173600Y0030060D01*
X0173600Y0029461D02*
X0101400Y0029461D01*
X0101400Y0028863D02*
X0173600Y0028863D01*
X0173600Y0028264D02*
X0101400Y0028264D01*
X0101400Y0027666D02*
X0173600Y0027666D01*
X0173600Y0027067D02*
X0101400Y0027067D01*
X0101400Y0026469D02*
X0173600Y0026469D01*
X0173600Y0025870D02*
X0101400Y0025870D01*
X0101400Y0025272D02*
X0173600Y0025272D01*
X0173600Y0024673D02*
X0101400Y0024673D01*
X0101400Y0024075D02*
X0173600Y0024075D01*
X0173600Y0023476D02*
X0101400Y0023476D01*
X0101400Y0022878D02*
X0173600Y0022878D01*
X0173600Y0022279D02*
X0101400Y0022279D01*
X0101400Y0021681D02*
X0173600Y0021681D01*
X0173229Y0021082D02*
X0101400Y0021082D01*
X0101400Y0020484D02*
X0172631Y0020484D01*
X0172032Y0019885D02*
X0101400Y0019885D01*
X0101400Y0019287D02*
X0171434Y0019287D01*
X0170835Y0018688D02*
X0101400Y0018688D01*
X0101400Y0018090D02*
X0170237Y0018090D01*
X0169638Y0017491D02*
X0101400Y0017491D01*
X0101400Y0016893D02*
X0169040Y0016893D01*
X0168441Y0016294D02*
X0101400Y0016294D01*
X0101400Y0036045D02*
X0110454Y0036045D01*
X0110804Y0035900D02*
X0112196Y0035900D01*
X0113483Y0036433D01*
X0114467Y0037417D01*
X0115000Y0038704D01*
X0115000Y0040096D01*
X0114467Y0041383D01*
X0113483Y0042367D01*
X0112196Y0042900D01*
X0110804Y0042900D01*
X0109517Y0042367D01*
X0108533Y0041383D01*
X0108000Y0040096D01*
X0108000Y0038704D01*
X0108533Y0037417D01*
X0109517Y0036433D01*
X0110804Y0035900D01*
X0109307Y0036643D02*
X0101400Y0036643D01*
X0101400Y0037242D02*
X0108708Y0037242D01*
X0108358Y0037840D02*
X0101400Y0037840D01*
X0101400Y0038439D02*
X0108110Y0038439D01*
X0108000Y0039037D02*
X0101400Y0039037D01*
X0101400Y0039636D02*
X0108000Y0039636D01*
X0108057Y0040234D02*
X0101400Y0040234D01*
X0101400Y0040833D02*
X0108305Y0040833D01*
X0108582Y0041432D02*
X0101400Y0041432D01*
X0101400Y0042030D02*
X0109180Y0042030D01*
X0110148Y0042629D02*
X0101400Y0042629D01*
X0112852Y0042629D02*
X0120148Y0042629D01*
X0119517Y0042367D02*
X0118533Y0041383D01*
X0118000Y0040096D01*
X0118000Y0038704D01*
X0118533Y0037417D01*
X0119517Y0036433D01*
X0120804Y0035900D01*
X0122196Y0035900D01*
X0123483Y0036433D01*
X0124467Y0037417D01*
X0125000Y0038704D01*
X0125000Y0040096D01*
X0124467Y0041383D01*
X0123483Y0042367D01*
X0122196Y0042900D01*
X0120804Y0042900D01*
X0119517Y0042367D01*
X0119180Y0042030D02*
X0113820Y0042030D01*
X0114418Y0041432D02*
X0118582Y0041432D01*
X0118305Y0040833D02*
X0114695Y0040833D01*
X0114943Y0040234D02*
X0118057Y0040234D01*
X0118000Y0039636D02*
X0115000Y0039636D01*
X0115000Y0039037D02*
X0118000Y0039037D01*
X0118110Y0038439D02*
X0114890Y0038439D01*
X0114642Y0037840D02*
X0118358Y0037840D01*
X0118708Y0037242D02*
X0114292Y0037242D01*
X0113693Y0036643D02*
X0119307Y0036643D01*
X0120454Y0036045D02*
X0112546Y0036045D01*
X0122546Y0036045D02*
X0152454Y0036045D01*
X0152804Y0035900D02*
X0154196Y0035900D01*
X0155483Y0036433D01*
X0156467Y0037417D01*
X0157000Y0038704D01*
X0157000Y0040096D01*
X0156467Y0041383D01*
X0155483Y0042367D01*
X0154196Y0042900D01*
X0152804Y0042900D01*
X0151517Y0042367D01*
X0150533Y0041383D01*
X0150000Y0040096D01*
X0150000Y0038704D01*
X0150533Y0037417D01*
X0151517Y0036433D01*
X0152804Y0035900D01*
X0151307Y0036643D02*
X0123693Y0036643D01*
X0124292Y0037242D02*
X0150708Y0037242D01*
X0150358Y0037840D02*
X0124642Y0037840D01*
X0124890Y0038439D02*
X0150110Y0038439D01*
X0150000Y0039037D02*
X0125000Y0039037D01*
X0125000Y0039636D02*
X0150000Y0039636D01*
X0150057Y0040234D02*
X0124943Y0040234D01*
X0124695Y0040833D02*
X0150305Y0040833D01*
X0150582Y0041432D02*
X0124418Y0041432D01*
X0123820Y0042030D02*
X0151180Y0042030D01*
X0152148Y0042629D02*
X0122852Y0042629D01*
X0117359Y0049811D02*
X0157641Y0049811D01*
X0158150Y0049600D02*
X0161850Y0049600D01*
X0165268Y0051016D01*
X0167884Y0053632D01*
X0169300Y0057050D01*
X0169300Y0060750D01*
X0167884Y0064168D01*
X0167698Y0064354D01*
X0168514Y0064225D01*
X0168700Y0064225D01*
X0168700Y0070100D01*
X0162825Y0070100D01*
X0162825Y0069914D01*
X0162977Y0068954D01*
X0163277Y0068030D01*
X0163549Y0067496D01*
X0161850Y0068200D01*
X0158150Y0068200D01*
X0154732Y0066784D01*
X0152116Y0064168D01*
X0150700Y0060750D01*
X0150700Y0057050D01*
X0152116Y0053632D01*
X0154732Y0051016D01*
X0158150Y0049600D01*
X0156197Y0050409D02*
X0118803Y0050409D01*
X0120248Y0051008D02*
X0154752Y0051008D01*
X0154142Y0051606D02*
X0120858Y0051606D01*
X0121457Y0052205D02*
X0153543Y0052205D01*
X0152945Y0052803D02*
X0122055Y0052803D01*
X0122654Y0053402D02*
X0152346Y0053402D01*
X0151963Y0054000D02*
X0123037Y0054000D01*
X0123285Y0054599D02*
X0151715Y0054599D01*
X0151467Y0055197D02*
X0123533Y0055197D01*
X0123780Y0055796D02*
X0151220Y0055796D01*
X0150972Y0056394D02*
X0124028Y0056394D01*
X0124276Y0056993D02*
X0150724Y0056993D01*
X0150700Y0057591D02*
X0124300Y0057591D01*
X0124300Y0058190D02*
X0150700Y0058190D01*
X0150700Y0058788D02*
X0124300Y0058788D01*
X0124300Y0059387D02*
X0150700Y0059387D01*
X0150700Y0059985D02*
X0124300Y0059985D01*
X0124300Y0060584D02*
X0150700Y0060584D01*
X0150879Y0061182D02*
X0124121Y0061182D01*
X0123873Y0061781D02*
X0151127Y0061781D01*
X0151375Y0062379D02*
X0123625Y0062379D01*
X0123377Y0062978D02*
X0151623Y0062978D01*
X0151871Y0063576D02*
X0123129Y0063576D01*
X0122877Y0064175D02*
X0152123Y0064175D01*
X0152721Y0064773D02*
X0122279Y0064773D01*
X0121680Y0065372D02*
X0153320Y0065372D01*
X0153918Y0065970D02*
X0121082Y0065970D01*
X0120483Y0066569D02*
X0154517Y0066569D01*
X0155657Y0067168D02*
X0119343Y0067168D01*
X0117898Y0067766D02*
X0157102Y0067766D01*
X0162898Y0067766D02*
X0163412Y0067766D01*
X0163169Y0068365D02*
X0111831Y0068365D01*
X0112024Y0068963D02*
X0162976Y0068963D01*
X0162881Y0069562D02*
X0112119Y0069562D01*
X0112175Y0070700D02*
X0112175Y0070886D01*
X0112023Y0071846D01*
X0111723Y0072770D01*
X0111281Y0073636D01*
X0110710Y0074423D01*
X0110023Y0075110D01*
X0109236Y0075681D01*
X0108370Y0076123D01*
X0107446Y0076423D01*
X0106486Y0076575D01*
X0106300Y0076575D01*
X0106300Y0070700D01*
X0112175Y0070700D01*
X0112175Y0070759D02*
X0162825Y0070759D01*
X0162900Y0071357D02*
X0112100Y0071357D01*
X0111987Y0071956D02*
X0163013Y0071956D01*
X0163207Y0072554D02*
X0111793Y0072554D01*
X0111528Y0073153D02*
X0163472Y0073153D01*
X0163802Y0073751D02*
X0111198Y0073751D01*
X0110763Y0074350D02*
X0164237Y0074350D01*
X0164815Y0074948D02*
X0110185Y0074948D01*
X0109422Y0075547D02*
X0165578Y0075547D01*
X0166699Y0076145D02*
X0108301Y0076145D01*
X0106300Y0076145D02*
X0105700Y0076145D01*
X0105700Y0075547D02*
X0106300Y0075547D01*
X0106300Y0074948D02*
X0105700Y0074948D01*
X0105700Y0074350D02*
X0106300Y0074350D01*
X0106300Y0073751D02*
X0105700Y0073751D01*
X0105700Y0073153D02*
X0106300Y0073153D01*
X0106300Y0072554D02*
X0105700Y0072554D01*
X0105700Y0071956D02*
X0106300Y0071956D01*
X0106300Y0071357D02*
X0105700Y0071357D01*
X0105700Y0070759D02*
X0106300Y0070759D01*
X0102578Y0075547D02*
X0101400Y0075547D01*
X0101400Y0076145D02*
X0103699Y0076145D01*
X0101815Y0074948D02*
X0101400Y0074948D01*
X0096700Y0071357D02*
X0029696Y0071357D01*
X0029750Y0070759D02*
X0096700Y0070759D01*
X0096700Y0070160D02*
X0029750Y0070160D01*
X0029662Y0069562D02*
X0096700Y0069562D01*
X0096700Y0068963D02*
X0029414Y0068963D01*
X0029126Y0068365D02*
X0096700Y0068365D01*
X0096700Y0067766D02*
X0028528Y0067766D01*
X0027593Y0067168D02*
X0096700Y0067168D01*
X0111588Y0067766D02*
X0112102Y0067766D01*
X0118017Y0080933D02*
X0119304Y0080400D01*
X0120696Y0080400D01*
X0121983Y0080933D01*
X0117418Y0081532D02*
X0101400Y0081532D01*
X0101400Y0082130D02*
X0116945Y0082130D01*
X0116697Y0082729D02*
X0101400Y0082729D01*
X0101400Y0083327D02*
X0116500Y0083327D01*
X0116500Y0083926D02*
X0101400Y0083926D01*
X0101400Y0084524D02*
X0116500Y0084524D01*
X0116718Y0085123D02*
X0101400Y0085123D01*
X0101400Y0085721D02*
X0116966Y0085721D01*
X0117470Y0086320D02*
X0101400Y0086320D01*
X0101400Y0086918D02*
X0118141Y0086918D01*
X0122842Y0091108D02*
X0101400Y0091108D01*
X0101400Y0091706D02*
X0122244Y0091706D01*
X0121872Y0092305D02*
X0101400Y0092305D01*
X0101400Y0092903D02*
X0121624Y0092903D01*
X0121500Y0093502D02*
X0101400Y0093502D01*
X0101400Y0094101D02*
X0121500Y0094101D01*
X0121543Y0094699D02*
X0101400Y0094699D01*
X0101400Y0095298D02*
X0121791Y0095298D01*
X0122046Y0095896D02*
X0101400Y0095896D01*
X0101400Y0096495D02*
X0122645Y0096495D01*
X0123563Y0097093D02*
X0101400Y0097093D01*
X0089200Y0091108D02*
X0027478Y0091108D01*
X0025522Y0091108D02*
X0010200Y0091108D01*
X0010200Y0091706D02*
X0024924Y0091706D01*
X0024400Y0092305D02*
X0010200Y0092305D01*
X0010200Y0092903D02*
X0024400Y0092903D01*
X0024400Y0093502D02*
X0010200Y0093502D01*
X0010200Y0094101D02*
X0024531Y0094101D01*
X0025129Y0094699D02*
X0010200Y0094699D01*
X0010200Y0090509D02*
X0036540Y0090509D01*
X0035941Y0089911D02*
X0010200Y0089911D01*
X0010200Y0089312D02*
X0035800Y0089312D01*
X0035800Y0088714D02*
X0010200Y0088714D01*
X0010200Y0088115D02*
X0035800Y0088115D01*
X0036313Y0087517D02*
X0010200Y0087517D01*
X0017367Y0083926D02*
X0024833Y0083926D01*
X0023765Y0083327D02*
X0018435Y0083327D01*
X0019033Y0082729D02*
X0023167Y0082729D01*
X0022825Y0082130D02*
X0019375Y0082130D01*
X0019623Y0081532D02*
X0022577Y0081532D01*
X0022450Y0080933D02*
X0019750Y0080933D01*
X0019750Y0080335D02*
X0022450Y0080335D01*
X0022466Y0079736D02*
X0019734Y0079736D01*
X0019486Y0079138D02*
X0022714Y0079138D01*
X0022961Y0078539D02*
X0019239Y0078539D01*
X0018703Y0077941D02*
X0023497Y0077941D01*
X0024186Y0077342D02*
X0018014Y0077342D01*
X0017789Y0073751D02*
X0024411Y0073751D01*
X0023591Y0073153D02*
X0018609Y0073153D01*
X0019200Y0072554D02*
X0023000Y0072554D01*
X0022752Y0071956D02*
X0019448Y0071956D01*
X0019696Y0071357D02*
X0022504Y0071357D01*
X0022450Y0070759D02*
X0019750Y0070759D01*
X0019750Y0070160D02*
X0022450Y0070160D01*
X0022538Y0069562D02*
X0019662Y0069562D01*
X0019414Y0068963D02*
X0022786Y0068963D01*
X0023074Y0068365D02*
X0019126Y0068365D01*
X0018528Y0067766D02*
X0023672Y0067766D01*
X0024607Y0067168D02*
X0017593Y0067168D01*
X0017811Y0064175D02*
X0024389Y0064175D01*
X0023449Y0063576D02*
X0018751Y0063576D01*
X0019315Y0062978D02*
X0022885Y0062978D01*
X0022495Y0062379D02*
X0019705Y0062379D01*
X0019953Y0061781D02*
X0022247Y0061781D01*
X0022106Y0061182D02*
X0020094Y0061182D01*
X0020127Y0059985D02*
X0022073Y0059985D01*
X0022050Y0060101D02*
X0022206Y0059319D01*
X0022511Y0058582D01*
X0022954Y0057918D01*
X0023518Y0057354D01*
X0024182Y0056911D01*
X0024919Y0056606D01*
X0025701Y0056450D01*
X0025800Y0056450D01*
X0025800Y0060200D01*
X0022050Y0060200D01*
X0022050Y0060101D01*
X0022192Y0059387D02*
X0020008Y0059387D01*
X0019775Y0058788D02*
X0022425Y0058788D01*
X0022773Y0058190D02*
X0019427Y0058190D01*
X0018919Y0057591D02*
X0023281Y0057591D01*
X0024059Y0056993D02*
X0018141Y0056993D01*
X0016400Y0056993D02*
X0015800Y0056993D01*
X0015800Y0057591D02*
X0016400Y0057591D01*
X0016400Y0058190D02*
X0015800Y0058190D01*
X0015800Y0058788D02*
X0016400Y0058788D01*
X0016400Y0059387D02*
X0015800Y0059387D01*
X0015800Y0059985D02*
X0016400Y0059985D01*
X0016400Y0061781D02*
X0015800Y0061781D01*
X0015800Y0062379D02*
X0016400Y0062379D01*
X0016400Y0062978D02*
X0015800Y0062978D01*
X0015800Y0063576D02*
X0016400Y0063576D01*
X0016400Y0064175D02*
X0015800Y0064175D01*
X0012073Y0059985D02*
X0010200Y0059985D01*
X0010200Y0059387D02*
X0012192Y0059387D01*
X0012425Y0058788D02*
X0010200Y0058788D01*
X0010200Y0058190D02*
X0012773Y0058190D01*
X0013281Y0057591D02*
X0010200Y0057591D01*
X0010200Y0056993D02*
X0014059Y0056993D01*
X0025800Y0056993D02*
X0026400Y0056993D01*
X0026400Y0057591D02*
X0025800Y0057591D01*
X0025800Y0058190D02*
X0026400Y0058190D01*
X0026400Y0058788D02*
X0025800Y0058788D01*
X0025800Y0059387D02*
X0026400Y0059387D01*
X0026400Y0059985D02*
X0025800Y0059985D01*
X0025800Y0061781D02*
X0026400Y0061781D01*
X0026400Y0062379D02*
X0025800Y0062379D01*
X0025800Y0062978D02*
X0026400Y0062978D01*
X0026400Y0063576D02*
X0025800Y0063576D01*
X0025800Y0064175D02*
X0026400Y0064175D01*
X0010200Y0074948D02*
X0073748Y0074948D01*
X0073700Y0075547D02*
X0010200Y0075547D01*
X0010200Y0076145D02*
X0073700Y0076145D01*
X0076900Y0109662D02*
X0034773Y0109662D01*
X0035372Y0110260D02*
X0076900Y0110260D01*
X0076900Y0110859D02*
X0035900Y0110859D01*
X0035900Y0111457D02*
X0076900Y0111457D01*
X0076900Y0112056D02*
X0035900Y0112056D01*
X0035857Y0112654D02*
X0076900Y0112654D01*
X0076900Y0113253D02*
X0070023Y0113253D01*
X0070621Y0113851D02*
X0076900Y0113851D01*
X0076900Y0114450D02*
X0071200Y0114450D01*
X0071200Y0115048D02*
X0076900Y0115048D01*
X0076900Y0115647D02*
X0071200Y0115647D01*
X0071124Y0116245D02*
X0076900Y0116245D01*
X0068177Y0113253D02*
X0035258Y0113253D01*
X0034660Y0113851D02*
X0067579Y0113851D01*
X0044185Y0116245D02*
X0018100Y0116245D01*
X0018100Y0116844D02*
X0043586Y0116844D01*
X0043000Y0117442D02*
X0018100Y0117442D01*
X0018100Y0118041D02*
X0043000Y0118041D01*
X0043000Y0118639D02*
X0018100Y0118639D01*
X0018100Y0119238D02*
X0043068Y0119238D01*
X0032394Y0119837D02*
X0018100Y0119837D01*
X0018100Y0120435D02*
X0031795Y0120435D01*
X0031500Y0121034D02*
X0018100Y0121034D01*
X0018100Y0121632D02*
X0031500Y0121632D01*
X0031500Y0122231D02*
X0018100Y0122231D01*
X0018100Y0122829D02*
X0031859Y0122829D01*
X0019614Y0128216D02*
X0018100Y0128216D01*
X0018100Y0128814D02*
X0019016Y0128814D01*
X0018417Y0129413D02*
X0018100Y0129413D01*
X0018100Y0130011D02*
X0018400Y0130011D01*
X0018400Y0130610D02*
X0018100Y0130610D01*
X0018100Y0131208D02*
X0018438Y0131208D01*
X0036700Y0159937D02*
X0074893Y0159937D01*
X0074295Y0160535D02*
X0036700Y0160535D01*
X0036700Y0161134D02*
X0074200Y0161134D01*
X0074200Y0161732D02*
X0036700Y0161732D01*
X0036700Y0162331D02*
X0074200Y0162331D01*
X0074759Y0162929D02*
X0038699Y0162929D01*
X0028900Y0170710D02*
X0026868Y0170710D01*
X0026700Y0171308D02*
X0028900Y0171308D01*
X0028900Y0171907D02*
X0026430Y0171907D01*
X0026022Y0172505D02*
X0028900Y0172505D01*
X0028900Y0173104D02*
X0025395Y0173104D01*
X0024303Y0173703D02*
X0028900Y0173703D01*
X0104302Y0195249D02*
X0163498Y0195249D01*
X0162900Y0195847D02*
X0104900Y0195847D01*
X0105499Y0196446D02*
X0162301Y0196446D01*
X0141983Y0080933D02*
X0140696Y0080400D01*
X0139304Y0080400D01*
X0138017Y0080933D01*
X0166457Y0052205D02*
X0173600Y0052205D01*
X0173600Y0052803D02*
X0167055Y0052803D01*
X0167654Y0053402D02*
X0173600Y0053402D01*
X0173600Y0054000D02*
X0168037Y0054000D01*
X0168285Y0054599D02*
X0173600Y0054599D01*
X0173600Y0055197D02*
X0168533Y0055197D01*
X0168780Y0055796D02*
X0173600Y0055796D01*
X0173600Y0056394D02*
X0169028Y0056394D01*
X0169276Y0056993D02*
X0173600Y0056993D01*
X0173600Y0057591D02*
X0169300Y0057591D01*
X0169300Y0058190D02*
X0173600Y0058190D01*
X0173600Y0058788D02*
X0169300Y0058788D01*
X0169300Y0059387D02*
X0173600Y0059387D01*
X0173600Y0059985D02*
X0169300Y0059985D01*
X0169300Y0060584D02*
X0173600Y0060584D01*
X0173600Y0061182D02*
X0169121Y0061182D01*
X0168873Y0061781D02*
X0173600Y0061781D01*
X0173600Y0062379D02*
X0168625Y0062379D01*
X0168377Y0062978D02*
X0173600Y0062978D01*
X0173600Y0063576D02*
X0168129Y0063576D01*
X0167877Y0064175D02*
X0173600Y0064175D01*
X0173600Y0064773D02*
X0171559Y0064773D01*
X0172585Y0065372D02*
X0173600Y0065372D01*
X0173600Y0065970D02*
X0173303Y0065970D01*
X0169300Y0065970D02*
X0168700Y0065970D01*
X0168700Y0065372D02*
X0169300Y0065372D01*
X0169300Y0064773D02*
X0168700Y0064773D01*
X0168700Y0066569D02*
X0169300Y0066569D01*
X0169300Y0067168D02*
X0168700Y0067168D01*
X0168700Y0067766D02*
X0169300Y0067766D01*
X0169300Y0068365D02*
X0168700Y0068365D01*
X0168700Y0068963D02*
X0169300Y0068963D01*
X0169300Y0069562D02*
X0168700Y0069562D01*
X0168700Y0075547D02*
X0169300Y0075547D01*
X0169300Y0076145D02*
X0168700Y0076145D01*
X0165858Y0051606D02*
X0173600Y0051606D01*
X0173600Y0051008D02*
X0165248Y0051008D01*
X0163803Y0050409D02*
X0173600Y0050409D01*
X0173600Y0049811D02*
X0162359Y0049811D01*
X0162148Y0042629D02*
X0154852Y0042629D01*
X0155820Y0042030D02*
X0161180Y0042030D01*
X0160582Y0041432D02*
X0156418Y0041432D01*
X0156695Y0040833D02*
X0160305Y0040833D01*
X0160057Y0040234D02*
X0156943Y0040234D01*
X0157000Y0039636D02*
X0160000Y0039636D01*
X0160000Y0039037D02*
X0157000Y0039037D01*
X0156890Y0038439D02*
X0160110Y0038439D01*
X0160358Y0037840D02*
X0156642Y0037840D01*
X0156292Y0037242D02*
X0160708Y0037242D01*
X0161307Y0036643D02*
X0155693Y0036643D01*
X0154546Y0036045D02*
X0162454Y0036045D01*
D16*
X0167500Y0096100D03*
X0168800Y0119000D03*
X0104500Y0124300D03*
X0102700Y0119500D03*
X0093700Y0119500D03*
X0103900Y0096100D03*
X0084700Y0082900D03*
D17*
X0094300Y0106900D03*
X0091900Y0114100D03*
X0072700Y0114700D03*
X0033700Y0111700D03*
X0019000Y0107400D03*
D18*
X0076900Y0075700D03*
M02*
