G75*
%MOIN*%
%OFA0B0*%
%FSLAX25Y25*%
%IPPOS*%
%LPD*%
%AMOC8*
5,1,8,0,0,1.08239X$1,22.5*
%
%ADD10R,0.06500X0.06500*%
%ADD11C,0.06500*%
%ADD12R,0.06000X0.06000*%
%ADD13C,0.06000*%
%ADD14C,0.09750*%
%ADD15R,0.03898X0.02717*%
%ADD16C,0.00875*%
%ADD17R,0.18898X0.18898*%
%ADD18R,0.03543X0.00984*%
%ADD19R,0.00984X0.03543*%
%ADD20R,0.01181X0.05118*%
%ADD21R,0.07087X0.08661*%
%ADD22C,0.02400*%
%ADD23C,0.03600*%
%ADD24C,0.00600*%
%ADD25C,0.01600*%
%ADD26C,0.00800*%
%ADD27C,0.03200*%
%ADD28C,0.01000*%
%ADD29C,0.02600*%
%ADD30C,0.04600*%
%ADD31C,0.03000*%
D10*
X0016100Y0080500D03*
X0022900Y0159900D03*
D11*
X0022900Y0169900D03*
X0022900Y0179900D03*
X0026100Y0080500D03*
X0026100Y0070500D03*
X0026100Y0060500D03*
X0016100Y0060500D03*
X0016100Y0070500D03*
D12*
X0120000Y0083900D03*
D13*
X0130000Y0083900D03*
X0140000Y0083900D03*
X0150000Y0083900D03*
X0145000Y0093900D03*
X0135000Y0093900D03*
X0125000Y0093900D03*
X0155000Y0093900D03*
X0153500Y0039400D03*
X0163500Y0039400D03*
X0121500Y0039400D03*
X0111500Y0039400D03*
D14*
X0106000Y0070400D03*
X0169000Y0070400D03*
D15*
X0084979Y0088960D03*
X0084979Y0092700D03*
X0084979Y0096440D03*
X0074782Y0096440D03*
X0068779Y0096440D03*
X0068779Y0092700D03*
X0068779Y0088960D03*
X0074782Y0088960D03*
X0058582Y0088960D03*
X0052179Y0089160D03*
X0052179Y0092900D03*
X0052179Y0096640D03*
X0058582Y0096440D03*
X0041982Y0096640D03*
X0036818Y0096760D03*
X0036818Y0104240D03*
X0026621Y0104240D03*
X0026621Y0100500D03*
X0026621Y0096760D03*
X0041982Y0089160D03*
D16*
X0034813Y0088087D02*
X0032187Y0088087D01*
X0032187Y0090713D01*
X0034813Y0090713D01*
X0034813Y0088087D01*
X0034813Y0088961D02*
X0032187Y0088961D01*
X0032187Y0089835D02*
X0034813Y0089835D01*
X0034813Y0090709D02*
X0032187Y0090709D01*
X0028813Y0088087D02*
X0026187Y0088087D01*
X0026187Y0090713D01*
X0028813Y0090713D01*
X0028813Y0088087D01*
X0028813Y0088961D02*
X0026187Y0088961D01*
X0026187Y0089835D02*
X0028813Y0089835D01*
X0028813Y0090709D02*
X0026187Y0090709D01*
X0027587Y0110013D02*
X0030213Y0110013D01*
X0030213Y0107387D01*
X0027587Y0107387D01*
X0027587Y0110013D01*
X0027587Y0108261D02*
X0030213Y0108261D01*
X0030213Y0109135D02*
X0027587Y0109135D01*
X0027587Y0110009D02*
X0030213Y0110009D01*
X0030413Y0113387D02*
X0027787Y0113387D01*
X0027787Y0116013D01*
X0030413Y0116013D01*
X0030413Y0113387D01*
X0030413Y0114261D02*
X0027787Y0114261D01*
X0027787Y0115135D02*
X0030413Y0115135D01*
X0030413Y0116009D02*
X0027787Y0116009D01*
X0027787Y0119987D02*
X0030413Y0119987D01*
X0027787Y0119987D02*
X0027787Y0122613D01*
X0030413Y0122613D01*
X0030413Y0119987D01*
X0030413Y0120861D02*
X0027787Y0120861D01*
X0027787Y0121735D02*
X0030413Y0121735D01*
X0030413Y0122609D02*
X0027787Y0122609D01*
X0024413Y0119987D02*
X0021787Y0119987D01*
X0021787Y0122613D01*
X0024413Y0122613D01*
X0024413Y0119987D01*
X0024413Y0120861D02*
X0021787Y0120861D01*
X0021787Y0121735D02*
X0024413Y0121735D01*
X0024413Y0122609D02*
X0021787Y0122609D01*
X0021787Y0113387D02*
X0024413Y0113387D01*
X0021787Y0113387D02*
X0021787Y0116013D01*
X0024413Y0116013D01*
X0024413Y0113387D01*
X0024413Y0114261D02*
X0021787Y0114261D01*
X0021787Y0115135D02*
X0024413Y0115135D01*
X0024413Y0116009D02*
X0021787Y0116009D01*
X0021587Y0110013D02*
X0024213Y0110013D01*
X0024213Y0107387D01*
X0021587Y0107387D01*
X0021587Y0110013D01*
X0021587Y0108261D02*
X0024213Y0108261D01*
X0024213Y0109135D02*
X0021587Y0109135D01*
X0021587Y0110009D02*
X0024213Y0110009D01*
X0043587Y0104213D02*
X0046213Y0104213D01*
X0046213Y0101587D01*
X0043587Y0101587D01*
X0043587Y0104213D01*
X0043587Y0102461D02*
X0046213Y0102461D01*
X0046213Y0103335D02*
X0043587Y0103335D01*
X0043587Y0104209D02*
X0046213Y0104209D01*
X0049587Y0104213D02*
X0052213Y0104213D01*
X0052213Y0101587D01*
X0049587Y0101587D01*
X0049587Y0104213D01*
X0049587Y0102461D02*
X0052213Y0102461D01*
X0052213Y0103335D02*
X0049587Y0103335D01*
X0049587Y0104209D02*
X0052213Y0104209D01*
X0059787Y0104213D02*
X0062413Y0104213D01*
X0062413Y0101587D01*
X0059787Y0101587D01*
X0059787Y0104213D01*
X0059787Y0102461D02*
X0062413Y0102461D01*
X0062413Y0103335D02*
X0059787Y0103335D01*
X0059787Y0104209D02*
X0062413Y0104209D01*
X0065787Y0104213D02*
X0068413Y0104213D01*
X0068413Y0101587D01*
X0065787Y0101587D01*
X0065787Y0104213D01*
X0065787Y0102461D02*
X0068413Y0102461D01*
X0068413Y0103335D02*
X0065787Y0103335D01*
X0065787Y0104209D02*
X0068413Y0104209D01*
X0075387Y0104213D02*
X0078013Y0104213D01*
X0078013Y0101587D01*
X0075387Y0101587D01*
X0075387Y0104213D01*
X0075387Y0102461D02*
X0078013Y0102461D01*
X0078013Y0103335D02*
X0075387Y0103335D01*
X0075387Y0104209D02*
X0078013Y0104209D01*
X0081387Y0104213D02*
X0084013Y0104213D01*
X0084013Y0101587D01*
X0081387Y0101587D01*
X0081387Y0104213D01*
X0081387Y0102461D02*
X0084013Y0102461D01*
X0084013Y0103335D02*
X0081387Y0103335D01*
X0081387Y0104209D02*
X0084013Y0104209D01*
X0084813Y0113987D02*
X0082187Y0113987D01*
X0082187Y0116613D01*
X0084813Y0116613D01*
X0084813Y0113987D01*
X0084813Y0114861D02*
X0082187Y0114861D01*
X0082187Y0115735D02*
X0084813Y0115735D01*
X0084813Y0116609D02*
X0082187Y0116609D01*
X0078813Y0113987D02*
X0076187Y0113987D01*
X0076187Y0116613D01*
X0078813Y0116613D01*
X0078813Y0113987D01*
X0078813Y0114861D02*
X0076187Y0114861D01*
X0076187Y0115735D02*
X0078813Y0115735D01*
X0078813Y0116609D02*
X0076187Y0116609D01*
D17*
X0053500Y0130500D03*
D18*
X0069445Y0129516D03*
X0069445Y0131484D03*
X0069445Y0133453D03*
X0069445Y0135421D03*
X0069445Y0137390D03*
X0069445Y0139358D03*
X0069445Y0141327D03*
X0069445Y0143295D03*
X0069445Y0127547D03*
X0069445Y0125579D03*
X0069445Y0123610D03*
X0069445Y0121642D03*
X0069445Y0119673D03*
X0069445Y0117705D03*
X0037555Y0117705D03*
X0037555Y0119673D03*
X0037555Y0121642D03*
X0037555Y0123610D03*
X0037555Y0125579D03*
X0037555Y0127547D03*
X0037555Y0129516D03*
X0037555Y0131484D03*
X0037555Y0133453D03*
X0037555Y0135421D03*
X0037555Y0137390D03*
X0037555Y0139358D03*
X0037555Y0141327D03*
X0037555Y0143295D03*
D19*
X0040705Y0146445D03*
X0042673Y0146445D03*
X0044642Y0146445D03*
X0046610Y0146445D03*
X0048579Y0146445D03*
X0050547Y0146445D03*
X0052516Y0146445D03*
X0054484Y0146445D03*
X0056453Y0146445D03*
X0058421Y0146445D03*
X0060390Y0146445D03*
X0062358Y0146445D03*
X0064327Y0146445D03*
X0066295Y0146445D03*
X0066295Y0114555D03*
X0064327Y0114555D03*
X0062358Y0114555D03*
X0060390Y0114555D03*
X0058421Y0114555D03*
X0056453Y0114555D03*
X0054484Y0114555D03*
X0052516Y0114555D03*
X0050547Y0114555D03*
X0048579Y0114555D03*
X0046610Y0114555D03*
X0044642Y0114555D03*
X0042673Y0114555D03*
X0040705Y0114555D03*
D20*
X0044300Y0170900D03*
X0046269Y0170900D03*
X0048237Y0170900D03*
X0050206Y0170900D03*
X0052174Y0170900D03*
X0054143Y0170900D03*
X0056111Y0170900D03*
X0058080Y0170900D03*
X0060048Y0170900D03*
X0062017Y0170900D03*
X0063985Y0170900D03*
X0065954Y0170900D03*
X0067922Y0170900D03*
X0069891Y0170900D03*
X0071859Y0170900D03*
X0073828Y0170900D03*
D21*
X0081702Y0179955D03*
X0036426Y0179955D03*
D22*
X0040300Y0166300D03*
X0037300Y0164500D03*
X0020500Y0143500D03*
X0020500Y0130300D03*
X0019300Y0121300D03*
X0033600Y0121600D03*
X0041500Y0123700D03*
X0041500Y0118900D03*
X0045100Y0118300D03*
X0048700Y0118900D03*
X0057700Y0118900D03*
X0062500Y0118900D03*
X0065500Y0123700D03*
X0069100Y0115300D03*
X0072700Y0100900D03*
X0069700Y0099700D03*
X0057100Y0101500D03*
X0054200Y0100200D03*
X0055200Y0085500D03*
X0060700Y0082900D03*
X0071800Y0085500D03*
X0069700Y0069100D03*
X0091300Y0091100D03*
X0089000Y0093300D03*
X0088900Y0096700D03*
X0096700Y0088300D03*
X0121300Y0118900D03*
X0114700Y0123100D03*
X0108700Y0120100D03*
X0129700Y0118900D03*
X0141100Y0123700D03*
X0131500Y0133900D03*
X0121300Y0141700D03*
X0129100Y0156100D03*
X0131500Y0158500D03*
X0133900Y0161500D03*
X0135700Y0165100D03*
X0147700Y0150400D03*
X0159100Y0145900D03*
X0159700Y0135100D03*
X0168100Y0169300D03*
X0156100Y0177700D03*
X0151900Y0171100D03*
X0160900Y0193300D03*
X0129700Y0183100D03*
X0120100Y0176500D03*
X0121300Y0169900D03*
X0106300Y0192700D03*
X0091300Y0182500D03*
X0075100Y0175900D03*
X0076300Y0161500D03*
X0087100Y0158500D03*
X0091900Y0147100D03*
X0100900Y0147100D03*
X0079900Y0147700D03*
X0079600Y0144500D03*
X0079900Y0140500D03*
X0079300Y0137500D03*
X0079300Y0133900D03*
X0036700Y0100300D03*
X0026500Y0093100D03*
X0022300Y0098500D03*
X0011500Y0099700D03*
X0037900Y0088900D03*
D23*
X0036700Y0026500D03*
X0084100Y0054100D03*
X0094900Y0069100D03*
X0166900Y0123700D03*
D24*
X0151900Y0131500D02*
X0149500Y0129100D01*
X0109900Y0129100D01*
X0108700Y0127900D01*
X0108700Y0120100D01*
X0121300Y0118900D02*
X0129700Y0118900D01*
X0129700Y0103900D01*
X0135000Y0098600D01*
X0135000Y0093900D01*
X0151900Y0131500D02*
X0151900Y0171100D01*
X0135700Y0165100D02*
X0114100Y0165100D01*
X0111700Y0162700D01*
X0111700Y0146500D01*
X0109700Y0144500D01*
X0079600Y0144500D01*
X0079900Y0140500D02*
X0109900Y0140500D01*
X0114700Y0145300D01*
X0114700Y0160300D01*
X0115900Y0161500D01*
X0133900Y0161500D01*
X0131500Y0158500D02*
X0117100Y0158500D01*
X0116500Y0157900D01*
X0116500Y0144100D01*
X0109900Y0137500D01*
X0079300Y0137500D01*
X0079300Y0133900D02*
X0110500Y0133900D01*
X0118300Y0141700D01*
X0118300Y0154900D01*
X0119500Y0156100D01*
X0129100Y0156100D01*
X0121300Y0169900D02*
X0121300Y0175300D01*
X0120100Y0176500D01*
X0121300Y0169900D02*
X0097900Y0169900D01*
X0096100Y0168100D01*
X0076900Y0157300D02*
X0076900Y0130600D01*
X0075700Y0133900D02*
X0075700Y0155500D01*
X0074500Y0154300D02*
X0074500Y0136700D01*
X0074498Y0136630D01*
X0074492Y0136559D01*
X0074483Y0136490D01*
X0074470Y0136421D01*
X0074453Y0136352D01*
X0074432Y0136285D01*
X0074408Y0136219D01*
X0074380Y0136154D01*
X0074349Y0136091D01*
X0074314Y0136030D01*
X0074276Y0135970D01*
X0074235Y0135913D01*
X0074191Y0135858D01*
X0074144Y0135806D01*
X0074094Y0135756D01*
X0074042Y0135709D01*
X0073987Y0135665D01*
X0073930Y0135624D01*
X0073870Y0135586D01*
X0073809Y0135551D01*
X0073746Y0135520D01*
X0073681Y0135492D01*
X0073615Y0135468D01*
X0073548Y0135447D01*
X0073479Y0135430D01*
X0073410Y0135417D01*
X0073341Y0135408D01*
X0073270Y0135402D01*
X0073200Y0135400D01*
X0069466Y0135400D01*
X0069458Y0135402D01*
X0069451Y0135406D01*
X0069447Y0135413D01*
X0069445Y0135421D01*
X0069445Y0133453D02*
X0069445Y0133300D01*
X0066100Y0133300D01*
X0066100Y0130300D01*
X0066884Y0129516D01*
X0069445Y0129516D01*
X0069498Y0127600D02*
X0073900Y0127600D01*
X0074007Y0127602D01*
X0074114Y0127608D01*
X0074221Y0127617D01*
X0074327Y0127631D01*
X0074433Y0127648D01*
X0074538Y0127669D01*
X0074642Y0127693D01*
X0074745Y0127722D01*
X0074847Y0127754D01*
X0074948Y0127789D01*
X0075048Y0127828D01*
X0075146Y0127871D01*
X0075243Y0127917D01*
X0075338Y0127967D01*
X0075431Y0128020D01*
X0075522Y0128076D01*
X0075611Y0128136D01*
X0075698Y0128198D01*
X0075782Y0128264D01*
X0075865Y0128333D01*
X0075944Y0128404D01*
X0076021Y0128479D01*
X0076096Y0128556D01*
X0076167Y0128635D01*
X0076236Y0128718D01*
X0076302Y0128802D01*
X0076364Y0128889D01*
X0076424Y0128978D01*
X0076480Y0129069D01*
X0076533Y0129162D01*
X0076583Y0129257D01*
X0076629Y0129354D01*
X0076672Y0129452D01*
X0076711Y0129552D01*
X0076746Y0129653D01*
X0076778Y0129755D01*
X0076807Y0129858D01*
X0076831Y0129962D01*
X0076852Y0130067D01*
X0076869Y0130173D01*
X0076883Y0130279D01*
X0076892Y0130386D01*
X0076898Y0130493D01*
X0076900Y0130600D01*
X0073300Y0131500D02*
X0069461Y0131500D01*
X0069455Y0131499D01*
X0069450Y0131495D01*
X0069446Y0131490D01*
X0069445Y0131484D01*
X0066100Y0133300D02*
X0066100Y0137500D01*
X0069445Y0137500D01*
X0069445Y0137390D01*
X0069445Y0139358D02*
X0071558Y0139358D01*
X0071638Y0139360D01*
X0071719Y0139365D01*
X0071799Y0139375D01*
X0071878Y0139388D01*
X0071957Y0139404D01*
X0072035Y0139424D01*
X0072112Y0139448D01*
X0072187Y0139476D01*
X0072262Y0139506D01*
X0072334Y0139541D01*
X0072406Y0139578D01*
X0072475Y0139619D01*
X0072542Y0139663D01*
X0072608Y0139710D01*
X0072671Y0139760D01*
X0072732Y0139813D01*
X0072790Y0139868D01*
X0072845Y0139926D01*
X0072898Y0139987D01*
X0072948Y0140050D01*
X0072995Y0140116D01*
X0073039Y0140183D01*
X0073080Y0140252D01*
X0073117Y0140324D01*
X0073152Y0140396D01*
X0073182Y0140471D01*
X0073210Y0140546D01*
X0073234Y0140623D01*
X0073254Y0140701D01*
X0073270Y0140780D01*
X0073283Y0140859D01*
X0073293Y0140939D01*
X0073298Y0141020D01*
X0073300Y0141100D01*
X0073300Y0153100D01*
X0074500Y0154300D02*
X0074498Y0154397D01*
X0074492Y0154493D01*
X0074483Y0154589D01*
X0074469Y0154685D01*
X0074451Y0154780D01*
X0074430Y0154874D01*
X0074405Y0154968D01*
X0074376Y0155060D01*
X0074344Y0155151D01*
X0074308Y0155241D01*
X0074268Y0155329D01*
X0074225Y0155415D01*
X0074178Y0155500D01*
X0074128Y0155583D01*
X0074075Y0155663D01*
X0074019Y0155742D01*
X0073959Y0155818D01*
X0073896Y0155891D01*
X0073831Y0155963D01*
X0073763Y0156031D01*
X0073691Y0156096D01*
X0073618Y0156159D01*
X0073542Y0156219D01*
X0073463Y0156275D01*
X0073383Y0156328D01*
X0073300Y0156378D01*
X0073215Y0156425D01*
X0073129Y0156468D01*
X0073041Y0156508D01*
X0072951Y0156544D01*
X0072860Y0156576D01*
X0072768Y0156605D01*
X0072674Y0156630D01*
X0072580Y0156651D01*
X0072485Y0156669D01*
X0072389Y0156683D01*
X0072293Y0156692D01*
X0072197Y0156698D01*
X0072100Y0156700D01*
X0073300Y0157900D02*
X0073397Y0157898D01*
X0073493Y0157892D01*
X0073589Y0157883D01*
X0073685Y0157869D01*
X0073780Y0157851D01*
X0073874Y0157830D01*
X0073968Y0157805D01*
X0074060Y0157776D01*
X0074151Y0157744D01*
X0074241Y0157708D01*
X0074329Y0157668D01*
X0074415Y0157625D01*
X0074500Y0157578D01*
X0074583Y0157528D01*
X0074663Y0157475D01*
X0074742Y0157419D01*
X0074818Y0157359D01*
X0074891Y0157296D01*
X0074963Y0157231D01*
X0075031Y0157163D01*
X0075096Y0157091D01*
X0075159Y0157018D01*
X0075219Y0156942D01*
X0075275Y0156863D01*
X0075328Y0156783D01*
X0075378Y0156700D01*
X0075425Y0156615D01*
X0075468Y0156529D01*
X0075508Y0156441D01*
X0075544Y0156351D01*
X0075576Y0156260D01*
X0075605Y0156168D01*
X0075630Y0156074D01*
X0075651Y0155980D01*
X0075669Y0155885D01*
X0075683Y0155789D01*
X0075692Y0155693D01*
X0075698Y0155597D01*
X0075700Y0155500D01*
X0076900Y0157300D02*
X0076898Y0157383D01*
X0076892Y0157466D01*
X0076883Y0157549D01*
X0076869Y0157631D01*
X0076852Y0157712D01*
X0076831Y0157793D01*
X0076807Y0157872D01*
X0076778Y0157950D01*
X0076747Y0158027D01*
X0076711Y0158102D01*
X0076673Y0158176D01*
X0076630Y0158248D01*
X0076585Y0158317D01*
X0076536Y0158385D01*
X0076485Y0158450D01*
X0076430Y0158513D01*
X0076373Y0158573D01*
X0076313Y0158630D01*
X0076250Y0158685D01*
X0076185Y0158736D01*
X0076117Y0158785D01*
X0076048Y0158830D01*
X0075976Y0158873D01*
X0075902Y0158911D01*
X0075827Y0158947D01*
X0075750Y0158978D01*
X0075672Y0159007D01*
X0075593Y0159031D01*
X0075512Y0159052D01*
X0075431Y0159069D01*
X0075349Y0159083D01*
X0075266Y0159092D01*
X0075183Y0159098D01*
X0075100Y0159100D01*
X0075031Y0159102D01*
X0074962Y0159107D01*
X0074894Y0159117D01*
X0074827Y0159130D01*
X0074760Y0159146D01*
X0074694Y0159167D01*
X0074629Y0159190D01*
X0074566Y0159218D01*
X0074504Y0159248D01*
X0074444Y0159282D01*
X0074386Y0159319D01*
X0074330Y0159359D01*
X0074277Y0159403D01*
X0074225Y0159449D01*
X0074177Y0159497D01*
X0074131Y0159549D01*
X0074087Y0159602D01*
X0074047Y0159658D01*
X0074010Y0159716D01*
X0073976Y0159776D01*
X0073946Y0159838D01*
X0073918Y0159901D01*
X0073895Y0159966D01*
X0073874Y0160032D01*
X0073858Y0160099D01*
X0073845Y0160166D01*
X0073835Y0160234D01*
X0073830Y0160303D01*
X0073828Y0160372D01*
X0073828Y0170900D01*
X0071859Y0170900D02*
X0071859Y0159341D01*
X0069891Y0158909D02*
X0069893Y0158818D01*
X0069899Y0158727D01*
X0069908Y0158636D01*
X0069921Y0158545D01*
X0069938Y0158456D01*
X0069959Y0158367D01*
X0069983Y0158279D01*
X0070011Y0158192D01*
X0070042Y0158106D01*
X0070077Y0158022D01*
X0070115Y0157939D01*
X0070157Y0157858D01*
X0070202Y0157778D01*
X0070251Y0157701D01*
X0070302Y0157625D01*
X0070357Y0157552D01*
X0070414Y0157481D01*
X0070475Y0157413D01*
X0070538Y0157347D01*
X0070604Y0157284D01*
X0070672Y0157223D01*
X0070743Y0157166D01*
X0070816Y0157111D01*
X0070892Y0157060D01*
X0070969Y0157011D01*
X0071049Y0156966D01*
X0071130Y0156924D01*
X0071213Y0156886D01*
X0071297Y0156851D01*
X0071383Y0156820D01*
X0071470Y0156792D01*
X0071558Y0156768D01*
X0071647Y0156747D01*
X0071736Y0156730D01*
X0071827Y0156717D01*
X0071918Y0156708D01*
X0072009Y0156702D01*
X0072100Y0156700D01*
X0070900Y0155500D02*
X0070794Y0155502D01*
X0070688Y0155508D01*
X0070582Y0155517D01*
X0070476Y0155530D01*
X0070371Y0155547D01*
X0070267Y0155568D01*
X0070164Y0155593D01*
X0070061Y0155621D01*
X0069960Y0155652D01*
X0069859Y0155688D01*
X0069760Y0155727D01*
X0069663Y0155769D01*
X0069567Y0155815D01*
X0069473Y0155864D01*
X0069380Y0155917D01*
X0069290Y0155973D01*
X0069202Y0156032D01*
X0069115Y0156094D01*
X0069031Y0156159D01*
X0068950Y0156227D01*
X0068871Y0156298D01*
X0068794Y0156372D01*
X0068720Y0156449D01*
X0068649Y0156528D01*
X0068581Y0156609D01*
X0068516Y0156693D01*
X0068454Y0156780D01*
X0068395Y0156868D01*
X0068339Y0156958D01*
X0068286Y0157051D01*
X0068237Y0157145D01*
X0068191Y0157241D01*
X0068149Y0157338D01*
X0068110Y0157437D01*
X0068074Y0157538D01*
X0068043Y0157639D01*
X0068015Y0157742D01*
X0067990Y0157845D01*
X0067969Y0157949D01*
X0067952Y0158054D01*
X0067939Y0158160D01*
X0067930Y0158266D01*
X0067924Y0158372D01*
X0067922Y0158478D01*
X0067922Y0170900D01*
X0065954Y0170900D02*
X0065954Y0156246D01*
X0064300Y0155500D02*
X0064267Y0155502D01*
X0064235Y0155507D01*
X0064203Y0155515D01*
X0064172Y0155527D01*
X0064143Y0155542D01*
X0064115Y0155560D01*
X0064089Y0155581D01*
X0064066Y0155604D01*
X0064045Y0155630D01*
X0064027Y0155658D01*
X0064012Y0155687D01*
X0064000Y0155718D01*
X0063992Y0155750D01*
X0063987Y0155782D01*
X0063985Y0155815D01*
X0063985Y0170900D01*
X0062017Y0170900D02*
X0062017Y0152017D01*
X0062015Y0151966D01*
X0062010Y0151915D01*
X0062001Y0151865D01*
X0061988Y0151815D01*
X0061972Y0151766D01*
X0061952Y0151719D01*
X0061929Y0151673D01*
X0061903Y0151629D01*
X0061874Y0151587D01*
X0061842Y0151547D01*
X0061807Y0151510D01*
X0061770Y0151475D01*
X0061730Y0151443D01*
X0061688Y0151414D01*
X0061644Y0151388D01*
X0061598Y0151365D01*
X0061551Y0151345D01*
X0061502Y0151329D01*
X0061452Y0151316D01*
X0061402Y0151307D01*
X0061351Y0151302D01*
X0061300Y0151300D01*
X0061240Y0151298D01*
X0061181Y0151292D01*
X0061122Y0151283D01*
X0061064Y0151269D01*
X0061007Y0151252D01*
X0060952Y0151231D01*
X0060898Y0151206D01*
X0060845Y0151178D01*
X0060794Y0151147D01*
X0060746Y0151112D01*
X0060700Y0151074D01*
X0060657Y0151033D01*
X0060616Y0150990D01*
X0060578Y0150944D01*
X0060543Y0150896D01*
X0060512Y0150845D01*
X0060484Y0150792D01*
X0060459Y0150738D01*
X0060438Y0150683D01*
X0060421Y0150626D01*
X0060407Y0150568D01*
X0060398Y0150509D01*
X0060392Y0150450D01*
X0060390Y0150390D01*
X0060390Y0146445D01*
X0062358Y0146445D02*
X0062358Y0142900D01*
X0064900Y0142900D01*
X0066100Y0141700D01*
X0066100Y0140500D01*
X0066100Y0137500D01*
X0066100Y0140500D02*
X0066927Y0141327D01*
X0069445Y0141327D01*
X0069445Y0143295D02*
X0069445Y0152755D01*
X0070900Y0155500D02*
X0070997Y0155498D01*
X0071093Y0155492D01*
X0071189Y0155483D01*
X0071285Y0155469D01*
X0071380Y0155451D01*
X0071474Y0155430D01*
X0071568Y0155405D01*
X0071660Y0155376D01*
X0071751Y0155344D01*
X0071841Y0155308D01*
X0071929Y0155268D01*
X0072015Y0155225D01*
X0072100Y0155178D01*
X0072183Y0155128D01*
X0072263Y0155075D01*
X0072342Y0155019D01*
X0072418Y0154959D01*
X0072491Y0154896D01*
X0072563Y0154831D01*
X0072631Y0154763D01*
X0072696Y0154691D01*
X0072759Y0154618D01*
X0072819Y0154542D01*
X0072875Y0154463D01*
X0072928Y0154383D01*
X0072978Y0154300D01*
X0073025Y0154215D01*
X0073068Y0154129D01*
X0073108Y0154041D01*
X0073144Y0153951D01*
X0073176Y0153860D01*
X0073205Y0153768D01*
X0073230Y0153674D01*
X0073251Y0153580D01*
X0073269Y0153485D01*
X0073283Y0153389D01*
X0073292Y0153293D01*
X0073298Y0153197D01*
X0073300Y0153100D01*
X0069445Y0152755D02*
X0069443Y0152831D01*
X0069438Y0152906D01*
X0069428Y0152982D01*
X0069415Y0153056D01*
X0069399Y0153130D01*
X0069378Y0153203D01*
X0069355Y0153275D01*
X0069327Y0153346D01*
X0069297Y0153416D01*
X0069263Y0153483D01*
X0069225Y0153549D01*
X0069185Y0153613D01*
X0069141Y0153675D01*
X0069094Y0153735D01*
X0069045Y0153793D01*
X0068992Y0153847D01*
X0068938Y0153900D01*
X0068880Y0153949D01*
X0068820Y0153996D01*
X0068758Y0154040D01*
X0068694Y0154080D01*
X0068628Y0154118D01*
X0068561Y0154152D01*
X0068491Y0154182D01*
X0068420Y0154210D01*
X0068348Y0154233D01*
X0068275Y0154254D01*
X0068201Y0154270D01*
X0068127Y0154283D01*
X0068051Y0154293D01*
X0067976Y0154298D01*
X0067900Y0154300D01*
X0067813Y0154302D01*
X0067726Y0154308D01*
X0067639Y0154318D01*
X0067553Y0154331D01*
X0067467Y0154349D01*
X0067382Y0154370D01*
X0067299Y0154395D01*
X0067216Y0154424D01*
X0067135Y0154457D01*
X0067056Y0154493D01*
X0066978Y0154532D01*
X0066902Y0154575D01*
X0066828Y0154622D01*
X0066756Y0154672D01*
X0066687Y0154725D01*
X0066620Y0154781D01*
X0066555Y0154839D01*
X0066493Y0154901D01*
X0066435Y0154966D01*
X0066379Y0155033D01*
X0066326Y0155102D01*
X0066276Y0155174D01*
X0066229Y0155248D01*
X0066186Y0155324D01*
X0066147Y0155402D01*
X0066111Y0155481D01*
X0066078Y0155562D01*
X0066049Y0155645D01*
X0066024Y0155728D01*
X0066003Y0155813D01*
X0065985Y0155899D01*
X0065972Y0155985D01*
X0065962Y0156072D01*
X0065956Y0156159D01*
X0065954Y0156246D01*
X0064327Y0155473D02*
X0064327Y0146445D01*
X0066295Y0146445D02*
X0066295Y0144295D01*
X0064900Y0142900D01*
X0062358Y0142900D02*
X0058421Y0142900D01*
X0058421Y0146445D01*
X0056500Y0146492D02*
X0056500Y0150700D01*
X0056502Y0150767D01*
X0056508Y0150834D01*
X0056517Y0150901D01*
X0056530Y0150967D01*
X0056547Y0151032D01*
X0056567Y0151096D01*
X0056591Y0151159D01*
X0056619Y0151221D01*
X0056650Y0151280D01*
X0056684Y0151338D01*
X0056721Y0151394D01*
X0056762Y0151448D01*
X0056805Y0151500D01*
X0056851Y0151549D01*
X0056900Y0151595D01*
X0056952Y0151638D01*
X0057006Y0151679D01*
X0057062Y0151716D01*
X0057120Y0151750D01*
X0057179Y0151781D01*
X0057241Y0151809D01*
X0057304Y0151833D01*
X0057368Y0151853D01*
X0057433Y0151870D01*
X0057499Y0151883D01*
X0057566Y0151892D01*
X0057633Y0151898D01*
X0057700Y0151900D01*
X0058900Y0151900D01*
X0058967Y0151902D01*
X0059033Y0151908D01*
X0059099Y0151917D01*
X0059165Y0151931D01*
X0059229Y0151948D01*
X0059293Y0151969D01*
X0059355Y0151994D01*
X0059415Y0152022D01*
X0059474Y0152054D01*
X0059531Y0152089D01*
X0059586Y0152127D01*
X0059638Y0152169D01*
X0059688Y0152213D01*
X0059735Y0152260D01*
X0059779Y0152310D01*
X0059821Y0152362D01*
X0059859Y0152417D01*
X0059894Y0152474D01*
X0059926Y0152533D01*
X0059954Y0152593D01*
X0059979Y0152655D01*
X0060000Y0152719D01*
X0060017Y0152783D01*
X0060031Y0152849D01*
X0060040Y0152915D01*
X0060046Y0152981D01*
X0060048Y0153048D01*
X0060048Y0170900D01*
X0058080Y0170900D02*
X0058080Y0154680D01*
X0058078Y0154602D01*
X0058072Y0154525D01*
X0058063Y0154448D01*
X0058050Y0154372D01*
X0058033Y0154296D01*
X0058012Y0154221D01*
X0057988Y0154148D01*
X0057960Y0154075D01*
X0057928Y0154004D01*
X0057893Y0153935D01*
X0057855Y0153868D01*
X0057814Y0153802D01*
X0057769Y0153739D01*
X0057721Y0153678D01*
X0057671Y0153619D01*
X0057617Y0153563D01*
X0057561Y0153509D01*
X0057502Y0153459D01*
X0057441Y0153411D01*
X0057378Y0153366D01*
X0057312Y0153325D01*
X0057245Y0153287D01*
X0057176Y0153252D01*
X0057105Y0153220D01*
X0057032Y0153192D01*
X0056959Y0153168D01*
X0056884Y0153147D01*
X0056808Y0153130D01*
X0056732Y0153117D01*
X0056655Y0153108D01*
X0056578Y0153102D01*
X0056500Y0153100D01*
X0054000Y0153100D01*
X0054700Y0154300D02*
X0049900Y0154300D01*
X0049833Y0154298D01*
X0049766Y0154292D01*
X0049699Y0154283D01*
X0049633Y0154270D01*
X0049568Y0154253D01*
X0049504Y0154233D01*
X0049441Y0154209D01*
X0049379Y0154181D01*
X0049320Y0154150D01*
X0049262Y0154116D01*
X0049206Y0154079D01*
X0049152Y0154038D01*
X0049100Y0153995D01*
X0049051Y0153949D01*
X0049005Y0153900D01*
X0048962Y0153848D01*
X0048921Y0153794D01*
X0048884Y0153738D01*
X0048850Y0153680D01*
X0048819Y0153621D01*
X0048791Y0153559D01*
X0048767Y0153496D01*
X0048747Y0153432D01*
X0048730Y0153367D01*
X0048717Y0153301D01*
X0048708Y0153234D01*
X0048702Y0153167D01*
X0048700Y0153100D01*
X0048700Y0146566D01*
X0048698Y0146545D01*
X0048693Y0146525D01*
X0048684Y0146506D01*
X0048672Y0146488D01*
X0048657Y0146473D01*
X0048640Y0146461D01*
X0048620Y0146452D01*
X0048600Y0146447D01*
X0048579Y0146445D01*
X0050547Y0146445D02*
X0050547Y0142900D01*
X0054484Y0142900D01*
X0054484Y0146445D01*
X0052600Y0146529D02*
X0052600Y0151700D01*
X0052602Y0151773D01*
X0052608Y0151846D01*
X0052617Y0151919D01*
X0052631Y0151991D01*
X0052648Y0152062D01*
X0052669Y0152133D01*
X0052693Y0152202D01*
X0052721Y0152269D01*
X0052753Y0152336D01*
X0052788Y0152400D01*
X0052826Y0152462D01*
X0052867Y0152523D01*
X0052912Y0152581D01*
X0052960Y0152637D01*
X0053010Y0152690D01*
X0053063Y0152740D01*
X0053119Y0152788D01*
X0053177Y0152833D01*
X0053238Y0152874D01*
X0053300Y0152912D01*
X0053364Y0152947D01*
X0053431Y0152979D01*
X0053498Y0153007D01*
X0053567Y0153031D01*
X0053638Y0153052D01*
X0053709Y0153069D01*
X0053781Y0153083D01*
X0053854Y0153092D01*
X0053927Y0153098D01*
X0054000Y0153100D01*
X0052900Y0155500D02*
X0046200Y0155500D01*
X0046127Y0155498D01*
X0046054Y0155492D01*
X0045981Y0155483D01*
X0045909Y0155469D01*
X0045838Y0155452D01*
X0045767Y0155431D01*
X0045698Y0155407D01*
X0045631Y0155379D01*
X0045564Y0155347D01*
X0045500Y0155312D01*
X0045438Y0155274D01*
X0045377Y0155233D01*
X0045319Y0155188D01*
X0045263Y0155140D01*
X0045210Y0155090D01*
X0045160Y0155037D01*
X0045112Y0154981D01*
X0045067Y0154923D01*
X0045026Y0154862D01*
X0044988Y0154800D01*
X0044953Y0154736D01*
X0044921Y0154669D01*
X0044893Y0154602D01*
X0044869Y0154533D01*
X0044848Y0154462D01*
X0044831Y0154391D01*
X0044817Y0154319D01*
X0044808Y0154246D01*
X0044802Y0154173D01*
X0044800Y0154100D01*
X0044800Y0146603D01*
X0044798Y0146581D01*
X0044794Y0146558D01*
X0044786Y0146537D01*
X0044775Y0146518D01*
X0044761Y0146500D01*
X0044745Y0146484D01*
X0044727Y0146470D01*
X0044708Y0146459D01*
X0044687Y0146451D01*
X0044664Y0146447D01*
X0044642Y0146445D01*
X0046610Y0146445D02*
X0046610Y0142900D01*
X0043900Y0142900D01*
X0041500Y0142900D01*
X0040900Y0142300D01*
X0039905Y0143295D01*
X0037555Y0143295D01*
X0037482Y0141400D02*
X0035400Y0141400D01*
X0035336Y0141402D01*
X0035272Y0141407D01*
X0035209Y0141417D01*
X0035146Y0141430D01*
X0035085Y0141446D01*
X0035024Y0141466D01*
X0034964Y0141490D01*
X0034906Y0141517D01*
X0034850Y0141547D01*
X0034796Y0141581D01*
X0034743Y0141618D01*
X0034693Y0141657D01*
X0034645Y0141700D01*
X0034600Y0141745D01*
X0034557Y0141793D01*
X0034518Y0141843D01*
X0034481Y0141896D01*
X0034447Y0141950D01*
X0034417Y0142006D01*
X0034390Y0142064D01*
X0034366Y0142124D01*
X0034346Y0142185D01*
X0034330Y0142246D01*
X0034317Y0142309D01*
X0034307Y0142372D01*
X0034302Y0142436D01*
X0034300Y0142500D01*
X0034300Y0154300D01*
X0033100Y0155500D02*
X0033100Y0138700D01*
X0033102Y0138633D01*
X0033108Y0138566D01*
X0033117Y0138499D01*
X0033130Y0138433D01*
X0033147Y0138368D01*
X0033167Y0138304D01*
X0033191Y0138241D01*
X0033219Y0138179D01*
X0033250Y0138120D01*
X0033284Y0138062D01*
X0033321Y0138006D01*
X0033362Y0137952D01*
X0033405Y0137900D01*
X0033451Y0137851D01*
X0033500Y0137805D01*
X0033552Y0137762D01*
X0033606Y0137721D01*
X0033662Y0137684D01*
X0033720Y0137650D01*
X0033779Y0137619D01*
X0033841Y0137591D01*
X0033904Y0137567D01*
X0033968Y0137547D01*
X0034033Y0137530D01*
X0034099Y0137517D01*
X0034166Y0137508D01*
X0034233Y0137502D01*
X0034300Y0137500D01*
X0037445Y0137500D01*
X0037464Y0137498D01*
X0037483Y0137493D01*
X0037500Y0137485D01*
X0037516Y0137474D01*
X0037529Y0137461D01*
X0037540Y0137445D01*
X0037548Y0137428D01*
X0037553Y0137409D01*
X0037555Y0137390D01*
X0037555Y0139358D02*
X0040900Y0139358D01*
X0040900Y0142300D01*
X0042673Y0144127D02*
X0043900Y0142900D01*
X0042673Y0144127D02*
X0042673Y0146445D01*
X0040900Y0146640D02*
X0040900Y0154900D01*
X0040902Y0154983D01*
X0040908Y0155066D01*
X0040917Y0155149D01*
X0040931Y0155231D01*
X0040948Y0155312D01*
X0040969Y0155393D01*
X0040993Y0155472D01*
X0041022Y0155550D01*
X0041053Y0155627D01*
X0041089Y0155702D01*
X0041127Y0155776D01*
X0041170Y0155848D01*
X0041215Y0155917D01*
X0041264Y0155985D01*
X0041315Y0156050D01*
X0041370Y0156113D01*
X0041427Y0156173D01*
X0041487Y0156230D01*
X0041550Y0156285D01*
X0041615Y0156336D01*
X0041683Y0156385D01*
X0041752Y0156430D01*
X0041824Y0156473D01*
X0041898Y0156511D01*
X0041973Y0156547D01*
X0042050Y0156578D01*
X0042128Y0156607D01*
X0042207Y0156631D01*
X0042288Y0156652D01*
X0042369Y0156669D01*
X0042451Y0156683D01*
X0042534Y0156692D01*
X0042617Y0156698D01*
X0042700Y0156700D01*
X0051100Y0156700D01*
X0051165Y0156702D01*
X0051229Y0156708D01*
X0051294Y0156718D01*
X0051357Y0156731D01*
X0051420Y0156749D01*
X0051481Y0156770D01*
X0051541Y0156795D01*
X0051599Y0156823D01*
X0051656Y0156855D01*
X0051710Y0156890D01*
X0051762Y0156929D01*
X0051812Y0156970D01*
X0051859Y0157015D01*
X0051904Y0157062D01*
X0051945Y0157112D01*
X0051984Y0157164D01*
X0052019Y0157218D01*
X0052051Y0157275D01*
X0052079Y0157333D01*
X0052104Y0157393D01*
X0052125Y0157454D01*
X0052143Y0157517D01*
X0052156Y0157580D01*
X0052166Y0157645D01*
X0052172Y0157709D01*
X0052174Y0157774D01*
X0052174Y0170900D01*
X0050206Y0170900D02*
X0050206Y0159406D01*
X0050204Y0159330D01*
X0050198Y0159254D01*
X0050189Y0159178D01*
X0050175Y0159103D01*
X0050158Y0159029D01*
X0050137Y0158955D01*
X0050112Y0158883D01*
X0050084Y0158812D01*
X0050052Y0158743D01*
X0050017Y0158675D01*
X0049978Y0158609D01*
X0049936Y0158546D01*
X0049891Y0158484D01*
X0049843Y0158425D01*
X0049792Y0158368D01*
X0049738Y0158314D01*
X0049681Y0158263D01*
X0049622Y0158215D01*
X0049560Y0158170D01*
X0049497Y0158128D01*
X0049431Y0158089D01*
X0049363Y0158054D01*
X0049294Y0158022D01*
X0049223Y0157994D01*
X0049151Y0157969D01*
X0049077Y0157948D01*
X0049003Y0157931D01*
X0048928Y0157917D01*
X0048852Y0157908D01*
X0048776Y0157902D01*
X0048700Y0157900D01*
X0037900Y0157900D01*
X0036700Y0159100D02*
X0046900Y0159100D01*
X0046972Y0159102D01*
X0047045Y0159108D01*
X0047116Y0159118D01*
X0047187Y0159131D01*
X0047258Y0159149D01*
X0047327Y0159170D01*
X0047395Y0159195D01*
X0047461Y0159224D01*
X0047526Y0159256D01*
X0047589Y0159291D01*
X0047650Y0159330D01*
X0047709Y0159373D01*
X0047766Y0159418D01*
X0047819Y0159466D01*
X0047871Y0159518D01*
X0047919Y0159571D01*
X0047964Y0159628D01*
X0048007Y0159687D01*
X0048046Y0159748D01*
X0048081Y0159811D01*
X0048113Y0159876D01*
X0048142Y0159942D01*
X0048167Y0160010D01*
X0048188Y0160079D01*
X0048206Y0160150D01*
X0048219Y0160221D01*
X0048229Y0160292D01*
X0048235Y0160365D01*
X0048237Y0160437D01*
X0048237Y0170900D01*
X0046269Y0170900D02*
X0046269Y0170531D01*
X0046271Y0170521D01*
X0046275Y0170513D01*
X0046282Y0170506D01*
X0046290Y0170502D01*
X0046300Y0170500D01*
X0046300Y0161500D01*
X0046298Y0161433D01*
X0046292Y0161366D01*
X0046283Y0161299D01*
X0046270Y0161233D01*
X0046253Y0161168D01*
X0046233Y0161104D01*
X0046209Y0161041D01*
X0046181Y0160979D01*
X0046150Y0160920D01*
X0046116Y0160862D01*
X0046079Y0160806D01*
X0046038Y0160752D01*
X0045995Y0160700D01*
X0045949Y0160651D01*
X0045900Y0160605D01*
X0045848Y0160562D01*
X0045794Y0160521D01*
X0045738Y0160484D01*
X0045680Y0160450D01*
X0045621Y0160419D01*
X0045559Y0160391D01*
X0045496Y0160367D01*
X0045432Y0160347D01*
X0045367Y0160330D01*
X0045301Y0160317D01*
X0045234Y0160308D01*
X0045167Y0160302D01*
X0045100Y0160300D01*
X0036100Y0160300D01*
X0035500Y0161500D02*
X0043300Y0161500D01*
X0043367Y0161502D01*
X0043434Y0161508D01*
X0043501Y0161517D01*
X0043567Y0161530D01*
X0043632Y0161547D01*
X0043696Y0161567D01*
X0043759Y0161591D01*
X0043821Y0161619D01*
X0043880Y0161650D01*
X0043938Y0161684D01*
X0043994Y0161721D01*
X0044048Y0161762D01*
X0044100Y0161805D01*
X0044149Y0161851D01*
X0044195Y0161900D01*
X0044238Y0161952D01*
X0044279Y0162006D01*
X0044316Y0162062D01*
X0044350Y0162120D01*
X0044381Y0162179D01*
X0044409Y0162241D01*
X0044433Y0162304D01*
X0044453Y0162368D01*
X0044470Y0162433D01*
X0044483Y0162499D01*
X0044492Y0162566D01*
X0044498Y0162633D01*
X0044500Y0162700D01*
X0044500Y0170500D01*
X0044474Y0170502D01*
X0044448Y0170507D01*
X0044423Y0170515D01*
X0044400Y0170527D01*
X0044378Y0170541D01*
X0044359Y0170559D01*
X0044341Y0170578D01*
X0044327Y0170600D01*
X0044315Y0170623D01*
X0044307Y0170648D01*
X0044302Y0170674D01*
X0044300Y0170700D01*
X0044300Y0170900D01*
X0054143Y0170900D02*
X0054143Y0156743D01*
X0056111Y0155711D02*
X0056109Y0155637D01*
X0056103Y0155564D01*
X0056094Y0155490D01*
X0056080Y0155418D01*
X0056063Y0155346D01*
X0056042Y0155275D01*
X0056017Y0155205D01*
X0055989Y0155137D01*
X0055957Y0155070D01*
X0055922Y0155006D01*
X0055883Y0154943D01*
X0055842Y0154882D01*
X0055797Y0154823D01*
X0055749Y0154767D01*
X0055698Y0154713D01*
X0055644Y0154662D01*
X0055588Y0154614D01*
X0055529Y0154569D01*
X0055468Y0154528D01*
X0055406Y0154489D01*
X0055341Y0154454D01*
X0055274Y0154422D01*
X0055206Y0154394D01*
X0055136Y0154369D01*
X0055065Y0154348D01*
X0054993Y0154331D01*
X0054921Y0154317D01*
X0054847Y0154308D01*
X0054774Y0154302D01*
X0054700Y0154300D01*
X0056111Y0155711D02*
X0056111Y0170900D01*
X0054143Y0156743D02*
X0054141Y0156673D01*
X0054135Y0156604D01*
X0054125Y0156535D01*
X0054112Y0156466D01*
X0054094Y0156399D01*
X0054073Y0156332D01*
X0054048Y0156267D01*
X0054020Y0156204D01*
X0053988Y0156142D01*
X0053952Y0156082D01*
X0053914Y0156024D01*
X0053872Y0155968D01*
X0053827Y0155915D01*
X0053779Y0155864D01*
X0053728Y0155816D01*
X0053675Y0155771D01*
X0053619Y0155729D01*
X0053561Y0155691D01*
X0053501Y0155655D01*
X0053439Y0155623D01*
X0053376Y0155595D01*
X0053311Y0155570D01*
X0053244Y0155549D01*
X0053177Y0155531D01*
X0053108Y0155518D01*
X0053039Y0155508D01*
X0052970Y0155502D01*
X0052900Y0155500D01*
X0052600Y0146529D02*
X0052598Y0146513D01*
X0052594Y0146497D01*
X0052586Y0146482D01*
X0052575Y0146470D01*
X0052563Y0146459D01*
X0052548Y0146451D01*
X0052532Y0146447D01*
X0052516Y0146445D01*
X0056453Y0146445D02*
X0056465Y0146447D01*
X0056477Y0146451D01*
X0056486Y0146459D01*
X0056494Y0146469D01*
X0056498Y0146480D01*
X0056500Y0146492D01*
X0058421Y0142900D02*
X0054484Y0142900D01*
X0050547Y0142900D02*
X0046610Y0142900D01*
X0040900Y0139358D02*
X0040900Y0135421D01*
X0037555Y0135421D01*
X0037555Y0133453D02*
X0037553Y0133429D01*
X0037548Y0133406D01*
X0037538Y0133384D01*
X0037526Y0133363D01*
X0037510Y0133345D01*
X0037492Y0133329D01*
X0037471Y0133317D01*
X0037449Y0133307D01*
X0037426Y0133302D01*
X0037402Y0133300D01*
X0033100Y0133300D01*
X0033033Y0133302D01*
X0032966Y0133308D01*
X0032899Y0133317D01*
X0032833Y0133330D01*
X0032768Y0133347D01*
X0032704Y0133367D01*
X0032641Y0133391D01*
X0032579Y0133419D01*
X0032520Y0133450D01*
X0032462Y0133484D01*
X0032406Y0133521D01*
X0032352Y0133562D01*
X0032300Y0133605D01*
X0032251Y0133651D01*
X0032205Y0133700D01*
X0032162Y0133752D01*
X0032121Y0133806D01*
X0032084Y0133862D01*
X0032050Y0133920D01*
X0032019Y0133979D01*
X0031991Y0134041D01*
X0031967Y0134104D01*
X0031947Y0134168D01*
X0031930Y0134233D01*
X0031917Y0134299D01*
X0031908Y0134366D01*
X0031902Y0134433D01*
X0031900Y0134500D01*
X0031900Y0156100D01*
X0030700Y0156700D02*
X0030700Y0131500D01*
X0030702Y0131417D01*
X0030708Y0131334D01*
X0030717Y0131251D01*
X0030731Y0131169D01*
X0030748Y0131088D01*
X0030769Y0131007D01*
X0030793Y0130928D01*
X0030822Y0130850D01*
X0030853Y0130773D01*
X0030889Y0130698D01*
X0030927Y0130624D01*
X0030970Y0130552D01*
X0031015Y0130483D01*
X0031064Y0130415D01*
X0031115Y0130350D01*
X0031170Y0130287D01*
X0031227Y0130227D01*
X0031287Y0130170D01*
X0031350Y0130115D01*
X0031415Y0130064D01*
X0031483Y0130015D01*
X0031552Y0129970D01*
X0031624Y0129927D01*
X0031698Y0129889D01*
X0031773Y0129853D01*
X0031850Y0129822D01*
X0031928Y0129793D01*
X0032007Y0129769D01*
X0032088Y0129748D01*
X0032169Y0129731D01*
X0032251Y0129717D01*
X0032334Y0129708D01*
X0032417Y0129702D01*
X0032500Y0129700D01*
X0037371Y0129700D01*
X0037397Y0129698D01*
X0037423Y0129693D01*
X0037447Y0129683D01*
X0037470Y0129671D01*
X0037491Y0129655D01*
X0037510Y0129636D01*
X0037526Y0129615D01*
X0037538Y0129592D01*
X0037548Y0129568D01*
X0037553Y0129542D01*
X0037555Y0129516D01*
X0037555Y0131484D02*
X0037571Y0131500D01*
X0040900Y0131500D01*
X0040900Y0135421D01*
X0040900Y0131500D02*
X0040900Y0128500D01*
X0039947Y0127547D01*
X0037555Y0127547D01*
X0029853Y0127547D01*
X0027700Y0129700D01*
X0027700Y0178300D01*
X0026500Y0179500D01*
X0023300Y0179500D01*
X0022900Y0179900D01*
X0035500Y0161500D02*
X0035363Y0161498D01*
X0035226Y0161492D01*
X0035089Y0161482D01*
X0034953Y0161469D01*
X0034817Y0161451D01*
X0034681Y0161430D01*
X0034547Y0161404D01*
X0034413Y0161375D01*
X0034280Y0161342D01*
X0034148Y0161306D01*
X0034017Y0161265D01*
X0033887Y0161221D01*
X0033759Y0161173D01*
X0033632Y0161121D01*
X0033506Y0161066D01*
X0033382Y0161008D01*
X0033260Y0160945D01*
X0033140Y0160880D01*
X0033021Y0160810D01*
X0032905Y0160738D01*
X0032791Y0160662D01*
X0032679Y0160583D01*
X0032569Y0160501D01*
X0032462Y0160416D01*
X0032357Y0160328D01*
X0032254Y0160236D01*
X0032155Y0160142D01*
X0032058Y0160045D01*
X0031964Y0159946D01*
X0031872Y0159843D01*
X0031784Y0159738D01*
X0031699Y0159631D01*
X0031617Y0159521D01*
X0031538Y0159409D01*
X0031462Y0159295D01*
X0031390Y0159179D01*
X0031320Y0159060D01*
X0031255Y0158940D01*
X0031192Y0158818D01*
X0031134Y0158694D01*
X0031079Y0158568D01*
X0031027Y0158441D01*
X0030979Y0158313D01*
X0030935Y0158183D01*
X0030894Y0158052D01*
X0030858Y0157920D01*
X0030825Y0157787D01*
X0030796Y0157653D01*
X0030770Y0157519D01*
X0030749Y0157383D01*
X0030731Y0157247D01*
X0030718Y0157111D01*
X0030708Y0156974D01*
X0030702Y0156837D01*
X0030700Y0156700D01*
X0031900Y0156100D02*
X0031902Y0156227D01*
X0031908Y0156354D01*
X0031917Y0156480D01*
X0031931Y0156606D01*
X0031948Y0156732D01*
X0031969Y0156857D01*
X0031994Y0156982D01*
X0032022Y0157105D01*
X0032054Y0157228D01*
X0032090Y0157350D01*
X0032130Y0157470D01*
X0032173Y0157589D01*
X0032220Y0157707D01*
X0032270Y0157824D01*
X0032324Y0157939D01*
X0032381Y0158052D01*
X0032442Y0158163D01*
X0032506Y0158273D01*
X0032573Y0158380D01*
X0032643Y0158486D01*
X0032717Y0158589D01*
X0032794Y0158690D01*
X0032874Y0158789D01*
X0032956Y0158885D01*
X0033042Y0158979D01*
X0033130Y0159070D01*
X0033221Y0159158D01*
X0033315Y0159244D01*
X0033411Y0159326D01*
X0033510Y0159406D01*
X0033611Y0159483D01*
X0033714Y0159557D01*
X0033820Y0159627D01*
X0033927Y0159694D01*
X0034037Y0159758D01*
X0034148Y0159819D01*
X0034261Y0159876D01*
X0034376Y0159930D01*
X0034493Y0159980D01*
X0034611Y0160027D01*
X0034730Y0160070D01*
X0034850Y0160110D01*
X0034972Y0160146D01*
X0035095Y0160178D01*
X0035218Y0160206D01*
X0035343Y0160231D01*
X0035468Y0160252D01*
X0035594Y0160269D01*
X0035720Y0160283D01*
X0035846Y0160292D01*
X0035973Y0160298D01*
X0036100Y0160300D01*
X0036700Y0159100D02*
X0036582Y0159098D01*
X0036465Y0159092D01*
X0036347Y0159083D01*
X0036230Y0159069D01*
X0036114Y0159052D01*
X0035998Y0159031D01*
X0035883Y0159006D01*
X0035768Y0158977D01*
X0035655Y0158945D01*
X0035543Y0158909D01*
X0035432Y0158869D01*
X0035322Y0158826D01*
X0035214Y0158779D01*
X0035108Y0158729D01*
X0035003Y0158675D01*
X0034900Y0158618D01*
X0034799Y0158557D01*
X0034700Y0158493D01*
X0034603Y0158426D01*
X0034508Y0158356D01*
X0034416Y0158283D01*
X0034326Y0158207D01*
X0034239Y0158128D01*
X0034154Y0158046D01*
X0034072Y0157961D01*
X0033993Y0157874D01*
X0033917Y0157784D01*
X0033844Y0157692D01*
X0033774Y0157597D01*
X0033707Y0157500D01*
X0033643Y0157401D01*
X0033582Y0157300D01*
X0033525Y0157197D01*
X0033471Y0157092D01*
X0033421Y0156986D01*
X0033374Y0156878D01*
X0033331Y0156768D01*
X0033291Y0156657D01*
X0033255Y0156545D01*
X0033223Y0156432D01*
X0033194Y0156317D01*
X0033169Y0156202D01*
X0033148Y0156086D01*
X0033131Y0155970D01*
X0033117Y0155853D01*
X0033108Y0155735D01*
X0033102Y0155618D01*
X0033100Y0155500D01*
X0034300Y0154300D02*
X0034302Y0154418D01*
X0034308Y0154535D01*
X0034317Y0154653D01*
X0034331Y0154770D01*
X0034348Y0154886D01*
X0034369Y0155002D01*
X0034394Y0155117D01*
X0034423Y0155232D01*
X0034455Y0155345D01*
X0034491Y0155457D01*
X0034531Y0155568D01*
X0034574Y0155678D01*
X0034621Y0155786D01*
X0034671Y0155892D01*
X0034725Y0155997D01*
X0034782Y0156100D01*
X0034843Y0156201D01*
X0034907Y0156300D01*
X0034974Y0156397D01*
X0035044Y0156492D01*
X0035117Y0156584D01*
X0035193Y0156674D01*
X0035272Y0156761D01*
X0035354Y0156846D01*
X0035439Y0156928D01*
X0035526Y0157007D01*
X0035616Y0157083D01*
X0035708Y0157156D01*
X0035803Y0157226D01*
X0035900Y0157293D01*
X0035999Y0157357D01*
X0036100Y0157418D01*
X0036203Y0157475D01*
X0036308Y0157529D01*
X0036414Y0157579D01*
X0036522Y0157626D01*
X0036632Y0157669D01*
X0036743Y0157709D01*
X0036855Y0157745D01*
X0036968Y0157777D01*
X0037083Y0157806D01*
X0037198Y0157831D01*
X0037314Y0157852D01*
X0037430Y0157869D01*
X0037547Y0157883D01*
X0037665Y0157892D01*
X0037782Y0157898D01*
X0037900Y0157900D01*
X0040900Y0146640D02*
X0040898Y0146612D01*
X0040892Y0146585D01*
X0040882Y0146559D01*
X0040869Y0146535D01*
X0040852Y0146512D01*
X0040833Y0146493D01*
X0040810Y0146476D01*
X0040786Y0146463D01*
X0040760Y0146453D01*
X0040733Y0146447D01*
X0040705Y0146445D01*
X0037482Y0141400D02*
X0037498Y0141398D01*
X0037514Y0141393D01*
X0037528Y0141384D01*
X0037539Y0141373D01*
X0037548Y0141359D01*
X0037553Y0141343D01*
X0037555Y0141327D01*
X0048700Y0125700D02*
X0048700Y0118900D01*
X0045100Y0118300D02*
X0044642Y0117842D01*
X0044642Y0114555D01*
X0046610Y0114555D02*
X0046610Y0112010D01*
X0045700Y0111100D01*
X0037300Y0111100D01*
X0036700Y0110500D01*
X0036700Y0107500D01*
X0036100Y0106900D01*
X0033100Y0106900D01*
X0031900Y0105700D01*
X0031900Y0103900D01*
X0026961Y0103900D01*
X0026621Y0104240D01*
X0026621Y0100500D02*
X0023700Y0100500D01*
X0022300Y0099100D01*
X0022300Y0098500D01*
X0026621Y0096760D02*
X0026621Y0093221D01*
X0026500Y0093100D01*
X0027500Y0089400D02*
X0031900Y0093800D01*
X0031900Y0103900D01*
X0033700Y0103300D02*
X0033700Y0089600D01*
X0033500Y0089400D01*
X0037900Y0088900D02*
X0038500Y0089500D01*
X0038500Y0091300D01*
X0039700Y0092500D01*
X0041500Y0092500D01*
X0041982Y0092982D01*
X0041982Y0096640D01*
X0036818Y0096760D02*
X0036818Y0100300D01*
X0036700Y0100300D01*
X0036818Y0104240D02*
X0034640Y0104240D01*
X0033700Y0103300D01*
X0036818Y0104240D02*
X0038500Y0105922D01*
X0038500Y0108700D01*
X0039100Y0109300D01*
X0046900Y0109300D01*
X0048579Y0110979D01*
X0048579Y0114555D01*
X0050547Y0114555D02*
X0050547Y0107547D01*
X0048100Y0105100D01*
X0048100Y0103900D01*
X0047100Y0102900D01*
X0044900Y0102900D01*
X0046900Y0100900D01*
X0046900Y0090100D01*
X0045960Y0089160D01*
X0041982Y0089160D01*
X0048700Y0090100D02*
X0048700Y0100700D01*
X0050900Y0102900D01*
X0050900Y0104900D01*
X0052516Y0106516D01*
X0052516Y0114555D01*
X0054484Y0114555D02*
X0054484Y0110116D01*
X0057100Y0107500D01*
X0060100Y0107500D01*
X0061100Y0106500D01*
X0061100Y0102900D01*
X0063100Y0100900D01*
X0063100Y0090100D01*
X0061960Y0088960D01*
X0058582Y0088960D01*
X0055200Y0085500D02*
X0055200Y0092600D01*
X0054900Y0092900D01*
X0052179Y0092900D01*
X0052979Y0093100D01*
X0052179Y0089160D02*
X0049640Y0089160D01*
X0048700Y0090100D01*
X0050500Y0085900D02*
X0053500Y0082900D01*
X0060700Y0082900D01*
X0065440Y0088960D02*
X0068779Y0088960D01*
X0071800Y0091600D02*
X0071800Y0085500D01*
X0074782Y0088960D02*
X0077560Y0088960D01*
X0078700Y0090100D01*
X0078700Y0100900D01*
X0076700Y0102900D01*
X0076700Y0109500D01*
X0075700Y0110500D01*
X0059500Y0110500D01*
X0058421Y0111579D01*
X0058421Y0114555D01*
X0056453Y0114555D02*
X0056453Y0110547D01*
X0058300Y0108700D01*
X0066100Y0108700D01*
X0067100Y0107700D01*
X0067100Y0102900D01*
X0064300Y0100100D01*
X0064300Y0090100D01*
X0065440Y0088960D01*
X0068979Y0092500D02*
X0068779Y0092700D01*
X0068979Y0092500D02*
X0070900Y0092500D01*
X0071800Y0091600D01*
X0074782Y0096440D02*
X0074782Y0098818D01*
X0072700Y0100900D01*
X0069700Y0099700D02*
X0068779Y0098779D01*
X0068779Y0096440D01*
X0058582Y0096440D02*
X0058582Y0100018D01*
X0057100Y0101500D01*
X0054200Y0100200D02*
X0052779Y0098779D01*
X0052179Y0096640D01*
X0050500Y0085900D02*
X0017500Y0085900D01*
X0016100Y0084500D01*
X0016100Y0080500D01*
X0022300Y0075100D02*
X0035500Y0075100D01*
X0036700Y0076300D01*
X0036700Y0078700D01*
X0037900Y0079900D01*
X0077500Y0079900D01*
X0078700Y0081100D01*
X0078700Y0084700D01*
X0079900Y0085900D01*
X0094300Y0085900D01*
X0096700Y0088300D01*
X0089000Y0093300D02*
X0088200Y0092500D01*
X0085179Y0092500D01*
X0084979Y0092700D01*
X0085319Y0096100D02*
X0084979Y0096440D01*
X0088640Y0096440D01*
X0088900Y0096700D01*
X0082700Y0102900D02*
X0079900Y0100100D01*
X0079900Y0090100D01*
X0081040Y0088960D01*
X0084979Y0088960D01*
X0082700Y0102900D02*
X0082900Y0103100D01*
X0082900Y0110500D01*
X0081700Y0111700D01*
X0061300Y0111700D01*
X0060390Y0112610D01*
X0060390Y0114555D01*
X0062358Y0114555D02*
X0062358Y0118758D01*
X0062500Y0118900D01*
X0064327Y0114555D02*
X0066295Y0114555D01*
X0068355Y0114555D01*
X0069100Y0115300D01*
X0069100Y0117360D01*
X0069445Y0117705D01*
X0069445Y0119673D01*
X0069445Y0121642D02*
X0069445Y0123610D01*
X0069445Y0125579D01*
X0069445Y0123610D02*
X0065590Y0123610D01*
X0065500Y0123700D01*
X0069445Y0127547D02*
X0069447Y0127561D01*
X0069452Y0127574D01*
X0069461Y0127584D01*
X0069472Y0127593D01*
X0069484Y0127598D01*
X0069498Y0127600D01*
X0073300Y0131500D02*
X0073397Y0131502D01*
X0073493Y0131508D01*
X0073589Y0131517D01*
X0073685Y0131531D01*
X0073780Y0131549D01*
X0073874Y0131570D01*
X0073968Y0131595D01*
X0074060Y0131624D01*
X0074151Y0131656D01*
X0074241Y0131692D01*
X0074329Y0131732D01*
X0074415Y0131775D01*
X0074500Y0131822D01*
X0074583Y0131872D01*
X0074663Y0131925D01*
X0074742Y0131981D01*
X0074818Y0132041D01*
X0074891Y0132104D01*
X0074963Y0132169D01*
X0075031Y0132237D01*
X0075096Y0132309D01*
X0075159Y0132382D01*
X0075219Y0132458D01*
X0075275Y0132537D01*
X0075328Y0132617D01*
X0075378Y0132700D01*
X0075425Y0132785D01*
X0075468Y0132871D01*
X0075508Y0132959D01*
X0075544Y0133049D01*
X0075576Y0133140D01*
X0075605Y0133232D01*
X0075630Y0133326D01*
X0075651Y0133420D01*
X0075669Y0133515D01*
X0075683Y0133611D01*
X0075692Y0133707D01*
X0075698Y0133803D01*
X0075700Y0133900D01*
X0057700Y0126300D02*
X0057700Y0118900D01*
X0057700Y0126300D02*
X0053500Y0130500D01*
X0048700Y0125700D01*
X0041500Y0123700D02*
X0041410Y0123610D01*
X0037555Y0123610D01*
X0037555Y0121642D02*
X0033600Y0121642D01*
X0033600Y0121600D01*
X0029100Y0121600D01*
X0029100Y0121300D01*
X0029102Y0121336D01*
X0029107Y0121371D01*
X0029117Y0121406D01*
X0029130Y0121439D01*
X0029146Y0121471D01*
X0029165Y0121501D01*
X0029188Y0121529D01*
X0029213Y0121554D01*
X0029241Y0121577D01*
X0029271Y0121596D01*
X0029303Y0121612D01*
X0029336Y0121625D01*
X0029371Y0121635D01*
X0029406Y0121640D01*
X0029442Y0121642D01*
X0029100Y0114700D02*
X0029102Y0114677D01*
X0029107Y0114655D01*
X0029116Y0114634D01*
X0029128Y0114615D01*
X0029142Y0114597D01*
X0029160Y0114583D01*
X0029179Y0114571D01*
X0029200Y0114562D01*
X0029222Y0114557D01*
X0029245Y0114555D01*
X0040705Y0114555D01*
X0040305Y0117705D02*
X0037555Y0117705D01*
X0037555Y0119673D02*
X0037555Y0121642D01*
X0040305Y0117705D02*
X0041500Y0118900D01*
X0064327Y0155473D02*
X0064326Y0155481D01*
X0064322Y0155489D01*
X0064316Y0155495D01*
X0064308Y0155499D01*
X0064300Y0155500D01*
X0069891Y0158909D02*
X0069891Y0170900D01*
X0071859Y0159341D02*
X0071861Y0159266D01*
X0071867Y0159190D01*
X0071877Y0159116D01*
X0071890Y0159041D01*
X0071908Y0158968D01*
X0071930Y0158896D01*
X0071955Y0158825D01*
X0071984Y0158755D01*
X0072016Y0158687D01*
X0072052Y0158621D01*
X0072091Y0158556D01*
X0072134Y0158494D01*
X0072180Y0158434D01*
X0072229Y0158377D01*
X0072281Y0158322D01*
X0072336Y0158270D01*
X0072393Y0158221D01*
X0072453Y0158175D01*
X0072515Y0158132D01*
X0072580Y0158093D01*
X0072646Y0158057D01*
X0072714Y0158025D01*
X0072784Y0157996D01*
X0072855Y0157971D01*
X0072927Y0157949D01*
X0073000Y0157931D01*
X0073075Y0157918D01*
X0073149Y0157908D01*
X0073225Y0157902D01*
X0073300Y0157900D01*
X0022300Y0075100D02*
X0021100Y0073900D01*
X0021100Y0071500D01*
X0020100Y0070500D01*
X0016100Y0070500D01*
D25*
X0023100Y0114700D02*
X0023100Y0121300D01*
D26*
X0019300Y0121300D01*
X0079900Y0147700D02*
X0082900Y0150700D01*
X0091900Y0150700D01*
X0096100Y0154900D01*
X0096100Y0168100D01*
D27*
X0104500Y0124300D03*
X0102700Y0119500D03*
X0093700Y0119500D03*
X0103900Y0096100D03*
X0084700Y0082900D03*
X0167500Y0096100D03*
X0168800Y0119000D03*
D28*
X0091900Y0114100D02*
X0090700Y0115300D01*
X0083500Y0115300D01*
X0077500Y0115300D02*
X0073300Y0115300D01*
X0072700Y0114700D01*
X0033700Y0111700D02*
X0033700Y0109900D01*
X0032500Y0108700D01*
X0028900Y0108700D01*
X0022900Y0108700D02*
X0020500Y0108700D01*
X0019000Y0107400D01*
D29*
X0019000Y0107400D03*
X0033700Y0111700D03*
X0072700Y0114700D03*
X0091900Y0114100D03*
X0094300Y0106900D03*
D30*
X0076900Y0075700D03*
D31*
X0079300Y0078100D01*
X0157900Y0078100D01*
X0161500Y0081700D01*
X0161500Y0121300D01*
X0162700Y0122500D01*
X0166900Y0122500D01*
X0166900Y0123700D01*
M02*
