G75*
%MOIN*%
%OFA0B0*%
%FSLAX25Y25*%
%IPPOS*%
%LPD*%
%AMOC8*
5,1,8,0,0,1.08239X$1,22.5*
%
%ADD10R,0.07300X0.07300*%
%ADD11C,0.07300*%
%ADD12R,0.06800X0.06800*%
%ADD13C,0.06800*%
%ADD14C,0.10550*%
%ADD15C,0.14800*%
%ADD16R,0.04331X0.03150*%
%ADD17C,0.01075*%
%ADD18C,0.04800*%
%ADD19R,0.19698X0.19698*%
%ADD20R,0.04343X0.01784*%
%ADD21R,0.01784X0.04343*%
%ADD22R,0.01981X0.05918*%
%ADD23R,0.07887X0.09461*%
%ADD24C,0.03200*%
%ADD25C,0.04400*%
%ADD26C,0.04000*%
%ADD27C,0.03400*%
%ADD28C,0.05400*%
D10*
X0016100Y0080500D03*
X0022900Y0159900D03*
D11*
X0022900Y0169900D03*
X0022900Y0179900D03*
X0026100Y0080500D03*
X0026100Y0070500D03*
X0026100Y0060500D03*
X0016100Y0060500D03*
X0016100Y0070500D03*
D12*
X0120000Y0083900D03*
D13*
X0130000Y0083900D03*
X0140000Y0083900D03*
X0150000Y0083900D03*
X0145000Y0093900D03*
X0135000Y0093900D03*
X0125000Y0093900D03*
X0155000Y0093900D03*
X0153500Y0039400D03*
X0163500Y0039400D03*
X0121500Y0039400D03*
X0111500Y0039400D03*
D14*
X0106000Y0070400D03*
X0169000Y0070400D03*
D15*
X0160000Y0058900D03*
X0115000Y0058900D03*
D16*
X0085018Y0088960D03*
X0085018Y0092700D03*
X0085018Y0096440D03*
X0074782Y0096440D03*
X0068818Y0096440D03*
X0068818Y0092700D03*
X0068818Y0088960D03*
X0074782Y0088960D03*
X0058582Y0088960D03*
X0052218Y0089160D03*
X0052218Y0092900D03*
X0052218Y0096640D03*
X0058582Y0096440D03*
X0041982Y0096640D03*
X0036818Y0096760D03*
X0036818Y0104240D03*
X0026582Y0104240D03*
X0026582Y0100500D03*
X0026582Y0096760D03*
X0041982Y0089160D03*
D17*
X0035113Y0087787D02*
X0031887Y0087787D01*
X0031887Y0091013D01*
X0035113Y0091013D01*
X0035113Y0087787D01*
X0035113Y0088861D02*
X0031887Y0088861D01*
X0031887Y0089935D02*
X0035113Y0089935D01*
X0035113Y0091009D02*
X0031887Y0091009D01*
X0029113Y0087787D02*
X0025887Y0087787D01*
X0025887Y0091013D01*
X0029113Y0091013D01*
X0029113Y0087787D01*
X0029113Y0088861D02*
X0025887Y0088861D01*
X0025887Y0089935D02*
X0029113Y0089935D01*
X0029113Y0091009D02*
X0025887Y0091009D01*
X0024513Y0110313D02*
X0021287Y0110313D01*
X0024513Y0110313D02*
X0024513Y0107087D01*
X0021287Y0107087D01*
X0021287Y0110313D01*
X0021287Y0108161D02*
X0024513Y0108161D01*
X0024513Y0109235D02*
X0021287Y0109235D01*
X0021287Y0110309D02*
X0024513Y0110309D01*
X0024713Y0113087D02*
X0021487Y0113087D01*
X0021487Y0116313D01*
X0024713Y0116313D01*
X0024713Y0113087D01*
X0024713Y0114161D02*
X0021487Y0114161D01*
X0021487Y0115235D02*
X0024713Y0115235D01*
X0024713Y0116309D02*
X0021487Y0116309D01*
X0021487Y0119687D02*
X0024713Y0119687D01*
X0021487Y0119687D02*
X0021487Y0122913D01*
X0024713Y0122913D01*
X0024713Y0119687D01*
X0024713Y0120761D02*
X0021487Y0120761D01*
X0021487Y0121835D02*
X0024713Y0121835D01*
X0024713Y0122909D02*
X0021487Y0122909D01*
X0027487Y0119687D02*
X0030713Y0119687D01*
X0027487Y0119687D02*
X0027487Y0122913D01*
X0030713Y0122913D01*
X0030713Y0119687D01*
X0030713Y0120761D02*
X0027487Y0120761D01*
X0027487Y0121835D02*
X0030713Y0121835D01*
X0030713Y0122909D02*
X0027487Y0122909D01*
X0027487Y0113087D02*
X0030713Y0113087D01*
X0027487Y0113087D02*
X0027487Y0116313D01*
X0030713Y0116313D01*
X0030713Y0113087D01*
X0030713Y0114161D02*
X0027487Y0114161D01*
X0027487Y0115235D02*
X0030713Y0115235D01*
X0030713Y0116309D02*
X0027487Y0116309D01*
X0027287Y0110313D02*
X0030513Y0110313D01*
X0030513Y0107087D01*
X0027287Y0107087D01*
X0027287Y0110313D01*
X0027287Y0108161D02*
X0030513Y0108161D01*
X0030513Y0109235D02*
X0027287Y0109235D01*
X0027287Y0110309D02*
X0030513Y0110309D01*
X0043287Y0104513D02*
X0046513Y0104513D01*
X0046513Y0101287D01*
X0043287Y0101287D01*
X0043287Y0104513D01*
X0043287Y0102361D02*
X0046513Y0102361D01*
X0046513Y0103435D02*
X0043287Y0103435D01*
X0043287Y0104509D02*
X0046513Y0104509D01*
X0049287Y0104513D02*
X0052513Y0104513D01*
X0052513Y0101287D01*
X0049287Y0101287D01*
X0049287Y0104513D01*
X0049287Y0102361D02*
X0052513Y0102361D01*
X0052513Y0103435D02*
X0049287Y0103435D01*
X0049287Y0104509D02*
X0052513Y0104509D01*
X0059487Y0104513D02*
X0062713Y0104513D01*
X0062713Y0101287D01*
X0059487Y0101287D01*
X0059487Y0104513D01*
X0059487Y0102361D02*
X0062713Y0102361D01*
X0062713Y0103435D02*
X0059487Y0103435D01*
X0059487Y0104509D02*
X0062713Y0104509D01*
X0065487Y0104513D02*
X0068713Y0104513D01*
X0068713Y0101287D01*
X0065487Y0101287D01*
X0065487Y0104513D01*
X0065487Y0102361D02*
X0068713Y0102361D01*
X0068713Y0103435D02*
X0065487Y0103435D01*
X0065487Y0104509D02*
X0068713Y0104509D01*
X0075087Y0104513D02*
X0078313Y0104513D01*
X0078313Y0101287D01*
X0075087Y0101287D01*
X0075087Y0104513D01*
X0075087Y0102361D02*
X0078313Y0102361D01*
X0078313Y0103435D02*
X0075087Y0103435D01*
X0075087Y0104509D02*
X0078313Y0104509D01*
X0081087Y0104513D02*
X0084313Y0104513D01*
X0084313Y0101287D01*
X0081087Y0101287D01*
X0081087Y0104513D01*
X0081087Y0102361D02*
X0084313Y0102361D01*
X0084313Y0103435D02*
X0081087Y0103435D01*
X0081087Y0104509D02*
X0084313Y0104509D01*
X0085113Y0113687D02*
X0081887Y0113687D01*
X0081887Y0116913D01*
X0085113Y0116913D01*
X0085113Y0113687D01*
X0085113Y0114761D02*
X0081887Y0114761D01*
X0081887Y0115835D02*
X0085113Y0115835D01*
X0085113Y0116909D02*
X0081887Y0116909D01*
X0079113Y0113687D02*
X0075887Y0113687D01*
X0075887Y0116913D01*
X0079113Y0116913D01*
X0079113Y0113687D01*
X0079113Y0114761D02*
X0075887Y0114761D01*
X0075887Y0115835D02*
X0079113Y0115835D01*
X0079113Y0116909D02*
X0075887Y0116909D01*
D18*
X0044600Y0038400D03*
X0027600Y0038400D03*
D19*
X0053500Y0130500D03*
D20*
X0069445Y0129516D03*
X0069445Y0131484D03*
X0069445Y0133453D03*
X0069445Y0135421D03*
X0069445Y0137390D03*
X0069445Y0139358D03*
X0069445Y0141327D03*
X0069445Y0143295D03*
X0069445Y0127547D03*
X0069445Y0125579D03*
X0069445Y0123610D03*
X0069445Y0121642D03*
X0069445Y0119673D03*
X0069445Y0117705D03*
X0037555Y0117705D03*
X0037555Y0119673D03*
X0037555Y0121642D03*
X0037555Y0123610D03*
X0037555Y0125579D03*
X0037555Y0127547D03*
X0037555Y0129516D03*
X0037555Y0131484D03*
X0037555Y0133453D03*
X0037555Y0135421D03*
X0037555Y0137390D03*
X0037555Y0139358D03*
X0037555Y0141327D03*
X0037555Y0143295D03*
D21*
X0040705Y0146445D03*
X0042673Y0146445D03*
X0044642Y0146445D03*
X0046610Y0146445D03*
X0048579Y0146445D03*
X0050547Y0146445D03*
X0052516Y0146445D03*
X0054484Y0146445D03*
X0056453Y0146445D03*
X0058421Y0146445D03*
X0060390Y0146445D03*
X0062358Y0146445D03*
X0064327Y0146445D03*
X0066295Y0146445D03*
X0066295Y0114555D03*
X0064327Y0114555D03*
X0062358Y0114555D03*
X0060390Y0114555D03*
X0058421Y0114555D03*
X0056453Y0114555D03*
X0054484Y0114555D03*
X0052516Y0114555D03*
X0050547Y0114555D03*
X0048579Y0114555D03*
X0046610Y0114555D03*
X0044642Y0114555D03*
X0042673Y0114555D03*
X0040705Y0114555D03*
D22*
X0044300Y0170900D03*
X0046269Y0170900D03*
X0048237Y0170900D03*
X0050206Y0170900D03*
X0052174Y0170900D03*
X0054143Y0170900D03*
X0056111Y0170900D03*
X0058080Y0170900D03*
X0060048Y0170900D03*
X0062017Y0170900D03*
X0063985Y0170900D03*
X0065954Y0170900D03*
X0067922Y0170900D03*
X0069891Y0170900D03*
X0071859Y0170900D03*
X0073828Y0170900D03*
D23*
X0081702Y0179955D03*
X0036426Y0179955D03*
D24*
X0040300Y0166300D03*
X0037300Y0164500D03*
X0020500Y0143500D03*
X0020500Y0130300D03*
X0019300Y0121300D03*
X0033600Y0121600D03*
X0041500Y0123700D03*
X0041500Y0118900D03*
X0045100Y0118300D03*
X0048700Y0118900D03*
X0057700Y0118900D03*
X0062500Y0118900D03*
X0065500Y0123700D03*
X0069100Y0115300D03*
X0072700Y0100900D03*
X0069700Y0099700D03*
X0057100Y0101500D03*
X0054200Y0100200D03*
X0055200Y0085500D03*
X0060700Y0082900D03*
X0071800Y0085500D03*
X0069700Y0069100D03*
X0091300Y0091100D03*
X0089000Y0093300D03*
X0088900Y0096700D03*
X0096700Y0088300D03*
X0121300Y0118900D03*
X0114700Y0123100D03*
X0108700Y0120100D03*
X0129700Y0118900D03*
X0141100Y0123700D03*
X0131500Y0133900D03*
X0121300Y0141700D03*
X0129100Y0156100D03*
X0131500Y0158500D03*
X0133900Y0161500D03*
X0135700Y0165100D03*
X0147700Y0150400D03*
X0159100Y0145900D03*
X0159700Y0135100D03*
X0168100Y0169300D03*
X0156100Y0177700D03*
X0151900Y0171100D03*
X0160900Y0193300D03*
X0129700Y0183100D03*
X0120100Y0176500D03*
X0121300Y0169900D03*
X0106300Y0192700D03*
X0091300Y0182500D03*
X0075100Y0175900D03*
X0076300Y0161500D03*
X0087100Y0158500D03*
X0091900Y0147100D03*
X0100900Y0147100D03*
X0079900Y0147700D03*
X0079600Y0144500D03*
X0079900Y0140500D03*
X0079300Y0137500D03*
X0079300Y0133900D03*
X0036700Y0100300D03*
X0026500Y0093100D03*
X0022300Y0098500D03*
X0011500Y0099700D03*
X0037900Y0088900D03*
D25*
X0036700Y0026500D03*
X0084100Y0054100D03*
X0094900Y0069100D03*
X0166900Y0123700D03*
D26*
X0168800Y0119000D03*
X0167500Y0096100D03*
X0103900Y0096100D03*
X0084700Y0082900D03*
X0093700Y0119500D03*
X0102700Y0119500D03*
X0104500Y0124300D03*
D27*
X0091900Y0114100D03*
X0094300Y0106900D03*
X0072700Y0114700D03*
X0033700Y0111700D03*
X0019000Y0107400D03*
D28*
X0076900Y0075700D03*
M02*
