G75*
%MOIN*%
%OFA0B0*%
%FSLAX25Y25*%
%IPPOS*%
%LPD*%
%AMOC8*
5,1,8,0,0,1.08239X$1,22.5*
%
%ADD10C,0.00500*%
%ADD11C,0.01200*%
%ADD12C,0.01075*%
%ADD13R,0.08674X0.08674*%
%ADD14R,0.07300X0.07300*%
%ADD15C,0.07300*%
%ADD16R,0.06800X0.06800*%
%ADD17C,0.06800*%
%ADD18C,0.10550*%
%ADD19C,0.14800*%
%ADD20R,0.04737X0.07690*%
%ADD21R,0.01981X0.07099*%
%ADD22R,0.07099X0.01981*%
%ADD23R,0.05800X0.09800*%
%ADD24R,0.14800X0.09300*%
%ADD25R,0.02800X0.10800*%
%ADD26R,0.08674X0.11800*%
%ADD27C,0.04800*%
%ADD28R,0.01587X0.04737*%
%ADD29R,0.04737X0.01587*%
%ADD30C,0.02150*%
%ADD31C,0.03200*%
%ADD32C,0.04400*%
%ADD33C,0.04000*%
%ADD34C,0.03400*%
%ADD35C,0.05400*%
D10*
X0042950Y0183350D02*
X0046003Y0183350D01*
X0047020Y0184368D01*
X0047020Y0185385D01*
X0046003Y0186403D01*
X0042950Y0186403D01*
X0042950Y0189455D02*
X0042950Y0183350D01*
X0046003Y0186403D02*
X0047020Y0187420D01*
X0047020Y0188438D01*
X0046003Y0189455D01*
X0042950Y0189455D01*
X0049027Y0189455D02*
X0049027Y0183350D01*
X0053097Y0183350D02*
X0053097Y0189455D01*
X0051062Y0187420D01*
X0049027Y0189455D01*
X0055104Y0189455D02*
X0057139Y0189455D01*
X0056122Y0189455D02*
X0056122Y0183350D01*
X0057139Y0183350D02*
X0055104Y0183350D01*
X0059156Y0186403D02*
X0063226Y0186403D01*
X0065233Y0185385D02*
X0067268Y0183350D01*
X0069303Y0185385D01*
X0069303Y0189455D01*
X0071310Y0188438D02*
X0072328Y0189455D01*
X0074363Y0189455D01*
X0075380Y0188438D01*
X0075380Y0187420D01*
X0071310Y0183350D01*
X0075380Y0183350D01*
X0065233Y0185385D02*
X0065233Y0189455D01*
D11*
X0012650Y0112700D02*
X0012650Y0109100D01*
X0012650Y0112700D02*
X0017750Y0112700D01*
X0017750Y0109100D01*
X0012650Y0109100D01*
X0012650Y0110299D02*
X0017750Y0110299D01*
X0017750Y0111498D02*
X0012650Y0111498D01*
X0012650Y0112697D02*
X0017750Y0112697D01*
X0012650Y0105700D02*
X0012650Y0102100D01*
X0012650Y0105700D02*
X0017750Y0105700D01*
X0017750Y0102100D01*
X0012650Y0102100D01*
X0012650Y0103299D02*
X0017750Y0103299D01*
X0017750Y0104498D02*
X0012650Y0104498D01*
X0012650Y0105697D02*
X0017750Y0105697D01*
X0071600Y0061850D02*
X0075200Y0061850D01*
X0075200Y0056750D01*
X0071600Y0056750D01*
X0071600Y0061850D01*
X0071600Y0057949D02*
X0075200Y0057949D01*
X0075200Y0059148D02*
X0071600Y0059148D01*
X0071600Y0060347D02*
X0075200Y0060347D01*
X0075200Y0061546D02*
X0071600Y0061546D01*
X0078600Y0061850D02*
X0082200Y0061850D01*
X0082200Y0056750D01*
X0078600Y0056750D01*
X0078600Y0061850D01*
X0078600Y0057949D02*
X0082200Y0057949D01*
X0082200Y0059148D02*
X0078600Y0059148D01*
X0078600Y0060347D02*
X0082200Y0060347D01*
X0082200Y0061546D02*
X0078600Y0061546D01*
X0088000Y0065650D02*
X0091600Y0065650D01*
X0091600Y0060550D01*
X0088000Y0060550D01*
X0088000Y0065650D01*
X0088000Y0061749D02*
X0091600Y0061749D01*
X0091600Y0062948D02*
X0088000Y0062948D01*
X0088000Y0064147D02*
X0091600Y0064147D01*
X0091600Y0065346D02*
X0088000Y0065346D01*
X0095000Y0065650D02*
X0098600Y0065650D01*
X0098600Y0060550D01*
X0095000Y0060550D01*
X0095000Y0065650D01*
X0095000Y0061749D02*
X0098600Y0061749D01*
X0098600Y0062948D02*
X0095000Y0062948D01*
X0095000Y0064147D02*
X0098600Y0064147D01*
X0098600Y0065346D02*
X0095000Y0065346D01*
X0092150Y0092800D02*
X0092150Y0096400D01*
X0097250Y0096400D01*
X0097250Y0092800D01*
X0092150Y0092800D01*
X0092150Y0093999D02*
X0097250Y0093999D01*
X0097250Y0095198D02*
X0092150Y0095198D01*
X0092150Y0096397D02*
X0097250Y0096397D01*
X0092150Y0099800D02*
X0092150Y0103400D01*
X0097250Y0103400D01*
X0097250Y0099800D01*
X0092150Y0099800D01*
X0092150Y0100999D02*
X0097250Y0100999D01*
X0097250Y0102198D02*
X0092150Y0102198D01*
X0092150Y0103397D02*
X0097250Y0103397D01*
X0162250Y0121200D02*
X0162250Y0124800D01*
X0162250Y0121200D02*
X0157150Y0121200D01*
X0157150Y0124800D01*
X0162250Y0124800D01*
X0162250Y0122399D02*
X0157150Y0122399D01*
X0157150Y0123598D02*
X0162250Y0123598D01*
X0162250Y0124797D02*
X0157150Y0124797D01*
X0162250Y0128200D02*
X0162250Y0131800D01*
X0162250Y0128200D02*
X0157150Y0128200D01*
X0157150Y0131800D01*
X0162250Y0131800D01*
X0162250Y0129399D02*
X0157150Y0129399D01*
X0157150Y0130598D02*
X0162250Y0130598D01*
X0162250Y0131797D02*
X0157150Y0131797D01*
X0161200Y0146750D02*
X0164800Y0146750D01*
X0161200Y0146750D02*
X0161200Y0151850D01*
X0164800Y0151850D01*
X0164800Y0146750D01*
X0164800Y0147949D02*
X0161200Y0147949D01*
X0161200Y0149148D02*
X0164800Y0149148D01*
X0164800Y0150347D02*
X0161200Y0150347D01*
X0161200Y0151546D02*
X0164800Y0151546D01*
X0168200Y0146750D02*
X0171800Y0146750D01*
X0168200Y0146750D02*
X0168200Y0151850D01*
X0171800Y0151850D01*
X0171800Y0146750D01*
X0171800Y0147949D02*
X0168200Y0147949D01*
X0168200Y0149148D02*
X0171800Y0149148D01*
X0171800Y0150347D02*
X0168200Y0150347D01*
X0168200Y0151546D02*
X0171800Y0151546D01*
X0100000Y0032450D02*
X0096400Y0032450D01*
X0100000Y0032450D02*
X0100000Y0027350D01*
X0096400Y0027350D01*
X0096400Y0032450D01*
X0096400Y0028549D02*
X0100000Y0028549D01*
X0100000Y0029748D02*
X0096400Y0029748D01*
X0096400Y0030947D02*
X0100000Y0030947D01*
X0100000Y0032146D02*
X0096400Y0032146D01*
X0093000Y0032450D02*
X0089400Y0032450D01*
X0093000Y0032450D02*
X0093000Y0027350D01*
X0089400Y0027350D01*
X0089400Y0032450D01*
X0089400Y0028549D02*
X0093000Y0028549D01*
X0093000Y0029748D02*
X0089400Y0029748D01*
X0089400Y0030947D02*
X0093000Y0030947D01*
X0093000Y0032146D02*
X0089400Y0032146D01*
X0089800Y0024050D02*
X0093400Y0024050D01*
X0093400Y0018950D01*
X0089800Y0018950D01*
X0089800Y0024050D01*
X0089800Y0020149D02*
X0093400Y0020149D01*
X0093400Y0021348D02*
X0089800Y0021348D01*
X0089800Y0022547D02*
X0093400Y0022547D01*
X0093400Y0023746D02*
X0089800Y0023746D01*
X0096800Y0024050D02*
X0100400Y0024050D01*
X0100400Y0018950D01*
X0096800Y0018950D01*
X0096800Y0024050D01*
X0096800Y0020149D02*
X0100400Y0020149D01*
X0100400Y0021348D02*
X0096800Y0021348D01*
X0096800Y0022547D02*
X0100400Y0022547D01*
X0100400Y0023746D02*
X0096800Y0023746D01*
D12*
X0096687Y0035487D02*
X0099913Y0035487D01*
X0096687Y0035487D02*
X0096687Y0038713D01*
X0099913Y0038713D01*
X0099913Y0035487D01*
X0099913Y0036561D02*
X0096687Y0036561D01*
X0096687Y0037635D02*
X0099913Y0037635D01*
X0099913Y0038709D02*
X0096687Y0038709D01*
X0093913Y0035487D02*
X0090687Y0035487D01*
X0090687Y0038713D01*
X0093913Y0038713D01*
X0093913Y0035487D01*
X0093913Y0036561D02*
X0090687Y0036561D01*
X0090687Y0037635D02*
X0093913Y0037635D01*
X0093913Y0038709D02*
X0090687Y0038709D01*
X0090287Y0041887D02*
X0093513Y0041887D01*
X0090287Y0041887D02*
X0090287Y0045113D01*
X0093513Y0045113D01*
X0093513Y0041887D01*
X0093513Y0042961D02*
X0090287Y0042961D01*
X0090287Y0044035D02*
X0093513Y0044035D01*
X0093513Y0045109D02*
X0090287Y0045109D01*
X0089687Y0047887D02*
X0092913Y0047887D01*
X0089687Y0047887D02*
X0089687Y0051113D01*
X0092913Y0051113D01*
X0092913Y0047887D01*
X0092913Y0048961D02*
X0089687Y0048961D01*
X0089687Y0050035D02*
X0092913Y0050035D01*
X0092913Y0051109D02*
X0089687Y0051109D01*
X0089487Y0057513D02*
X0092713Y0057513D01*
X0092713Y0054287D01*
X0089487Y0054287D01*
X0089487Y0057513D01*
X0089487Y0055361D02*
X0092713Y0055361D01*
X0092713Y0056435D02*
X0089487Y0056435D01*
X0089487Y0057509D02*
X0092713Y0057509D01*
X0095487Y0057513D02*
X0098713Y0057513D01*
X0098713Y0054287D01*
X0095487Y0054287D01*
X0095487Y0057513D01*
X0095487Y0055361D02*
X0098713Y0055361D01*
X0098713Y0056435D02*
X0095487Y0056435D01*
X0095487Y0057509D02*
X0098713Y0057509D01*
X0098913Y0047887D02*
X0095687Y0047887D01*
X0095687Y0051113D01*
X0098913Y0051113D01*
X0098913Y0047887D01*
X0098913Y0048961D02*
X0095687Y0048961D01*
X0095687Y0050035D02*
X0098913Y0050035D01*
X0098913Y0051109D02*
X0095687Y0051109D01*
X0096287Y0041887D02*
X0099513Y0041887D01*
X0096287Y0041887D02*
X0096287Y0045113D01*
X0099513Y0045113D01*
X0099513Y0041887D01*
X0099513Y0042961D02*
X0096287Y0042961D01*
X0096287Y0044035D02*
X0099513Y0044035D01*
X0099513Y0045109D02*
X0096287Y0045109D01*
X0080713Y0067913D02*
X0077487Y0067913D01*
X0080713Y0067913D02*
X0080713Y0064687D01*
X0077487Y0064687D01*
X0077487Y0067913D01*
X0077487Y0065761D02*
X0080713Y0065761D01*
X0080713Y0066835D02*
X0077487Y0066835D01*
X0077487Y0067909D02*
X0080713Y0067909D01*
X0086113Y0070887D02*
X0086113Y0074113D01*
X0086113Y0070887D02*
X0082887Y0070887D01*
X0082887Y0074113D01*
X0086113Y0074113D01*
X0086113Y0071961D02*
X0082887Y0071961D01*
X0082887Y0073035D02*
X0086113Y0073035D01*
X0086113Y0074109D02*
X0082887Y0074109D01*
X0086113Y0076887D02*
X0086113Y0080113D01*
X0086113Y0076887D02*
X0082887Y0076887D01*
X0082887Y0080113D01*
X0086113Y0080113D01*
X0086113Y0077961D02*
X0082887Y0077961D01*
X0082887Y0079035D02*
X0086113Y0079035D01*
X0086113Y0080109D02*
X0082887Y0080109D01*
X0092513Y0080113D02*
X0092513Y0076887D01*
X0089287Y0076887D01*
X0089287Y0080113D01*
X0092513Y0080113D01*
X0092513Y0077961D02*
X0089287Y0077961D01*
X0089287Y0079035D02*
X0092513Y0079035D01*
X0092513Y0080109D02*
X0089287Y0080109D01*
X0092513Y0074113D02*
X0092513Y0070887D01*
X0089287Y0070887D01*
X0089287Y0074113D01*
X0092513Y0074113D01*
X0092513Y0071961D02*
X0089287Y0071961D01*
X0089287Y0073035D02*
X0092513Y0073035D01*
X0092513Y0074109D02*
X0089287Y0074109D01*
X0098913Y0075087D02*
X0098913Y0078313D01*
X0098913Y0075087D02*
X0095687Y0075087D01*
X0095687Y0078313D01*
X0098913Y0078313D01*
X0098913Y0076161D02*
X0095687Y0076161D01*
X0095687Y0077235D02*
X0098913Y0077235D01*
X0098913Y0078309D02*
X0095687Y0078309D01*
X0098913Y0081087D02*
X0098913Y0084313D01*
X0098913Y0081087D02*
X0095687Y0081087D01*
X0095687Y0084313D01*
X0098913Y0084313D01*
X0098913Y0082161D02*
X0095687Y0082161D01*
X0095687Y0083235D02*
X0098913Y0083235D01*
X0098913Y0084309D02*
X0095687Y0084309D01*
X0074713Y0067913D02*
X0071487Y0067913D01*
X0074713Y0067913D02*
X0074713Y0064687D01*
X0071487Y0064687D01*
X0071487Y0067913D01*
X0071487Y0065761D02*
X0074713Y0065761D01*
X0074713Y0066835D02*
X0071487Y0066835D01*
X0071487Y0067909D02*
X0074713Y0067909D01*
X0067963Y0067413D02*
X0067963Y0064187D01*
X0063237Y0064187D01*
X0063237Y0067413D01*
X0067963Y0067413D01*
X0067963Y0065261D02*
X0063237Y0065261D01*
X0063237Y0066335D02*
X0067963Y0066335D01*
X0067963Y0067409D02*
X0063237Y0067409D01*
X0056787Y0066313D02*
X0056787Y0063087D01*
X0056787Y0066313D02*
X0060013Y0066313D01*
X0060013Y0063087D01*
X0056787Y0063087D01*
X0056787Y0064161D02*
X0060013Y0064161D01*
X0060013Y0065235D02*
X0056787Y0065235D01*
X0056787Y0066309D02*
X0060013Y0066309D01*
X0056787Y0060313D02*
X0056787Y0057087D01*
X0056787Y0060313D02*
X0060013Y0060313D01*
X0060013Y0057087D01*
X0056787Y0057087D01*
X0056787Y0058161D02*
X0060013Y0058161D01*
X0060013Y0059235D02*
X0056787Y0059235D01*
X0056787Y0060309D02*
X0060013Y0060309D01*
X0067963Y0060413D02*
X0067963Y0057187D01*
X0063237Y0057187D01*
X0063237Y0060413D01*
X0067963Y0060413D01*
X0067963Y0058261D02*
X0063237Y0058261D01*
X0063237Y0059335D02*
X0067963Y0059335D01*
X0067963Y0060409D02*
X0063237Y0060409D01*
X0104113Y0107187D02*
X0104113Y0110413D01*
X0104113Y0107187D02*
X0100887Y0107187D01*
X0100887Y0110413D01*
X0104113Y0110413D01*
X0104113Y0108261D02*
X0100887Y0108261D01*
X0100887Y0109335D02*
X0104113Y0109335D01*
X0104113Y0110409D02*
X0100887Y0110409D01*
X0104113Y0113187D02*
X0104113Y0116413D01*
X0104113Y0113187D02*
X0100887Y0113187D01*
X0100887Y0116413D01*
X0104113Y0116413D01*
X0104113Y0114261D02*
X0100887Y0114261D01*
X0100887Y0115335D02*
X0104113Y0115335D01*
X0104113Y0116409D02*
X0100887Y0116409D01*
X0101413Y0122387D02*
X0098187Y0122387D01*
X0098187Y0125613D01*
X0101413Y0125613D01*
X0101413Y0122387D01*
X0101413Y0123461D02*
X0098187Y0123461D01*
X0098187Y0124535D02*
X0101413Y0124535D01*
X0101413Y0125609D02*
X0098187Y0125609D01*
X0095413Y0122387D02*
X0092187Y0122387D01*
X0092187Y0125613D01*
X0095413Y0125613D01*
X0095413Y0122387D01*
X0095413Y0123461D02*
X0092187Y0123461D01*
X0092187Y0124535D02*
X0095413Y0124535D01*
X0095413Y0125609D02*
X0092187Y0125609D01*
X0093687Y0134687D02*
X0093687Y0137913D01*
X0096913Y0137913D01*
X0096913Y0134687D01*
X0093687Y0134687D01*
X0093687Y0135761D02*
X0096913Y0135761D01*
X0096913Y0136835D02*
X0093687Y0136835D01*
X0093687Y0137909D02*
X0096913Y0137909D01*
X0093687Y0140687D02*
X0093687Y0143913D01*
X0096913Y0143913D01*
X0096913Y0140687D01*
X0093687Y0140687D01*
X0093687Y0141761D02*
X0096913Y0141761D01*
X0096913Y0142835D02*
X0093687Y0142835D01*
X0093687Y0143909D02*
X0096913Y0143909D01*
X0103087Y0139687D02*
X0106313Y0139687D01*
X0103087Y0139687D02*
X0103087Y0142913D01*
X0106313Y0142913D01*
X0106313Y0139687D01*
X0106313Y0140761D02*
X0103087Y0140761D01*
X0103087Y0141835D02*
X0106313Y0141835D01*
X0106313Y0142909D02*
X0103087Y0142909D01*
X0103087Y0148813D02*
X0106313Y0148813D01*
X0106313Y0145587D01*
X0103087Y0145587D01*
X0103087Y0148813D01*
X0103087Y0146661D02*
X0106313Y0146661D01*
X0106313Y0147735D02*
X0103087Y0147735D01*
X0103087Y0148809D02*
X0106313Y0148809D01*
X0106313Y0154713D02*
X0103087Y0154713D01*
X0106313Y0154713D02*
X0106313Y0151487D01*
X0103087Y0151487D01*
X0103087Y0154713D01*
X0103087Y0152561D02*
X0106313Y0152561D01*
X0106313Y0153635D02*
X0103087Y0153635D01*
X0103087Y0154709D02*
X0106313Y0154709D01*
X0106313Y0160613D02*
X0103087Y0160613D01*
X0106313Y0160613D02*
X0106313Y0157387D01*
X0103087Y0157387D01*
X0103087Y0160613D01*
X0103087Y0158461D02*
X0106313Y0158461D01*
X0106313Y0159535D02*
X0103087Y0159535D01*
X0103087Y0160609D02*
X0106313Y0160609D01*
X0106313Y0166513D02*
X0103087Y0166513D01*
X0106313Y0166513D02*
X0106313Y0163287D01*
X0103087Y0163287D01*
X0103087Y0166513D01*
X0103087Y0164361D02*
X0106313Y0164361D01*
X0106313Y0165435D02*
X0103087Y0165435D01*
X0103087Y0166509D02*
X0106313Y0166509D01*
X0106313Y0172313D02*
X0103087Y0172313D01*
X0106313Y0172313D02*
X0106313Y0169087D01*
X0103087Y0169087D01*
X0103087Y0172313D01*
X0103087Y0170161D02*
X0106313Y0170161D01*
X0106313Y0171235D02*
X0103087Y0171235D01*
X0103087Y0172309D02*
X0106313Y0172309D01*
X0106313Y0178113D02*
X0103087Y0178113D01*
X0106313Y0178113D02*
X0106313Y0174887D01*
X0103087Y0174887D01*
X0103087Y0178113D01*
X0103087Y0175961D02*
X0106313Y0175961D01*
X0106313Y0177035D02*
X0103087Y0177035D01*
X0103087Y0178109D02*
X0106313Y0178109D01*
X0109087Y0178113D02*
X0112313Y0178113D01*
X0112313Y0174887D01*
X0109087Y0174887D01*
X0109087Y0178113D01*
X0109087Y0175961D02*
X0112313Y0175961D01*
X0112313Y0177035D02*
X0109087Y0177035D01*
X0109087Y0178109D02*
X0112313Y0178109D01*
X0112313Y0172313D02*
X0109087Y0172313D01*
X0112313Y0172313D02*
X0112313Y0169087D01*
X0109087Y0169087D01*
X0109087Y0172313D01*
X0109087Y0170161D02*
X0112313Y0170161D01*
X0112313Y0171235D02*
X0109087Y0171235D01*
X0109087Y0172309D02*
X0112313Y0172309D01*
X0112313Y0166513D02*
X0109087Y0166513D01*
X0112313Y0166513D02*
X0112313Y0163287D01*
X0109087Y0163287D01*
X0109087Y0166513D01*
X0109087Y0164361D02*
X0112313Y0164361D01*
X0112313Y0165435D02*
X0109087Y0165435D01*
X0109087Y0166509D02*
X0112313Y0166509D01*
X0112313Y0160613D02*
X0109087Y0160613D01*
X0112313Y0160613D02*
X0112313Y0157387D01*
X0109087Y0157387D01*
X0109087Y0160613D01*
X0109087Y0158461D02*
X0112313Y0158461D01*
X0112313Y0159535D02*
X0109087Y0159535D01*
X0109087Y0160609D02*
X0112313Y0160609D01*
X0112313Y0154713D02*
X0109087Y0154713D01*
X0112313Y0154713D02*
X0112313Y0151487D01*
X0109087Y0151487D01*
X0109087Y0154713D01*
X0109087Y0152561D02*
X0112313Y0152561D01*
X0112313Y0153635D02*
X0109087Y0153635D01*
X0109087Y0154709D02*
X0112313Y0154709D01*
X0112313Y0148813D02*
X0109087Y0148813D01*
X0112313Y0148813D02*
X0112313Y0145587D01*
X0109087Y0145587D01*
X0109087Y0148813D01*
X0109087Y0146661D02*
X0112313Y0146661D01*
X0112313Y0147735D02*
X0109087Y0147735D01*
X0109087Y0148809D02*
X0112313Y0148809D01*
X0112313Y0139687D02*
X0109087Y0139687D01*
X0109087Y0142913D01*
X0112313Y0142913D01*
X0112313Y0139687D01*
X0112313Y0140761D02*
X0109087Y0140761D01*
X0109087Y0141835D02*
X0112313Y0141835D01*
X0112313Y0142909D02*
X0109087Y0142909D01*
X0109087Y0133787D02*
X0112313Y0133787D01*
X0109087Y0133787D02*
X0109087Y0137013D01*
X0112313Y0137013D01*
X0112313Y0133787D01*
X0112313Y0134861D02*
X0109087Y0134861D01*
X0109087Y0135935D02*
X0112313Y0135935D01*
X0112313Y0137009D02*
X0109087Y0137009D01*
X0106313Y0133787D02*
X0103087Y0133787D01*
X0103087Y0137013D01*
X0106313Y0137013D01*
X0106313Y0133787D01*
X0106313Y0134861D02*
X0103087Y0134861D01*
X0103087Y0135935D02*
X0106313Y0135935D01*
X0106313Y0137009D02*
X0103087Y0137009D01*
X0103087Y0127887D02*
X0106313Y0127887D01*
X0103087Y0127887D02*
X0103087Y0131113D01*
X0106313Y0131113D01*
X0106313Y0127887D01*
X0106313Y0128961D02*
X0103087Y0128961D01*
X0103087Y0130035D02*
X0106313Y0130035D01*
X0106313Y0131109D02*
X0103087Y0131109D01*
X0109087Y0127887D02*
X0112313Y0127887D01*
X0109087Y0127887D02*
X0109087Y0131113D01*
X0112313Y0131113D01*
X0112313Y0127887D01*
X0112313Y0128961D02*
X0109087Y0128961D01*
X0109087Y0130035D02*
X0112313Y0130035D01*
X0112313Y0131109D02*
X0109087Y0131109D01*
X0119387Y0130513D02*
X0119387Y0127287D01*
X0119387Y0130513D02*
X0122613Y0130513D01*
X0122613Y0127287D01*
X0119387Y0127287D01*
X0119387Y0128361D02*
X0122613Y0128361D01*
X0122613Y0129435D02*
X0119387Y0129435D01*
X0119387Y0130509D02*
X0122613Y0130509D01*
X0128887Y0130613D02*
X0128887Y0127387D01*
X0128887Y0130613D02*
X0132113Y0130613D01*
X0132113Y0127387D01*
X0128887Y0127387D01*
X0128887Y0128461D02*
X0132113Y0128461D01*
X0132113Y0129535D02*
X0128887Y0129535D01*
X0128887Y0130609D02*
X0132113Y0130609D01*
X0128887Y0124613D02*
X0128887Y0121387D01*
X0128887Y0124613D02*
X0132113Y0124613D01*
X0132113Y0121387D01*
X0128887Y0121387D01*
X0128887Y0122461D02*
X0132113Y0122461D01*
X0132113Y0123535D02*
X0128887Y0123535D01*
X0128887Y0124609D02*
X0132113Y0124609D01*
X0128987Y0116313D02*
X0128987Y0113087D01*
X0128987Y0116313D02*
X0132213Y0116313D01*
X0132213Y0113087D01*
X0128987Y0113087D01*
X0128987Y0114161D02*
X0132213Y0114161D01*
X0132213Y0115235D02*
X0128987Y0115235D01*
X0128987Y0116309D02*
X0132213Y0116309D01*
X0135087Y0116413D02*
X0135087Y0113187D01*
X0135087Y0116413D02*
X0138313Y0116413D01*
X0138313Y0113187D01*
X0135087Y0113187D01*
X0135087Y0114261D02*
X0138313Y0114261D01*
X0138313Y0115335D02*
X0135087Y0115335D01*
X0135087Y0116409D02*
X0138313Y0116409D01*
X0141387Y0116413D02*
X0141387Y0113187D01*
X0141387Y0116413D02*
X0144613Y0116413D01*
X0144613Y0113187D01*
X0141387Y0113187D01*
X0141387Y0114261D02*
X0144613Y0114261D01*
X0144613Y0115335D02*
X0141387Y0115335D01*
X0141387Y0116409D02*
X0144613Y0116409D01*
X0147487Y0116413D02*
X0147487Y0113187D01*
X0147487Y0116413D02*
X0150713Y0116413D01*
X0150713Y0113187D01*
X0147487Y0113187D01*
X0147487Y0114261D02*
X0150713Y0114261D01*
X0150713Y0115335D02*
X0147487Y0115335D01*
X0147487Y0116409D02*
X0150713Y0116409D01*
X0156813Y0116413D02*
X0156813Y0113187D01*
X0153587Y0113187D01*
X0153587Y0116413D01*
X0156813Y0116413D01*
X0156813Y0114261D02*
X0153587Y0114261D01*
X0153587Y0115335D02*
X0156813Y0115335D01*
X0156813Y0116409D02*
X0153587Y0116409D01*
X0154113Y0120887D02*
X0154113Y0124113D01*
X0154113Y0120887D02*
X0150887Y0120887D01*
X0150887Y0124113D01*
X0154113Y0124113D01*
X0154113Y0121961D02*
X0150887Y0121961D01*
X0150887Y0123035D02*
X0154113Y0123035D01*
X0154113Y0124109D02*
X0150887Y0124109D01*
X0154113Y0126887D02*
X0154113Y0130113D01*
X0154113Y0126887D02*
X0150887Y0126887D01*
X0150887Y0130113D01*
X0154113Y0130113D01*
X0154113Y0127961D02*
X0150887Y0127961D01*
X0150887Y0129035D02*
X0154113Y0129035D01*
X0154113Y0130109D02*
X0150887Y0130109D01*
X0147913Y0130113D02*
X0147913Y0126887D01*
X0144687Y0126887D01*
X0144687Y0130113D01*
X0147913Y0130113D01*
X0147913Y0127961D02*
X0144687Y0127961D01*
X0144687Y0129035D02*
X0147913Y0129035D01*
X0147913Y0130109D02*
X0144687Y0130109D01*
X0147913Y0124113D02*
X0147913Y0120887D01*
X0144687Y0120887D01*
X0144687Y0124113D01*
X0147913Y0124113D01*
X0147913Y0121961D02*
X0144687Y0121961D01*
X0144687Y0123035D02*
X0147913Y0123035D01*
X0147913Y0124109D02*
X0144687Y0124109D01*
X0141387Y0110413D02*
X0141387Y0107187D01*
X0141387Y0110413D02*
X0144613Y0110413D01*
X0144613Y0107187D01*
X0141387Y0107187D01*
X0141387Y0108261D02*
X0144613Y0108261D01*
X0144613Y0109335D02*
X0141387Y0109335D01*
X0141387Y0110409D02*
X0144613Y0110409D01*
X0147487Y0110413D02*
X0147487Y0107187D01*
X0147487Y0110413D02*
X0150713Y0110413D01*
X0150713Y0107187D01*
X0147487Y0107187D01*
X0147487Y0108261D02*
X0150713Y0108261D01*
X0150713Y0109335D02*
X0147487Y0109335D01*
X0147487Y0110409D02*
X0150713Y0110409D01*
X0156813Y0110413D02*
X0156813Y0107187D01*
X0153587Y0107187D01*
X0153587Y0110413D01*
X0156813Y0110413D01*
X0156813Y0108261D02*
X0153587Y0108261D01*
X0153587Y0109335D02*
X0156813Y0109335D01*
X0156813Y0110409D02*
X0153587Y0110409D01*
X0162913Y0110313D02*
X0162913Y0107087D01*
X0159687Y0107087D01*
X0159687Y0110313D01*
X0162913Y0110313D01*
X0162913Y0108161D02*
X0159687Y0108161D01*
X0159687Y0109235D02*
X0162913Y0109235D01*
X0162913Y0110309D02*
X0159687Y0110309D01*
X0162913Y0113087D02*
X0162913Y0116313D01*
X0162913Y0113087D02*
X0159687Y0113087D01*
X0159687Y0116313D01*
X0162913Y0116313D01*
X0162913Y0114161D02*
X0159687Y0114161D01*
X0159687Y0115235D02*
X0162913Y0115235D01*
X0162913Y0116309D02*
X0159687Y0116309D01*
X0166887Y0116513D02*
X0166887Y0113287D01*
X0166887Y0116513D02*
X0170113Y0116513D01*
X0170113Y0113287D01*
X0166887Y0113287D01*
X0166887Y0114361D02*
X0170113Y0114361D01*
X0170113Y0115435D02*
X0166887Y0115435D01*
X0166887Y0116509D02*
X0170113Y0116509D01*
X0166887Y0110513D02*
X0166887Y0107287D01*
X0166887Y0110513D02*
X0170113Y0110513D01*
X0170113Y0107287D01*
X0166887Y0107287D01*
X0166887Y0108361D02*
X0170113Y0108361D01*
X0170113Y0109435D02*
X0166887Y0109435D01*
X0166887Y0110509D02*
X0170113Y0110509D01*
X0168613Y0126887D02*
X0168613Y0130113D01*
X0168613Y0126887D02*
X0165387Y0126887D01*
X0165387Y0130113D01*
X0168613Y0130113D01*
X0168613Y0127961D02*
X0165387Y0127961D01*
X0165387Y0129035D02*
X0168613Y0129035D01*
X0168613Y0130109D02*
X0165387Y0130109D01*
X0168613Y0132887D02*
X0168613Y0136113D01*
X0168613Y0132887D02*
X0165387Y0132887D01*
X0165387Y0136113D01*
X0168613Y0136113D01*
X0168613Y0133961D02*
X0165387Y0133961D01*
X0165387Y0135035D02*
X0168613Y0135035D01*
X0168613Y0136109D02*
X0165387Y0136109D01*
X0166487Y0155487D02*
X0169713Y0155487D01*
X0166487Y0155487D02*
X0166487Y0158713D01*
X0169713Y0158713D01*
X0169713Y0155487D01*
X0169713Y0156561D02*
X0166487Y0156561D01*
X0166487Y0157635D02*
X0169713Y0157635D01*
X0169713Y0158709D02*
X0166487Y0158709D01*
X0163713Y0155487D02*
X0160487Y0155487D01*
X0160487Y0158713D01*
X0163713Y0158713D01*
X0163713Y0155487D01*
X0163713Y0156561D02*
X0160487Y0156561D01*
X0160487Y0157635D02*
X0163713Y0157635D01*
X0163713Y0158709D02*
X0160487Y0158709D01*
X0160487Y0162487D02*
X0163713Y0162487D01*
X0160487Y0162487D02*
X0160487Y0165713D01*
X0163713Y0165713D01*
X0163713Y0162487D01*
X0163713Y0163561D02*
X0160487Y0163561D01*
X0160487Y0164635D02*
X0163713Y0164635D01*
X0163713Y0165709D02*
X0160487Y0165709D01*
X0166487Y0162487D02*
X0169713Y0162487D01*
X0166487Y0162487D02*
X0166487Y0165713D01*
X0169713Y0165713D01*
X0169713Y0162487D01*
X0169713Y0163561D02*
X0166487Y0163561D01*
X0166487Y0164635D02*
X0169713Y0164635D01*
X0169713Y0165709D02*
X0166487Y0165709D01*
X0154687Y0185887D02*
X0154687Y0189113D01*
X0157913Y0189113D01*
X0157913Y0185887D01*
X0154687Y0185887D01*
X0154687Y0186961D02*
X0157913Y0186961D01*
X0157913Y0188035D02*
X0154687Y0188035D01*
X0154687Y0189109D02*
X0157913Y0189109D01*
X0154687Y0191887D02*
X0154687Y0195113D01*
X0157913Y0195113D01*
X0157913Y0191887D01*
X0154687Y0191887D01*
X0154687Y0192961D02*
X0157913Y0192961D01*
X0157913Y0194035D02*
X0154687Y0194035D01*
X0154687Y0195109D02*
X0157913Y0195109D01*
X0151713Y0195113D02*
X0151713Y0191887D01*
X0148487Y0191887D01*
X0148487Y0195113D01*
X0151713Y0195113D01*
X0151713Y0192961D02*
X0148487Y0192961D01*
X0148487Y0194035D02*
X0151713Y0194035D01*
X0151713Y0195109D02*
X0148487Y0195109D01*
X0151713Y0189113D02*
X0151713Y0185887D01*
X0148487Y0185887D01*
X0148487Y0189113D01*
X0151713Y0189113D01*
X0151713Y0186961D02*
X0148487Y0186961D01*
X0148487Y0188035D02*
X0151713Y0188035D01*
X0151713Y0189109D02*
X0148487Y0189109D01*
X0142913Y0181313D02*
X0139687Y0181313D01*
X0142913Y0181313D02*
X0142913Y0178087D01*
X0139687Y0178087D01*
X0139687Y0181313D01*
X0139687Y0179161D02*
X0142913Y0179161D01*
X0142913Y0180235D02*
X0139687Y0180235D01*
X0139687Y0181309D02*
X0142913Y0181309D01*
X0136913Y0181313D02*
X0133687Y0181313D01*
X0136913Y0181313D02*
X0136913Y0178087D01*
X0133687Y0178087D01*
X0133687Y0181313D01*
X0133687Y0179161D02*
X0136913Y0179161D01*
X0136913Y0180235D02*
X0133687Y0180235D01*
X0133687Y0181309D02*
X0136913Y0181309D01*
X0125587Y0185987D02*
X0125587Y0189213D01*
X0128813Y0189213D01*
X0128813Y0185987D01*
X0125587Y0185987D01*
X0125587Y0187061D02*
X0128813Y0187061D01*
X0128813Y0188135D02*
X0125587Y0188135D01*
X0125587Y0189209D02*
X0128813Y0189209D01*
X0125587Y0191987D02*
X0125587Y0195213D01*
X0128813Y0195213D01*
X0128813Y0191987D01*
X0125587Y0191987D01*
X0125587Y0193061D02*
X0128813Y0193061D01*
X0128813Y0194135D02*
X0125587Y0194135D01*
X0125587Y0195209D02*
X0128813Y0195209D01*
X0122713Y0195213D02*
X0122713Y0191987D01*
X0119487Y0191987D01*
X0119487Y0195213D01*
X0122713Y0195213D01*
X0122713Y0193061D02*
X0119487Y0193061D01*
X0119487Y0194135D02*
X0122713Y0194135D01*
X0122713Y0195209D02*
X0119487Y0195209D01*
X0116713Y0195213D02*
X0116713Y0191987D01*
X0113487Y0191987D01*
X0113487Y0195213D01*
X0116713Y0195213D01*
X0116713Y0193061D02*
X0113487Y0193061D01*
X0113487Y0194135D02*
X0116713Y0194135D01*
X0116713Y0195209D02*
X0113487Y0195209D01*
X0116713Y0189213D02*
X0116713Y0185987D01*
X0113487Y0185987D01*
X0113487Y0189213D01*
X0116713Y0189213D01*
X0116713Y0187061D02*
X0113487Y0187061D01*
X0113487Y0188135D02*
X0116713Y0188135D01*
X0116713Y0189209D02*
X0113487Y0189209D01*
X0122713Y0189213D02*
X0122713Y0185987D01*
X0119487Y0185987D01*
X0119487Y0189213D01*
X0122713Y0189213D01*
X0122713Y0187061D02*
X0119487Y0187061D01*
X0119487Y0188135D02*
X0122713Y0188135D01*
X0122713Y0189209D02*
X0119487Y0189209D01*
X0088713Y0172613D02*
X0085487Y0172613D01*
X0088713Y0172613D02*
X0088713Y0169387D01*
X0085487Y0169387D01*
X0085487Y0172613D01*
X0085487Y0170461D02*
X0088713Y0170461D01*
X0088713Y0171535D02*
X0085487Y0171535D01*
X0085487Y0172609D02*
X0088713Y0172609D01*
X0082713Y0172613D02*
X0079487Y0172613D01*
X0082713Y0172613D02*
X0082713Y0169387D01*
X0079487Y0169387D01*
X0079487Y0172613D01*
X0079487Y0170461D02*
X0082713Y0170461D01*
X0082713Y0171535D02*
X0079487Y0171535D01*
X0079487Y0172609D02*
X0082713Y0172609D01*
X0076713Y0169287D02*
X0073487Y0169287D01*
X0073487Y0172513D01*
X0076713Y0172513D01*
X0076713Y0169287D01*
X0076713Y0170361D02*
X0073487Y0170361D01*
X0073487Y0171435D02*
X0076713Y0171435D01*
X0076713Y0172509D02*
X0073487Y0172509D01*
X0070713Y0169287D02*
X0067487Y0169287D01*
X0067487Y0172513D01*
X0070713Y0172513D01*
X0070713Y0169287D01*
X0070713Y0170361D02*
X0067487Y0170361D01*
X0067487Y0171435D02*
X0070713Y0171435D01*
X0070713Y0172509D02*
X0067487Y0172509D01*
X0058113Y0160487D02*
X0054887Y0160487D01*
X0054887Y0163713D01*
X0058113Y0163713D01*
X0058113Y0160487D01*
X0058113Y0161561D02*
X0054887Y0161561D01*
X0054887Y0162635D02*
X0058113Y0162635D01*
X0058113Y0163709D02*
X0054887Y0163709D01*
X0052113Y0160487D02*
X0048887Y0160487D01*
X0048887Y0163713D01*
X0052113Y0163713D01*
X0052113Y0160487D01*
X0052113Y0161561D02*
X0048887Y0161561D01*
X0048887Y0162635D02*
X0052113Y0162635D01*
X0052113Y0163709D02*
X0048887Y0163709D01*
X0047313Y0172513D02*
X0044087Y0172513D01*
X0047313Y0172513D02*
X0047313Y0169287D01*
X0044087Y0169287D01*
X0044087Y0172513D01*
X0044087Y0170361D02*
X0047313Y0170361D01*
X0047313Y0171435D02*
X0044087Y0171435D01*
X0044087Y0172509D02*
X0047313Y0172509D01*
X0041313Y0172513D02*
X0038087Y0172513D01*
X0041313Y0172513D02*
X0041313Y0169287D01*
X0038087Y0169287D01*
X0038087Y0172513D01*
X0038087Y0170361D02*
X0041313Y0170361D01*
X0041313Y0171435D02*
X0038087Y0171435D01*
X0038087Y0172509D02*
X0041313Y0172509D01*
X0015913Y0151313D02*
X0015913Y0148087D01*
X0012687Y0148087D01*
X0012687Y0151313D01*
X0015913Y0151313D01*
X0015913Y0149161D02*
X0012687Y0149161D01*
X0012687Y0150235D02*
X0015913Y0150235D01*
X0015913Y0151309D02*
X0012687Y0151309D01*
X0015913Y0145313D02*
X0015913Y0142087D01*
X0012687Y0142087D01*
X0012687Y0145313D01*
X0015913Y0145313D01*
X0015913Y0143161D02*
X0012687Y0143161D01*
X0012687Y0144235D02*
X0015913Y0144235D01*
X0015913Y0145309D02*
X0012687Y0145309D01*
X0017763Y0138913D02*
X0017763Y0135687D01*
X0013037Y0135687D01*
X0013037Y0138913D01*
X0017763Y0138913D01*
X0017763Y0136761D02*
X0013037Y0136761D01*
X0013037Y0137835D02*
X0017763Y0137835D01*
X0017763Y0138909D02*
X0013037Y0138909D01*
X0017763Y0131913D02*
X0017763Y0128687D01*
X0013037Y0128687D01*
X0013037Y0131913D01*
X0017763Y0131913D01*
X0017763Y0129761D02*
X0013037Y0129761D01*
X0013037Y0130835D02*
X0017763Y0130835D01*
X0017763Y0131909D02*
X0013037Y0131909D01*
X0015913Y0125313D02*
X0015913Y0122087D01*
X0012687Y0122087D01*
X0012687Y0125313D01*
X0015913Y0125313D01*
X0015913Y0123161D02*
X0012687Y0123161D01*
X0012687Y0124235D02*
X0015913Y0124235D01*
X0015913Y0125309D02*
X0012687Y0125309D01*
X0015913Y0119313D02*
X0015913Y0116087D01*
X0012687Y0116087D01*
X0012687Y0119313D01*
X0015913Y0119313D01*
X0015913Y0117161D02*
X0012687Y0117161D01*
X0012687Y0118235D02*
X0015913Y0118235D01*
X0015913Y0119309D02*
X0012687Y0119309D01*
X0079487Y0162187D02*
X0082713Y0162187D01*
X0079487Y0162187D02*
X0079487Y0165413D01*
X0082713Y0165413D01*
X0082713Y0162187D01*
X0082713Y0163261D02*
X0079487Y0163261D01*
X0079487Y0164335D02*
X0082713Y0164335D01*
X0082713Y0165409D02*
X0079487Y0165409D01*
X0085487Y0162187D02*
X0088713Y0162187D01*
X0085487Y0162187D02*
X0085487Y0165413D01*
X0088713Y0165413D01*
X0088713Y0162187D01*
X0088713Y0163261D02*
X0085487Y0163261D01*
X0085487Y0164335D02*
X0088713Y0164335D01*
X0088713Y0165409D02*
X0085487Y0165409D01*
X0119387Y0124513D02*
X0119387Y0121287D01*
X0119387Y0124513D02*
X0122613Y0124513D01*
X0122613Y0121287D01*
X0119387Y0121287D01*
X0119387Y0122361D02*
X0122613Y0122361D01*
X0122613Y0123435D02*
X0119387Y0123435D01*
X0119387Y0124509D02*
X0122613Y0124509D01*
X0119487Y0116313D02*
X0119487Y0113087D01*
X0119487Y0116313D02*
X0122713Y0116313D01*
X0122713Y0113087D01*
X0119487Y0113087D01*
X0119487Y0114161D02*
X0122713Y0114161D01*
X0122713Y0115235D02*
X0119487Y0115235D01*
X0119487Y0116309D02*
X0122713Y0116309D01*
X0119487Y0110313D02*
X0119487Y0107087D01*
X0119487Y0110313D02*
X0122713Y0110313D01*
X0122713Y0107087D01*
X0119487Y0107087D01*
X0119487Y0108161D02*
X0122713Y0108161D01*
X0122713Y0109235D02*
X0119487Y0109235D01*
X0119487Y0110309D02*
X0122713Y0110309D01*
X0128987Y0110313D02*
X0128987Y0107087D01*
X0128987Y0110313D02*
X0132213Y0110313D01*
X0132213Y0107087D01*
X0128987Y0107087D01*
X0128987Y0108161D02*
X0132213Y0108161D01*
X0132213Y0109235D02*
X0128987Y0109235D01*
X0128987Y0110309D02*
X0132213Y0110309D01*
X0135087Y0110413D02*
X0135087Y0107187D01*
X0135087Y0110413D02*
X0138313Y0110413D01*
X0138313Y0107187D01*
X0135087Y0107187D01*
X0135087Y0108261D02*
X0138313Y0108261D01*
X0138313Y0109335D02*
X0135087Y0109335D01*
X0135087Y0110409D02*
X0138313Y0110409D01*
X0113287Y0110313D02*
X0113287Y0107087D01*
X0113287Y0110313D02*
X0116513Y0110313D01*
X0116513Y0107087D01*
X0113287Y0107087D01*
X0113287Y0108161D02*
X0116513Y0108161D01*
X0116513Y0109235D02*
X0113287Y0109235D01*
X0113287Y0110309D02*
X0116513Y0110309D01*
X0113287Y0113087D02*
X0113287Y0116313D01*
X0116513Y0116313D01*
X0116513Y0113087D01*
X0113287Y0113087D01*
X0113287Y0114161D02*
X0116513Y0114161D01*
X0116513Y0115235D02*
X0113287Y0115235D01*
X0113287Y0116309D02*
X0116513Y0116309D01*
X0110213Y0116413D02*
X0110213Y0113187D01*
X0106987Y0113187D01*
X0106987Y0116413D01*
X0110213Y0116413D01*
X0110213Y0114261D02*
X0106987Y0114261D01*
X0106987Y0115335D02*
X0110213Y0115335D01*
X0110213Y0116409D02*
X0106987Y0116409D01*
X0110213Y0110413D02*
X0110213Y0107187D01*
X0106987Y0107187D01*
X0106987Y0110413D01*
X0110213Y0110413D01*
X0110213Y0108261D02*
X0106987Y0108261D01*
X0106987Y0109335D02*
X0110213Y0109335D01*
X0110213Y0110409D02*
X0106987Y0110409D01*
D13*
X0046000Y0074974D03*
X0046000Y0059226D03*
D14*
X0016100Y0080500D03*
X0022900Y0159900D03*
D15*
X0022900Y0169900D03*
X0022900Y0179900D03*
X0026100Y0080500D03*
X0026100Y0070500D03*
X0026100Y0060500D03*
X0016100Y0060500D03*
X0016100Y0070500D03*
D16*
X0120000Y0083900D03*
D17*
X0130000Y0083900D03*
X0140000Y0083900D03*
X0150000Y0083900D03*
X0145000Y0093900D03*
X0135000Y0093900D03*
X0125000Y0093900D03*
X0155000Y0093900D03*
X0153500Y0039400D03*
X0163500Y0039400D03*
X0121500Y0039400D03*
X0111500Y0039400D03*
D18*
X0106000Y0070400D03*
X0169000Y0070400D03*
D19*
X0160000Y0058900D03*
X0115000Y0058900D03*
D20*
X0095700Y0152244D03*
X0095700Y0182756D03*
D21*
X0079322Y0154421D03*
X0077354Y0154421D03*
X0075385Y0154421D03*
X0073417Y0154421D03*
X0071448Y0154421D03*
X0069480Y0154421D03*
X0067511Y0154421D03*
X0065543Y0154421D03*
X0063574Y0154421D03*
X0061606Y0154421D03*
X0059637Y0154421D03*
X0057669Y0154421D03*
X0055700Y0154421D03*
X0053731Y0154421D03*
X0051763Y0154421D03*
X0049794Y0154421D03*
X0047826Y0154421D03*
X0045857Y0154421D03*
X0043889Y0154421D03*
X0041920Y0154421D03*
X0039952Y0154421D03*
X0037983Y0154421D03*
X0036015Y0154421D03*
X0034046Y0154421D03*
X0032078Y0154421D03*
X0032078Y0094579D03*
X0034046Y0094579D03*
X0036015Y0094579D03*
X0037983Y0094579D03*
X0039952Y0094579D03*
X0041920Y0094579D03*
X0043889Y0094579D03*
X0045857Y0094579D03*
X0047826Y0094579D03*
X0049794Y0094579D03*
X0051763Y0094579D03*
X0053731Y0094579D03*
X0055700Y0094579D03*
X0057669Y0094579D03*
X0059637Y0094579D03*
X0061606Y0094579D03*
X0063574Y0094579D03*
X0065543Y0094579D03*
X0067511Y0094579D03*
X0069480Y0094579D03*
X0071448Y0094579D03*
X0073417Y0094579D03*
X0075385Y0094579D03*
X0077354Y0094579D03*
X0079322Y0094579D03*
D22*
X0085621Y0100878D03*
X0085621Y0102846D03*
X0085621Y0104815D03*
X0085621Y0106783D03*
X0085621Y0108752D03*
X0085621Y0110720D03*
X0085621Y0112689D03*
X0085621Y0114657D03*
X0085621Y0116626D03*
X0085621Y0118594D03*
X0085621Y0120563D03*
X0085621Y0122531D03*
X0085621Y0124500D03*
X0085621Y0126469D03*
X0085621Y0128437D03*
X0085621Y0130406D03*
X0085621Y0132374D03*
X0085621Y0134343D03*
X0085621Y0136311D03*
X0085621Y0138280D03*
X0085621Y0140248D03*
X0085621Y0142217D03*
X0085621Y0144185D03*
X0085621Y0146154D03*
X0085621Y0148122D03*
X0025779Y0148122D03*
X0025779Y0146154D03*
X0025779Y0144185D03*
X0025779Y0142217D03*
X0025779Y0140248D03*
X0025779Y0138280D03*
X0025779Y0136311D03*
X0025779Y0134343D03*
X0025779Y0132374D03*
X0025779Y0130406D03*
X0025779Y0128437D03*
X0025779Y0126469D03*
X0025779Y0124500D03*
X0025779Y0122531D03*
X0025779Y0120563D03*
X0025779Y0118594D03*
X0025779Y0116626D03*
X0025779Y0114657D03*
X0025779Y0112689D03*
X0025779Y0110720D03*
X0025779Y0108752D03*
X0025779Y0106783D03*
X0025779Y0104815D03*
X0025779Y0102846D03*
X0025779Y0100878D03*
D23*
X0065100Y0046200D03*
X0074100Y0046200D03*
X0083100Y0046200D03*
D24*
X0074100Y0021200D03*
D25*
X0042399Y0049400D03*
X0039250Y0049400D03*
X0036100Y0049400D03*
X0032950Y0049400D03*
X0029801Y0049400D03*
D26*
X0018383Y0026589D03*
X0018383Y0048243D03*
X0053817Y0048243D03*
X0053817Y0026589D03*
D27*
X0044600Y0038400D03*
X0027600Y0038400D03*
D28*
X0127073Y0138568D03*
X0129042Y0138568D03*
X0131010Y0138568D03*
X0132979Y0138568D03*
X0134947Y0138568D03*
X0136916Y0138568D03*
X0138884Y0138568D03*
X0140853Y0138568D03*
X0142821Y0138568D03*
X0144790Y0138568D03*
X0146758Y0138568D03*
X0148727Y0138568D03*
X0148727Y0172032D03*
X0146758Y0172032D03*
X0144790Y0172032D03*
X0142821Y0172032D03*
X0140853Y0172032D03*
X0138884Y0172032D03*
X0136916Y0172032D03*
X0134947Y0172032D03*
X0132979Y0172032D03*
X0131010Y0172032D03*
X0129042Y0172032D03*
X0127073Y0172032D03*
D29*
X0121168Y0166127D03*
X0121168Y0164158D03*
X0121168Y0162190D03*
X0121168Y0160221D03*
X0121168Y0158253D03*
X0121168Y0156284D03*
X0121168Y0154316D03*
X0121168Y0152347D03*
X0121168Y0150379D03*
X0121168Y0148410D03*
X0121168Y0146442D03*
X0121168Y0144473D03*
X0154632Y0144473D03*
X0154632Y0146442D03*
X0154632Y0148410D03*
X0154632Y0150379D03*
X0154632Y0152347D03*
X0154632Y0154316D03*
X0154632Y0156284D03*
X0154632Y0158253D03*
X0154632Y0160221D03*
X0154632Y0162190D03*
X0154632Y0164158D03*
X0154632Y0166127D03*
D30*
X0145075Y0187175D02*
X0141925Y0187175D01*
X0145075Y0187175D02*
X0145075Y0185025D01*
X0141925Y0185025D01*
X0141925Y0187175D01*
X0141925Y0187174D02*
X0145075Y0187174D01*
X0145075Y0195175D02*
X0141925Y0195175D01*
X0145075Y0195175D02*
X0145075Y0193025D01*
X0141925Y0193025D01*
X0141925Y0195175D01*
X0141925Y0195174D02*
X0145075Y0195174D01*
X0135075Y0195175D02*
X0131925Y0195175D01*
X0135075Y0195175D02*
X0135075Y0193025D01*
X0131925Y0193025D01*
X0131925Y0195175D01*
X0131925Y0195174D02*
X0135075Y0195174D01*
X0135075Y0187175D02*
X0131925Y0187175D01*
X0135075Y0187175D02*
X0135075Y0185025D01*
X0131925Y0185025D01*
X0131925Y0187175D01*
X0131925Y0187174D02*
X0135075Y0187174D01*
X0063875Y0176975D02*
X0060725Y0176975D01*
X0063875Y0176975D02*
X0063875Y0174825D01*
X0060725Y0174825D01*
X0060725Y0176975D01*
X0060725Y0176974D02*
X0063875Y0176974D01*
X0063875Y0168975D02*
X0060725Y0168975D01*
X0063875Y0168975D02*
X0063875Y0166825D01*
X0060725Y0166825D01*
X0060725Y0168975D01*
X0060725Y0168974D02*
X0063875Y0168974D01*
X0053875Y0168975D02*
X0050725Y0168975D01*
X0053875Y0168975D02*
X0053875Y0166825D01*
X0050725Y0166825D01*
X0050725Y0168975D01*
X0050725Y0168974D02*
X0053875Y0168974D01*
X0053875Y0176975D02*
X0050725Y0176975D01*
X0053875Y0176975D02*
X0053875Y0174825D01*
X0050725Y0174825D01*
X0050725Y0176975D01*
X0050725Y0176974D02*
X0053875Y0176974D01*
D31*
X0040300Y0166300D03*
X0037300Y0164500D03*
X0020500Y0143500D03*
X0020500Y0130300D03*
X0019300Y0121300D03*
X0033600Y0121600D03*
X0041500Y0123700D03*
X0041500Y0118900D03*
X0045100Y0118300D03*
X0048700Y0118900D03*
X0057700Y0118900D03*
X0062500Y0118900D03*
X0065500Y0123700D03*
X0069100Y0115300D03*
X0072700Y0100900D03*
X0069700Y0099700D03*
X0057100Y0101500D03*
X0054200Y0100200D03*
X0055200Y0085500D03*
X0060700Y0082900D03*
X0071800Y0085500D03*
X0069700Y0069100D03*
X0091300Y0091100D03*
X0089000Y0093300D03*
X0088900Y0096700D03*
X0096700Y0088300D03*
X0121300Y0118900D03*
X0114700Y0123100D03*
X0108700Y0120100D03*
X0129700Y0118900D03*
X0141100Y0123700D03*
X0131500Y0133900D03*
X0121300Y0141700D03*
X0129100Y0156100D03*
X0131500Y0158500D03*
X0133900Y0161500D03*
X0135700Y0165100D03*
X0147700Y0150400D03*
X0159100Y0145900D03*
X0159700Y0135100D03*
X0168100Y0169300D03*
X0156100Y0177700D03*
X0151900Y0171100D03*
X0160900Y0193300D03*
X0129700Y0183100D03*
X0120100Y0176500D03*
X0121300Y0169900D03*
X0106300Y0192700D03*
X0091300Y0182500D03*
X0075100Y0175900D03*
X0076300Y0161500D03*
X0087100Y0158500D03*
X0091900Y0147100D03*
X0100900Y0147100D03*
X0079900Y0147700D03*
X0079600Y0144500D03*
X0079900Y0140500D03*
X0079300Y0137500D03*
X0079300Y0133900D03*
X0036700Y0100300D03*
X0026500Y0093100D03*
X0022300Y0098500D03*
X0011500Y0099700D03*
X0037900Y0088900D03*
D32*
X0084100Y0054100D03*
X0094900Y0069100D03*
X0036700Y0026500D03*
X0166900Y0123700D03*
D33*
X0168800Y0119000D03*
X0167500Y0096100D03*
X0103900Y0096100D03*
X0084700Y0082900D03*
X0093700Y0119500D03*
X0102700Y0119500D03*
X0104500Y0124300D03*
D34*
X0091900Y0114100D03*
X0094300Y0106900D03*
X0072700Y0114700D03*
X0033700Y0111700D03*
X0019000Y0107400D03*
D35*
X0076900Y0075700D03*
M02*
