G75*
%MOIN*%
%OFA0B0*%
%FSLAX25Y25*%
%IPPOS*%
%LPD*%
%AMOC8*
5,1,8,0,0,1.08239X$1,22.5*
%
%ADD10C,0.00200*%
%ADD11C,0.00000*%
%ADD12C,0.00500*%
%ADD13C,0.00300*%
%ADD14C,0.00400*%
%ADD15C,0.01000*%
%ADD16R,0.01969X0.02953*%
%ADD17C,0.00800*%
D10*
X0032367Y0059400D02*
X0033101Y0059400D01*
X0033468Y0059767D01*
X0033468Y0060501D01*
X0032734Y0060501D01*
X0033468Y0061235D02*
X0033101Y0061602D01*
X0032367Y0061602D01*
X0032000Y0061235D01*
X0032000Y0059767D01*
X0032367Y0059400D01*
X0034210Y0059400D02*
X0034210Y0061602D01*
X0035678Y0059400D01*
X0035678Y0061602D01*
X0036420Y0061602D02*
X0036420Y0059400D01*
X0037521Y0059400D01*
X0037888Y0059767D01*
X0037888Y0061235D01*
X0037521Y0061602D01*
X0036420Y0061602D01*
X0036420Y0069400D02*
X0037521Y0069400D01*
X0037888Y0069767D01*
X0037888Y0071235D01*
X0037521Y0071602D01*
X0036420Y0071602D01*
X0036420Y0069400D01*
X0035678Y0069400D02*
X0034210Y0071602D01*
X0033468Y0071235D02*
X0033468Y0070501D01*
X0033101Y0070134D01*
X0032000Y0070134D01*
X0032734Y0070134D02*
X0033468Y0069400D01*
X0034210Y0069400D02*
X0035678Y0071602D01*
X0033468Y0071235D02*
X0033101Y0071602D01*
X0032000Y0071602D01*
X0032000Y0069400D01*
X0032734Y0079600D02*
X0032734Y0081802D01*
X0032000Y0081802D02*
X0033468Y0081802D01*
X0034210Y0081802D02*
X0035678Y0079600D01*
X0036420Y0079600D02*
X0036420Y0081802D01*
X0037521Y0081802D01*
X0037888Y0081435D01*
X0037888Y0079967D01*
X0037521Y0079600D01*
X0036420Y0079600D01*
X0034210Y0079600D02*
X0035678Y0081802D01*
X0016088Y0086767D02*
X0016088Y0088235D01*
X0015721Y0088602D01*
X0014620Y0088602D01*
X0014620Y0086400D01*
X0015721Y0086400D01*
X0016088Y0086767D01*
X0013878Y0086400D02*
X0013878Y0088602D01*
X0013878Y0089800D02*
X0012410Y0089800D01*
X0012410Y0092002D01*
X0012180Y0092600D02*
X0012914Y0093334D01*
X0013648Y0092600D01*
X0013648Y0094802D01*
X0014390Y0094802D02*
X0015491Y0094802D01*
X0015858Y0094435D01*
X0015858Y0092967D01*
X0015491Y0092600D01*
X0014390Y0092600D01*
X0014390Y0094802D01*
X0012180Y0094802D02*
X0012180Y0092600D01*
X0011438Y0092967D02*
X0011071Y0092600D01*
X0010337Y0092600D01*
X0009970Y0092967D01*
X0010337Y0093701D02*
X0011071Y0093701D01*
X0011438Y0093334D01*
X0011438Y0092967D01*
X0011301Y0092002D02*
X0010567Y0092002D01*
X0010200Y0091635D01*
X0010200Y0090167D01*
X0010567Y0089800D01*
X0011301Y0089800D01*
X0011668Y0090167D01*
X0011668Y0091635D02*
X0011301Y0092002D01*
X0010337Y0093701D02*
X0009970Y0094068D01*
X0009970Y0094435D01*
X0010337Y0094802D01*
X0011071Y0094802D01*
X0011438Y0094435D01*
X0014620Y0092002D02*
X0014620Y0089800D01*
X0014620Y0090534D02*
X0016088Y0092002D01*
X0014987Y0090901D02*
X0016088Y0089800D01*
X0012410Y0088602D02*
X0012410Y0086400D01*
X0011668Y0086767D02*
X0011668Y0087501D01*
X0010934Y0087501D01*
X0011668Y0088235D02*
X0011301Y0088602D01*
X0010567Y0088602D01*
X0010200Y0088235D01*
X0010200Y0086767D01*
X0010567Y0086400D01*
X0011301Y0086400D01*
X0011668Y0086767D01*
X0012410Y0088602D02*
X0013878Y0086400D01*
D11*
X0007900Y0023500D02*
X0017500Y0013900D01*
X0169300Y0013900D01*
X0175900Y0020500D01*
X0175900Y0186100D01*
X0162700Y0199300D01*
X0105100Y0199300D01*
X0099100Y0193300D01*
X0015100Y0193300D01*
X0007900Y0186100D01*
X0007900Y0023500D01*
X0025600Y0038400D02*
X0025602Y0038489D01*
X0025608Y0038578D01*
X0025618Y0038667D01*
X0025632Y0038755D01*
X0025649Y0038842D01*
X0025671Y0038928D01*
X0025697Y0039014D01*
X0025726Y0039098D01*
X0025759Y0039181D01*
X0025795Y0039262D01*
X0025836Y0039342D01*
X0025879Y0039419D01*
X0025926Y0039495D01*
X0025977Y0039568D01*
X0026030Y0039639D01*
X0026087Y0039708D01*
X0026147Y0039774D01*
X0026210Y0039838D01*
X0026275Y0039898D01*
X0026343Y0039956D01*
X0026414Y0040010D01*
X0026487Y0040061D01*
X0026562Y0040109D01*
X0026639Y0040154D01*
X0026718Y0040195D01*
X0026799Y0040232D01*
X0026881Y0040266D01*
X0026965Y0040297D01*
X0027050Y0040323D01*
X0027136Y0040346D01*
X0027223Y0040364D01*
X0027311Y0040379D01*
X0027400Y0040390D01*
X0027489Y0040397D01*
X0027578Y0040400D01*
X0027667Y0040399D01*
X0027756Y0040394D01*
X0027844Y0040385D01*
X0027933Y0040372D01*
X0028020Y0040355D01*
X0028107Y0040335D01*
X0028193Y0040310D01*
X0028277Y0040282D01*
X0028360Y0040250D01*
X0028442Y0040214D01*
X0028522Y0040175D01*
X0028600Y0040132D01*
X0028676Y0040086D01*
X0028750Y0040036D01*
X0028822Y0039983D01*
X0028891Y0039927D01*
X0028958Y0039868D01*
X0029022Y0039806D01*
X0029083Y0039742D01*
X0029142Y0039674D01*
X0029197Y0039604D01*
X0029249Y0039532D01*
X0029298Y0039457D01*
X0029343Y0039381D01*
X0029385Y0039302D01*
X0029423Y0039222D01*
X0029458Y0039140D01*
X0029489Y0039056D01*
X0029517Y0038971D01*
X0029540Y0038885D01*
X0029560Y0038798D01*
X0029576Y0038711D01*
X0029588Y0038622D01*
X0029596Y0038534D01*
X0029600Y0038445D01*
X0029600Y0038355D01*
X0029596Y0038266D01*
X0029588Y0038178D01*
X0029576Y0038089D01*
X0029560Y0038002D01*
X0029540Y0037915D01*
X0029517Y0037829D01*
X0029489Y0037744D01*
X0029458Y0037660D01*
X0029423Y0037578D01*
X0029385Y0037498D01*
X0029343Y0037419D01*
X0029298Y0037343D01*
X0029249Y0037268D01*
X0029197Y0037196D01*
X0029142Y0037126D01*
X0029083Y0037058D01*
X0029022Y0036994D01*
X0028958Y0036932D01*
X0028891Y0036873D01*
X0028822Y0036817D01*
X0028750Y0036764D01*
X0028676Y0036714D01*
X0028600Y0036668D01*
X0028522Y0036625D01*
X0028442Y0036586D01*
X0028360Y0036550D01*
X0028277Y0036518D01*
X0028193Y0036490D01*
X0028107Y0036465D01*
X0028020Y0036445D01*
X0027933Y0036428D01*
X0027844Y0036415D01*
X0027756Y0036406D01*
X0027667Y0036401D01*
X0027578Y0036400D01*
X0027489Y0036403D01*
X0027400Y0036410D01*
X0027311Y0036421D01*
X0027223Y0036436D01*
X0027136Y0036454D01*
X0027050Y0036477D01*
X0026965Y0036503D01*
X0026881Y0036534D01*
X0026799Y0036568D01*
X0026718Y0036605D01*
X0026639Y0036646D01*
X0026562Y0036691D01*
X0026487Y0036739D01*
X0026414Y0036790D01*
X0026343Y0036844D01*
X0026275Y0036902D01*
X0026210Y0036962D01*
X0026147Y0037026D01*
X0026087Y0037092D01*
X0026030Y0037161D01*
X0025977Y0037232D01*
X0025926Y0037305D01*
X0025879Y0037381D01*
X0025836Y0037458D01*
X0025795Y0037538D01*
X0025759Y0037619D01*
X0025726Y0037702D01*
X0025697Y0037786D01*
X0025671Y0037872D01*
X0025649Y0037958D01*
X0025632Y0038045D01*
X0025618Y0038133D01*
X0025608Y0038222D01*
X0025602Y0038311D01*
X0025600Y0038400D01*
X0042600Y0038400D02*
X0042602Y0038489D01*
X0042608Y0038578D01*
X0042618Y0038667D01*
X0042632Y0038755D01*
X0042649Y0038842D01*
X0042671Y0038928D01*
X0042697Y0039014D01*
X0042726Y0039098D01*
X0042759Y0039181D01*
X0042795Y0039262D01*
X0042836Y0039342D01*
X0042879Y0039419D01*
X0042926Y0039495D01*
X0042977Y0039568D01*
X0043030Y0039639D01*
X0043087Y0039708D01*
X0043147Y0039774D01*
X0043210Y0039838D01*
X0043275Y0039898D01*
X0043343Y0039956D01*
X0043414Y0040010D01*
X0043487Y0040061D01*
X0043562Y0040109D01*
X0043639Y0040154D01*
X0043718Y0040195D01*
X0043799Y0040232D01*
X0043881Y0040266D01*
X0043965Y0040297D01*
X0044050Y0040323D01*
X0044136Y0040346D01*
X0044223Y0040364D01*
X0044311Y0040379D01*
X0044400Y0040390D01*
X0044489Y0040397D01*
X0044578Y0040400D01*
X0044667Y0040399D01*
X0044756Y0040394D01*
X0044844Y0040385D01*
X0044933Y0040372D01*
X0045020Y0040355D01*
X0045107Y0040335D01*
X0045193Y0040310D01*
X0045277Y0040282D01*
X0045360Y0040250D01*
X0045442Y0040214D01*
X0045522Y0040175D01*
X0045600Y0040132D01*
X0045676Y0040086D01*
X0045750Y0040036D01*
X0045822Y0039983D01*
X0045891Y0039927D01*
X0045958Y0039868D01*
X0046022Y0039806D01*
X0046083Y0039742D01*
X0046142Y0039674D01*
X0046197Y0039604D01*
X0046249Y0039532D01*
X0046298Y0039457D01*
X0046343Y0039381D01*
X0046385Y0039302D01*
X0046423Y0039222D01*
X0046458Y0039140D01*
X0046489Y0039056D01*
X0046517Y0038971D01*
X0046540Y0038885D01*
X0046560Y0038798D01*
X0046576Y0038711D01*
X0046588Y0038622D01*
X0046596Y0038534D01*
X0046600Y0038445D01*
X0046600Y0038355D01*
X0046596Y0038266D01*
X0046588Y0038178D01*
X0046576Y0038089D01*
X0046560Y0038002D01*
X0046540Y0037915D01*
X0046517Y0037829D01*
X0046489Y0037744D01*
X0046458Y0037660D01*
X0046423Y0037578D01*
X0046385Y0037498D01*
X0046343Y0037419D01*
X0046298Y0037343D01*
X0046249Y0037268D01*
X0046197Y0037196D01*
X0046142Y0037126D01*
X0046083Y0037058D01*
X0046022Y0036994D01*
X0045958Y0036932D01*
X0045891Y0036873D01*
X0045822Y0036817D01*
X0045750Y0036764D01*
X0045676Y0036714D01*
X0045600Y0036668D01*
X0045522Y0036625D01*
X0045442Y0036586D01*
X0045360Y0036550D01*
X0045277Y0036518D01*
X0045193Y0036490D01*
X0045107Y0036465D01*
X0045020Y0036445D01*
X0044933Y0036428D01*
X0044844Y0036415D01*
X0044756Y0036406D01*
X0044667Y0036401D01*
X0044578Y0036400D01*
X0044489Y0036403D01*
X0044400Y0036410D01*
X0044311Y0036421D01*
X0044223Y0036436D01*
X0044136Y0036454D01*
X0044050Y0036477D01*
X0043965Y0036503D01*
X0043881Y0036534D01*
X0043799Y0036568D01*
X0043718Y0036605D01*
X0043639Y0036646D01*
X0043562Y0036691D01*
X0043487Y0036739D01*
X0043414Y0036790D01*
X0043343Y0036844D01*
X0043275Y0036902D01*
X0043210Y0036962D01*
X0043147Y0037026D01*
X0043087Y0037092D01*
X0043030Y0037161D01*
X0042977Y0037232D01*
X0042926Y0037305D01*
X0042879Y0037381D01*
X0042836Y0037458D01*
X0042795Y0037538D01*
X0042759Y0037619D01*
X0042726Y0037702D01*
X0042697Y0037786D01*
X0042671Y0037872D01*
X0042649Y0037958D01*
X0042632Y0038045D01*
X0042618Y0038133D01*
X0042608Y0038222D01*
X0042602Y0038311D01*
X0042600Y0038400D01*
X0108000Y0058900D02*
X0108002Y0059072D01*
X0108008Y0059243D01*
X0108019Y0059415D01*
X0108034Y0059586D01*
X0108053Y0059757D01*
X0108076Y0059927D01*
X0108103Y0060097D01*
X0108135Y0060266D01*
X0108170Y0060434D01*
X0108210Y0060601D01*
X0108254Y0060767D01*
X0108301Y0060932D01*
X0108353Y0061096D01*
X0108409Y0061258D01*
X0108469Y0061419D01*
X0108533Y0061579D01*
X0108601Y0061737D01*
X0108672Y0061893D01*
X0108747Y0062047D01*
X0108827Y0062200D01*
X0108909Y0062350D01*
X0108996Y0062499D01*
X0109086Y0062645D01*
X0109180Y0062789D01*
X0109277Y0062931D01*
X0109378Y0063070D01*
X0109482Y0063207D01*
X0109589Y0063341D01*
X0109700Y0063472D01*
X0109813Y0063601D01*
X0109930Y0063727D01*
X0110050Y0063850D01*
X0110173Y0063970D01*
X0110299Y0064087D01*
X0110428Y0064200D01*
X0110559Y0064311D01*
X0110693Y0064418D01*
X0110830Y0064522D01*
X0110969Y0064623D01*
X0111111Y0064720D01*
X0111255Y0064814D01*
X0111401Y0064904D01*
X0111550Y0064991D01*
X0111700Y0065073D01*
X0111853Y0065153D01*
X0112007Y0065228D01*
X0112163Y0065299D01*
X0112321Y0065367D01*
X0112481Y0065431D01*
X0112642Y0065491D01*
X0112804Y0065547D01*
X0112968Y0065599D01*
X0113133Y0065646D01*
X0113299Y0065690D01*
X0113466Y0065730D01*
X0113634Y0065765D01*
X0113803Y0065797D01*
X0113973Y0065824D01*
X0114143Y0065847D01*
X0114314Y0065866D01*
X0114485Y0065881D01*
X0114657Y0065892D01*
X0114828Y0065898D01*
X0115000Y0065900D01*
X0115172Y0065898D01*
X0115343Y0065892D01*
X0115515Y0065881D01*
X0115686Y0065866D01*
X0115857Y0065847D01*
X0116027Y0065824D01*
X0116197Y0065797D01*
X0116366Y0065765D01*
X0116534Y0065730D01*
X0116701Y0065690D01*
X0116867Y0065646D01*
X0117032Y0065599D01*
X0117196Y0065547D01*
X0117358Y0065491D01*
X0117519Y0065431D01*
X0117679Y0065367D01*
X0117837Y0065299D01*
X0117993Y0065228D01*
X0118147Y0065153D01*
X0118300Y0065073D01*
X0118450Y0064991D01*
X0118599Y0064904D01*
X0118745Y0064814D01*
X0118889Y0064720D01*
X0119031Y0064623D01*
X0119170Y0064522D01*
X0119307Y0064418D01*
X0119441Y0064311D01*
X0119572Y0064200D01*
X0119701Y0064087D01*
X0119827Y0063970D01*
X0119950Y0063850D01*
X0120070Y0063727D01*
X0120187Y0063601D01*
X0120300Y0063472D01*
X0120411Y0063341D01*
X0120518Y0063207D01*
X0120622Y0063070D01*
X0120723Y0062931D01*
X0120820Y0062789D01*
X0120914Y0062645D01*
X0121004Y0062499D01*
X0121091Y0062350D01*
X0121173Y0062200D01*
X0121253Y0062047D01*
X0121328Y0061893D01*
X0121399Y0061737D01*
X0121467Y0061579D01*
X0121531Y0061419D01*
X0121591Y0061258D01*
X0121647Y0061096D01*
X0121699Y0060932D01*
X0121746Y0060767D01*
X0121790Y0060601D01*
X0121830Y0060434D01*
X0121865Y0060266D01*
X0121897Y0060097D01*
X0121924Y0059927D01*
X0121947Y0059757D01*
X0121966Y0059586D01*
X0121981Y0059415D01*
X0121992Y0059243D01*
X0121998Y0059072D01*
X0122000Y0058900D01*
X0121998Y0058728D01*
X0121992Y0058557D01*
X0121981Y0058385D01*
X0121966Y0058214D01*
X0121947Y0058043D01*
X0121924Y0057873D01*
X0121897Y0057703D01*
X0121865Y0057534D01*
X0121830Y0057366D01*
X0121790Y0057199D01*
X0121746Y0057033D01*
X0121699Y0056868D01*
X0121647Y0056704D01*
X0121591Y0056542D01*
X0121531Y0056381D01*
X0121467Y0056221D01*
X0121399Y0056063D01*
X0121328Y0055907D01*
X0121253Y0055753D01*
X0121173Y0055600D01*
X0121091Y0055450D01*
X0121004Y0055301D01*
X0120914Y0055155D01*
X0120820Y0055011D01*
X0120723Y0054869D01*
X0120622Y0054730D01*
X0120518Y0054593D01*
X0120411Y0054459D01*
X0120300Y0054328D01*
X0120187Y0054199D01*
X0120070Y0054073D01*
X0119950Y0053950D01*
X0119827Y0053830D01*
X0119701Y0053713D01*
X0119572Y0053600D01*
X0119441Y0053489D01*
X0119307Y0053382D01*
X0119170Y0053278D01*
X0119031Y0053177D01*
X0118889Y0053080D01*
X0118745Y0052986D01*
X0118599Y0052896D01*
X0118450Y0052809D01*
X0118300Y0052727D01*
X0118147Y0052647D01*
X0117993Y0052572D01*
X0117837Y0052501D01*
X0117679Y0052433D01*
X0117519Y0052369D01*
X0117358Y0052309D01*
X0117196Y0052253D01*
X0117032Y0052201D01*
X0116867Y0052154D01*
X0116701Y0052110D01*
X0116534Y0052070D01*
X0116366Y0052035D01*
X0116197Y0052003D01*
X0116027Y0051976D01*
X0115857Y0051953D01*
X0115686Y0051934D01*
X0115515Y0051919D01*
X0115343Y0051908D01*
X0115172Y0051902D01*
X0115000Y0051900D01*
X0114828Y0051902D01*
X0114657Y0051908D01*
X0114485Y0051919D01*
X0114314Y0051934D01*
X0114143Y0051953D01*
X0113973Y0051976D01*
X0113803Y0052003D01*
X0113634Y0052035D01*
X0113466Y0052070D01*
X0113299Y0052110D01*
X0113133Y0052154D01*
X0112968Y0052201D01*
X0112804Y0052253D01*
X0112642Y0052309D01*
X0112481Y0052369D01*
X0112321Y0052433D01*
X0112163Y0052501D01*
X0112007Y0052572D01*
X0111853Y0052647D01*
X0111700Y0052727D01*
X0111550Y0052809D01*
X0111401Y0052896D01*
X0111255Y0052986D01*
X0111111Y0053080D01*
X0110969Y0053177D01*
X0110830Y0053278D01*
X0110693Y0053382D01*
X0110559Y0053489D01*
X0110428Y0053600D01*
X0110299Y0053713D01*
X0110173Y0053830D01*
X0110050Y0053950D01*
X0109930Y0054073D01*
X0109813Y0054199D01*
X0109700Y0054328D01*
X0109589Y0054459D01*
X0109482Y0054593D01*
X0109378Y0054730D01*
X0109277Y0054869D01*
X0109180Y0055011D01*
X0109086Y0055155D01*
X0108996Y0055301D01*
X0108909Y0055450D01*
X0108827Y0055600D01*
X0108747Y0055753D01*
X0108672Y0055907D01*
X0108601Y0056063D01*
X0108533Y0056221D01*
X0108469Y0056381D01*
X0108409Y0056542D01*
X0108353Y0056704D01*
X0108301Y0056868D01*
X0108254Y0057033D01*
X0108210Y0057199D01*
X0108170Y0057366D01*
X0108135Y0057534D01*
X0108103Y0057703D01*
X0108076Y0057873D01*
X0108053Y0058043D01*
X0108034Y0058214D01*
X0108019Y0058385D01*
X0108008Y0058557D01*
X0108002Y0058728D01*
X0108000Y0058900D01*
X0153000Y0058900D02*
X0153002Y0059072D01*
X0153008Y0059243D01*
X0153019Y0059415D01*
X0153034Y0059586D01*
X0153053Y0059757D01*
X0153076Y0059927D01*
X0153103Y0060097D01*
X0153135Y0060266D01*
X0153170Y0060434D01*
X0153210Y0060601D01*
X0153254Y0060767D01*
X0153301Y0060932D01*
X0153353Y0061096D01*
X0153409Y0061258D01*
X0153469Y0061419D01*
X0153533Y0061579D01*
X0153601Y0061737D01*
X0153672Y0061893D01*
X0153747Y0062047D01*
X0153827Y0062200D01*
X0153909Y0062350D01*
X0153996Y0062499D01*
X0154086Y0062645D01*
X0154180Y0062789D01*
X0154277Y0062931D01*
X0154378Y0063070D01*
X0154482Y0063207D01*
X0154589Y0063341D01*
X0154700Y0063472D01*
X0154813Y0063601D01*
X0154930Y0063727D01*
X0155050Y0063850D01*
X0155173Y0063970D01*
X0155299Y0064087D01*
X0155428Y0064200D01*
X0155559Y0064311D01*
X0155693Y0064418D01*
X0155830Y0064522D01*
X0155969Y0064623D01*
X0156111Y0064720D01*
X0156255Y0064814D01*
X0156401Y0064904D01*
X0156550Y0064991D01*
X0156700Y0065073D01*
X0156853Y0065153D01*
X0157007Y0065228D01*
X0157163Y0065299D01*
X0157321Y0065367D01*
X0157481Y0065431D01*
X0157642Y0065491D01*
X0157804Y0065547D01*
X0157968Y0065599D01*
X0158133Y0065646D01*
X0158299Y0065690D01*
X0158466Y0065730D01*
X0158634Y0065765D01*
X0158803Y0065797D01*
X0158973Y0065824D01*
X0159143Y0065847D01*
X0159314Y0065866D01*
X0159485Y0065881D01*
X0159657Y0065892D01*
X0159828Y0065898D01*
X0160000Y0065900D01*
X0160172Y0065898D01*
X0160343Y0065892D01*
X0160515Y0065881D01*
X0160686Y0065866D01*
X0160857Y0065847D01*
X0161027Y0065824D01*
X0161197Y0065797D01*
X0161366Y0065765D01*
X0161534Y0065730D01*
X0161701Y0065690D01*
X0161867Y0065646D01*
X0162032Y0065599D01*
X0162196Y0065547D01*
X0162358Y0065491D01*
X0162519Y0065431D01*
X0162679Y0065367D01*
X0162837Y0065299D01*
X0162993Y0065228D01*
X0163147Y0065153D01*
X0163300Y0065073D01*
X0163450Y0064991D01*
X0163599Y0064904D01*
X0163745Y0064814D01*
X0163889Y0064720D01*
X0164031Y0064623D01*
X0164170Y0064522D01*
X0164307Y0064418D01*
X0164441Y0064311D01*
X0164572Y0064200D01*
X0164701Y0064087D01*
X0164827Y0063970D01*
X0164950Y0063850D01*
X0165070Y0063727D01*
X0165187Y0063601D01*
X0165300Y0063472D01*
X0165411Y0063341D01*
X0165518Y0063207D01*
X0165622Y0063070D01*
X0165723Y0062931D01*
X0165820Y0062789D01*
X0165914Y0062645D01*
X0166004Y0062499D01*
X0166091Y0062350D01*
X0166173Y0062200D01*
X0166253Y0062047D01*
X0166328Y0061893D01*
X0166399Y0061737D01*
X0166467Y0061579D01*
X0166531Y0061419D01*
X0166591Y0061258D01*
X0166647Y0061096D01*
X0166699Y0060932D01*
X0166746Y0060767D01*
X0166790Y0060601D01*
X0166830Y0060434D01*
X0166865Y0060266D01*
X0166897Y0060097D01*
X0166924Y0059927D01*
X0166947Y0059757D01*
X0166966Y0059586D01*
X0166981Y0059415D01*
X0166992Y0059243D01*
X0166998Y0059072D01*
X0167000Y0058900D01*
X0166998Y0058728D01*
X0166992Y0058557D01*
X0166981Y0058385D01*
X0166966Y0058214D01*
X0166947Y0058043D01*
X0166924Y0057873D01*
X0166897Y0057703D01*
X0166865Y0057534D01*
X0166830Y0057366D01*
X0166790Y0057199D01*
X0166746Y0057033D01*
X0166699Y0056868D01*
X0166647Y0056704D01*
X0166591Y0056542D01*
X0166531Y0056381D01*
X0166467Y0056221D01*
X0166399Y0056063D01*
X0166328Y0055907D01*
X0166253Y0055753D01*
X0166173Y0055600D01*
X0166091Y0055450D01*
X0166004Y0055301D01*
X0165914Y0055155D01*
X0165820Y0055011D01*
X0165723Y0054869D01*
X0165622Y0054730D01*
X0165518Y0054593D01*
X0165411Y0054459D01*
X0165300Y0054328D01*
X0165187Y0054199D01*
X0165070Y0054073D01*
X0164950Y0053950D01*
X0164827Y0053830D01*
X0164701Y0053713D01*
X0164572Y0053600D01*
X0164441Y0053489D01*
X0164307Y0053382D01*
X0164170Y0053278D01*
X0164031Y0053177D01*
X0163889Y0053080D01*
X0163745Y0052986D01*
X0163599Y0052896D01*
X0163450Y0052809D01*
X0163300Y0052727D01*
X0163147Y0052647D01*
X0162993Y0052572D01*
X0162837Y0052501D01*
X0162679Y0052433D01*
X0162519Y0052369D01*
X0162358Y0052309D01*
X0162196Y0052253D01*
X0162032Y0052201D01*
X0161867Y0052154D01*
X0161701Y0052110D01*
X0161534Y0052070D01*
X0161366Y0052035D01*
X0161197Y0052003D01*
X0161027Y0051976D01*
X0160857Y0051953D01*
X0160686Y0051934D01*
X0160515Y0051919D01*
X0160343Y0051908D01*
X0160172Y0051902D01*
X0160000Y0051900D01*
X0159828Y0051902D01*
X0159657Y0051908D01*
X0159485Y0051919D01*
X0159314Y0051934D01*
X0159143Y0051953D01*
X0158973Y0051976D01*
X0158803Y0052003D01*
X0158634Y0052035D01*
X0158466Y0052070D01*
X0158299Y0052110D01*
X0158133Y0052154D01*
X0157968Y0052201D01*
X0157804Y0052253D01*
X0157642Y0052309D01*
X0157481Y0052369D01*
X0157321Y0052433D01*
X0157163Y0052501D01*
X0157007Y0052572D01*
X0156853Y0052647D01*
X0156700Y0052727D01*
X0156550Y0052809D01*
X0156401Y0052896D01*
X0156255Y0052986D01*
X0156111Y0053080D01*
X0155969Y0053177D01*
X0155830Y0053278D01*
X0155693Y0053382D01*
X0155559Y0053489D01*
X0155428Y0053600D01*
X0155299Y0053713D01*
X0155173Y0053830D01*
X0155050Y0053950D01*
X0154930Y0054073D01*
X0154813Y0054199D01*
X0154700Y0054328D01*
X0154589Y0054459D01*
X0154482Y0054593D01*
X0154378Y0054730D01*
X0154277Y0054869D01*
X0154180Y0055011D01*
X0154086Y0055155D01*
X0153996Y0055301D01*
X0153909Y0055450D01*
X0153827Y0055600D01*
X0153747Y0055753D01*
X0153672Y0055907D01*
X0153601Y0056063D01*
X0153533Y0056221D01*
X0153469Y0056381D01*
X0153409Y0056542D01*
X0153353Y0056704D01*
X0153301Y0056868D01*
X0153254Y0057033D01*
X0153210Y0057199D01*
X0153170Y0057366D01*
X0153135Y0057534D01*
X0153103Y0057703D01*
X0153076Y0057873D01*
X0153053Y0058043D01*
X0153034Y0058214D01*
X0153019Y0058385D01*
X0153008Y0058557D01*
X0153002Y0058728D01*
X0153000Y0058900D01*
D12*
X0169000Y0101400D02*
X0169000Y0016400D01*
X0106000Y0016400D01*
X0106000Y0101400D01*
X0169000Y0101400D01*
X0171000Y0106400D02*
X0166000Y0106400D01*
X0166000Y0117400D01*
X0171000Y0117400D01*
X0171000Y0106400D01*
X0163800Y0106200D02*
X0158800Y0106200D01*
X0158800Y0117200D01*
X0163800Y0117200D01*
X0163800Y0106200D01*
X0157700Y0106300D02*
X0152700Y0106300D01*
X0152700Y0117300D01*
X0157700Y0117300D01*
X0157700Y0106300D01*
X0151600Y0106300D02*
X0146600Y0106300D01*
X0146600Y0117300D01*
X0151600Y0117300D01*
X0151600Y0106300D01*
X0145500Y0106300D02*
X0140500Y0106300D01*
X0140500Y0117300D01*
X0145500Y0117300D01*
X0145500Y0106300D01*
X0139200Y0106300D02*
X0134200Y0106300D01*
X0134200Y0117300D01*
X0139200Y0117300D01*
X0139200Y0106300D01*
X0133100Y0106200D02*
X0128100Y0106200D01*
X0128100Y0117200D01*
X0133100Y0117200D01*
X0133100Y0106200D01*
X0123600Y0106200D02*
X0118600Y0106200D01*
X0118600Y0117200D01*
X0123600Y0117200D01*
X0123600Y0106200D01*
X0117400Y0106200D02*
X0112400Y0106200D01*
X0112400Y0117200D01*
X0117400Y0117200D01*
X0117400Y0106200D01*
X0111100Y0106300D02*
X0106100Y0106300D01*
X0106100Y0117300D01*
X0111100Y0117300D01*
X0111100Y0106300D01*
X0105000Y0106300D02*
X0100000Y0106300D01*
X0100000Y0117300D01*
X0105000Y0117300D01*
X0105000Y0106300D01*
X0098200Y0104600D02*
X0098200Y0091600D01*
X0091200Y0091600D01*
X0091200Y0104600D01*
X0098200Y0104600D01*
X0102300Y0121500D02*
X0091300Y0121500D01*
X0091300Y0126500D01*
X0102300Y0126500D01*
X0102300Y0121500D01*
X0102200Y0127000D02*
X0102200Y0132000D01*
X0113200Y0132000D01*
X0113200Y0127000D01*
X0102200Y0127000D01*
X0102200Y0132900D02*
X0102200Y0137900D01*
X0113200Y0137900D01*
X0113200Y0132900D01*
X0102200Y0132900D01*
X0097800Y0133800D02*
X0092800Y0133800D01*
X0092800Y0144800D01*
X0097800Y0144800D01*
X0097800Y0133800D01*
X0102200Y0138800D02*
X0102200Y0143800D01*
X0113200Y0143800D01*
X0113200Y0138800D01*
X0102200Y0138800D01*
X0102200Y0144700D02*
X0102200Y0149700D01*
X0113200Y0149700D01*
X0113200Y0144700D01*
X0102200Y0144700D01*
X0102200Y0150600D02*
X0102200Y0155600D01*
X0113200Y0155600D01*
X0113200Y0150600D01*
X0102200Y0150600D01*
X0102200Y0156500D02*
X0102200Y0161500D01*
X0113200Y0161500D01*
X0113200Y0156500D01*
X0102200Y0156500D01*
X0100621Y0156594D02*
X0090779Y0156594D01*
X0090779Y0178406D01*
X0100621Y0178406D01*
X0100621Y0156594D01*
X0102200Y0162400D02*
X0102200Y0167400D01*
X0113200Y0167400D01*
X0113200Y0162400D01*
X0102200Y0162400D01*
X0102200Y0168200D02*
X0102200Y0173200D01*
X0113200Y0173200D01*
X0113200Y0168200D01*
X0102200Y0168200D01*
X0102200Y0174000D02*
X0102200Y0179000D01*
X0113200Y0179000D01*
X0113200Y0174000D01*
X0102200Y0174000D01*
X0092747Y0167500D02*
X0092749Y0167608D01*
X0092755Y0167717D01*
X0092765Y0167825D01*
X0092779Y0167932D01*
X0092797Y0168039D01*
X0092818Y0168146D01*
X0092844Y0168251D01*
X0092874Y0168356D01*
X0092907Y0168459D01*
X0092944Y0168561D01*
X0092985Y0168661D01*
X0093029Y0168760D01*
X0093078Y0168858D01*
X0093129Y0168953D01*
X0093184Y0169046D01*
X0093243Y0169138D01*
X0093305Y0169227D01*
X0093370Y0169314D01*
X0093438Y0169398D01*
X0093509Y0169480D01*
X0093583Y0169559D01*
X0093660Y0169635D01*
X0093740Y0169709D01*
X0093823Y0169779D01*
X0093908Y0169847D01*
X0093995Y0169911D01*
X0094085Y0169972D01*
X0094177Y0170030D01*
X0094271Y0170084D01*
X0094367Y0170135D01*
X0094464Y0170182D01*
X0094564Y0170226D01*
X0094665Y0170266D01*
X0094767Y0170302D01*
X0094870Y0170334D01*
X0094975Y0170363D01*
X0095081Y0170387D01*
X0095187Y0170408D01*
X0095294Y0170425D01*
X0095402Y0170438D01*
X0095510Y0170447D01*
X0095619Y0170452D01*
X0095727Y0170453D01*
X0095836Y0170450D01*
X0095944Y0170443D01*
X0096052Y0170432D01*
X0096159Y0170417D01*
X0096266Y0170398D01*
X0096372Y0170375D01*
X0096477Y0170349D01*
X0096582Y0170318D01*
X0096684Y0170284D01*
X0096786Y0170246D01*
X0096886Y0170204D01*
X0096985Y0170159D01*
X0097082Y0170110D01*
X0097176Y0170057D01*
X0097269Y0170001D01*
X0097360Y0169942D01*
X0097449Y0169879D01*
X0097535Y0169814D01*
X0097619Y0169745D01*
X0097700Y0169673D01*
X0097778Y0169598D01*
X0097854Y0169520D01*
X0097927Y0169439D01*
X0097997Y0169356D01*
X0098063Y0169271D01*
X0098127Y0169183D01*
X0098187Y0169092D01*
X0098244Y0169000D01*
X0098297Y0168905D01*
X0098347Y0168809D01*
X0098393Y0168711D01*
X0098436Y0168611D01*
X0098475Y0168510D01*
X0098510Y0168407D01*
X0098542Y0168304D01*
X0098569Y0168199D01*
X0098593Y0168093D01*
X0098613Y0167986D01*
X0098629Y0167879D01*
X0098641Y0167771D01*
X0098649Y0167663D01*
X0098653Y0167554D01*
X0098653Y0167446D01*
X0098649Y0167337D01*
X0098641Y0167229D01*
X0098629Y0167121D01*
X0098613Y0167014D01*
X0098593Y0166907D01*
X0098569Y0166801D01*
X0098542Y0166696D01*
X0098510Y0166593D01*
X0098475Y0166490D01*
X0098436Y0166389D01*
X0098393Y0166289D01*
X0098347Y0166191D01*
X0098297Y0166095D01*
X0098244Y0166000D01*
X0098187Y0165908D01*
X0098127Y0165817D01*
X0098063Y0165729D01*
X0097997Y0165644D01*
X0097927Y0165561D01*
X0097854Y0165480D01*
X0097778Y0165402D01*
X0097700Y0165327D01*
X0097619Y0165255D01*
X0097535Y0165186D01*
X0097449Y0165121D01*
X0097360Y0165058D01*
X0097269Y0164999D01*
X0097177Y0164943D01*
X0097082Y0164890D01*
X0096985Y0164841D01*
X0096886Y0164796D01*
X0096786Y0164754D01*
X0096684Y0164716D01*
X0096582Y0164682D01*
X0096477Y0164651D01*
X0096372Y0164625D01*
X0096266Y0164602D01*
X0096159Y0164583D01*
X0096052Y0164568D01*
X0095944Y0164557D01*
X0095836Y0164550D01*
X0095727Y0164547D01*
X0095619Y0164548D01*
X0095510Y0164553D01*
X0095402Y0164562D01*
X0095294Y0164575D01*
X0095187Y0164592D01*
X0095081Y0164613D01*
X0094975Y0164637D01*
X0094870Y0164666D01*
X0094767Y0164698D01*
X0094665Y0164734D01*
X0094564Y0164774D01*
X0094464Y0164818D01*
X0094367Y0164865D01*
X0094271Y0164916D01*
X0094177Y0164970D01*
X0094085Y0165028D01*
X0093995Y0165089D01*
X0093908Y0165153D01*
X0093823Y0165221D01*
X0093740Y0165291D01*
X0093660Y0165365D01*
X0093583Y0165441D01*
X0093509Y0165520D01*
X0093438Y0165602D01*
X0093370Y0165686D01*
X0093305Y0165773D01*
X0093243Y0165862D01*
X0093184Y0165954D01*
X0093129Y0166047D01*
X0093078Y0166142D01*
X0093029Y0166240D01*
X0092985Y0166339D01*
X0092944Y0166439D01*
X0092907Y0166541D01*
X0092874Y0166644D01*
X0092844Y0166749D01*
X0092818Y0166854D01*
X0092797Y0166961D01*
X0092779Y0167068D01*
X0092765Y0167175D01*
X0092755Y0167283D01*
X0092749Y0167392D01*
X0092747Y0167500D01*
X0089600Y0168500D02*
X0089600Y0173500D01*
X0078600Y0173500D01*
X0078600Y0168500D01*
X0089600Y0168500D01*
X0089600Y0166300D02*
X0089600Y0161300D01*
X0078600Y0161300D01*
X0078600Y0166300D01*
X0089600Y0166300D01*
X0077600Y0168400D02*
X0066600Y0168400D01*
X0066600Y0173400D01*
X0077600Y0173400D01*
X0077600Y0168400D01*
X0063599Y0169931D02*
X0063599Y0173869D01*
X0059662Y0176821D02*
X0054938Y0176821D01*
X0051001Y0173869D02*
X0051001Y0169931D01*
X0048200Y0168400D02*
X0048200Y0173400D01*
X0037200Y0173400D01*
X0037200Y0168400D01*
X0048200Y0168400D01*
X0048000Y0164600D02*
X0048000Y0159600D01*
X0059000Y0159600D01*
X0059000Y0164600D01*
X0048000Y0164600D01*
X0054938Y0166979D02*
X0059662Y0166979D01*
X0061438Y0179013D02*
X0061440Y0179072D01*
X0061446Y0179130D01*
X0061456Y0179188D01*
X0061469Y0179245D01*
X0061487Y0179302D01*
X0061508Y0179357D01*
X0061533Y0179410D01*
X0061561Y0179461D01*
X0061592Y0179511D01*
X0061627Y0179558D01*
X0061665Y0179603D01*
X0061706Y0179646D01*
X0061750Y0179685D01*
X0061796Y0179721D01*
X0061844Y0179755D01*
X0061895Y0179785D01*
X0061948Y0179811D01*
X0062002Y0179834D01*
X0062057Y0179853D01*
X0062114Y0179869D01*
X0062172Y0179881D01*
X0062230Y0179889D01*
X0062289Y0179893D01*
X0062347Y0179893D01*
X0062406Y0179889D01*
X0062464Y0179881D01*
X0062522Y0179869D01*
X0062579Y0179853D01*
X0062634Y0179834D01*
X0062688Y0179811D01*
X0062741Y0179785D01*
X0062792Y0179755D01*
X0062840Y0179721D01*
X0062886Y0179685D01*
X0062930Y0179646D01*
X0062971Y0179603D01*
X0063009Y0179558D01*
X0063044Y0179511D01*
X0063075Y0179461D01*
X0063103Y0179410D01*
X0063128Y0179357D01*
X0063149Y0179302D01*
X0063167Y0179245D01*
X0063180Y0179188D01*
X0063190Y0179130D01*
X0063196Y0179072D01*
X0063198Y0179013D01*
X0063196Y0178954D01*
X0063190Y0178896D01*
X0063180Y0178838D01*
X0063167Y0178781D01*
X0063149Y0178724D01*
X0063128Y0178669D01*
X0063103Y0178616D01*
X0063075Y0178565D01*
X0063044Y0178515D01*
X0063009Y0178468D01*
X0062971Y0178423D01*
X0062930Y0178380D01*
X0062886Y0178341D01*
X0062840Y0178305D01*
X0062792Y0178271D01*
X0062741Y0178241D01*
X0062688Y0178215D01*
X0062634Y0178192D01*
X0062579Y0178173D01*
X0062522Y0178157D01*
X0062464Y0178145D01*
X0062406Y0178137D01*
X0062347Y0178133D01*
X0062289Y0178133D01*
X0062230Y0178137D01*
X0062172Y0178145D01*
X0062114Y0178157D01*
X0062057Y0178173D01*
X0062002Y0178192D01*
X0061948Y0178215D01*
X0061895Y0178241D01*
X0061844Y0178271D01*
X0061796Y0178305D01*
X0061750Y0178341D01*
X0061706Y0178380D01*
X0061665Y0178423D01*
X0061627Y0178468D01*
X0061592Y0178515D01*
X0061561Y0178565D01*
X0061533Y0178616D01*
X0061508Y0178669D01*
X0061487Y0178724D01*
X0061469Y0178781D01*
X0061456Y0178838D01*
X0061446Y0178896D01*
X0061440Y0178954D01*
X0061438Y0179013D01*
X0027900Y0184900D02*
X0027900Y0154900D01*
X0017900Y0154900D01*
X0017900Y0184900D01*
X0027900Y0184900D01*
X0016800Y0152200D02*
X0011800Y0152200D01*
X0011800Y0141200D01*
X0016800Y0141200D01*
X0016800Y0152200D01*
X0018900Y0140050D02*
X0011900Y0140050D01*
X0011900Y0127550D01*
X0018900Y0127550D01*
X0018900Y0140050D01*
X0015400Y0134550D02*
X0013400Y0133050D01*
X0015650Y0134300D01*
X0014400Y0133050D01*
X0015900Y0134050D01*
X0015400Y0133050D01*
X0016400Y0133800D01*
X0016400Y0133050D01*
X0017400Y0133050D01*
X0016400Y0133800D01*
X0015400Y0134550D01*
X0015400Y0133050D02*
X0016400Y0133050D01*
X0015400Y0133050D02*
X0014400Y0133050D01*
X0013400Y0133050D01*
X0011800Y0126200D02*
X0016800Y0126200D01*
X0016800Y0115200D01*
X0011800Y0115200D01*
X0011800Y0126200D01*
X0011700Y0113900D02*
X0018700Y0113900D01*
X0018700Y0100900D01*
X0011700Y0100900D01*
X0011700Y0113900D01*
X0011100Y0085500D02*
X0011100Y0055500D01*
X0031100Y0055500D01*
X0031100Y0085500D01*
X0011100Y0085500D01*
X0023108Y0050900D02*
X0027832Y0050900D01*
X0021100Y0041943D02*
X0021100Y0032494D01*
X0021139Y0020191D02*
X0021139Y0014876D01*
X0051061Y0014876D01*
X0051061Y0020585D01*
X0051100Y0032494D02*
X0051100Y0042337D01*
X0048305Y0050900D02*
X0044368Y0050900D01*
X0055900Y0056200D02*
X0055900Y0067200D01*
X0060900Y0067200D01*
X0060900Y0056200D01*
X0055900Y0056200D01*
X0062100Y0056050D02*
X0062100Y0068550D01*
X0069100Y0068550D01*
X0069100Y0056050D01*
X0062100Y0056050D01*
X0063600Y0061550D02*
X0065850Y0062800D01*
X0064600Y0061550D01*
X0066100Y0062550D01*
X0065600Y0061550D01*
X0066600Y0062300D01*
X0066600Y0061550D01*
X0067600Y0061550D01*
X0066600Y0062300D01*
X0065600Y0063050D01*
X0063600Y0061550D01*
X0064600Y0061550D01*
X0065600Y0061550D01*
X0066600Y0061550D01*
X0070400Y0062800D02*
X0083400Y0062800D01*
X0083400Y0055800D01*
X0070400Y0055800D01*
X0070400Y0062800D01*
X0070600Y0063800D02*
X0070600Y0068800D01*
X0081600Y0068800D01*
X0081600Y0063800D01*
X0070600Y0063800D01*
X0082000Y0070000D02*
X0087000Y0070000D01*
X0087000Y0081000D01*
X0082000Y0081000D01*
X0082000Y0070000D01*
X0086800Y0066600D02*
X0099800Y0066600D01*
X0099800Y0059600D01*
X0086800Y0059600D01*
X0086800Y0066600D01*
X0088400Y0070000D02*
X0093400Y0070000D01*
X0093400Y0081000D01*
X0088400Y0081000D01*
X0088400Y0070000D01*
X0094800Y0074200D02*
X0099800Y0074200D01*
X0099800Y0085200D01*
X0094800Y0085200D01*
X0094800Y0074200D01*
X0099600Y0058400D02*
X0088600Y0058400D01*
X0088600Y0053400D01*
X0099600Y0053400D01*
X0099600Y0058400D01*
X0099800Y0052000D02*
X0099800Y0047000D01*
X0088800Y0047000D01*
X0088800Y0052000D01*
X0099800Y0052000D01*
X0100400Y0046000D02*
X0100400Y0041000D01*
X0089400Y0041000D01*
X0089400Y0046000D01*
X0100400Y0046000D01*
X0100800Y0039600D02*
X0100800Y0034600D01*
X0089800Y0034600D01*
X0089800Y0039600D01*
X0100800Y0039600D01*
X0101200Y0033400D02*
X0101200Y0026400D01*
X0088200Y0026400D01*
X0088200Y0033400D01*
X0101200Y0033400D01*
X0101600Y0025000D02*
X0101600Y0018000D01*
X0088600Y0018000D01*
X0088600Y0025000D01*
X0101600Y0025000D01*
X0118500Y0120400D02*
X0118500Y0131400D01*
X0123500Y0131400D01*
X0123500Y0120400D01*
X0118500Y0120400D01*
X0128000Y0120500D02*
X0128000Y0131500D01*
X0133000Y0131500D01*
X0133000Y0120500D01*
X0128000Y0120500D01*
X0143800Y0120000D02*
X0148800Y0120000D01*
X0148800Y0131000D01*
X0143800Y0131000D01*
X0143800Y0120000D01*
X0150000Y0120000D02*
X0155000Y0120000D01*
X0155000Y0131000D01*
X0150000Y0131000D01*
X0150000Y0120000D01*
X0156200Y0120000D02*
X0156200Y0133000D01*
X0163200Y0133000D01*
X0163200Y0120000D01*
X0156200Y0120000D01*
X0164500Y0126000D02*
X0169500Y0126000D01*
X0169500Y0137000D01*
X0164500Y0137000D01*
X0164500Y0126000D01*
X0160000Y0145800D02*
X0160000Y0152800D01*
X0173000Y0152800D01*
X0173000Y0145800D01*
X0160000Y0145800D01*
X0159600Y0154600D02*
X0159600Y0159600D01*
X0170600Y0159600D01*
X0170600Y0154600D01*
X0159600Y0154600D01*
X0159600Y0161600D02*
X0159600Y0166600D01*
X0170600Y0166600D01*
X0170600Y0161600D01*
X0159600Y0161600D01*
X0143800Y0177200D02*
X0143800Y0182200D01*
X0132800Y0182200D01*
X0132800Y0177200D01*
X0143800Y0177200D01*
X0140862Y0185179D02*
X0136138Y0185179D01*
X0132201Y0188131D02*
X0132201Y0192069D01*
X0129700Y0196100D02*
X0124700Y0196100D01*
X0124700Y0185100D01*
X0129700Y0185100D01*
X0129700Y0196100D01*
X0123600Y0196100D02*
X0123600Y0185100D01*
X0118600Y0185100D01*
X0118600Y0196100D01*
X0123600Y0196100D01*
X0117600Y0196100D02*
X0117600Y0185100D01*
X0112600Y0185100D01*
X0112600Y0196100D01*
X0117600Y0196100D01*
X0136138Y0195021D02*
X0140862Y0195021D01*
X0142638Y0197213D02*
X0142640Y0197272D01*
X0142646Y0197330D01*
X0142656Y0197388D01*
X0142669Y0197445D01*
X0142687Y0197502D01*
X0142708Y0197557D01*
X0142733Y0197610D01*
X0142761Y0197661D01*
X0142792Y0197711D01*
X0142827Y0197758D01*
X0142865Y0197803D01*
X0142906Y0197846D01*
X0142950Y0197885D01*
X0142996Y0197921D01*
X0143044Y0197955D01*
X0143095Y0197985D01*
X0143148Y0198011D01*
X0143202Y0198034D01*
X0143257Y0198053D01*
X0143314Y0198069D01*
X0143372Y0198081D01*
X0143430Y0198089D01*
X0143489Y0198093D01*
X0143547Y0198093D01*
X0143606Y0198089D01*
X0143664Y0198081D01*
X0143722Y0198069D01*
X0143779Y0198053D01*
X0143834Y0198034D01*
X0143888Y0198011D01*
X0143941Y0197985D01*
X0143992Y0197955D01*
X0144040Y0197921D01*
X0144086Y0197885D01*
X0144130Y0197846D01*
X0144171Y0197803D01*
X0144209Y0197758D01*
X0144244Y0197711D01*
X0144275Y0197661D01*
X0144303Y0197610D01*
X0144328Y0197557D01*
X0144349Y0197502D01*
X0144367Y0197445D01*
X0144380Y0197388D01*
X0144390Y0197330D01*
X0144396Y0197272D01*
X0144398Y0197213D01*
X0144396Y0197154D01*
X0144390Y0197096D01*
X0144380Y0197038D01*
X0144367Y0196981D01*
X0144349Y0196924D01*
X0144328Y0196869D01*
X0144303Y0196816D01*
X0144275Y0196765D01*
X0144244Y0196715D01*
X0144209Y0196668D01*
X0144171Y0196623D01*
X0144130Y0196580D01*
X0144086Y0196541D01*
X0144040Y0196505D01*
X0143992Y0196471D01*
X0143941Y0196441D01*
X0143888Y0196415D01*
X0143834Y0196392D01*
X0143779Y0196373D01*
X0143722Y0196357D01*
X0143664Y0196345D01*
X0143606Y0196337D01*
X0143547Y0196333D01*
X0143489Y0196333D01*
X0143430Y0196337D01*
X0143372Y0196345D01*
X0143314Y0196357D01*
X0143257Y0196373D01*
X0143202Y0196392D01*
X0143148Y0196415D01*
X0143095Y0196441D01*
X0143044Y0196471D01*
X0142996Y0196505D01*
X0142950Y0196541D01*
X0142906Y0196580D01*
X0142865Y0196623D01*
X0142827Y0196668D01*
X0142792Y0196715D01*
X0142761Y0196765D01*
X0142733Y0196816D01*
X0142708Y0196869D01*
X0142687Y0196924D01*
X0142669Y0196981D01*
X0142656Y0197038D01*
X0142646Y0197096D01*
X0142640Y0197154D01*
X0142638Y0197213D01*
X0147600Y0196000D02*
X0152600Y0196000D01*
X0152600Y0185000D01*
X0147600Y0185000D01*
X0147600Y0196000D01*
X0144799Y0192069D02*
X0144799Y0188131D01*
X0153800Y0185000D02*
X0153800Y0196000D01*
X0158800Y0196000D01*
X0158800Y0185000D01*
X0153800Y0185000D01*
D13*
X0153900Y0183871D02*
X0154250Y0183521D01*
X0154250Y0182820D01*
X0153900Y0182470D01*
X0153199Y0182470D02*
X0152849Y0183170D01*
X0152849Y0183521D01*
X0153199Y0183871D01*
X0153900Y0183871D01*
X0153199Y0182470D02*
X0152148Y0182470D01*
X0152148Y0183871D01*
X0150850Y0183521D02*
X0150500Y0183871D01*
X0150149Y0183871D01*
X0149799Y0183521D01*
X0149799Y0182470D01*
X0150500Y0182470D01*
X0150850Y0182820D01*
X0150850Y0183521D01*
X0149799Y0182470D02*
X0149099Y0183170D01*
X0148748Y0183871D01*
X0149099Y0181661D02*
X0148748Y0181311D01*
X0148748Y0180610D01*
X0149099Y0180260D01*
X0149099Y0179451D02*
X0148748Y0179101D01*
X0148748Y0178400D01*
X0149099Y0178050D01*
X0150500Y0178050D01*
X0150850Y0178400D01*
X0150850Y0179101D01*
X0150500Y0179451D01*
X0150850Y0180260D02*
X0149449Y0181661D01*
X0149099Y0181661D01*
X0150850Y0181661D02*
X0150850Y0180260D01*
X0152148Y0180610D02*
X0152499Y0180260D01*
X0152148Y0180610D02*
X0152148Y0181311D01*
X0152499Y0181661D01*
X0152849Y0181661D01*
X0154250Y0180260D01*
X0154250Y0181661D01*
X0153900Y0179451D02*
X0154250Y0179101D01*
X0154250Y0178400D01*
X0153900Y0178050D01*
X0152499Y0178050D01*
X0152148Y0178400D01*
X0152148Y0179101D01*
X0152499Y0179451D01*
X0172048Y0165811D02*
X0172048Y0165110D01*
X0172399Y0164760D01*
X0172749Y0164760D01*
X0173099Y0165110D01*
X0173099Y0166161D01*
X0172399Y0166161D02*
X0172048Y0165811D01*
X0172399Y0166161D02*
X0173800Y0166161D01*
X0174150Y0165811D01*
X0174150Y0165110D01*
X0173800Y0164760D01*
X0174150Y0163951D02*
X0173449Y0163251D01*
X0173449Y0163601D02*
X0173449Y0162550D01*
X0174150Y0162550D02*
X0172048Y0162550D01*
X0172048Y0163601D01*
X0172399Y0163951D01*
X0173099Y0163951D01*
X0173449Y0163601D01*
X0172499Y0160471D02*
X0173900Y0159070D01*
X0174250Y0159070D01*
X0174250Y0158261D02*
X0174250Y0156860D01*
X0174250Y0157560D02*
X0172148Y0157560D01*
X0172849Y0156860D01*
X0172499Y0156051D02*
X0172148Y0155701D01*
X0172148Y0155000D01*
X0172499Y0154650D01*
X0173900Y0154650D01*
X0174250Y0155000D01*
X0174250Y0155701D01*
X0173900Y0156051D01*
X0172148Y0159070D02*
X0172148Y0160471D01*
X0172499Y0160471D01*
X0169270Y0144852D02*
X0168570Y0144151D01*
X0167761Y0144151D02*
X0167411Y0143801D01*
X0167761Y0143451D01*
X0167761Y0143100D01*
X0167411Y0142750D01*
X0166710Y0142750D01*
X0166360Y0143100D01*
X0165551Y0143100D02*
X0165201Y0142750D01*
X0164500Y0142750D01*
X0164150Y0143100D01*
X0164150Y0144501D01*
X0164500Y0144852D01*
X0165201Y0144852D01*
X0165551Y0144501D01*
X0166360Y0144501D02*
X0166710Y0144852D01*
X0167411Y0144852D01*
X0167761Y0144501D01*
X0167761Y0144151D01*
X0167411Y0143801D02*
X0167060Y0143801D01*
X0168570Y0142750D02*
X0169971Y0142750D01*
X0169270Y0142750D02*
X0169270Y0144852D01*
X0160650Y0139821D02*
X0160650Y0139120D01*
X0160300Y0138770D01*
X0158899Y0140171D01*
X0160300Y0140171D01*
X0160650Y0139821D01*
X0160300Y0138770D02*
X0158899Y0138770D01*
X0158548Y0139120D01*
X0158548Y0139821D01*
X0158899Y0140171D01*
X0158899Y0137961D02*
X0158548Y0137611D01*
X0158548Y0136910D01*
X0158899Y0136560D01*
X0158899Y0135751D02*
X0158548Y0135401D01*
X0158548Y0134700D01*
X0158899Y0134350D01*
X0160300Y0134350D01*
X0160650Y0134700D01*
X0160650Y0135401D01*
X0160300Y0135751D01*
X0160300Y0136560D02*
X0160650Y0136910D01*
X0160650Y0137611D01*
X0160300Y0137961D01*
X0159949Y0137961D01*
X0159599Y0137611D01*
X0159599Y0137260D01*
X0159599Y0137611D02*
X0159249Y0137961D01*
X0158899Y0137961D01*
X0153250Y0138121D02*
X0153250Y0137420D01*
X0152900Y0137070D01*
X0152900Y0136261D02*
X0153250Y0135911D01*
X0153250Y0135210D01*
X0152900Y0134860D01*
X0152900Y0134051D02*
X0153250Y0133701D01*
X0153250Y0133000D01*
X0152900Y0132650D01*
X0151499Y0132650D01*
X0151148Y0133000D01*
X0151148Y0133701D01*
X0151499Y0134051D01*
X0151499Y0134860D02*
X0151148Y0135210D01*
X0151148Y0135911D01*
X0151499Y0136261D01*
X0151849Y0136261D01*
X0152199Y0135911D01*
X0152549Y0136261D01*
X0152900Y0136261D01*
X0152199Y0135911D02*
X0152199Y0135560D01*
X0151499Y0137070D02*
X0151148Y0137420D01*
X0151148Y0138121D01*
X0151499Y0138471D01*
X0151849Y0138471D01*
X0152199Y0138121D01*
X0152549Y0138471D01*
X0152900Y0138471D01*
X0153250Y0138121D01*
X0152199Y0138121D02*
X0152199Y0137770D01*
X0146950Y0135991D02*
X0146950Y0135290D01*
X0146600Y0134940D01*
X0146249Y0134940D01*
X0145899Y0135290D01*
X0145899Y0135991D01*
X0146249Y0136341D01*
X0146600Y0136341D01*
X0146950Y0135991D01*
X0145899Y0135991D02*
X0145549Y0136341D01*
X0145199Y0136341D01*
X0144848Y0135991D01*
X0144848Y0135290D01*
X0145199Y0134940D01*
X0145549Y0134940D01*
X0145899Y0135290D01*
X0145899Y0134131D02*
X0145199Y0134131D01*
X0144848Y0133781D01*
X0144848Y0132730D01*
X0146950Y0132730D01*
X0146249Y0132730D02*
X0146249Y0133781D01*
X0145899Y0134131D01*
X0146249Y0133431D02*
X0146950Y0134131D01*
X0136250Y0127941D02*
X0136250Y0126540D01*
X0134849Y0127941D01*
X0134499Y0127941D01*
X0134148Y0127591D01*
X0134148Y0126890D01*
X0134499Y0126540D01*
X0134499Y0125731D02*
X0134148Y0125381D01*
X0134148Y0124681D01*
X0134499Y0124330D01*
X0134499Y0123522D02*
X0134148Y0123171D01*
X0134148Y0122471D01*
X0134499Y0122120D01*
X0135900Y0122120D01*
X0136250Y0122471D01*
X0136250Y0123171D01*
X0135900Y0123522D01*
X0136250Y0124330D02*
X0134849Y0125731D01*
X0134499Y0125731D01*
X0136250Y0125731D02*
X0136250Y0124330D01*
X0136481Y0120252D02*
X0136130Y0119901D01*
X0136481Y0120252D02*
X0137181Y0120252D01*
X0137531Y0119901D01*
X0137531Y0119551D01*
X0136130Y0118150D01*
X0137531Y0118150D01*
X0138340Y0118500D02*
X0138690Y0118150D01*
X0139391Y0118150D01*
X0139741Y0118500D01*
X0139741Y0118851D01*
X0139391Y0119201D01*
X0139041Y0119201D01*
X0139391Y0119201D02*
X0139741Y0119551D01*
X0139741Y0119901D01*
X0139391Y0120252D01*
X0138690Y0120252D01*
X0138340Y0119901D01*
X0135322Y0119901D02*
X0134971Y0120252D01*
X0134271Y0120252D01*
X0133920Y0119901D01*
X0133920Y0118500D01*
X0134271Y0118150D01*
X0134971Y0118150D01*
X0135322Y0118500D01*
X0133141Y0105252D02*
X0132441Y0104901D01*
X0131740Y0104201D01*
X0132791Y0104201D01*
X0133141Y0103851D01*
X0133141Y0103500D01*
X0132791Y0103150D01*
X0132090Y0103150D01*
X0131740Y0103500D01*
X0131740Y0104201D01*
X0130931Y0103150D02*
X0129530Y0103150D01*
X0130231Y0103150D02*
X0130231Y0105252D01*
X0129530Y0104551D01*
X0128722Y0104201D02*
X0128371Y0103851D01*
X0127320Y0103851D01*
X0128021Y0103851D02*
X0128722Y0103150D01*
X0128722Y0104201D02*
X0128722Y0104901D01*
X0128371Y0105252D01*
X0127320Y0105252D01*
X0127320Y0103150D01*
X0124141Y0103400D02*
X0123791Y0103050D01*
X0123090Y0103050D01*
X0122740Y0103400D01*
X0121931Y0103050D02*
X0120530Y0103050D01*
X0121231Y0103050D02*
X0121231Y0105152D01*
X0120530Y0104451D01*
X0119722Y0104101D02*
X0119371Y0103751D01*
X0118320Y0103751D01*
X0119021Y0103751D02*
X0119722Y0103050D01*
X0119722Y0104101D02*
X0119722Y0104801D01*
X0119371Y0105152D01*
X0118320Y0105152D01*
X0118320Y0103050D01*
X0112241Y0103350D02*
X0110840Y0103350D01*
X0111541Y0103350D02*
X0111541Y0105452D01*
X0110840Y0104751D01*
X0110031Y0103350D02*
X0108630Y0103350D01*
X0109331Y0103350D02*
X0109331Y0105452D01*
X0108630Y0104751D01*
X0107822Y0104401D02*
X0107471Y0104051D01*
X0106420Y0104051D01*
X0107121Y0104051D02*
X0107822Y0103350D01*
X0107822Y0104401D02*
X0107822Y0105101D01*
X0107471Y0105452D01*
X0106420Y0105452D01*
X0106420Y0103350D01*
X0105141Y0103700D02*
X0105141Y0105101D01*
X0104791Y0105452D01*
X0104090Y0105452D01*
X0103740Y0105101D01*
X0103740Y0104751D01*
X0104090Y0104401D01*
X0105141Y0104401D01*
X0105141Y0103700D02*
X0104791Y0103350D01*
X0104090Y0103350D01*
X0103740Y0103700D01*
X0102931Y0103350D02*
X0101530Y0103350D01*
X0102231Y0103350D02*
X0102231Y0105452D01*
X0101530Y0104751D01*
X0100722Y0105101D02*
X0100371Y0105452D01*
X0099671Y0105452D01*
X0099320Y0105101D01*
X0099320Y0103700D01*
X0099671Y0103350D01*
X0100371Y0103350D01*
X0100722Y0103700D01*
X0098450Y0114620D02*
X0096348Y0114620D01*
X0096348Y0115671D01*
X0096699Y0116022D01*
X0097399Y0116022D01*
X0097749Y0115671D01*
X0097749Y0114620D01*
X0097749Y0115321D02*
X0098450Y0116022D01*
X0098100Y0116830D02*
X0098450Y0117181D01*
X0098450Y0117881D01*
X0098100Y0118231D01*
X0097749Y0118231D01*
X0097399Y0117881D01*
X0097399Y0117531D01*
X0097399Y0117881D02*
X0097049Y0118231D01*
X0096699Y0118231D01*
X0096348Y0117881D01*
X0096348Y0117181D01*
X0096699Y0116830D01*
X0096699Y0119040D02*
X0096348Y0119390D01*
X0096348Y0120091D01*
X0096699Y0120441D01*
X0097049Y0120441D01*
X0097399Y0120091D01*
X0097749Y0120441D01*
X0098100Y0120441D01*
X0098450Y0120091D01*
X0098450Y0119390D01*
X0098100Y0119040D01*
X0097399Y0119741D02*
X0097399Y0120091D01*
X0095950Y0129150D02*
X0093848Y0129150D01*
X0093848Y0130201D01*
X0094199Y0130551D01*
X0094899Y0130551D01*
X0095249Y0130201D01*
X0095249Y0129150D01*
X0095249Y0129851D02*
X0095950Y0130551D01*
X0095600Y0131360D02*
X0095950Y0131710D01*
X0095950Y0132411D01*
X0095600Y0132761D01*
X0095249Y0132761D01*
X0094899Y0132411D01*
X0094899Y0132060D01*
X0094899Y0132411D02*
X0094549Y0132761D01*
X0094199Y0132761D01*
X0093848Y0132411D01*
X0093848Y0131710D01*
X0094199Y0131360D01*
X0111950Y0120552D02*
X0111950Y0118450D01*
X0111950Y0119151D02*
X0113001Y0119151D01*
X0113351Y0119501D01*
X0113351Y0120201D01*
X0113001Y0120552D01*
X0111950Y0120552D01*
X0112651Y0119151D02*
X0113351Y0118450D01*
X0114160Y0118450D02*
X0115561Y0118450D01*
X0114860Y0118450D02*
X0114860Y0120552D01*
X0114160Y0119851D01*
X0116370Y0120201D02*
X0116720Y0120552D01*
X0117421Y0120552D01*
X0117771Y0120201D01*
X0117771Y0119851D01*
X0116370Y0118450D01*
X0117771Y0118450D01*
X0117961Y0128050D02*
X0116560Y0128050D01*
X0117961Y0129451D01*
X0117961Y0129801D01*
X0117611Y0130152D01*
X0116910Y0130152D01*
X0116560Y0129801D01*
X0115751Y0129801D02*
X0115751Y0129101D01*
X0115401Y0128751D01*
X0114350Y0128751D01*
X0115051Y0128751D02*
X0115751Y0128050D01*
X0114350Y0128050D02*
X0114350Y0130152D01*
X0115401Y0130152D01*
X0115751Y0129801D01*
X0118770Y0129101D02*
X0120171Y0129101D01*
X0119821Y0130152D02*
X0118770Y0129101D01*
X0119821Y0128050D02*
X0119821Y0130152D01*
X0119821Y0134150D02*
X0119120Y0134150D01*
X0118770Y0134500D01*
X0118770Y0135201D02*
X0119470Y0135551D01*
X0119821Y0135551D01*
X0120171Y0135201D01*
X0120171Y0134500D01*
X0119821Y0134150D01*
X0118770Y0135201D02*
X0118770Y0136252D01*
X0120171Y0136252D01*
X0117961Y0135901D02*
X0117611Y0136252D01*
X0116910Y0136252D01*
X0116560Y0135901D01*
X0115751Y0135901D02*
X0115751Y0135201D01*
X0115401Y0134851D01*
X0114350Y0134851D01*
X0115051Y0134851D02*
X0115751Y0134150D01*
X0116560Y0134150D02*
X0117961Y0135551D01*
X0117961Y0135901D01*
X0117961Y0134150D02*
X0116560Y0134150D01*
X0115751Y0135901D02*
X0115401Y0136252D01*
X0114350Y0136252D01*
X0114350Y0134150D01*
X0114150Y0140250D02*
X0114150Y0142352D01*
X0115201Y0142352D01*
X0115551Y0142001D01*
X0115551Y0141301D01*
X0115201Y0140951D01*
X0114150Y0140951D01*
X0114851Y0140951D02*
X0115551Y0140250D01*
X0116360Y0140250D02*
X0117761Y0141651D01*
X0117761Y0142001D01*
X0117411Y0142352D01*
X0116710Y0142352D01*
X0116360Y0142001D01*
X0116360Y0140250D02*
X0117761Y0140250D01*
X0118570Y0140600D02*
X0118920Y0140250D01*
X0119621Y0140250D01*
X0119971Y0140600D01*
X0119971Y0140951D01*
X0119621Y0141301D01*
X0118570Y0141301D01*
X0118570Y0140600D01*
X0118570Y0141301D02*
X0119270Y0142001D01*
X0119971Y0142352D01*
X0118450Y0143950D02*
X0116348Y0143950D01*
X0116348Y0145001D01*
X0116699Y0145351D01*
X0117399Y0145351D01*
X0117749Y0145001D01*
X0117749Y0143950D01*
X0117749Y0144651D02*
X0118450Y0145351D01*
X0118450Y0146160D02*
X0117049Y0147561D01*
X0116699Y0147561D01*
X0116348Y0147211D01*
X0116348Y0146510D01*
X0116699Y0146160D01*
X0118450Y0146160D02*
X0118450Y0147561D01*
X0118100Y0148370D02*
X0118450Y0148720D01*
X0118450Y0149421D01*
X0118100Y0149771D01*
X0117749Y0149771D01*
X0117399Y0149421D01*
X0117399Y0149070D01*
X0117399Y0149421D02*
X0117049Y0149771D01*
X0116699Y0149771D01*
X0116348Y0149421D01*
X0116348Y0148720D01*
X0116699Y0148370D01*
X0116150Y0149950D02*
X0114048Y0149950D01*
X0114048Y0151001D01*
X0114399Y0151351D01*
X0115099Y0151351D01*
X0115449Y0151001D01*
X0115449Y0149950D01*
X0115449Y0150651D02*
X0116150Y0151351D01*
X0116150Y0152160D02*
X0114749Y0153561D01*
X0114399Y0153561D01*
X0114048Y0153211D01*
X0114048Y0152510D01*
X0114399Y0152160D01*
X0116150Y0152160D02*
X0116150Y0153561D01*
X0116150Y0154370D02*
X0114749Y0155771D01*
X0114399Y0155771D01*
X0114048Y0155421D01*
X0114048Y0154720D01*
X0114399Y0154370D01*
X0116150Y0154370D02*
X0116150Y0155771D01*
X0115948Y0156550D02*
X0115948Y0157601D01*
X0116299Y0157951D01*
X0116999Y0157951D01*
X0117349Y0157601D01*
X0117349Y0156550D01*
X0117349Y0157251D02*
X0118050Y0157951D01*
X0118050Y0158760D02*
X0116649Y0160161D01*
X0116299Y0160161D01*
X0115948Y0159811D01*
X0115948Y0159110D01*
X0116299Y0158760D01*
X0118050Y0158760D02*
X0118050Y0160161D01*
X0118050Y0160970D02*
X0118050Y0162371D01*
X0118050Y0161670D02*
X0115948Y0161670D01*
X0116649Y0160970D01*
X0116350Y0162550D02*
X0114248Y0162550D01*
X0114248Y0163601D01*
X0114599Y0163951D01*
X0115299Y0163951D01*
X0115649Y0163601D01*
X0115649Y0162550D01*
X0115649Y0163251D02*
X0116350Y0163951D01*
X0116350Y0164760D02*
X0114949Y0166161D01*
X0114599Y0166161D01*
X0114248Y0165811D01*
X0114248Y0165110D01*
X0114599Y0164760D01*
X0116350Y0164760D02*
X0116350Y0166161D01*
X0116000Y0166970D02*
X0116350Y0167320D01*
X0116350Y0168021D01*
X0116000Y0168371D01*
X0114599Y0168371D01*
X0116000Y0166970D01*
X0114599Y0166970D01*
X0114248Y0167320D01*
X0114248Y0168021D01*
X0114599Y0168371D01*
X0113950Y0170650D02*
X0113950Y0172752D01*
X0115001Y0172752D01*
X0115351Y0172401D01*
X0115351Y0171701D01*
X0115001Y0171351D01*
X0113950Y0171351D01*
X0114651Y0171351D02*
X0115351Y0170650D01*
X0116160Y0170650D02*
X0117561Y0170650D01*
X0116860Y0170650D02*
X0116860Y0172752D01*
X0116160Y0172051D01*
X0118370Y0172051D02*
X0118720Y0171701D01*
X0119771Y0171701D01*
X0119771Y0172401D02*
X0119771Y0171000D01*
X0119421Y0170650D01*
X0118720Y0170650D01*
X0118370Y0171000D01*
X0118370Y0172051D02*
X0118370Y0172401D01*
X0118720Y0172752D01*
X0119421Y0172752D01*
X0119771Y0172401D01*
X0119448Y0178250D02*
X0119448Y0179301D01*
X0119799Y0179651D01*
X0120499Y0179651D01*
X0120849Y0179301D01*
X0120849Y0178250D01*
X0120849Y0178951D02*
X0121550Y0179651D01*
X0121550Y0180460D02*
X0120149Y0181861D01*
X0119799Y0181861D01*
X0119448Y0181511D01*
X0119448Y0180810D01*
X0119799Y0180460D01*
X0121550Y0180460D02*
X0121550Y0181861D01*
X0121550Y0182670D02*
X0121200Y0182670D01*
X0119799Y0184071D01*
X0119448Y0184071D01*
X0119448Y0182670D01*
X0116550Y0182670D02*
X0116200Y0182670D01*
X0114799Y0184071D01*
X0114448Y0184071D01*
X0114448Y0182670D01*
X0114448Y0181160D02*
X0116550Y0181160D01*
X0116550Y0180460D02*
X0116550Y0181861D01*
X0115149Y0180460D02*
X0114448Y0181160D01*
X0114799Y0179651D02*
X0115499Y0179651D01*
X0115849Y0179301D01*
X0115849Y0178250D01*
X0115849Y0178951D02*
X0116550Y0179651D01*
X0116550Y0178250D02*
X0114448Y0178250D01*
X0114448Y0179301D01*
X0114799Y0179651D01*
X0112171Y0180400D02*
X0112171Y0180751D01*
X0111821Y0181101D01*
X0111120Y0181101D01*
X0110770Y0181451D01*
X0110770Y0181801D01*
X0111120Y0182152D01*
X0111821Y0182152D01*
X0112171Y0181801D01*
X0112171Y0181451D01*
X0111821Y0181101D01*
X0111120Y0181101D02*
X0110770Y0180751D01*
X0110770Y0180400D01*
X0111120Y0180050D01*
X0111821Y0180050D01*
X0112171Y0180400D01*
X0109961Y0180050D02*
X0108560Y0180050D01*
X0109260Y0180050D02*
X0109260Y0182152D01*
X0108560Y0181451D01*
X0107751Y0181101D02*
X0107401Y0180751D01*
X0106350Y0180751D01*
X0107051Y0180751D02*
X0107751Y0180050D01*
X0107751Y0181101D02*
X0107751Y0181801D01*
X0107401Y0182152D01*
X0106350Y0182152D01*
X0106350Y0180050D01*
X0119448Y0178250D02*
X0121550Y0178250D01*
X0124648Y0179100D02*
X0124999Y0178750D01*
X0126400Y0178750D01*
X0126750Y0179100D01*
X0126750Y0179801D01*
X0126400Y0180151D01*
X0126750Y0180960D02*
X0125349Y0182361D01*
X0124999Y0182361D01*
X0124648Y0182011D01*
X0124648Y0181310D01*
X0124999Y0180960D01*
X0124999Y0180151D02*
X0124648Y0179801D01*
X0124648Y0179100D01*
X0126150Y0177952D02*
X0127201Y0177952D01*
X0127551Y0177601D01*
X0127551Y0176901D01*
X0127201Y0176551D01*
X0126150Y0176551D01*
X0126851Y0176551D02*
X0127551Y0175850D01*
X0128360Y0175850D02*
X0129761Y0177251D01*
X0129761Y0177601D01*
X0129411Y0177952D01*
X0128710Y0177952D01*
X0128360Y0177601D01*
X0128360Y0175850D02*
X0129761Y0175850D01*
X0130570Y0176200D02*
X0130920Y0175850D01*
X0131621Y0175850D01*
X0131971Y0176200D01*
X0131971Y0176551D01*
X0131621Y0176901D01*
X0130920Y0176901D01*
X0130570Y0177251D01*
X0130570Y0177601D01*
X0130920Y0177952D01*
X0131621Y0177952D01*
X0131971Y0177601D01*
X0131971Y0177251D01*
X0131621Y0176901D01*
X0130920Y0176901D02*
X0130570Y0176551D01*
X0130570Y0176200D01*
X0126150Y0175850D02*
X0126150Y0177952D01*
X0126750Y0180960D02*
X0126750Y0182361D01*
X0126750Y0183170D02*
X0126400Y0183170D01*
X0124999Y0184571D01*
X0124648Y0184571D01*
X0124648Y0183170D01*
X0118050Y0156550D02*
X0115948Y0156550D01*
X0123090Y0105152D02*
X0123791Y0105152D01*
X0124141Y0104801D01*
X0124141Y0104451D01*
X0123791Y0104101D01*
X0124141Y0103751D01*
X0124141Y0103400D01*
X0123791Y0104101D02*
X0123441Y0104101D01*
X0122740Y0104801D02*
X0123090Y0105152D01*
X0139320Y0104601D02*
X0139320Y0103200D01*
X0139671Y0102850D01*
X0140371Y0102850D01*
X0140722Y0103200D01*
X0141530Y0102850D02*
X0142931Y0104251D01*
X0142931Y0104601D01*
X0142581Y0104952D01*
X0141881Y0104952D01*
X0141530Y0104601D01*
X0140722Y0104601D02*
X0140371Y0104952D01*
X0139671Y0104952D01*
X0139320Y0104601D01*
X0141530Y0102850D02*
X0142931Y0102850D01*
X0143740Y0102850D02*
X0145141Y0102850D01*
X0144441Y0102850D02*
X0144441Y0104952D01*
X0143740Y0104251D01*
X0146020Y0103551D02*
X0147071Y0103551D01*
X0147422Y0103901D01*
X0147422Y0104601D01*
X0147071Y0104952D01*
X0146020Y0104952D01*
X0146020Y0102850D01*
X0146721Y0103551D02*
X0147422Y0102850D01*
X0148230Y0102850D02*
X0149631Y0102850D01*
X0148931Y0102850D02*
X0148931Y0104952D01*
X0148230Y0104251D01*
X0150440Y0103901D02*
X0150440Y0104952D01*
X0151841Y0104952D01*
X0151491Y0104251D02*
X0151841Y0103901D01*
X0151841Y0103200D01*
X0151491Y0102850D01*
X0150790Y0102850D01*
X0150440Y0103200D01*
X0150440Y0103901D02*
X0151141Y0104251D01*
X0151491Y0104251D01*
X0152920Y0104401D02*
X0152920Y0103000D01*
X0153271Y0102650D01*
X0153971Y0102650D01*
X0154322Y0103000D01*
X0155130Y0102650D02*
X0156531Y0104051D01*
X0156531Y0104401D01*
X0156181Y0104752D01*
X0155481Y0104752D01*
X0155130Y0104401D01*
X0154322Y0104401D02*
X0153971Y0104752D01*
X0153271Y0104752D01*
X0152920Y0104401D01*
X0155130Y0102650D02*
X0156531Y0102650D01*
X0157340Y0103701D02*
X0158741Y0103701D01*
X0158391Y0104752D02*
X0157340Y0103701D01*
X0158391Y0102650D02*
X0158391Y0104752D01*
X0160550Y0104552D02*
X0160550Y0102450D01*
X0160550Y0103151D02*
X0161601Y0103151D01*
X0161951Y0103501D01*
X0161951Y0104201D01*
X0161601Y0104552D01*
X0160550Y0104552D01*
X0161251Y0103151D02*
X0161951Y0102450D01*
X0162760Y0102450D02*
X0164161Y0102450D01*
X0163460Y0102450D02*
X0163460Y0104552D01*
X0162760Y0103851D01*
X0164970Y0104201D02*
X0165320Y0104552D01*
X0166021Y0104552D01*
X0166371Y0104201D01*
X0164970Y0102800D01*
X0165320Y0102450D01*
X0166021Y0102450D01*
X0166371Y0102800D01*
X0166371Y0104201D01*
X0164970Y0104201D02*
X0164970Y0102800D01*
X0172499Y0110420D02*
X0173900Y0110420D01*
X0174250Y0110771D01*
X0174250Y0111471D01*
X0173900Y0111822D01*
X0174250Y0112630D02*
X0172849Y0114031D01*
X0172499Y0114031D01*
X0172148Y0113681D01*
X0172148Y0112981D01*
X0172499Y0112630D01*
X0172499Y0111822D02*
X0172148Y0111471D01*
X0172148Y0110771D01*
X0172499Y0110420D01*
X0174250Y0112630D02*
X0174250Y0114031D01*
X0173900Y0114840D02*
X0172499Y0116241D01*
X0173900Y0116241D01*
X0174250Y0115891D01*
X0174250Y0115190D01*
X0173900Y0114840D01*
X0172499Y0114840D01*
X0172148Y0115190D01*
X0172148Y0115891D01*
X0172499Y0116241D01*
X0172349Y0128120D02*
X0172349Y0129171D01*
X0171999Y0129522D01*
X0171299Y0129522D01*
X0170948Y0129171D01*
X0170948Y0128120D01*
X0173050Y0128120D01*
X0172349Y0128821D02*
X0173050Y0129522D01*
X0172700Y0130330D02*
X0173050Y0130681D01*
X0173050Y0131381D01*
X0172700Y0131731D01*
X0172349Y0131731D01*
X0171999Y0131381D01*
X0171999Y0131031D01*
X0171999Y0131381D02*
X0171649Y0131731D01*
X0171299Y0131731D01*
X0170948Y0131381D01*
X0170948Y0130681D01*
X0171299Y0130330D01*
X0171649Y0132540D02*
X0170948Y0133241D01*
X0173050Y0133241D01*
X0173050Y0133941D02*
X0173050Y0132540D01*
X0103250Y0065021D02*
X0101148Y0065021D01*
X0102199Y0063970D01*
X0102199Y0065371D01*
X0101849Y0063161D02*
X0102199Y0062811D01*
X0102549Y0063161D01*
X0102900Y0063161D01*
X0103250Y0062811D01*
X0103250Y0062110D01*
X0102900Y0061760D01*
X0102900Y0060951D02*
X0103250Y0060601D01*
X0103250Y0059900D01*
X0102900Y0059550D01*
X0101499Y0059550D01*
X0101148Y0059900D01*
X0101148Y0060601D01*
X0101499Y0060951D01*
X0101499Y0061760D02*
X0101148Y0062110D01*
X0101148Y0062811D01*
X0101499Y0063161D01*
X0101849Y0063161D01*
X0102199Y0062811D02*
X0102199Y0062460D01*
X0101799Y0057861D02*
X0101799Y0056460D01*
X0100748Y0057511D01*
X0102850Y0057511D01*
X0102500Y0055651D02*
X0102850Y0055301D01*
X0102850Y0054600D01*
X0102500Y0054250D01*
X0101099Y0054250D01*
X0100748Y0054600D01*
X0100748Y0055301D01*
X0101099Y0055651D01*
X0101148Y0051461D02*
X0101499Y0051461D01*
X0102900Y0050060D01*
X0103250Y0050060D01*
X0102900Y0049251D02*
X0103250Y0048901D01*
X0103250Y0048200D01*
X0102900Y0047850D01*
X0101499Y0047850D01*
X0101148Y0048200D01*
X0101148Y0048901D01*
X0101499Y0049251D01*
X0101148Y0050060D02*
X0101148Y0051461D01*
X0102099Y0045461D02*
X0101748Y0045111D01*
X0101748Y0044410D01*
X0102099Y0044060D01*
X0102449Y0044060D01*
X0102799Y0044410D01*
X0102799Y0045461D01*
X0102099Y0045461D02*
X0103500Y0045461D01*
X0103850Y0045111D01*
X0103850Y0044410D01*
X0103500Y0044060D01*
X0103500Y0043251D02*
X0103850Y0042901D01*
X0103850Y0042200D01*
X0103500Y0041850D01*
X0102099Y0041850D01*
X0101748Y0042200D01*
X0101748Y0042901D01*
X0102099Y0043251D01*
X0104250Y0040271D02*
X0104250Y0038870D01*
X0104250Y0039570D02*
X0102148Y0039570D01*
X0102849Y0038870D01*
X0104250Y0038061D02*
X0104250Y0036660D01*
X0104250Y0037360D02*
X0102148Y0037360D01*
X0102849Y0036660D01*
X0102499Y0035851D02*
X0102148Y0035501D01*
X0102148Y0034800D01*
X0102499Y0034450D01*
X0103900Y0034450D01*
X0104250Y0034800D01*
X0104250Y0035501D01*
X0103900Y0035851D01*
X0104250Y0031361D02*
X0104250Y0029960D01*
X0104250Y0030660D02*
X0102148Y0030660D01*
X0102849Y0029960D01*
X0102499Y0029151D02*
X0102148Y0028801D01*
X0102148Y0028100D01*
X0102499Y0027750D01*
X0103900Y0027750D01*
X0104250Y0028100D01*
X0104250Y0028801D01*
X0103900Y0029151D01*
X0103799Y0024771D02*
X0103449Y0024421D01*
X0103449Y0024070D01*
X0103799Y0023370D01*
X0102748Y0023370D01*
X0102748Y0024771D01*
X0103799Y0024771D02*
X0104500Y0024771D01*
X0104850Y0024421D01*
X0104850Y0023720D01*
X0104500Y0023370D01*
X0104500Y0022561D02*
X0104850Y0022211D01*
X0104850Y0021510D01*
X0104500Y0021160D01*
X0104500Y0020351D02*
X0104850Y0020001D01*
X0104850Y0019300D01*
X0104500Y0018950D01*
X0103099Y0018950D01*
X0102748Y0019300D01*
X0102748Y0020001D01*
X0103099Y0020351D01*
X0103099Y0021160D02*
X0102748Y0021510D01*
X0102748Y0022211D01*
X0103099Y0022561D01*
X0103449Y0022561D01*
X0103799Y0022211D01*
X0104149Y0022561D01*
X0104500Y0022561D01*
X0103799Y0022211D02*
X0103799Y0021860D01*
X0056905Y0079624D02*
X0054970Y0079624D01*
X0055937Y0079624D02*
X0055937Y0082526D01*
X0054970Y0081559D01*
X0053958Y0082043D02*
X0053958Y0080108D01*
X0053474Y0079624D01*
X0052023Y0079624D01*
X0052023Y0082526D01*
X0053474Y0082526D01*
X0053958Y0082043D01*
X0021750Y0100371D02*
X0021750Y0101071D01*
X0021400Y0101422D01*
X0021750Y0102230D02*
X0021750Y0103631D01*
X0021750Y0102931D02*
X0019648Y0102931D01*
X0020349Y0102230D01*
X0019999Y0101422D02*
X0019648Y0101071D01*
X0019648Y0100371D01*
X0019999Y0100020D01*
X0021400Y0100020D01*
X0021750Y0100371D01*
X0020699Y0104440D02*
X0020699Y0105841D01*
X0019648Y0105491D02*
X0020699Y0104440D01*
X0021750Y0105491D02*
X0019648Y0105491D01*
X0020350Y0115230D02*
X0018248Y0115230D01*
X0018248Y0116281D01*
X0018599Y0116631D01*
X0020000Y0116631D01*
X0020350Y0116281D01*
X0020350Y0115230D01*
X0020000Y0117440D02*
X0020350Y0117790D01*
X0020350Y0118491D01*
X0020000Y0118841D01*
X0019649Y0118841D01*
X0019299Y0118491D01*
X0019299Y0118141D01*
X0019299Y0118491D02*
X0018949Y0118841D01*
X0018599Y0118841D01*
X0018248Y0118491D01*
X0018248Y0117790D01*
X0018599Y0117440D01*
X0019848Y0132430D02*
X0019848Y0133481D01*
X0020199Y0133831D01*
X0020899Y0133831D01*
X0021249Y0133481D01*
X0021249Y0132430D01*
X0021249Y0133131D02*
X0021950Y0133831D01*
X0020899Y0134640D02*
X0020899Y0136041D01*
X0019848Y0135691D02*
X0020899Y0134640D01*
X0021950Y0135691D02*
X0019848Y0135691D01*
X0019848Y0132430D02*
X0021950Y0132430D01*
X0015750Y0152950D02*
X0013648Y0152950D01*
X0013648Y0154001D01*
X0013999Y0154351D01*
X0014699Y0154351D01*
X0015049Y0154001D01*
X0015049Y0152950D01*
X0015049Y0153651D02*
X0015750Y0154351D01*
X0015400Y0155160D02*
X0015750Y0155510D01*
X0015750Y0156211D01*
X0015400Y0156561D01*
X0015049Y0156561D01*
X0014699Y0156211D01*
X0014699Y0155860D01*
X0014699Y0156211D02*
X0014349Y0156561D01*
X0013999Y0156561D01*
X0013648Y0156211D01*
X0013648Y0155510D01*
X0013999Y0155160D01*
X0013999Y0157370D02*
X0013648Y0157720D01*
X0013648Y0158421D01*
X0013999Y0158771D01*
X0014349Y0158771D01*
X0015750Y0157370D01*
X0015750Y0158771D01*
D14*
X0030597Y0172189D02*
X0030597Y0173223D01*
X0030597Y0172706D02*
X0033183Y0172706D01*
X0033700Y0172189D01*
X0033700Y0171672D01*
X0033183Y0171155D01*
X0033183Y0174377D02*
X0033700Y0174894D01*
X0033700Y0175929D01*
X0033183Y0176446D01*
X0032666Y0176446D01*
X0032149Y0175929D01*
X0032149Y0175411D01*
X0032149Y0175929D02*
X0031632Y0176446D01*
X0031114Y0176446D01*
X0030597Y0175929D01*
X0030597Y0174894D01*
X0031114Y0174377D01*
X0039655Y0175017D02*
X0040172Y0174500D01*
X0041206Y0174500D01*
X0041723Y0175017D01*
X0042877Y0175017D02*
X0043394Y0174500D01*
X0044429Y0174500D01*
X0044946Y0175017D01*
X0044946Y0175534D01*
X0044429Y0176051D01*
X0042877Y0176051D01*
X0042877Y0175017D01*
X0042877Y0176051D02*
X0043911Y0177086D01*
X0044946Y0177603D01*
X0041723Y0177086D02*
X0041206Y0177603D01*
X0040172Y0177603D01*
X0039655Y0177086D01*
X0039655Y0175017D01*
X0041355Y0163303D02*
X0042906Y0163303D01*
X0043423Y0162786D01*
X0043423Y0161751D01*
X0042906Y0161234D01*
X0041355Y0161234D01*
X0042389Y0161234D02*
X0043423Y0160200D01*
X0044577Y0160200D02*
X0046646Y0160200D01*
X0045611Y0160200D02*
X0045611Y0163303D01*
X0044577Y0162268D01*
X0041355Y0163303D02*
X0041355Y0160200D01*
X0055115Y0178831D02*
X0055115Y0180383D01*
X0056149Y0181417D01*
X0056149Y0181934D01*
X0057303Y0181417D02*
X0057820Y0181934D01*
X0058855Y0181934D01*
X0059372Y0181417D01*
X0059372Y0180900D01*
X0057303Y0178831D01*
X0059372Y0178831D01*
X0055115Y0180383D02*
X0054080Y0181417D01*
X0054080Y0181934D01*
X0067100Y0177386D02*
X0067100Y0175317D01*
X0067617Y0174800D01*
X0068651Y0174800D01*
X0069168Y0175317D01*
X0070323Y0175317D02*
X0070840Y0174800D01*
X0071874Y0174800D01*
X0072391Y0175317D01*
X0072391Y0176351D01*
X0071874Y0176868D01*
X0071357Y0176868D01*
X0070323Y0176351D01*
X0070323Y0177903D01*
X0072391Y0177903D01*
X0069168Y0177386D02*
X0068651Y0177903D01*
X0067617Y0177903D01*
X0067100Y0177386D01*
X0071755Y0166403D02*
X0073306Y0166403D01*
X0073823Y0165886D01*
X0073823Y0164851D01*
X0073306Y0164334D01*
X0071755Y0164334D01*
X0072789Y0164334D02*
X0073823Y0163300D01*
X0074977Y0163300D02*
X0077046Y0165368D01*
X0077046Y0165886D01*
X0076529Y0166403D01*
X0075494Y0166403D01*
X0074977Y0165886D01*
X0074977Y0163300D02*
X0077046Y0163300D01*
X0071755Y0163300D02*
X0071755Y0166403D01*
X0079749Y0174400D02*
X0080783Y0174400D01*
X0081300Y0174917D01*
X0082454Y0174400D02*
X0084523Y0174400D01*
X0083489Y0174400D02*
X0083489Y0177503D01*
X0082454Y0176468D01*
X0081300Y0176986D02*
X0080783Y0177503D01*
X0079749Y0177503D01*
X0079232Y0176986D01*
X0079232Y0174917D01*
X0079749Y0174400D01*
X0085677Y0174917D02*
X0086194Y0174400D01*
X0087229Y0174400D01*
X0087746Y0174917D01*
X0087746Y0175434D01*
X0087229Y0175951D01*
X0085677Y0175951D01*
X0085677Y0174917D01*
X0085677Y0175951D02*
X0086711Y0176986D01*
X0087746Y0177503D01*
X0099597Y0180755D02*
X0102700Y0180755D01*
X0101666Y0180755D02*
X0099597Y0182823D01*
X0100632Y0183977D02*
X0099597Y0185011D01*
X0102700Y0185011D01*
X0102700Y0183977D02*
X0102700Y0186046D01*
X0102700Y0182823D02*
X0101149Y0181272D01*
X0128100Y0165104D02*
X0128100Y0160500D01*
X0129635Y0162035D01*
X0131169Y0160500D01*
X0131169Y0165104D01*
X0132704Y0165104D02*
X0132704Y0162802D01*
X0134239Y0163569D01*
X0135006Y0163569D01*
X0135773Y0162802D01*
X0135773Y0161267D01*
X0135006Y0160500D01*
X0133471Y0160500D01*
X0132704Y0161267D01*
X0132704Y0165104D02*
X0135773Y0165104D01*
X0137308Y0165104D02*
X0137308Y0162802D01*
X0138842Y0163569D01*
X0139610Y0163569D01*
X0140377Y0162802D01*
X0140377Y0161267D01*
X0139610Y0160500D01*
X0138075Y0160500D01*
X0137308Y0161267D01*
X0137308Y0165104D02*
X0140377Y0165104D01*
X0141912Y0164337D02*
X0141912Y0161267D01*
X0144981Y0164337D01*
X0144981Y0161267D01*
X0144214Y0160500D01*
X0142679Y0160500D01*
X0141912Y0161267D01*
X0141912Y0164337D02*
X0142679Y0165104D01*
X0144214Y0165104D01*
X0144981Y0164337D01*
X0146516Y0164337D02*
X0146516Y0161267D01*
X0149585Y0164337D01*
X0149585Y0161267D01*
X0148818Y0160500D01*
X0147283Y0160500D01*
X0146516Y0161267D01*
X0146516Y0164337D02*
X0147283Y0165104D01*
X0148818Y0165104D01*
X0149585Y0164337D01*
X0151120Y0162802D02*
X0154189Y0162802D01*
X0155724Y0163569D02*
X0157258Y0165104D01*
X0157258Y0160500D01*
X0155724Y0160500D02*
X0158793Y0160500D01*
X0145372Y0180231D02*
X0143303Y0180231D01*
X0144337Y0180231D02*
X0144337Y0183334D01*
X0143303Y0182300D01*
X0142149Y0182817D02*
X0142149Y0183334D01*
X0142149Y0182817D02*
X0141115Y0181783D01*
X0141115Y0180231D01*
X0141115Y0181783D02*
X0140080Y0182817D01*
X0140080Y0183334D01*
X0116800Y0129797D02*
X0113697Y0129797D01*
X0115249Y0128245D01*
X0115249Y0130314D01*
X0116800Y0127091D02*
X0116800Y0125023D01*
X0116800Y0126057D02*
X0113697Y0126057D01*
X0114732Y0125023D01*
X0115249Y0123868D02*
X0115766Y0123351D01*
X0115766Y0121800D01*
X0116800Y0121800D02*
X0113697Y0121800D01*
X0113697Y0123351D01*
X0114214Y0123868D01*
X0115249Y0123868D01*
X0115766Y0122834D02*
X0116800Y0123868D01*
X0101783Y0094846D02*
X0100749Y0094846D01*
X0100232Y0094329D01*
X0100232Y0093811D01*
X0100749Y0092777D01*
X0099197Y0092777D01*
X0099197Y0094846D01*
X0101783Y0094846D02*
X0102300Y0094329D01*
X0102300Y0093294D01*
X0101783Y0092777D01*
X0102300Y0091623D02*
X0102300Y0089554D01*
X0102300Y0090589D02*
X0099197Y0090589D01*
X0100232Y0089554D01*
X0099714Y0088400D02*
X0099197Y0087883D01*
X0099197Y0086849D01*
X0099714Y0086332D01*
X0101783Y0086332D01*
X0102300Y0086849D01*
X0102300Y0087883D01*
X0101783Y0088400D01*
X0101932Y0085414D02*
X0101414Y0085414D01*
X0100897Y0084897D01*
X0100897Y0083863D01*
X0101414Y0083345D01*
X0101932Y0083345D01*
X0102449Y0083863D01*
X0102449Y0084897D01*
X0102966Y0085414D01*
X0103483Y0085414D01*
X0104000Y0084897D01*
X0104000Y0083863D01*
X0103483Y0083345D01*
X0102966Y0083345D01*
X0102449Y0083863D01*
X0102449Y0084897D02*
X0101932Y0085414D01*
X0101932Y0082191D02*
X0101414Y0082191D01*
X0100897Y0081674D01*
X0100897Y0080640D01*
X0101414Y0080123D01*
X0101414Y0078968D02*
X0100897Y0078451D01*
X0100897Y0077417D01*
X0101414Y0076900D01*
X0103483Y0076900D01*
X0104000Y0077417D01*
X0104000Y0078451D01*
X0103483Y0078968D01*
X0104000Y0080123D02*
X0101932Y0082191D01*
X0104000Y0082191D02*
X0104000Y0080123D01*
X0093546Y0082417D02*
X0093546Y0084486D01*
X0093029Y0085003D01*
X0091994Y0085003D01*
X0091477Y0084486D01*
X0091477Y0083968D01*
X0091994Y0083451D01*
X0093546Y0083451D01*
X0093546Y0082417D02*
X0093029Y0081900D01*
X0091994Y0081900D01*
X0091477Y0082417D01*
X0090323Y0081900D02*
X0088254Y0081900D01*
X0090323Y0083968D01*
X0090323Y0084486D01*
X0089806Y0085003D01*
X0088772Y0085003D01*
X0088254Y0084486D01*
X0087100Y0084486D02*
X0086583Y0085003D01*
X0085549Y0085003D01*
X0085032Y0084486D01*
X0085032Y0082417D01*
X0085549Y0081900D01*
X0086583Y0081900D01*
X0087100Y0082417D01*
X0080246Y0081386D02*
X0080246Y0079317D01*
X0079729Y0078800D01*
X0078694Y0078800D01*
X0078177Y0079317D01*
X0078694Y0080351D02*
X0078177Y0080868D01*
X0078177Y0081386D01*
X0078694Y0081903D01*
X0079729Y0081903D01*
X0080246Y0081386D01*
X0080246Y0080351D02*
X0078694Y0080351D01*
X0077023Y0080868D02*
X0077023Y0081386D01*
X0076506Y0081903D01*
X0075472Y0081903D01*
X0074954Y0081386D01*
X0073800Y0081386D02*
X0073800Y0080351D01*
X0073283Y0079834D01*
X0071732Y0079834D01*
X0072766Y0079834D02*
X0073800Y0078800D01*
X0074954Y0078800D02*
X0077023Y0080868D01*
X0077023Y0078800D02*
X0074954Y0078800D01*
X0073800Y0081386D02*
X0073283Y0081903D01*
X0071732Y0081903D01*
X0071732Y0078800D01*
X0067774Y0074203D02*
X0066740Y0074203D01*
X0066223Y0073686D01*
X0065068Y0073686D02*
X0065068Y0071617D01*
X0064551Y0071100D01*
X0063000Y0071100D01*
X0063000Y0074203D01*
X0064551Y0074203D01*
X0065068Y0073686D01*
X0066223Y0071100D02*
X0068291Y0073168D01*
X0068291Y0073686D01*
X0067774Y0074203D01*
X0068291Y0071100D02*
X0066223Y0071100D01*
X0072255Y0070217D02*
X0072772Y0069700D01*
X0073806Y0069700D01*
X0074323Y0070217D01*
X0075477Y0069700D02*
X0077546Y0071768D01*
X0077546Y0072286D01*
X0077029Y0072803D01*
X0075994Y0072803D01*
X0075477Y0072286D01*
X0074323Y0072286D02*
X0073806Y0072803D01*
X0072772Y0072803D01*
X0072255Y0072286D01*
X0072255Y0070217D01*
X0075477Y0069700D02*
X0077546Y0069700D01*
X0077940Y0054903D02*
X0078974Y0054903D01*
X0079491Y0054386D01*
X0079491Y0053868D01*
X0078974Y0053351D01*
X0079491Y0052834D01*
X0079491Y0052317D01*
X0078974Y0051800D01*
X0077940Y0051800D01*
X0077423Y0052317D01*
X0076268Y0052317D02*
X0075751Y0051800D01*
X0074717Y0051800D01*
X0074200Y0052317D01*
X0074200Y0054386D01*
X0074717Y0054903D01*
X0075751Y0054903D01*
X0076268Y0054386D01*
X0077423Y0054386D02*
X0077940Y0054903D01*
X0078457Y0053351D02*
X0078974Y0053351D01*
X0059846Y0071486D02*
X0059846Y0072003D01*
X0057777Y0072003D01*
X0056623Y0071486D02*
X0056623Y0070451D01*
X0056106Y0069934D01*
X0054555Y0069934D01*
X0055589Y0069934D02*
X0056623Y0068900D01*
X0057777Y0068900D02*
X0057777Y0069417D01*
X0059846Y0071486D01*
X0056623Y0071486D02*
X0056106Y0072003D01*
X0054555Y0072003D01*
X0054555Y0068900D01*
X0023991Y0087800D02*
X0021923Y0087800D01*
X0022957Y0087800D02*
X0022957Y0090903D01*
X0021923Y0089868D01*
X0020768Y0090903D02*
X0019734Y0090903D01*
X0020251Y0090903D02*
X0020251Y0088317D01*
X0019734Y0087800D01*
X0019217Y0087800D01*
X0018700Y0088317D01*
X0060896Y0104032D02*
X0061663Y0103265D01*
X0062431Y0103265D01*
X0063198Y0104032D01*
X0063198Y0105567D01*
X0063965Y0106334D01*
X0064733Y0106334D01*
X0065500Y0105567D01*
X0065500Y0104032D01*
X0064733Y0103265D01*
X0061663Y0106334D02*
X0060896Y0105567D01*
X0060896Y0104032D01*
X0060896Y0107869D02*
X0060896Y0110938D01*
X0060896Y0112472D02*
X0062431Y0114007D01*
X0060896Y0115542D01*
X0065500Y0115542D01*
X0064733Y0117076D02*
X0065500Y0117844D01*
X0065500Y0119378D01*
X0064733Y0120146D01*
X0063965Y0120146D01*
X0063198Y0119378D01*
X0063198Y0118611D01*
X0063198Y0119378D02*
X0062431Y0120146D01*
X0061663Y0120146D01*
X0060896Y0119378D01*
X0060896Y0117844D01*
X0061663Y0117076D01*
X0061663Y0121680D02*
X0060896Y0122448D01*
X0060896Y0123982D01*
X0061663Y0124750D01*
X0062431Y0124750D01*
X0065500Y0121680D01*
X0065500Y0124750D01*
X0065500Y0126284D02*
X0060896Y0126284D01*
X0060896Y0129353D01*
X0063198Y0127819D02*
X0063198Y0126284D01*
X0063198Y0130888D02*
X0063198Y0133957D01*
X0061663Y0135492D02*
X0060896Y0136259D01*
X0060896Y0137794D01*
X0061663Y0138561D01*
X0064733Y0135492D01*
X0065500Y0136259D01*
X0065500Y0137794D01*
X0064733Y0138561D01*
X0061663Y0138561D01*
X0060896Y0140096D02*
X0065500Y0143165D01*
X0065500Y0140096D02*
X0060896Y0143165D01*
X0061663Y0135492D02*
X0064733Y0135492D01*
X0065500Y0133190D02*
X0060896Y0133190D01*
X0063198Y0130888D01*
X0065500Y0112472D02*
X0060896Y0112472D01*
X0060896Y0109403D02*
X0065500Y0109403D01*
X0020302Y0039003D02*
X0020302Y0035900D01*
X0019268Y0035900D02*
X0021337Y0035900D01*
X0019268Y0037968D02*
X0020302Y0039003D01*
X0018114Y0038486D02*
X0018114Y0037968D01*
X0017597Y0037451D01*
X0016045Y0037451D01*
X0014891Y0036934D02*
X0014891Y0036417D01*
X0014374Y0035900D01*
X0013340Y0035900D01*
X0012823Y0036417D01*
X0011668Y0036417D02*
X0011668Y0039003D01*
X0012823Y0038486D02*
X0012823Y0037968D01*
X0013340Y0037451D01*
X0014374Y0037451D01*
X0014891Y0036934D01*
X0016045Y0035900D02*
X0017597Y0035900D01*
X0018114Y0036417D01*
X0018114Y0036934D01*
X0017597Y0037451D01*
X0018114Y0038486D02*
X0017597Y0039003D01*
X0016045Y0039003D01*
X0016045Y0035900D01*
X0014891Y0038486D02*
X0014374Y0039003D01*
X0013340Y0039003D01*
X0012823Y0038486D01*
X0011668Y0036417D02*
X0011151Y0035900D01*
X0010117Y0035900D01*
X0009600Y0036417D01*
X0009600Y0039003D01*
X0061700Y0023403D02*
X0061700Y0020817D01*
X0062217Y0020300D01*
X0063251Y0020300D01*
X0063768Y0020817D01*
X0063768Y0023403D01*
X0064923Y0022368D02*
X0065957Y0023403D01*
X0065957Y0020300D01*
X0064923Y0020300D02*
X0066991Y0020300D01*
X0170197Y0058689D02*
X0170197Y0059723D01*
X0170197Y0059206D02*
X0172783Y0059206D01*
X0173300Y0058689D01*
X0173300Y0058172D01*
X0172783Y0057655D01*
X0173300Y0060877D02*
X0171232Y0062946D01*
X0170714Y0062946D01*
X0170197Y0062429D01*
X0170197Y0061394D01*
X0170714Y0060877D01*
X0173300Y0060877D02*
X0173300Y0062946D01*
D15*
X0150105Y0142013D02*
X0125695Y0142013D01*
X0124613Y0143095D01*
X0124613Y0167505D01*
X0125695Y0168587D01*
X0150105Y0168587D01*
X0151187Y0167505D01*
X0151187Y0143095D01*
X0150105Y0142013D01*
X0127664Y0147426D02*
X0127666Y0147523D01*
X0127672Y0147620D01*
X0127682Y0147716D01*
X0127696Y0147812D01*
X0127714Y0147908D01*
X0127735Y0148002D01*
X0127761Y0148096D01*
X0127790Y0148188D01*
X0127824Y0148279D01*
X0127860Y0148369D01*
X0127901Y0148457D01*
X0127945Y0148543D01*
X0127993Y0148628D01*
X0128044Y0148710D01*
X0128098Y0148791D01*
X0128156Y0148869D01*
X0128217Y0148944D01*
X0128280Y0149017D01*
X0128347Y0149088D01*
X0128417Y0149155D01*
X0128489Y0149220D01*
X0128564Y0149281D01*
X0128642Y0149340D01*
X0128721Y0149395D01*
X0128803Y0149447D01*
X0128887Y0149495D01*
X0128973Y0149540D01*
X0129061Y0149582D01*
X0129150Y0149620D01*
X0129241Y0149654D01*
X0129333Y0149684D01*
X0129426Y0149711D01*
X0129521Y0149733D01*
X0129616Y0149752D01*
X0129712Y0149767D01*
X0129808Y0149778D01*
X0129905Y0149785D01*
X0130002Y0149788D01*
X0130099Y0149787D01*
X0130196Y0149782D01*
X0130292Y0149773D01*
X0130388Y0149760D01*
X0130484Y0149743D01*
X0130579Y0149722D01*
X0130672Y0149698D01*
X0130765Y0149669D01*
X0130857Y0149637D01*
X0130947Y0149601D01*
X0131035Y0149562D01*
X0131122Y0149518D01*
X0131207Y0149472D01*
X0131290Y0149421D01*
X0131371Y0149368D01*
X0131449Y0149311D01*
X0131526Y0149251D01*
X0131599Y0149188D01*
X0131670Y0149122D01*
X0131738Y0149053D01*
X0131804Y0148981D01*
X0131866Y0148907D01*
X0131925Y0148830D01*
X0131981Y0148751D01*
X0132034Y0148669D01*
X0132084Y0148586D01*
X0132129Y0148500D01*
X0132172Y0148413D01*
X0132211Y0148324D01*
X0132246Y0148234D01*
X0132277Y0148142D01*
X0132304Y0148049D01*
X0132328Y0147955D01*
X0132348Y0147860D01*
X0132364Y0147764D01*
X0132376Y0147668D01*
X0132384Y0147571D01*
X0132388Y0147474D01*
X0132388Y0147378D01*
X0132384Y0147281D01*
X0132376Y0147184D01*
X0132364Y0147088D01*
X0132348Y0146992D01*
X0132328Y0146897D01*
X0132304Y0146803D01*
X0132277Y0146710D01*
X0132246Y0146618D01*
X0132211Y0146528D01*
X0132172Y0146439D01*
X0132129Y0146352D01*
X0132084Y0146266D01*
X0132034Y0146183D01*
X0131981Y0146101D01*
X0131925Y0146022D01*
X0131866Y0145945D01*
X0131804Y0145871D01*
X0131738Y0145799D01*
X0131670Y0145730D01*
X0131599Y0145664D01*
X0131526Y0145601D01*
X0131449Y0145541D01*
X0131371Y0145484D01*
X0131290Y0145431D01*
X0131207Y0145380D01*
X0131122Y0145334D01*
X0131035Y0145290D01*
X0130947Y0145251D01*
X0130857Y0145215D01*
X0130765Y0145183D01*
X0130672Y0145154D01*
X0130579Y0145130D01*
X0130484Y0145109D01*
X0130388Y0145092D01*
X0130292Y0145079D01*
X0130196Y0145070D01*
X0130099Y0145065D01*
X0130002Y0145064D01*
X0129905Y0145067D01*
X0129808Y0145074D01*
X0129712Y0145085D01*
X0129616Y0145100D01*
X0129521Y0145119D01*
X0129426Y0145141D01*
X0129333Y0145168D01*
X0129241Y0145198D01*
X0129150Y0145232D01*
X0129061Y0145270D01*
X0128973Y0145312D01*
X0128887Y0145357D01*
X0128803Y0145405D01*
X0128721Y0145457D01*
X0128642Y0145512D01*
X0128564Y0145571D01*
X0128489Y0145632D01*
X0128417Y0145697D01*
X0128347Y0145764D01*
X0128280Y0145835D01*
X0128217Y0145908D01*
X0128156Y0145983D01*
X0128098Y0146061D01*
X0128044Y0146142D01*
X0127993Y0146224D01*
X0127945Y0146309D01*
X0127901Y0146395D01*
X0127860Y0146483D01*
X0127824Y0146573D01*
X0127790Y0146664D01*
X0127761Y0146756D01*
X0127735Y0146850D01*
X0127714Y0146944D01*
X0127696Y0147040D01*
X0127682Y0147136D01*
X0127672Y0147232D01*
X0127666Y0147329D01*
X0127664Y0147426D01*
X0074401Y0146154D02*
X0074403Y0146262D01*
X0074409Y0146371D01*
X0074419Y0146479D01*
X0074433Y0146586D01*
X0074451Y0146693D01*
X0074472Y0146800D01*
X0074498Y0146905D01*
X0074528Y0147010D01*
X0074561Y0147113D01*
X0074598Y0147215D01*
X0074639Y0147315D01*
X0074683Y0147414D01*
X0074732Y0147512D01*
X0074783Y0147607D01*
X0074838Y0147700D01*
X0074897Y0147792D01*
X0074959Y0147881D01*
X0075024Y0147968D01*
X0075092Y0148052D01*
X0075163Y0148134D01*
X0075237Y0148213D01*
X0075314Y0148289D01*
X0075394Y0148363D01*
X0075477Y0148433D01*
X0075562Y0148501D01*
X0075649Y0148565D01*
X0075739Y0148626D01*
X0075831Y0148684D01*
X0075925Y0148738D01*
X0076021Y0148789D01*
X0076118Y0148836D01*
X0076218Y0148880D01*
X0076319Y0148920D01*
X0076421Y0148956D01*
X0076524Y0148988D01*
X0076629Y0149017D01*
X0076735Y0149041D01*
X0076841Y0149062D01*
X0076948Y0149079D01*
X0077056Y0149092D01*
X0077164Y0149101D01*
X0077273Y0149106D01*
X0077381Y0149107D01*
X0077490Y0149104D01*
X0077598Y0149097D01*
X0077706Y0149086D01*
X0077813Y0149071D01*
X0077920Y0149052D01*
X0078026Y0149029D01*
X0078131Y0149003D01*
X0078236Y0148972D01*
X0078338Y0148938D01*
X0078440Y0148900D01*
X0078540Y0148858D01*
X0078639Y0148813D01*
X0078736Y0148764D01*
X0078830Y0148711D01*
X0078923Y0148655D01*
X0079014Y0148596D01*
X0079103Y0148533D01*
X0079189Y0148468D01*
X0079273Y0148399D01*
X0079354Y0148327D01*
X0079432Y0148252D01*
X0079508Y0148174D01*
X0079581Y0148093D01*
X0079651Y0148010D01*
X0079717Y0147925D01*
X0079781Y0147837D01*
X0079841Y0147746D01*
X0079898Y0147654D01*
X0079951Y0147559D01*
X0080001Y0147463D01*
X0080047Y0147365D01*
X0080090Y0147265D01*
X0080129Y0147164D01*
X0080164Y0147061D01*
X0080196Y0146958D01*
X0080223Y0146853D01*
X0080247Y0146747D01*
X0080267Y0146640D01*
X0080283Y0146533D01*
X0080295Y0146425D01*
X0080303Y0146317D01*
X0080307Y0146208D01*
X0080307Y0146100D01*
X0080303Y0145991D01*
X0080295Y0145883D01*
X0080283Y0145775D01*
X0080267Y0145668D01*
X0080247Y0145561D01*
X0080223Y0145455D01*
X0080196Y0145350D01*
X0080164Y0145247D01*
X0080129Y0145144D01*
X0080090Y0145043D01*
X0080047Y0144943D01*
X0080001Y0144845D01*
X0079951Y0144749D01*
X0079898Y0144654D01*
X0079841Y0144562D01*
X0079781Y0144471D01*
X0079717Y0144383D01*
X0079651Y0144298D01*
X0079581Y0144215D01*
X0079508Y0144134D01*
X0079432Y0144056D01*
X0079354Y0143981D01*
X0079273Y0143909D01*
X0079189Y0143840D01*
X0079103Y0143775D01*
X0079014Y0143712D01*
X0078923Y0143653D01*
X0078831Y0143597D01*
X0078736Y0143544D01*
X0078639Y0143495D01*
X0078540Y0143450D01*
X0078440Y0143408D01*
X0078338Y0143370D01*
X0078236Y0143336D01*
X0078131Y0143305D01*
X0078026Y0143279D01*
X0077920Y0143256D01*
X0077813Y0143237D01*
X0077706Y0143222D01*
X0077598Y0143211D01*
X0077490Y0143204D01*
X0077381Y0143201D01*
X0077273Y0143202D01*
X0077164Y0143207D01*
X0077056Y0143216D01*
X0076948Y0143229D01*
X0076841Y0143246D01*
X0076735Y0143267D01*
X0076629Y0143291D01*
X0076524Y0143320D01*
X0076421Y0143352D01*
X0076319Y0143388D01*
X0076218Y0143428D01*
X0076118Y0143472D01*
X0076021Y0143519D01*
X0075925Y0143570D01*
X0075831Y0143624D01*
X0075739Y0143682D01*
X0075649Y0143743D01*
X0075562Y0143807D01*
X0075477Y0143875D01*
X0075394Y0143945D01*
X0075314Y0144019D01*
X0075237Y0144095D01*
X0075163Y0144174D01*
X0075092Y0144256D01*
X0075024Y0144340D01*
X0074959Y0144427D01*
X0074897Y0144516D01*
X0074838Y0144608D01*
X0074783Y0144701D01*
X0074732Y0144796D01*
X0074683Y0144894D01*
X0074639Y0144993D01*
X0074598Y0145093D01*
X0074561Y0145195D01*
X0074528Y0145298D01*
X0074498Y0145403D01*
X0074472Y0145508D01*
X0074451Y0145615D01*
X0074433Y0145722D01*
X0074419Y0145829D01*
X0074409Y0145937D01*
X0074403Y0146046D01*
X0074401Y0146154D01*
X0053185Y0075958D02*
X0050921Y0075958D01*
X0053185Y0075958D02*
X0053185Y0058242D01*
X0050921Y0058242D01*
X0038815Y0058242D02*
X0038815Y0075958D01*
X0041079Y0075958D01*
X0041079Y0058242D02*
X0039947Y0058251D01*
X0038815Y0058242D01*
D16*
X0040094Y0071529D03*
X0051906Y0071529D03*
D17*
X0029283Y0098083D02*
X0029283Y0150917D01*
X0082157Y0150917D01*
X0082157Y0098083D01*
X0029283Y0098083D01*
X0061198Y0040700D02*
X0087002Y0040700D01*
X0087002Y0026700D01*
X0061198Y0026700D01*
X0061198Y0040700D01*
M02*
