G75*
%MOIN*%
%OFA0B0*%
%FSLAX25Y25*%
%IPPOS*%
%LPD*%
%AMOC8*
5,1,8,0,0,1.08239X$1,22.5*
%
%ADD10C,0.01000*%
%ADD11C,0.00875*%
%ADD12R,0.07874X0.07874*%
%ADD13R,0.06500X0.06500*%
%ADD14C,0.06500*%
%ADD15R,0.06000X0.06000*%
%ADD16C,0.06000*%
%ADD17C,0.09750*%
%ADD18R,0.03937X0.06890*%
%ADD19R,0.01181X0.06299*%
%ADD20R,0.06299X0.01181*%
%ADD21R,0.05000X0.09000*%
%ADD22R,0.14000X0.08500*%
%ADD23R,0.02000X0.10000*%
%ADD24R,0.07874X0.11000*%
%ADD25R,0.00787X0.03937*%
%ADD26R,0.03937X0.00787*%
%ADD27C,0.01750*%
%ADD28C,0.00600*%
%ADD29C,0.00800*%
%ADD30C,0.02400*%
%ADD31C,0.02000*%
%ADD32C,0.03600*%
%ADD33C,0.01600*%
%ADD34C,0.03200*%
%ADD35C,0.02600*%
%ADD36C,0.03000*%
%ADD37C,0.04600*%
%ADD38C,0.01200*%
D10*
X0071900Y0061550D02*
X0074900Y0061550D01*
X0074900Y0057050D01*
X0071900Y0057050D01*
X0071900Y0061550D01*
X0071900Y0058049D02*
X0074900Y0058049D01*
X0074900Y0059048D02*
X0071900Y0059048D01*
X0071900Y0060047D02*
X0074900Y0060047D01*
X0074900Y0061046D02*
X0071900Y0061046D01*
X0078900Y0061550D02*
X0081900Y0061550D01*
X0081900Y0057050D01*
X0078900Y0057050D01*
X0078900Y0061550D01*
X0078900Y0058049D02*
X0081900Y0058049D01*
X0081900Y0059048D02*
X0078900Y0059048D01*
X0078900Y0060047D02*
X0081900Y0060047D01*
X0081900Y0061046D02*
X0078900Y0061046D01*
X0088300Y0065350D02*
X0091300Y0065350D01*
X0091300Y0060850D01*
X0088300Y0060850D01*
X0088300Y0065350D01*
X0088300Y0061849D02*
X0091300Y0061849D01*
X0091300Y0062848D02*
X0088300Y0062848D01*
X0088300Y0063847D02*
X0091300Y0063847D01*
X0091300Y0064846D02*
X0088300Y0064846D01*
X0095300Y0065350D02*
X0098300Y0065350D01*
X0098300Y0060850D01*
X0095300Y0060850D01*
X0095300Y0065350D01*
X0095300Y0061849D02*
X0098300Y0061849D01*
X0098300Y0062848D02*
X0095300Y0062848D01*
X0095300Y0063847D02*
X0098300Y0063847D01*
X0098300Y0064846D02*
X0095300Y0064846D01*
X0092450Y0093100D02*
X0092450Y0096100D01*
X0096950Y0096100D01*
X0096950Y0093100D01*
X0092450Y0093100D01*
X0092450Y0094099D02*
X0096950Y0094099D01*
X0096950Y0095098D02*
X0092450Y0095098D01*
X0092450Y0096097D02*
X0096950Y0096097D01*
X0092450Y0100100D02*
X0092450Y0103100D01*
X0096950Y0103100D01*
X0096950Y0100100D01*
X0092450Y0100100D01*
X0092450Y0101099D02*
X0096950Y0101099D01*
X0096950Y0102098D02*
X0092450Y0102098D01*
X0092450Y0103097D02*
X0096950Y0103097D01*
X0094700Y0101600D02*
X0094700Y0106500D01*
X0094300Y0106900D01*
X0161950Y0121500D02*
X0161950Y0124500D01*
X0161950Y0121500D02*
X0157450Y0121500D01*
X0157450Y0124500D01*
X0161950Y0124500D01*
X0161950Y0122499D02*
X0157450Y0122499D01*
X0157450Y0123498D02*
X0161950Y0123498D01*
X0161950Y0124497D02*
X0157450Y0124497D01*
X0161950Y0128500D02*
X0161950Y0131500D01*
X0161950Y0128500D02*
X0157450Y0128500D01*
X0157450Y0131500D01*
X0161950Y0131500D01*
X0161950Y0129499D02*
X0157450Y0129499D01*
X0157450Y0130498D02*
X0161950Y0130498D01*
X0161950Y0131497D02*
X0157450Y0131497D01*
X0161500Y0147050D02*
X0164500Y0147050D01*
X0161500Y0147050D02*
X0161500Y0151550D01*
X0164500Y0151550D01*
X0164500Y0147050D01*
X0164500Y0148049D02*
X0161500Y0148049D01*
X0161500Y0149048D02*
X0164500Y0149048D01*
X0164500Y0150047D02*
X0161500Y0150047D01*
X0161500Y0151046D02*
X0164500Y0151046D01*
X0168500Y0147050D02*
X0171500Y0147050D01*
X0168500Y0147050D02*
X0168500Y0151550D01*
X0171500Y0151550D01*
X0171500Y0147050D01*
X0171500Y0148049D02*
X0168500Y0148049D01*
X0168500Y0149048D02*
X0171500Y0149048D01*
X0171500Y0150047D02*
X0168500Y0150047D01*
X0168500Y0151046D02*
X0171500Y0151046D01*
X0099700Y0032150D02*
X0096700Y0032150D01*
X0099700Y0032150D02*
X0099700Y0027650D01*
X0096700Y0027650D01*
X0096700Y0032150D01*
X0096700Y0028649D02*
X0099700Y0028649D01*
X0099700Y0029648D02*
X0096700Y0029648D01*
X0096700Y0030647D02*
X0099700Y0030647D01*
X0099700Y0031646D02*
X0096700Y0031646D01*
X0092700Y0032150D02*
X0089700Y0032150D01*
X0092700Y0032150D02*
X0092700Y0027650D01*
X0089700Y0027650D01*
X0089700Y0032150D01*
X0089700Y0028649D02*
X0092700Y0028649D01*
X0092700Y0029648D02*
X0089700Y0029648D01*
X0089700Y0030647D02*
X0092700Y0030647D01*
X0092700Y0031646D02*
X0089700Y0031646D01*
X0090100Y0023750D02*
X0093100Y0023750D01*
X0093100Y0019250D01*
X0090100Y0019250D01*
X0090100Y0023750D01*
X0090100Y0020249D02*
X0093100Y0020249D01*
X0093100Y0021248D02*
X0090100Y0021248D01*
X0090100Y0022247D02*
X0093100Y0022247D01*
X0093100Y0023246D02*
X0090100Y0023246D01*
X0097100Y0023750D02*
X0100100Y0023750D01*
X0100100Y0019250D01*
X0097100Y0019250D01*
X0097100Y0023750D01*
X0097100Y0020249D02*
X0100100Y0020249D01*
X0100100Y0021248D02*
X0097100Y0021248D01*
X0097100Y0022247D02*
X0100100Y0022247D01*
X0100100Y0023246D02*
X0097100Y0023246D01*
X0012950Y0102400D02*
X0012950Y0105400D01*
X0017450Y0105400D01*
X0017450Y0102400D01*
X0012950Y0102400D01*
X0012950Y0103399D02*
X0017450Y0103399D01*
X0017450Y0104398D02*
X0012950Y0104398D01*
X0012950Y0105397D02*
X0017450Y0105397D01*
X0015200Y0110900D02*
X0011300Y0110900D01*
X0011300Y0110800D01*
X0010400Y0109900D01*
X0010400Y0100800D01*
X0011500Y0099700D01*
X0012950Y0109400D02*
X0012950Y0112400D01*
X0017450Y0112400D01*
X0017450Y0109400D01*
X0012950Y0109400D01*
X0012950Y0110399D02*
X0017450Y0110399D01*
X0017450Y0111398D02*
X0012950Y0111398D01*
X0012950Y0112397D02*
X0017450Y0112397D01*
D11*
X0015613Y0116387D02*
X0015613Y0119013D01*
X0015613Y0116387D02*
X0012987Y0116387D01*
X0012987Y0119013D01*
X0015613Y0119013D01*
X0015613Y0117261D02*
X0012987Y0117261D01*
X0012987Y0118135D02*
X0015613Y0118135D01*
X0015613Y0119009D02*
X0012987Y0119009D01*
X0015613Y0122387D02*
X0015613Y0125013D01*
X0015613Y0122387D02*
X0012987Y0122387D01*
X0012987Y0125013D01*
X0015613Y0125013D01*
X0015613Y0123261D02*
X0012987Y0123261D01*
X0012987Y0124135D02*
X0015613Y0124135D01*
X0015613Y0125009D02*
X0012987Y0125009D01*
X0017463Y0128987D02*
X0017463Y0131613D01*
X0017463Y0128987D02*
X0013337Y0128987D01*
X0013337Y0131613D01*
X0017463Y0131613D01*
X0017463Y0129861D02*
X0013337Y0129861D01*
X0013337Y0130735D02*
X0017463Y0130735D01*
X0017463Y0131609D02*
X0013337Y0131609D01*
X0017463Y0135987D02*
X0017463Y0138613D01*
X0017463Y0135987D02*
X0013337Y0135987D01*
X0013337Y0138613D01*
X0017463Y0138613D01*
X0017463Y0136861D02*
X0013337Y0136861D01*
X0013337Y0137735D02*
X0017463Y0137735D01*
X0017463Y0138609D02*
X0013337Y0138609D01*
X0015613Y0142387D02*
X0015613Y0145013D01*
X0015613Y0142387D02*
X0012987Y0142387D01*
X0012987Y0145013D01*
X0015613Y0145013D01*
X0015613Y0143261D02*
X0012987Y0143261D01*
X0012987Y0144135D02*
X0015613Y0144135D01*
X0015613Y0145009D02*
X0012987Y0145009D01*
X0015613Y0148387D02*
X0015613Y0151013D01*
X0015613Y0148387D02*
X0012987Y0148387D01*
X0012987Y0151013D01*
X0015613Y0151013D01*
X0015613Y0149261D02*
X0012987Y0149261D01*
X0012987Y0150135D02*
X0015613Y0150135D01*
X0015613Y0151009D02*
X0012987Y0151009D01*
X0038387Y0172213D02*
X0041013Y0172213D01*
X0041013Y0169587D01*
X0038387Y0169587D01*
X0038387Y0172213D01*
X0038387Y0170461D02*
X0041013Y0170461D01*
X0041013Y0171335D02*
X0038387Y0171335D01*
X0038387Y0172209D02*
X0041013Y0172209D01*
X0044387Y0172213D02*
X0047013Y0172213D01*
X0047013Y0169587D01*
X0044387Y0169587D01*
X0044387Y0172213D01*
X0044387Y0170461D02*
X0047013Y0170461D01*
X0047013Y0171335D02*
X0044387Y0171335D01*
X0044387Y0172209D02*
X0047013Y0172209D01*
X0049187Y0160787D02*
X0051813Y0160787D01*
X0049187Y0160787D02*
X0049187Y0163413D01*
X0051813Y0163413D01*
X0051813Y0160787D01*
X0051813Y0161661D02*
X0049187Y0161661D01*
X0049187Y0162535D02*
X0051813Y0162535D01*
X0051813Y0163409D02*
X0049187Y0163409D01*
X0055187Y0160787D02*
X0057813Y0160787D01*
X0055187Y0160787D02*
X0055187Y0163413D01*
X0057813Y0163413D01*
X0057813Y0160787D01*
X0057813Y0161661D02*
X0055187Y0161661D01*
X0055187Y0162535D02*
X0057813Y0162535D01*
X0057813Y0163409D02*
X0055187Y0163409D01*
X0067787Y0169587D02*
X0070413Y0169587D01*
X0067787Y0169587D02*
X0067787Y0172213D01*
X0070413Y0172213D01*
X0070413Y0169587D01*
X0070413Y0170461D02*
X0067787Y0170461D01*
X0067787Y0171335D02*
X0070413Y0171335D01*
X0070413Y0172209D02*
X0067787Y0172209D01*
X0073787Y0169587D02*
X0076413Y0169587D01*
X0073787Y0169587D02*
X0073787Y0172213D01*
X0076413Y0172213D01*
X0076413Y0169587D01*
X0076413Y0170461D02*
X0073787Y0170461D01*
X0073787Y0171335D02*
X0076413Y0171335D01*
X0076413Y0172209D02*
X0073787Y0172209D01*
X0079787Y0172313D02*
X0082413Y0172313D01*
X0082413Y0169687D01*
X0079787Y0169687D01*
X0079787Y0172313D01*
X0079787Y0170561D02*
X0082413Y0170561D01*
X0082413Y0171435D02*
X0079787Y0171435D01*
X0079787Y0172309D02*
X0082413Y0172309D01*
X0085787Y0172313D02*
X0088413Y0172313D01*
X0088413Y0169687D01*
X0085787Y0169687D01*
X0085787Y0172313D01*
X0085787Y0170561D02*
X0088413Y0170561D01*
X0088413Y0171435D02*
X0085787Y0171435D01*
X0085787Y0172309D02*
X0088413Y0172309D01*
X0088413Y0162487D02*
X0085787Y0162487D01*
X0085787Y0165113D01*
X0088413Y0165113D01*
X0088413Y0162487D01*
X0088413Y0163361D02*
X0085787Y0163361D01*
X0085787Y0164235D02*
X0088413Y0164235D01*
X0088413Y0165109D02*
X0085787Y0165109D01*
X0082413Y0162487D02*
X0079787Y0162487D01*
X0079787Y0165113D01*
X0082413Y0165113D01*
X0082413Y0162487D01*
X0082413Y0163361D02*
X0079787Y0163361D01*
X0079787Y0164235D02*
X0082413Y0164235D01*
X0082413Y0165109D02*
X0079787Y0165109D01*
X0093987Y0143613D02*
X0093987Y0140987D01*
X0093987Y0143613D02*
X0096613Y0143613D01*
X0096613Y0140987D01*
X0093987Y0140987D01*
X0093987Y0141861D02*
X0096613Y0141861D01*
X0096613Y0142735D02*
X0093987Y0142735D01*
X0093987Y0143609D02*
X0096613Y0143609D01*
X0093987Y0137613D02*
X0093987Y0134987D01*
X0093987Y0137613D02*
X0096613Y0137613D01*
X0096613Y0134987D01*
X0093987Y0134987D01*
X0093987Y0135861D02*
X0096613Y0135861D01*
X0096613Y0136735D02*
X0093987Y0136735D01*
X0093987Y0137609D02*
X0096613Y0137609D01*
X0103387Y0134087D02*
X0106013Y0134087D01*
X0103387Y0134087D02*
X0103387Y0136713D01*
X0106013Y0136713D01*
X0106013Y0134087D01*
X0106013Y0134961D02*
X0103387Y0134961D01*
X0103387Y0135835D02*
X0106013Y0135835D01*
X0106013Y0136709D02*
X0103387Y0136709D01*
X0103387Y0139987D02*
X0106013Y0139987D01*
X0103387Y0139987D02*
X0103387Y0142613D01*
X0106013Y0142613D01*
X0106013Y0139987D01*
X0106013Y0140861D02*
X0103387Y0140861D01*
X0103387Y0141735D02*
X0106013Y0141735D01*
X0106013Y0142609D02*
X0103387Y0142609D01*
X0103387Y0148513D02*
X0106013Y0148513D01*
X0106013Y0145887D01*
X0103387Y0145887D01*
X0103387Y0148513D01*
X0103387Y0146761D02*
X0106013Y0146761D01*
X0106013Y0147635D02*
X0103387Y0147635D01*
X0103387Y0148509D02*
X0106013Y0148509D01*
X0106013Y0154413D02*
X0103387Y0154413D01*
X0106013Y0154413D02*
X0106013Y0151787D01*
X0103387Y0151787D01*
X0103387Y0154413D01*
X0103387Y0152661D02*
X0106013Y0152661D01*
X0106013Y0153535D02*
X0103387Y0153535D01*
X0103387Y0154409D02*
X0106013Y0154409D01*
X0106013Y0160313D02*
X0103387Y0160313D01*
X0106013Y0160313D02*
X0106013Y0157687D01*
X0103387Y0157687D01*
X0103387Y0160313D01*
X0103387Y0158561D02*
X0106013Y0158561D01*
X0106013Y0159435D02*
X0103387Y0159435D01*
X0103387Y0160309D02*
X0106013Y0160309D01*
X0106013Y0166213D02*
X0103387Y0166213D01*
X0106013Y0166213D02*
X0106013Y0163587D01*
X0103387Y0163587D01*
X0103387Y0166213D01*
X0103387Y0164461D02*
X0106013Y0164461D01*
X0106013Y0165335D02*
X0103387Y0165335D01*
X0103387Y0166209D02*
X0106013Y0166209D01*
X0106013Y0172013D02*
X0103387Y0172013D01*
X0106013Y0172013D02*
X0106013Y0169387D01*
X0103387Y0169387D01*
X0103387Y0172013D01*
X0103387Y0170261D02*
X0106013Y0170261D01*
X0106013Y0171135D02*
X0103387Y0171135D01*
X0103387Y0172009D02*
X0106013Y0172009D01*
X0106013Y0177813D02*
X0103387Y0177813D01*
X0106013Y0177813D02*
X0106013Y0175187D01*
X0103387Y0175187D01*
X0103387Y0177813D01*
X0103387Y0176061D02*
X0106013Y0176061D01*
X0106013Y0176935D02*
X0103387Y0176935D01*
X0103387Y0177809D02*
X0106013Y0177809D01*
X0109387Y0177813D02*
X0112013Y0177813D01*
X0112013Y0175187D01*
X0109387Y0175187D01*
X0109387Y0177813D01*
X0109387Y0176061D02*
X0112013Y0176061D01*
X0112013Y0176935D02*
X0109387Y0176935D01*
X0109387Y0177809D02*
X0112013Y0177809D01*
X0112013Y0172013D02*
X0109387Y0172013D01*
X0112013Y0172013D02*
X0112013Y0169387D01*
X0109387Y0169387D01*
X0109387Y0172013D01*
X0109387Y0170261D02*
X0112013Y0170261D01*
X0112013Y0171135D02*
X0109387Y0171135D01*
X0109387Y0172009D02*
X0112013Y0172009D01*
X0112013Y0166213D02*
X0109387Y0166213D01*
X0112013Y0166213D02*
X0112013Y0163587D01*
X0109387Y0163587D01*
X0109387Y0166213D01*
X0109387Y0164461D02*
X0112013Y0164461D01*
X0112013Y0165335D02*
X0109387Y0165335D01*
X0109387Y0166209D02*
X0112013Y0166209D01*
X0112013Y0160313D02*
X0109387Y0160313D01*
X0112013Y0160313D02*
X0112013Y0157687D01*
X0109387Y0157687D01*
X0109387Y0160313D01*
X0109387Y0158561D02*
X0112013Y0158561D01*
X0112013Y0159435D02*
X0109387Y0159435D01*
X0109387Y0160309D02*
X0112013Y0160309D01*
X0112013Y0154413D02*
X0109387Y0154413D01*
X0112013Y0154413D02*
X0112013Y0151787D01*
X0109387Y0151787D01*
X0109387Y0154413D01*
X0109387Y0152661D02*
X0112013Y0152661D01*
X0112013Y0153535D02*
X0109387Y0153535D01*
X0109387Y0154409D02*
X0112013Y0154409D01*
X0112013Y0148513D02*
X0109387Y0148513D01*
X0112013Y0148513D02*
X0112013Y0145887D01*
X0109387Y0145887D01*
X0109387Y0148513D01*
X0109387Y0146761D02*
X0112013Y0146761D01*
X0112013Y0147635D02*
X0109387Y0147635D01*
X0109387Y0148509D02*
X0112013Y0148509D01*
X0112013Y0139987D02*
X0109387Y0139987D01*
X0109387Y0142613D01*
X0112013Y0142613D01*
X0112013Y0139987D01*
X0112013Y0140861D02*
X0109387Y0140861D01*
X0109387Y0141735D02*
X0112013Y0141735D01*
X0112013Y0142609D02*
X0109387Y0142609D01*
X0109387Y0134087D02*
X0112013Y0134087D01*
X0109387Y0134087D02*
X0109387Y0136713D01*
X0112013Y0136713D01*
X0112013Y0134087D01*
X0112013Y0134961D02*
X0109387Y0134961D01*
X0109387Y0135835D02*
X0112013Y0135835D01*
X0112013Y0136709D02*
X0109387Y0136709D01*
X0109387Y0128187D02*
X0112013Y0128187D01*
X0109387Y0128187D02*
X0109387Y0130813D01*
X0112013Y0130813D01*
X0112013Y0128187D01*
X0112013Y0129061D02*
X0109387Y0129061D01*
X0109387Y0129935D02*
X0112013Y0129935D01*
X0112013Y0130809D02*
X0109387Y0130809D01*
X0106013Y0128187D02*
X0103387Y0128187D01*
X0103387Y0130813D01*
X0106013Y0130813D01*
X0106013Y0128187D01*
X0106013Y0129061D02*
X0103387Y0129061D01*
X0103387Y0129935D02*
X0106013Y0129935D01*
X0106013Y0130809D02*
X0103387Y0130809D01*
X0101113Y0122687D02*
X0098487Y0122687D01*
X0098487Y0125313D01*
X0101113Y0125313D01*
X0101113Y0122687D01*
X0101113Y0123561D02*
X0098487Y0123561D01*
X0098487Y0124435D02*
X0101113Y0124435D01*
X0101113Y0125309D02*
X0098487Y0125309D01*
X0095113Y0122687D02*
X0092487Y0122687D01*
X0092487Y0125313D01*
X0095113Y0125313D01*
X0095113Y0122687D01*
X0095113Y0123561D02*
X0092487Y0123561D01*
X0092487Y0124435D02*
X0095113Y0124435D01*
X0095113Y0125309D02*
X0092487Y0125309D01*
X0103813Y0116113D02*
X0103813Y0113487D01*
X0101187Y0113487D01*
X0101187Y0116113D01*
X0103813Y0116113D01*
X0103813Y0114361D02*
X0101187Y0114361D01*
X0101187Y0115235D02*
X0103813Y0115235D01*
X0103813Y0116109D02*
X0101187Y0116109D01*
X0103813Y0110113D02*
X0103813Y0107487D01*
X0101187Y0107487D01*
X0101187Y0110113D01*
X0103813Y0110113D01*
X0103813Y0108361D02*
X0101187Y0108361D01*
X0101187Y0109235D02*
X0103813Y0109235D01*
X0103813Y0110109D02*
X0101187Y0110109D01*
X0109913Y0110113D02*
X0109913Y0107487D01*
X0107287Y0107487D01*
X0107287Y0110113D01*
X0109913Y0110113D01*
X0109913Y0108361D02*
X0107287Y0108361D01*
X0107287Y0109235D02*
X0109913Y0109235D01*
X0109913Y0110109D02*
X0107287Y0110109D01*
X0109913Y0113487D02*
X0109913Y0116113D01*
X0109913Y0113487D02*
X0107287Y0113487D01*
X0107287Y0116113D01*
X0109913Y0116113D01*
X0109913Y0114361D02*
X0107287Y0114361D01*
X0107287Y0115235D02*
X0109913Y0115235D01*
X0109913Y0116109D02*
X0107287Y0116109D01*
X0113587Y0116013D02*
X0113587Y0113387D01*
X0113587Y0116013D02*
X0116213Y0116013D01*
X0116213Y0113387D01*
X0113587Y0113387D01*
X0113587Y0114261D02*
X0116213Y0114261D01*
X0116213Y0115135D02*
X0113587Y0115135D01*
X0113587Y0116009D02*
X0116213Y0116009D01*
X0119787Y0116013D02*
X0119787Y0113387D01*
X0119787Y0116013D02*
X0122413Y0116013D01*
X0122413Y0113387D01*
X0119787Y0113387D01*
X0119787Y0114261D02*
X0122413Y0114261D01*
X0122413Y0115135D02*
X0119787Y0115135D01*
X0119787Y0116009D02*
X0122413Y0116009D01*
X0119687Y0121587D02*
X0119687Y0124213D01*
X0122313Y0124213D01*
X0122313Y0121587D01*
X0119687Y0121587D01*
X0119687Y0122461D02*
X0122313Y0122461D01*
X0122313Y0123335D02*
X0119687Y0123335D01*
X0119687Y0124209D02*
X0122313Y0124209D01*
X0119687Y0127587D02*
X0119687Y0130213D01*
X0122313Y0130213D01*
X0122313Y0127587D01*
X0119687Y0127587D01*
X0119687Y0128461D02*
X0122313Y0128461D01*
X0122313Y0129335D02*
X0119687Y0129335D01*
X0119687Y0130209D02*
X0122313Y0130209D01*
X0129187Y0130313D02*
X0129187Y0127687D01*
X0129187Y0130313D02*
X0131813Y0130313D01*
X0131813Y0127687D01*
X0129187Y0127687D01*
X0129187Y0128561D02*
X0131813Y0128561D01*
X0131813Y0129435D02*
X0129187Y0129435D01*
X0129187Y0130309D02*
X0131813Y0130309D01*
X0129187Y0124313D02*
X0129187Y0121687D01*
X0129187Y0124313D02*
X0131813Y0124313D01*
X0131813Y0121687D01*
X0129187Y0121687D01*
X0129187Y0122561D02*
X0131813Y0122561D01*
X0131813Y0123435D02*
X0129187Y0123435D01*
X0129187Y0124309D02*
X0131813Y0124309D01*
X0129287Y0116013D02*
X0129287Y0113387D01*
X0129287Y0116013D02*
X0131913Y0116013D01*
X0131913Y0113387D01*
X0129287Y0113387D01*
X0129287Y0114261D02*
X0131913Y0114261D01*
X0131913Y0115135D02*
X0129287Y0115135D01*
X0129287Y0116009D02*
X0131913Y0116009D01*
X0135387Y0116113D02*
X0135387Y0113487D01*
X0135387Y0116113D02*
X0138013Y0116113D01*
X0138013Y0113487D01*
X0135387Y0113487D01*
X0135387Y0114361D02*
X0138013Y0114361D01*
X0138013Y0115235D02*
X0135387Y0115235D01*
X0135387Y0116109D02*
X0138013Y0116109D01*
X0141687Y0116113D02*
X0141687Y0113487D01*
X0141687Y0116113D02*
X0144313Y0116113D01*
X0144313Y0113487D01*
X0141687Y0113487D01*
X0141687Y0114361D02*
X0144313Y0114361D01*
X0144313Y0115235D02*
X0141687Y0115235D01*
X0141687Y0116109D02*
X0144313Y0116109D01*
X0147787Y0116113D02*
X0147787Y0113487D01*
X0147787Y0116113D02*
X0150413Y0116113D01*
X0150413Y0113487D01*
X0147787Y0113487D01*
X0147787Y0114361D02*
X0150413Y0114361D01*
X0150413Y0115235D02*
X0147787Y0115235D01*
X0147787Y0116109D02*
X0150413Y0116109D01*
X0156513Y0116113D02*
X0156513Y0113487D01*
X0153887Y0113487D01*
X0153887Y0116113D01*
X0156513Y0116113D01*
X0156513Y0114361D02*
X0153887Y0114361D01*
X0153887Y0115235D02*
X0156513Y0115235D01*
X0156513Y0116109D02*
X0153887Y0116109D01*
X0153813Y0121187D02*
X0153813Y0123813D01*
X0153813Y0121187D02*
X0151187Y0121187D01*
X0151187Y0123813D01*
X0153813Y0123813D01*
X0153813Y0122061D02*
X0151187Y0122061D01*
X0151187Y0122935D02*
X0153813Y0122935D01*
X0153813Y0123809D02*
X0151187Y0123809D01*
X0147613Y0123813D02*
X0147613Y0121187D01*
X0144987Y0121187D01*
X0144987Y0123813D01*
X0147613Y0123813D01*
X0147613Y0122061D02*
X0144987Y0122061D01*
X0144987Y0122935D02*
X0147613Y0122935D01*
X0147613Y0123809D02*
X0144987Y0123809D01*
X0147613Y0127187D02*
X0147613Y0129813D01*
X0147613Y0127187D02*
X0144987Y0127187D01*
X0144987Y0129813D01*
X0147613Y0129813D01*
X0147613Y0128061D02*
X0144987Y0128061D01*
X0144987Y0128935D02*
X0147613Y0128935D01*
X0147613Y0129809D02*
X0144987Y0129809D01*
X0153813Y0129813D02*
X0153813Y0127187D01*
X0151187Y0127187D01*
X0151187Y0129813D01*
X0153813Y0129813D01*
X0153813Y0128061D02*
X0151187Y0128061D01*
X0151187Y0128935D02*
X0153813Y0128935D01*
X0153813Y0129809D02*
X0151187Y0129809D01*
X0168313Y0129813D02*
X0168313Y0127187D01*
X0165687Y0127187D01*
X0165687Y0129813D01*
X0168313Y0129813D01*
X0168313Y0128061D02*
X0165687Y0128061D01*
X0165687Y0128935D02*
X0168313Y0128935D01*
X0168313Y0129809D02*
X0165687Y0129809D01*
X0168313Y0133187D02*
X0168313Y0135813D01*
X0168313Y0133187D02*
X0165687Y0133187D01*
X0165687Y0135813D01*
X0168313Y0135813D01*
X0168313Y0134061D02*
X0165687Y0134061D01*
X0165687Y0134935D02*
X0168313Y0134935D01*
X0168313Y0135809D02*
X0165687Y0135809D01*
X0167187Y0116213D02*
X0167187Y0113587D01*
X0167187Y0116213D02*
X0169813Y0116213D01*
X0169813Y0113587D01*
X0167187Y0113587D01*
X0167187Y0114461D02*
X0169813Y0114461D01*
X0169813Y0115335D02*
X0167187Y0115335D01*
X0167187Y0116209D02*
X0169813Y0116209D01*
X0167187Y0110213D02*
X0167187Y0107587D01*
X0167187Y0110213D02*
X0169813Y0110213D01*
X0169813Y0107587D01*
X0167187Y0107587D01*
X0167187Y0108461D02*
X0169813Y0108461D01*
X0169813Y0109335D02*
X0167187Y0109335D01*
X0167187Y0110209D02*
X0169813Y0110209D01*
X0162613Y0110013D02*
X0162613Y0107387D01*
X0159987Y0107387D01*
X0159987Y0110013D01*
X0162613Y0110013D01*
X0162613Y0108261D02*
X0159987Y0108261D01*
X0159987Y0109135D02*
X0162613Y0109135D01*
X0162613Y0110009D02*
X0159987Y0110009D01*
X0162613Y0113387D02*
X0162613Y0116013D01*
X0162613Y0113387D02*
X0159987Y0113387D01*
X0159987Y0116013D01*
X0162613Y0116013D01*
X0162613Y0114261D02*
X0159987Y0114261D01*
X0159987Y0115135D02*
X0162613Y0115135D01*
X0162613Y0116009D02*
X0159987Y0116009D01*
X0156513Y0110113D02*
X0156513Y0107487D01*
X0153887Y0107487D01*
X0153887Y0110113D01*
X0156513Y0110113D01*
X0156513Y0108361D02*
X0153887Y0108361D01*
X0153887Y0109235D02*
X0156513Y0109235D01*
X0156513Y0110109D02*
X0153887Y0110109D01*
X0147787Y0110113D02*
X0147787Y0107487D01*
X0147787Y0110113D02*
X0150413Y0110113D01*
X0150413Y0107487D01*
X0147787Y0107487D01*
X0147787Y0108361D02*
X0150413Y0108361D01*
X0150413Y0109235D02*
X0147787Y0109235D01*
X0147787Y0110109D02*
X0150413Y0110109D01*
X0141687Y0110113D02*
X0141687Y0107487D01*
X0141687Y0110113D02*
X0144313Y0110113D01*
X0144313Y0107487D01*
X0141687Y0107487D01*
X0141687Y0108361D02*
X0144313Y0108361D01*
X0144313Y0109235D02*
X0141687Y0109235D01*
X0141687Y0110109D02*
X0144313Y0110109D01*
X0135387Y0110113D02*
X0135387Y0107487D01*
X0135387Y0110113D02*
X0138013Y0110113D01*
X0138013Y0107487D01*
X0135387Y0107487D01*
X0135387Y0108361D02*
X0138013Y0108361D01*
X0138013Y0109235D02*
X0135387Y0109235D01*
X0135387Y0110109D02*
X0138013Y0110109D01*
X0129287Y0110013D02*
X0129287Y0107387D01*
X0129287Y0110013D02*
X0131913Y0110013D01*
X0131913Y0107387D01*
X0129287Y0107387D01*
X0129287Y0108261D02*
X0131913Y0108261D01*
X0131913Y0109135D02*
X0129287Y0109135D01*
X0129287Y0110009D02*
X0131913Y0110009D01*
X0119787Y0110013D02*
X0119787Y0107387D01*
X0119787Y0110013D02*
X0122413Y0110013D01*
X0122413Y0107387D01*
X0119787Y0107387D01*
X0119787Y0108261D02*
X0122413Y0108261D01*
X0122413Y0109135D02*
X0119787Y0109135D01*
X0119787Y0110009D02*
X0122413Y0110009D01*
X0113587Y0110013D02*
X0113587Y0107387D01*
X0113587Y0110013D02*
X0116213Y0110013D01*
X0116213Y0107387D01*
X0113587Y0107387D01*
X0113587Y0108261D02*
X0116213Y0108261D01*
X0116213Y0109135D02*
X0113587Y0109135D01*
X0113587Y0110009D02*
X0116213Y0110009D01*
X0098613Y0084013D02*
X0098613Y0081387D01*
X0095987Y0081387D01*
X0095987Y0084013D01*
X0098613Y0084013D01*
X0098613Y0082261D02*
X0095987Y0082261D01*
X0095987Y0083135D02*
X0098613Y0083135D01*
X0098613Y0084009D02*
X0095987Y0084009D01*
X0098613Y0078013D02*
X0098613Y0075387D01*
X0095987Y0075387D01*
X0095987Y0078013D01*
X0098613Y0078013D01*
X0098613Y0076261D02*
X0095987Y0076261D01*
X0095987Y0077135D02*
X0098613Y0077135D01*
X0098613Y0078009D02*
X0095987Y0078009D01*
X0092213Y0077187D02*
X0092213Y0079813D01*
X0092213Y0077187D02*
X0089587Y0077187D01*
X0089587Y0079813D01*
X0092213Y0079813D01*
X0092213Y0078061D02*
X0089587Y0078061D01*
X0089587Y0078935D02*
X0092213Y0078935D01*
X0092213Y0079809D02*
X0089587Y0079809D01*
X0085813Y0079813D02*
X0085813Y0077187D01*
X0083187Y0077187D01*
X0083187Y0079813D01*
X0085813Y0079813D01*
X0085813Y0078061D02*
X0083187Y0078061D01*
X0083187Y0078935D02*
X0085813Y0078935D01*
X0085813Y0079809D02*
X0083187Y0079809D01*
X0085813Y0073813D02*
X0085813Y0071187D01*
X0083187Y0071187D01*
X0083187Y0073813D01*
X0085813Y0073813D01*
X0085813Y0072061D02*
X0083187Y0072061D01*
X0083187Y0072935D02*
X0085813Y0072935D01*
X0085813Y0073809D02*
X0083187Y0073809D01*
X0092213Y0073813D02*
X0092213Y0071187D01*
X0089587Y0071187D01*
X0089587Y0073813D01*
X0092213Y0073813D01*
X0092213Y0072061D02*
X0089587Y0072061D01*
X0089587Y0072935D02*
X0092213Y0072935D01*
X0092213Y0073809D02*
X0089587Y0073809D01*
X0080413Y0067613D02*
X0077787Y0067613D01*
X0080413Y0067613D02*
X0080413Y0064987D01*
X0077787Y0064987D01*
X0077787Y0067613D01*
X0077787Y0065861D02*
X0080413Y0065861D01*
X0080413Y0066735D02*
X0077787Y0066735D01*
X0077787Y0067609D02*
X0080413Y0067609D01*
X0074413Y0067613D02*
X0071787Y0067613D01*
X0074413Y0067613D02*
X0074413Y0064987D01*
X0071787Y0064987D01*
X0071787Y0067613D01*
X0071787Y0065861D02*
X0074413Y0065861D01*
X0074413Y0066735D02*
X0071787Y0066735D01*
X0071787Y0067609D02*
X0074413Y0067609D01*
X0067663Y0067113D02*
X0067663Y0064487D01*
X0063537Y0064487D01*
X0063537Y0067113D01*
X0067663Y0067113D01*
X0067663Y0065361D02*
X0063537Y0065361D01*
X0063537Y0066235D02*
X0067663Y0066235D01*
X0067663Y0067109D02*
X0063537Y0067109D01*
X0057087Y0066013D02*
X0057087Y0063387D01*
X0057087Y0066013D02*
X0059713Y0066013D01*
X0059713Y0063387D01*
X0057087Y0063387D01*
X0057087Y0064261D02*
X0059713Y0064261D01*
X0059713Y0065135D02*
X0057087Y0065135D01*
X0057087Y0066009D02*
X0059713Y0066009D01*
X0057087Y0060013D02*
X0057087Y0057387D01*
X0057087Y0060013D02*
X0059713Y0060013D01*
X0059713Y0057387D01*
X0057087Y0057387D01*
X0057087Y0058261D02*
X0059713Y0058261D01*
X0059713Y0059135D02*
X0057087Y0059135D01*
X0057087Y0060009D02*
X0059713Y0060009D01*
X0067663Y0060113D02*
X0067663Y0057487D01*
X0063537Y0057487D01*
X0063537Y0060113D01*
X0067663Y0060113D01*
X0067663Y0058361D02*
X0063537Y0058361D01*
X0063537Y0059235D02*
X0067663Y0059235D01*
X0067663Y0060109D02*
X0063537Y0060109D01*
X0089787Y0057213D02*
X0092413Y0057213D01*
X0092413Y0054587D01*
X0089787Y0054587D01*
X0089787Y0057213D01*
X0089787Y0055461D02*
X0092413Y0055461D01*
X0092413Y0056335D02*
X0089787Y0056335D01*
X0089787Y0057209D02*
X0092413Y0057209D01*
X0095787Y0057213D02*
X0098413Y0057213D01*
X0098413Y0054587D01*
X0095787Y0054587D01*
X0095787Y0057213D01*
X0095787Y0055461D02*
X0098413Y0055461D01*
X0098413Y0056335D02*
X0095787Y0056335D01*
X0095787Y0057209D02*
X0098413Y0057209D01*
X0098613Y0048187D02*
X0095987Y0048187D01*
X0095987Y0050813D01*
X0098613Y0050813D01*
X0098613Y0048187D01*
X0098613Y0049061D02*
X0095987Y0049061D01*
X0095987Y0049935D02*
X0098613Y0049935D01*
X0098613Y0050809D02*
X0095987Y0050809D01*
X0092613Y0048187D02*
X0089987Y0048187D01*
X0089987Y0050813D01*
X0092613Y0050813D01*
X0092613Y0048187D01*
X0092613Y0049061D02*
X0089987Y0049061D01*
X0089987Y0049935D02*
X0092613Y0049935D01*
X0092613Y0050809D02*
X0089987Y0050809D01*
X0090587Y0042187D02*
X0093213Y0042187D01*
X0090587Y0042187D02*
X0090587Y0044813D01*
X0093213Y0044813D01*
X0093213Y0042187D01*
X0093213Y0043061D02*
X0090587Y0043061D01*
X0090587Y0043935D02*
X0093213Y0043935D01*
X0093213Y0044809D02*
X0090587Y0044809D01*
X0090987Y0035787D02*
X0093613Y0035787D01*
X0090987Y0035787D02*
X0090987Y0038413D01*
X0093613Y0038413D01*
X0093613Y0035787D01*
X0093613Y0036661D02*
X0090987Y0036661D01*
X0090987Y0037535D02*
X0093613Y0037535D01*
X0093613Y0038409D02*
X0090987Y0038409D01*
X0096987Y0035787D02*
X0099613Y0035787D01*
X0096987Y0035787D02*
X0096987Y0038413D01*
X0099613Y0038413D01*
X0099613Y0035787D01*
X0099613Y0036661D02*
X0096987Y0036661D01*
X0096987Y0037535D02*
X0099613Y0037535D01*
X0099613Y0038409D02*
X0096987Y0038409D01*
X0096587Y0042187D02*
X0099213Y0042187D01*
X0096587Y0042187D02*
X0096587Y0044813D01*
X0099213Y0044813D01*
X0099213Y0042187D01*
X0099213Y0043061D02*
X0096587Y0043061D01*
X0096587Y0043935D02*
X0099213Y0043935D01*
X0099213Y0044809D02*
X0096587Y0044809D01*
X0160787Y0155787D02*
X0163413Y0155787D01*
X0160787Y0155787D02*
X0160787Y0158413D01*
X0163413Y0158413D01*
X0163413Y0155787D01*
X0163413Y0156661D02*
X0160787Y0156661D01*
X0160787Y0157535D02*
X0163413Y0157535D01*
X0163413Y0158409D02*
X0160787Y0158409D01*
X0160787Y0162787D02*
X0163413Y0162787D01*
X0160787Y0162787D02*
X0160787Y0165413D01*
X0163413Y0165413D01*
X0163413Y0162787D01*
X0163413Y0163661D02*
X0160787Y0163661D01*
X0160787Y0164535D02*
X0163413Y0164535D01*
X0163413Y0165409D02*
X0160787Y0165409D01*
X0166787Y0162787D02*
X0169413Y0162787D01*
X0166787Y0162787D02*
X0166787Y0165413D01*
X0169413Y0165413D01*
X0169413Y0162787D01*
X0169413Y0163661D02*
X0166787Y0163661D01*
X0166787Y0164535D02*
X0169413Y0164535D01*
X0169413Y0165409D02*
X0166787Y0165409D01*
X0166787Y0155787D02*
X0169413Y0155787D01*
X0166787Y0155787D02*
X0166787Y0158413D01*
X0169413Y0158413D01*
X0169413Y0155787D01*
X0169413Y0156661D02*
X0166787Y0156661D01*
X0166787Y0157535D02*
X0169413Y0157535D01*
X0169413Y0158409D02*
X0166787Y0158409D01*
X0142613Y0181013D02*
X0139987Y0181013D01*
X0142613Y0181013D02*
X0142613Y0178387D01*
X0139987Y0178387D01*
X0139987Y0181013D01*
X0139987Y0179261D02*
X0142613Y0179261D01*
X0142613Y0180135D02*
X0139987Y0180135D01*
X0139987Y0181009D02*
X0142613Y0181009D01*
X0136613Y0181013D02*
X0133987Y0181013D01*
X0136613Y0181013D02*
X0136613Y0178387D01*
X0133987Y0178387D01*
X0133987Y0181013D01*
X0133987Y0179261D02*
X0136613Y0179261D01*
X0136613Y0180135D02*
X0133987Y0180135D01*
X0133987Y0181009D02*
X0136613Y0181009D01*
X0125887Y0186287D02*
X0125887Y0188913D01*
X0128513Y0188913D01*
X0128513Y0186287D01*
X0125887Y0186287D01*
X0125887Y0187161D02*
X0128513Y0187161D01*
X0128513Y0188035D02*
X0125887Y0188035D01*
X0125887Y0188909D02*
X0128513Y0188909D01*
X0125887Y0192287D02*
X0125887Y0194913D01*
X0128513Y0194913D01*
X0128513Y0192287D01*
X0125887Y0192287D01*
X0125887Y0193161D02*
X0128513Y0193161D01*
X0128513Y0194035D02*
X0125887Y0194035D01*
X0125887Y0194909D02*
X0128513Y0194909D01*
X0122413Y0194913D02*
X0122413Y0192287D01*
X0119787Y0192287D01*
X0119787Y0194913D01*
X0122413Y0194913D01*
X0122413Y0193161D02*
X0119787Y0193161D01*
X0119787Y0194035D02*
X0122413Y0194035D01*
X0122413Y0194909D02*
X0119787Y0194909D01*
X0116413Y0194913D02*
X0116413Y0192287D01*
X0113787Y0192287D01*
X0113787Y0194913D01*
X0116413Y0194913D01*
X0116413Y0193161D02*
X0113787Y0193161D01*
X0113787Y0194035D02*
X0116413Y0194035D01*
X0116413Y0194909D02*
X0113787Y0194909D01*
X0116413Y0188913D02*
X0116413Y0186287D01*
X0113787Y0186287D01*
X0113787Y0188913D01*
X0116413Y0188913D01*
X0116413Y0187161D02*
X0113787Y0187161D01*
X0113787Y0188035D02*
X0116413Y0188035D01*
X0116413Y0188909D02*
X0113787Y0188909D01*
X0122413Y0188913D02*
X0122413Y0186287D01*
X0119787Y0186287D01*
X0119787Y0188913D01*
X0122413Y0188913D01*
X0122413Y0187161D02*
X0119787Y0187161D01*
X0119787Y0188035D02*
X0122413Y0188035D01*
X0122413Y0188909D02*
X0119787Y0188909D01*
X0151413Y0188813D02*
X0151413Y0186187D01*
X0148787Y0186187D01*
X0148787Y0188813D01*
X0151413Y0188813D01*
X0151413Y0187061D02*
X0148787Y0187061D01*
X0148787Y0187935D02*
X0151413Y0187935D01*
X0151413Y0188809D02*
X0148787Y0188809D01*
X0151413Y0192187D02*
X0151413Y0194813D01*
X0151413Y0192187D02*
X0148787Y0192187D01*
X0148787Y0194813D01*
X0151413Y0194813D01*
X0151413Y0193061D02*
X0148787Y0193061D01*
X0148787Y0193935D02*
X0151413Y0193935D01*
X0151413Y0194809D02*
X0148787Y0194809D01*
X0154987Y0194813D02*
X0154987Y0192187D01*
X0154987Y0194813D02*
X0157613Y0194813D01*
X0157613Y0192187D01*
X0154987Y0192187D01*
X0154987Y0193061D02*
X0157613Y0193061D01*
X0157613Y0193935D02*
X0154987Y0193935D01*
X0154987Y0194809D02*
X0157613Y0194809D01*
X0154987Y0188813D02*
X0154987Y0186187D01*
X0154987Y0188813D02*
X0157613Y0188813D01*
X0157613Y0186187D01*
X0154987Y0186187D01*
X0154987Y0187061D02*
X0157613Y0187061D01*
X0157613Y0187935D02*
X0154987Y0187935D01*
X0154987Y0188809D02*
X0157613Y0188809D01*
D12*
X0046000Y0074974D03*
X0046000Y0059226D03*
D13*
X0016100Y0080500D03*
X0022900Y0159900D03*
D14*
X0022900Y0169900D03*
X0022900Y0179900D03*
X0026100Y0080500D03*
X0026100Y0070500D03*
X0026100Y0060500D03*
X0016100Y0060500D03*
X0016100Y0070500D03*
D15*
X0120000Y0083900D03*
D16*
X0130000Y0083900D03*
X0140000Y0083900D03*
X0150000Y0083900D03*
X0145000Y0093900D03*
X0135000Y0093900D03*
X0125000Y0093900D03*
X0155000Y0093900D03*
X0153500Y0039400D03*
X0163500Y0039400D03*
X0121500Y0039400D03*
X0111500Y0039400D03*
D17*
X0106000Y0070400D03*
X0169000Y0070400D03*
D18*
X0095700Y0152244D03*
X0095700Y0182756D03*
D19*
X0079322Y0154421D03*
X0077354Y0154421D03*
X0075385Y0154421D03*
X0073417Y0154421D03*
X0071448Y0154421D03*
X0069480Y0154421D03*
X0067511Y0154421D03*
X0065543Y0154421D03*
X0063574Y0154421D03*
X0061606Y0154421D03*
X0059637Y0154421D03*
X0057669Y0154421D03*
X0055700Y0154421D03*
X0053731Y0154421D03*
X0051763Y0154421D03*
X0049794Y0154421D03*
X0047826Y0154421D03*
X0045857Y0154421D03*
X0043889Y0154421D03*
X0041920Y0154421D03*
X0039952Y0154421D03*
X0037983Y0154421D03*
X0036015Y0154421D03*
X0034046Y0154421D03*
X0032078Y0154421D03*
X0032078Y0094579D03*
X0034046Y0094579D03*
X0036015Y0094579D03*
X0037983Y0094579D03*
X0039952Y0094579D03*
X0041920Y0094579D03*
X0043889Y0094579D03*
X0045857Y0094579D03*
X0047826Y0094579D03*
X0049794Y0094579D03*
X0051763Y0094579D03*
X0053731Y0094579D03*
X0055700Y0094579D03*
X0057669Y0094579D03*
X0059637Y0094579D03*
X0061606Y0094579D03*
X0063574Y0094579D03*
X0065543Y0094579D03*
X0067511Y0094579D03*
X0069480Y0094579D03*
X0071448Y0094579D03*
X0073417Y0094579D03*
X0075385Y0094579D03*
X0077354Y0094579D03*
X0079322Y0094579D03*
D20*
X0085621Y0100878D03*
X0085621Y0102846D03*
X0085621Y0104815D03*
X0085621Y0106783D03*
X0085621Y0108752D03*
X0085621Y0110720D03*
X0085621Y0112689D03*
X0085621Y0114657D03*
X0085621Y0116626D03*
X0085621Y0118594D03*
X0085621Y0120563D03*
X0085621Y0122531D03*
X0085621Y0124500D03*
X0085621Y0126469D03*
X0085621Y0128437D03*
X0085621Y0130406D03*
X0085621Y0132374D03*
X0085621Y0134343D03*
X0085621Y0136311D03*
X0085621Y0138280D03*
X0085621Y0140248D03*
X0085621Y0142217D03*
X0085621Y0144185D03*
X0085621Y0146154D03*
X0085621Y0148122D03*
X0025779Y0148122D03*
X0025779Y0146154D03*
X0025779Y0144185D03*
X0025779Y0142217D03*
X0025779Y0140248D03*
X0025779Y0138280D03*
X0025779Y0136311D03*
X0025779Y0134343D03*
X0025779Y0132374D03*
X0025779Y0130406D03*
X0025779Y0128437D03*
X0025779Y0126469D03*
X0025779Y0124500D03*
X0025779Y0122531D03*
X0025779Y0120563D03*
X0025779Y0118594D03*
X0025779Y0116626D03*
X0025779Y0114657D03*
X0025779Y0112689D03*
X0025779Y0110720D03*
X0025779Y0108752D03*
X0025779Y0106783D03*
X0025779Y0104815D03*
X0025779Y0102846D03*
X0025779Y0100878D03*
D21*
X0065100Y0046200D03*
X0074100Y0046200D03*
X0083100Y0046200D03*
D22*
X0074100Y0021200D03*
D23*
X0042399Y0049400D03*
X0039250Y0049400D03*
X0036100Y0049400D03*
X0032950Y0049400D03*
X0029801Y0049400D03*
D24*
X0018383Y0048243D03*
X0018383Y0026589D03*
X0053817Y0026589D03*
X0053817Y0048243D03*
D25*
X0127073Y0138568D03*
X0129042Y0138568D03*
X0131010Y0138568D03*
X0132979Y0138568D03*
X0134947Y0138568D03*
X0136916Y0138568D03*
X0138884Y0138568D03*
X0140853Y0138568D03*
X0142821Y0138568D03*
X0144790Y0138568D03*
X0146758Y0138568D03*
X0148727Y0138568D03*
X0148727Y0172032D03*
X0146758Y0172032D03*
X0144790Y0172032D03*
X0142821Y0172032D03*
X0140853Y0172032D03*
X0138884Y0172032D03*
X0136916Y0172032D03*
X0134947Y0172032D03*
X0132979Y0172032D03*
X0131010Y0172032D03*
X0129042Y0172032D03*
X0127073Y0172032D03*
D26*
X0121168Y0166127D03*
X0121168Y0164158D03*
X0121168Y0162190D03*
X0121168Y0160221D03*
X0121168Y0158253D03*
X0121168Y0156284D03*
X0121168Y0154316D03*
X0121168Y0152347D03*
X0121168Y0150379D03*
X0121168Y0148410D03*
X0121168Y0146442D03*
X0121168Y0144473D03*
X0154632Y0144473D03*
X0154632Y0146442D03*
X0154632Y0148410D03*
X0154632Y0150379D03*
X0154632Y0152347D03*
X0154632Y0154316D03*
X0154632Y0156284D03*
X0154632Y0158253D03*
X0154632Y0160221D03*
X0154632Y0162190D03*
X0154632Y0164158D03*
X0154632Y0166127D03*
D27*
X0144875Y0186975D02*
X0142125Y0186975D01*
X0144875Y0186975D02*
X0144875Y0185225D01*
X0142125Y0185225D01*
X0142125Y0186975D01*
X0142125Y0186974D02*
X0144875Y0186974D01*
X0144875Y0194975D02*
X0142125Y0194975D01*
X0144875Y0194975D02*
X0144875Y0193225D01*
X0142125Y0193225D01*
X0142125Y0194975D01*
X0142125Y0194974D02*
X0144875Y0194974D01*
X0134875Y0194975D02*
X0132125Y0194975D01*
X0134875Y0194975D02*
X0134875Y0193225D01*
X0132125Y0193225D01*
X0132125Y0194975D01*
X0132125Y0194974D02*
X0134875Y0194974D01*
X0134875Y0186975D02*
X0132125Y0186975D01*
X0134875Y0186975D02*
X0134875Y0185225D01*
X0132125Y0185225D01*
X0132125Y0186975D01*
X0132125Y0186974D02*
X0134875Y0186974D01*
X0063675Y0176775D02*
X0060925Y0176775D01*
X0063675Y0176775D02*
X0063675Y0175025D01*
X0060925Y0175025D01*
X0060925Y0176775D01*
X0060925Y0176774D02*
X0063675Y0176774D01*
X0063675Y0168775D02*
X0060925Y0168775D01*
X0063675Y0168775D02*
X0063675Y0167025D01*
X0060925Y0167025D01*
X0060925Y0168775D01*
X0060925Y0168774D02*
X0063675Y0168774D01*
X0053675Y0168775D02*
X0050925Y0168775D01*
X0053675Y0168775D02*
X0053675Y0167025D01*
X0050925Y0167025D01*
X0050925Y0168775D01*
X0050925Y0168774D02*
X0053675Y0168774D01*
X0053675Y0176775D02*
X0050925Y0176775D01*
X0053675Y0176775D02*
X0053675Y0175025D01*
X0050925Y0175025D01*
X0050925Y0176775D01*
X0050925Y0176774D02*
X0053675Y0176774D01*
D28*
X0056500Y0174700D02*
X0057700Y0175900D01*
X0062300Y0175900D01*
X0067300Y0170900D01*
X0069100Y0170900D01*
X0075100Y0170900D02*
X0077100Y0170900D01*
X0078400Y0169600D01*
X0078400Y0160200D01*
X0077000Y0158800D01*
X0062100Y0158800D01*
X0061606Y0158306D01*
X0061606Y0154421D01*
X0059637Y0154421D02*
X0059637Y0160437D01*
X0060100Y0160900D01*
X0075700Y0160900D01*
X0076300Y0161500D01*
X0081100Y0163800D02*
X0081100Y0167500D01*
X0094300Y0167500D01*
X0095700Y0166100D01*
X0095700Y0152244D01*
X0087100Y0158500D02*
X0087100Y0163800D01*
X0087100Y0158500D02*
X0085621Y0157021D01*
X0085621Y0148122D01*
X0081700Y0151300D02*
X0081700Y0163200D01*
X0081100Y0163800D01*
X0081100Y0167500D02*
X0081100Y0171000D01*
X0090100Y0179500D02*
X0091900Y0177700D01*
X0091900Y0174700D01*
X0093100Y0173500D01*
X0127073Y0173500D01*
X0127073Y0174100D01*
X0127073Y0178527D01*
X0123700Y0181900D01*
X0117100Y0181900D01*
X0115100Y0183900D01*
X0115100Y0187600D01*
X0115100Y0193600D02*
X0121100Y0193600D01*
X0121100Y0187600D02*
X0121300Y0187400D01*
X0121300Y0184300D01*
X0121900Y0183700D01*
X0125500Y0183700D01*
X0132700Y0176500D01*
X0133900Y0176500D01*
X0134947Y0175453D01*
X0134947Y0172032D01*
X0134947Y0165853D01*
X0135700Y0165100D01*
X0132979Y0162421D02*
X0133900Y0161500D01*
X0132979Y0162421D02*
X0132979Y0172032D01*
X0131010Y0172032D02*
X0131010Y0158990D01*
X0131500Y0158500D01*
X0129100Y0156100D02*
X0129042Y0156158D01*
X0129042Y0172032D01*
X0127073Y0172032D02*
X0127073Y0173500D01*
X0121300Y0169900D02*
X0121300Y0166259D01*
X0121168Y0166127D01*
X0121168Y0164158D02*
X0115042Y0164158D01*
X0114100Y0165100D01*
X0114100Y0167300D01*
X0110700Y0170700D01*
X0110700Y0164900D02*
X0113410Y0162190D01*
X0121168Y0162190D01*
X0121168Y0160221D02*
X0111921Y0160221D01*
X0110700Y0159000D01*
X0114100Y0157900D02*
X0114100Y0156500D01*
X0110700Y0153100D01*
X0114100Y0154300D02*
X0114100Y0150600D01*
X0110700Y0147200D01*
X0115300Y0145900D02*
X0110700Y0141300D01*
X0116500Y0141200D02*
X0110700Y0135400D01*
X0110700Y0129500D02*
X0117700Y0136500D01*
X0117700Y0150100D01*
X0117979Y0150379D01*
X0121168Y0150379D01*
X0121168Y0152347D02*
X0116947Y0152347D01*
X0116500Y0151900D01*
X0116500Y0141200D01*
X0115300Y0145900D02*
X0115300Y0153700D01*
X0115916Y0154316D01*
X0121168Y0154316D01*
X0121168Y0156284D02*
X0116084Y0156284D01*
X0114100Y0154300D01*
X0114100Y0157900D02*
X0114453Y0158253D01*
X0121168Y0158253D01*
X0136916Y0172032D02*
X0136916Y0178084D01*
X0135300Y0179700D01*
X0135300Y0184300D01*
X0133500Y0186100D01*
X0138700Y0189100D02*
X0138700Y0182300D01*
X0141300Y0179700D01*
X0146700Y0179700D01*
X0150100Y0183100D01*
X0150100Y0187500D01*
X0143500Y0193900D02*
X0143500Y0194100D01*
X0143500Y0193900D02*
X0138700Y0189100D01*
X0141300Y0179700D02*
X0138884Y0177284D01*
X0138884Y0172032D01*
X0140853Y0172032D02*
X0140853Y0165947D01*
X0150516Y0156284D01*
X0150884Y0156284D01*
X0150100Y0155500D01*
X0150100Y0150379D01*
X0147700Y0150379D01*
X0147700Y0150400D01*
X0150100Y0150379D02*
X0150100Y0147100D01*
X0150758Y0146442D01*
X0154632Y0146442D01*
X0154632Y0148410D02*
X0157790Y0148410D01*
X0159100Y0147100D01*
X0159100Y0145900D01*
X0157410Y0148410D02*
X0157900Y0148900D01*
X0157900Y0151300D01*
X0156853Y0152347D01*
X0154632Y0152347D01*
X0154632Y0150379D02*
X0150100Y0150379D01*
X0154632Y0148410D02*
X0157410Y0148410D01*
X0158500Y0153800D02*
X0158500Y0157300D01*
X0157547Y0158253D01*
X0154632Y0158253D01*
X0154632Y0160221D02*
X0150779Y0160221D01*
X0142900Y0168100D01*
X0142900Y0171954D01*
X0142821Y0172032D01*
X0142900Y0172111D01*
X0144790Y0172032D02*
X0144790Y0174790D01*
X0145300Y0175300D01*
X0172300Y0175300D01*
X0173500Y0174100D01*
X0173500Y0133300D01*
X0171700Y0131500D01*
X0164500Y0131500D01*
X0163900Y0130900D01*
X0163900Y0118900D01*
X0163300Y0118300D01*
X0162100Y0118300D01*
X0161300Y0117500D01*
X0161300Y0114700D01*
X0155200Y0114800D02*
X0152500Y0117500D01*
X0152500Y0122500D01*
X0159200Y0122500D01*
X0159700Y0123000D01*
X0152500Y0122500D02*
X0146300Y0122500D01*
X0146300Y0128500D02*
X0146500Y0128700D01*
X0146500Y0131500D01*
X0144790Y0133210D01*
X0144790Y0138568D01*
X0136916Y0138568D02*
X0136916Y0121916D01*
X0136900Y0121900D01*
X0139900Y0118900D01*
X0139900Y0117900D01*
X0143000Y0114800D01*
X0149100Y0114800D01*
X0147100Y0111700D02*
X0149100Y0109700D01*
X0149100Y0108800D01*
X0155200Y0108800D01*
X0155200Y0103000D01*
X0150700Y0098500D01*
X0150700Y0089500D01*
X0149500Y0088300D01*
X0148300Y0088300D01*
X0147100Y0087100D01*
X0143200Y0087100D01*
X0140000Y0083900D01*
X0136900Y0089500D02*
X0146500Y0089500D01*
X0148900Y0091900D01*
X0148900Y0096100D01*
X0147100Y0097900D01*
X0147100Y0101500D01*
X0142900Y0105700D01*
X0142900Y0108700D01*
X0143000Y0108800D01*
X0147100Y0111700D02*
X0133600Y0111700D01*
X0130600Y0108700D01*
X0124900Y0108700D02*
X0121100Y0108700D01*
X0124900Y0108700D02*
X0124900Y0094000D01*
X0125000Y0093900D01*
X0129700Y0090700D02*
X0127900Y0088900D01*
X0126100Y0088900D01*
X0121100Y0083900D01*
X0120000Y0083900D01*
X0114900Y0089000D01*
X0114900Y0108700D01*
X0108700Y0114900D02*
X0108600Y0114800D01*
X0108700Y0114900D02*
X0108700Y0120100D01*
X0121000Y0119200D02*
X0121300Y0118900D01*
X0121000Y0119200D02*
X0121000Y0122900D01*
X0130500Y0123000D02*
X0130500Y0119700D01*
X0129700Y0118900D01*
X0130700Y0114800D02*
X0136700Y0114800D01*
X0136900Y0115000D01*
X0136900Y0119500D01*
X0134947Y0121453D01*
X0134947Y0138568D01*
X0131010Y0138568D02*
X0131010Y0134390D01*
X0131500Y0133900D01*
X0131500Y0130000D01*
X0130500Y0129000D01*
X0126700Y0132100D02*
X0129042Y0134442D01*
X0129042Y0138568D01*
X0127073Y0138568D02*
X0127073Y0134873D01*
X0124900Y0132700D01*
X0124900Y0108700D01*
X0130600Y0114700D02*
X0130700Y0114800D01*
X0136700Y0108800D02*
X0137400Y0108800D01*
X0145000Y0101200D01*
X0145000Y0093900D01*
X0136900Y0089500D02*
X0131300Y0083900D01*
X0130000Y0083900D01*
X0129700Y0090700D02*
X0129700Y0097300D01*
X0126700Y0100300D01*
X0126700Y0132100D01*
X0150884Y0156284D02*
X0154632Y0156284D01*
X0158500Y0153800D02*
X0163000Y0149300D01*
X0162100Y0157100D02*
X0157010Y0162190D01*
X0154632Y0162190D01*
X0154691Y0164100D02*
X0162100Y0164100D01*
X0154691Y0164100D02*
X0154632Y0164158D01*
X0151900Y0171100D02*
X0150968Y0172032D01*
X0148727Y0172032D01*
X0120100Y0176500D02*
X0110700Y0176500D01*
X0090100Y0179500D02*
X0033700Y0179500D01*
X0032078Y0177878D01*
X0032078Y0154421D01*
X0034046Y0154421D02*
X0034046Y0151046D01*
X0033100Y0150100D01*
X0014700Y0150100D01*
X0014300Y0149700D01*
X0012100Y0146500D02*
X0010900Y0145300D01*
X0010900Y0118300D01*
X0011500Y0117700D01*
X0014300Y0117700D01*
X0014300Y0111800D01*
X0015200Y0110900D01*
X0015200Y0103900D02*
X0016254Y0102846D01*
X0025779Y0102846D01*
X0025779Y0100878D02*
X0025779Y0093821D01*
X0026500Y0093100D01*
X0032078Y0094579D02*
X0032078Y0102878D01*
X0033700Y0104500D01*
X0040300Y0104500D01*
X0040900Y0103900D01*
X0058900Y0103900D01*
X0061900Y0100900D01*
X0066700Y0100900D01*
X0067900Y0102100D01*
X0071500Y0102100D01*
X0072700Y0100900D01*
X0077354Y0098954D02*
X0078100Y0099700D01*
X0081100Y0099700D01*
X0082300Y0098500D01*
X0082300Y0094300D01*
X0083300Y0093300D01*
X0089000Y0093300D01*
X0091300Y0091100D02*
X0090900Y0090700D01*
X0080500Y0090700D01*
X0079322Y0091878D01*
X0079322Y0094579D01*
X0077354Y0094579D02*
X0077354Y0098954D01*
X0075385Y0094579D02*
X0075385Y0090415D01*
X0076900Y0088900D01*
X0093100Y0088900D01*
X0094700Y0090500D01*
X0094700Y0094600D01*
X0091000Y0098200D02*
X0090700Y0098500D01*
X0090700Y0099700D01*
X0089522Y0100878D01*
X0085621Y0100878D01*
X0091000Y0098200D02*
X0098900Y0098200D01*
X0099700Y0097400D01*
X0099700Y0091300D01*
X0096700Y0088300D01*
X0073417Y0089017D02*
X0073417Y0094579D01*
X0073417Y0089017D02*
X0072100Y0087700D01*
X0070300Y0087700D01*
X0065500Y0082900D01*
X0060700Y0082900D01*
X0060100Y0086500D02*
X0065500Y0086500D01*
X0067511Y0088511D01*
X0067511Y0094579D01*
X0065543Y0094579D02*
X0065543Y0090143D01*
X0064300Y0088900D01*
X0055300Y0088900D01*
X0052900Y0086500D01*
X0028300Y0086500D01*
X0026100Y0084300D01*
X0026100Y0080500D01*
X0030700Y0081100D02*
X0032500Y0082900D01*
X0056500Y0082900D01*
X0060100Y0086500D01*
X0057100Y0101500D02*
X0055900Y0102700D01*
X0052900Y0102700D01*
X0051700Y0101500D01*
X0041500Y0101500D01*
X0040300Y0102700D01*
X0035500Y0102700D01*
X0034046Y0101246D01*
X0034046Y0094579D01*
X0036015Y0094579D02*
X0036015Y0099615D01*
X0036700Y0100300D01*
X0037900Y0094579D02*
X0037983Y0094579D01*
X0037900Y0094579D02*
X0037900Y0088900D01*
X0030700Y0081100D02*
X0030700Y0071500D01*
X0029700Y0070500D01*
X0026100Y0070500D01*
X0058400Y0058700D02*
X0065500Y0058700D01*
X0065600Y0058800D01*
X0017500Y0123700D02*
X0014300Y0123700D01*
X0017500Y0123700D02*
X0018100Y0124300D01*
X0018100Y0125500D01*
X0019069Y0126469D01*
X0025779Y0126469D01*
X0020500Y0130300D02*
X0015400Y0130300D01*
X0015400Y0137300D02*
X0014300Y0138400D01*
X0014300Y0143700D01*
X0012100Y0146500D02*
X0016900Y0146500D01*
X0017246Y0146154D01*
X0025779Y0146154D01*
X0025779Y0148122D02*
X0079478Y0148122D01*
X0079900Y0147700D01*
X0079600Y0144500D02*
X0079600Y0143400D01*
X0078417Y0142217D01*
X0025779Y0142217D01*
X0025779Y0144185D02*
X0021185Y0144185D01*
X0020500Y0143500D01*
X0025779Y0140248D02*
X0079648Y0140248D01*
X0079900Y0140500D01*
X0078520Y0138280D02*
X0079300Y0137500D01*
X0078520Y0138280D02*
X0025779Y0138280D01*
X0025779Y0136311D02*
X0076889Y0136311D01*
X0079300Y0133900D01*
X0085621Y0136311D02*
X0095289Y0136311D01*
X0095300Y0136300D01*
X0080500Y0150100D02*
X0081700Y0151300D01*
X0080500Y0150100D02*
X0054700Y0150100D01*
X0053731Y0151069D01*
X0053731Y0154421D01*
X0055700Y0154421D02*
X0055700Y0158100D01*
X0054700Y0159100D01*
X0051100Y0159100D01*
X0050500Y0159700D01*
X0050500Y0162100D01*
X0050500Y0166100D01*
X0052300Y0167900D01*
X0049300Y0170900D01*
X0045700Y0170900D01*
X0037983Y0163817D02*
X0037300Y0164500D01*
X0037983Y0163817D02*
X0037983Y0154421D01*
X0039952Y0154421D01*
X0039952Y0151048D01*
X0040900Y0150100D01*
X0043300Y0150100D01*
X0043889Y0150689D01*
X0043889Y0154421D01*
X0056500Y0159700D02*
X0056500Y0162100D01*
X0056500Y0174700D01*
X0056500Y0159700D02*
X0057669Y0158531D01*
X0057669Y0154421D01*
D29*
X0041920Y0154421D02*
X0041920Y0164680D01*
X0040300Y0166300D01*
X0039700Y0166900D01*
X0039700Y0170900D01*
X0075100Y0170900D02*
X0075100Y0175900D01*
X0085900Y0175900D01*
X0087100Y0174700D01*
X0087100Y0171000D01*
X0091300Y0182500D02*
X0095444Y0182500D01*
X0095700Y0182756D01*
X0104700Y0170700D02*
X0104700Y0164900D01*
X0104700Y0159000D01*
X0104700Y0153100D01*
X0104700Y0147200D01*
X0101000Y0147200D01*
X0100900Y0147100D01*
X0095300Y0142300D02*
X0091900Y0145700D01*
X0091900Y0147100D01*
X0090954Y0146154D01*
X0085621Y0146154D01*
X0104700Y0141300D02*
X0104700Y0135400D01*
X0104700Y0129500D01*
X0105100Y0129100D01*
X0106900Y0129100D01*
X0107500Y0128500D01*
X0107500Y0123700D01*
X0108100Y0123100D01*
X0114700Y0123100D01*
X0114700Y0127300D01*
X0116300Y0128900D01*
X0121000Y0128900D01*
X0114700Y0123100D02*
X0114700Y0114900D01*
X0114900Y0114700D01*
X0121100Y0114700D01*
X0108600Y0108800D02*
X0108600Y0083600D01*
X0126700Y0065500D01*
X0126700Y0053500D01*
X0121500Y0048300D01*
X0121500Y0039400D01*
X0148300Y0054100D02*
X0148300Y0067300D01*
X0161300Y0080300D01*
X0161300Y0108700D01*
X0146300Y0122500D02*
X0142821Y0125979D01*
X0142821Y0138568D01*
X0142821Y0125421D01*
X0141100Y0123700D01*
X0148300Y0132700D02*
X0146758Y0134242D01*
X0146758Y0138568D01*
X0146758Y0141442D01*
X0145900Y0142300D01*
X0141700Y0142300D01*
X0140853Y0141453D01*
X0140853Y0138568D01*
X0140853Y0141347D01*
X0139900Y0142300D01*
X0133900Y0142300D01*
X0132979Y0141379D01*
X0132979Y0138568D01*
X0121300Y0141700D02*
X0121300Y0144473D01*
X0121168Y0144473D01*
X0148300Y0132700D02*
X0151300Y0132700D01*
X0152500Y0131500D01*
X0152500Y0128500D01*
X0154900Y0128500D01*
X0156100Y0129700D01*
X0159400Y0129700D01*
X0159700Y0130000D01*
X0159700Y0135100D01*
X0163600Y0135100D01*
X0164200Y0134500D01*
X0167000Y0134500D01*
X0170000Y0149300D02*
X0168100Y0151200D01*
X0168100Y0157100D01*
X0168100Y0169300D01*
X0168100Y0164100D02*
X0168100Y0157100D01*
X0156100Y0177700D02*
X0156300Y0177900D01*
X0156300Y0187500D01*
X0156300Y0193500D02*
X0150100Y0193500D01*
X0160700Y0193500D01*
X0160900Y0193300D01*
X0156100Y0177700D02*
X0145300Y0177700D01*
X0142900Y0175300D01*
X0142900Y0172111D01*
X0133500Y0186100D02*
X0133500Y0187300D01*
X0127200Y0193600D01*
X0127200Y0187600D02*
X0127200Y0185600D01*
X0129700Y0183100D01*
X0069700Y0069100D02*
X0069700Y0066700D01*
X0069100Y0066100D01*
X0065900Y0066100D01*
X0065600Y0065800D01*
X0148300Y0054100D02*
X0153500Y0048900D01*
X0153500Y0039400D01*
D30*
X0096700Y0088300D03*
X0091300Y0091100D03*
X0089000Y0093300D03*
X0088900Y0096700D03*
X0072700Y0100900D03*
X0069700Y0099700D03*
X0057100Y0101500D03*
X0054200Y0100200D03*
X0055200Y0085500D03*
X0060700Y0082900D03*
X0071800Y0085500D03*
X0069700Y0069100D03*
X0037900Y0088900D03*
X0026500Y0093100D03*
X0022300Y0098500D03*
X0011500Y0099700D03*
X0019300Y0121300D03*
X0020500Y0130300D03*
X0033600Y0121600D03*
X0041500Y0123700D03*
X0041500Y0118900D03*
X0045100Y0118300D03*
X0048700Y0118900D03*
X0057700Y0118900D03*
X0062500Y0118900D03*
X0065500Y0123700D03*
X0069100Y0115300D03*
X0079300Y0133900D03*
X0079300Y0137500D03*
X0079900Y0140500D03*
X0079600Y0144500D03*
X0079900Y0147700D03*
X0087100Y0158500D03*
X0076300Y0161500D03*
X0075100Y0175900D03*
X0091300Y0182500D03*
X0106300Y0192700D03*
X0120100Y0176500D03*
X0121300Y0169900D03*
X0133900Y0161500D03*
X0135700Y0165100D03*
X0131500Y0158500D03*
X0129100Y0156100D03*
X0121300Y0141700D03*
X0131500Y0133900D03*
X0141100Y0123700D03*
X0129700Y0118900D03*
X0121300Y0118900D03*
X0114700Y0123100D03*
X0108700Y0120100D03*
X0100900Y0147100D03*
X0091900Y0147100D03*
X0129700Y0183100D03*
X0151900Y0171100D03*
X0156100Y0177700D03*
X0168100Y0169300D03*
X0159100Y0145900D03*
X0159700Y0135100D03*
X0147700Y0150400D03*
X0160900Y0193300D03*
X0040300Y0166300D03*
X0037300Y0164500D03*
X0020500Y0143500D03*
X0036700Y0100300D03*
D31*
X0046000Y0074974D02*
X0056626Y0074974D01*
X0058300Y0073300D01*
X0058300Y0064800D01*
X0058400Y0064700D01*
X0058400Y0072700D01*
X0070900Y0072700D01*
X0073100Y0070500D01*
X0073100Y0066300D01*
X0073400Y0066000D01*
X0073400Y0059300D01*
X0073400Y0055400D01*
X0072100Y0054100D01*
X0066700Y0054100D01*
X0065100Y0052500D01*
X0065100Y0046200D01*
X0055900Y0048243D02*
X0053817Y0048243D01*
X0055900Y0048243D02*
X0055900Y0048700D01*
X0042399Y0048700D01*
X0042399Y0049400D01*
X0033100Y0056500D02*
X0035826Y0059226D01*
X0033100Y0056500D02*
X0030700Y0056500D01*
X0029801Y0055601D01*
X0029801Y0049400D01*
X0074100Y0021200D02*
X0074400Y0021500D01*
X0091600Y0021500D02*
X0091600Y0029500D01*
X0091200Y0029900D01*
X0092300Y0029900D01*
X0092300Y0037100D01*
X0091900Y0037100D01*
X0091900Y0043500D01*
X0091300Y0043500D01*
X0091300Y0049500D01*
X0091100Y0049500D01*
X0091100Y0055900D01*
X0089800Y0055900D01*
X0089800Y0063100D01*
X0086500Y0063100D01*
X0084500Y0065100D01*
X0084500Y0072500D01*
X0090900Y0072500D02*
X0093900Y0072500D01*
X0094900Y0071500D01*
X0094900Y0069100D01*
X0094900Y0075700D01*
X0095900Y0076700D01*
X0097300Y0076700D01*
X0096700Y0076100D01*
X0094900Y0069100D02*
X0094900Y0065000D01*
X0096800Y0063100D01*
X0096800Y0056200D01*
X0097100Y0055900D01*
X0097100Y0049700D01*
X0097300Y0049500D01*
X0097300Y0044100D01*
X0097900Y0043500D01*
X0097900Y0037500D01*
X0098300Y0037100D01*
X0098300Y0030000D01*
X0098200Y0029900D01*
X0098200Y0021900D01*
X0098600Y0021500D01*
X0083100Y0046200D02*
X0083100Y0053100D01*
X0084100Y0054100D01*
X0084100Y0055600D01*
X0080400Y0059300D01*
X0080400Y0065000D01*
X0079100Y0066300D01*
D32*
X0084100Y0054100D03*
X0094900Y0069100D03*
X0036700Y0026500D03*
X0166900Y0123700D03*
D33*
X0168800Y0119000D02*
X0168800Y0115200D01*
X0168500Y0114900D01*
X0168500Y0108900D02*
X0168500Y0097100D01*
X0167500Y0096100D01*
X0103900Y0096100D02*
X0102500Y0097500D01*
X0102500Y0108800D01*
X0102500Y0114800D02*
X0102500Y0119300D01*
X0102700Y0119500D01*
X0104500Y0124300D02*
X0100100Y0124300D01*
X0099800Y0124000D01*
X0093800Y0124000D02*
X0093800Y0124200D01*
X0093700Y0124300D01*
X0093700Y0119500D01*
X0092900Y0082700D02*
X0090900Y0080700D01*
X0090900Y0078500D01*
X0084500Y0078500D01*
X0084500Y0082700D01*
X0084700Y0082900D01*
X0092900Y0082700D02*
X0097300Y0082700D01*
D34*
X0084700Y0082900D03*
X0103900Y0096100D03*
X0102700Y0119500D03*
X0104500Y0124300D03*
X0093700Y0119500D03*
X0168800Y0119000D03*
X0167500Y0096100D03*
D35*
X0094300Y0106900D03*
X0091900Y0114100D03*
X0072700Y0114700D03*
X0033700Y0111700D03*
X0019000Y0107400D03*
D36*
X0018383Y0026589D02*
X0018383Y0026500D01*
X0036700Y0026500D01*
X0036700Y0026589D01*
X0053817Y0026589D01*
X0053817Y0048700D01*
X0055900Y0048700D01*
X0046000Y0059226D02*
X0035826Y0059226D01*
X0018383Y0048243D02*
X0018383Y0026589D01*
X0074100Y0021200D02*
X0074100Y0046200D01*
X0074400Y0021500D02*
X0091600Y0021500D01*
X0084500Y0072500D02*
X0080100Y0072500D01*
X0076900Y0075700D01*
X0166900Y0123700D02*
X0167000Y0123800D01*
X0167000Y0128500D01*
D37*
X0076900Y0075700D03*
D38*
X0104700Y0176500D02*
X0104700Y0191100D01*
X0106300Y0192700D01*
X0114200Y0192700D01*
X0115100Y0193600D01*
M02*
