G75*
%MOIN*%
%OFA0B0*%
%FSLAX25Y25*%
%IPPOS*%
%LPD*%
%AMOC8*
5,1,8,0,0,1.08239X$1,22.5*
%
%ADD10C,0.05500*%
%ADD11C,0.05200*%
%ADD12C,0.09750*%
%ADD13C,0.02400*%
%ADD14C,0.03600*%
%ADD15C,0.03200*%
%ADD16C,0.02600*%
%ADD17C,0.04600*%
%ADD18C,0.00600*%
D10*
X0016100Y0060500D03*
X0016100Y0070500D03*
X0016100Y0080500D03*
X0026100Y0080500D03*
X0026100Y0070500D03*
X0026100Y0060500D03*
X0022900Y0159900D03*
X0022900Y0169900D03*
X0022900Y0179900D03*
D11*
X0120000Y0083900D03*
X0130000Y0083900D03*
X0140000Y0083900D03*
X0150000Y0083900D03*
X0145000Y0093900D03*
X0135000Y0093900D03*
X0125000Y0093900D03*
X0155000Y0093900D03*
X0153500Y0039400D03*
X0163500Y0039400D03*
X0121500Y0039400D03*
X0111500Y0039400D03*
D12*
X0106000Y0070400D03*
X0169000Y0070400D03*
D13*
X0129700Y0118900D03*
X0121300Y0118900D03*
X0114700Y0123100D03*
X0108700Y0120100D03*
X0121300Y0141700D03*
X0131500Y0133900D03*
X0141100Y0123700D03*
X0159700Y0135100D03*
X0159100Y0145900D03*
X0147700Y0150400D03*
X0133900Y0161500D03*
X0135700Y0165100D03*
X0131500Y0158500D03*
X0129100Y0156100D03*
X0121300Y0169900D03*
X0120100Y0176500D03*
X0129700Y0183100D03*
X0151900Y0171100D03*
X0156100Y0177700D03*
X0168100Y0169300D03*
X0160900Y0193300D03*
X0106300Y0192700D03*
X0091300Y0182500D03*
X0075100Y0175900D03*
X0076300Y0161500D03*
X0087100Y0158500D03*
X0091900Y0147100D03*
X0100900Y0147100D03*
X0079900Y0147700D03*
X0079600Y0144500D03*
X0079900Y0140500D03*
X0079300Y0137500D03*
X0079300Y0133900D03*
X0065500Y0123700D03*
X0062500Y0118900D03*
X0057700Y0118900D03*
X0048700Y0118900D03*
X0045100Y0118300D03*
X0041500Y0118900D03*
X0041500Y0123700D03*
X0033600Y0121600D03*
X0019300Y0121300D03*
X0020500Y0130300D03*
X0020500Y0143500D03*
X0037300Y0164500D03*
X0040300Y0166300D03*
X0069100Y0115300D03*
X0072700Y0100900D03*
X0069700Y0099700D03*
X0057100Y0101500D03*
X0054200Y0100200D03*
X0055200Y0085500D03*
X0060700Y0082900D03*
X0071800Y0085500D03*
X0069700Y0069100D03*
X0091300Y0091100D03*
X0089000Y0093300D03*
X0088900Y0096700D03*
X0096700Y0088300D03*
X0037900Y0088900D03*
X0026500Y0093100D03*
X0022300Y0098500D03*
X0011500Y0099700D03*
X0036700Y0100300D03*
D14*
X0036700Y0026500D03*
X0084100Y0054100D03*
X0094900Y0069100D03*
X0166900Y0123700D03*
D15*
X0168800Y0119000D03*
X0167500Y0096100D03*
X0103900Y0096100D03*
X0084700Y0082900D03*
X0093700Y0119500D03*
X0102700Y0119500D03*
X0104500Y0124300D03*
D16*
X0091900Y0114100D03*
X0094300Y0106900D03*
X0072700Y0114700D03*
X0033700Y0111700D03*
X0019000Y0107400D03*
D17*
X0076900Y0075700D03*
D18*
X0079185Y0077941D02*
X0096700Y0077941D01*
X0096700Y0078539D02*
X0078407Y0078539D01*
X0078713Y0078413D02*
X0077537Y0078900D01*
X0076263Y0078900D01*
X0075087Y0078413D01*
X0074187Y0077513D01*
X0073700Y0076337D01*
X0073700Y0075063D01*
X0074187Y0073887D01*
X0075087Y0072987D01*
X0076263Y0072500D01*
X0077537Y0072500D01*
X0078713Y0072987D01*
X0079613Y0073887D01*
X0080100Y0075063D01*
X0080100Y0076337D01*
X0079613Y0077513D01*
X0078713Y0078413D01*
X0079683Y0077342D02*
X0096700Y0077342D01*
X0096700Y0076744D02*
X0079931Y0076744D01*
X0080100Y0076145D02*
X0096700Y0076145D01*
X0096700Y0075547D02*
X0080100Y0075547D01*
X0080052Y0074948D02*
X0096700Y0074948D01*
X0096700Y0074350D02*
X0079804Y0074350D01*
X0079477Y0073751D02*
X0096700Y0073751D01*
X0096700Y0073153D02*
X0078878Y0073153D01*
X0077667Y0072554D02*
X0096700Y0072554D01*
X0096700Y0071956D02*
X0029448Y0071956D01*
X0029637Y0071500D02*
X0029194Y0072568D01*
X0028168Y0073594D01*
X0026826Y0074150D01*
X0025374Y0074150D01*
X0024032Y0073594D01*
X0023006Y0072568D01*
X0022563Y0071500D01*
X0019637Y0071500D01*
X0019194Y0072568D01*
X0018168Y0073594D01*
X0016826Y0074150D01*
X0015374Y0074150D01*
X0014032Y0073594D01*
X0013006Y0072568D01*
X0012563Y0071500D01*
X0010200Y0071500D01*
X0010200Y0098030D01*
X0010630Y0097600D01*
X0012370Y0097600D01*
X0013600Y0098830D01*
X0013600Y0100570D01*
X0012370Y0101800D01*
X0010630Y0101800D01*
X0010200Y0101370D01*
X0010200Y0175300D01*
X0073000Y0175300D01*
X0073000Y0175030D01*
X0074230Y0173800D01*
X0075970Y0173800D01*
X0077200Y0175030D01*
X0077200Y0175300D01*
X0096700Y0175300D01*
X0096700Y0154300D01*
X0025300Y0154300D01*
X0025300Y0106300D01*
X0092100Y0106300D01*
X0092100Y0105989D01*
X0093389Y0104700D01*
X0095211Y0104700D01*
X0096500Y0105989D01*
X0096500Y0106300D01*
X0096700Y0106300D01*
X0096700Y0090400D01*
X0095830Y0090400D01*
X0094600Y0089170D01*
X0094600Y0087430D01*
X0095830Y0086200D01*
X0096700Y0086200D01*
X0096700Y0071500D01*
X0096161Y0071500D01*
X0095437Y0071800D01*
X0094363Y0071800D01*
X0093639Y0071500D01*
X0029637Y0071500D01*
X0029200Y0072554D02*
X0076133Y0072554D01*
X0074922Y0073153D02*
X0028609Y0073153D01*
X0027789Y0073751D02*
X0074323Y0073751D01*
X0073996Y0074350D02*
X0010200Y0074350D01*
X0010200Y0074948D02*
X0073748Y0074948D01*
X0073700Y0075547D02*
X0010200Y0075547D01*
X0010200Y0076145D02*
X0073700Y0076145D01*
X0073869Y0076744D02*
X0010200Y0076744D01*
X0010200Y0077342D02*
X0014186Y0077342D01*
X0014032Y0077406D02*
X0015374Y0076850D01*
X0016826Y0076850D01*
X0018168Y0077406D01*
X0019194Y0078432D01*
X0019750Y0079774D01*
X0019750Y0081226D01*
X0019194Y0082568D01*
X0018168Y0083594D01*
X0016826Y0084150D01*
X0015374Y0084150D01*
X0014032Y0083594D01*
X0013006Y0082568D01*
X0012450Y0081226D01*
X0012450Y0079774D01*
X0013006Y0078432D01*
X0014032Y0077406D01*
X0013497Y0077941D02*
X0010200Y0077941D01*
X0010200Y0078539D02*
X0012961Y0078539D01*
X0012714Y0079138D02*
X0010200Y0079138D01*
X0010200Y0079736D02*
X0012466Y0079736D01*
X0012450Y0080335D02*
X0010200Y0080335D01*
X0010200Y0080933D02*
X0012450Y0080933D01*
X0012577Y0081532D02*
X0010200Y0081532D01*
X0010200Y0082130D02*
X0012825Y0082130D01*
X0013167Y0082729D02*
X0010200Y0082729D01*
X0010200Y0083327D02*
X0013765Y0083327D01*
X0014833Y0083926D02*
X0010200Y0083926D01*
X0010200Y0084524D02*
X0053206Y0084524D01*
X0053100Y0084630D02*
X0054330Y0083400D01*
X0056070Y0083400D01*
X0057300Y0084630D01*
X0057300Y0086370D01*
X0056070Y0087600D01*
X0054330Y0087600D01*
X0053100Y0086370D01*
X0053100Y0084630D01*
X0053100Y0085123D02*
X0010200Y0085123D01*
X0010200Y0085721D02*
X0053100Y0085721D01*
X0053100Y0086320D02*
X0010200Y0086320D01*
X0010200Y0086918D02*
X0036912Y0086918D01*
X0037030Y0086800D02*
X0038770Y0086800D01*
X0040000Y0088030D01*
X0040000Y0089770D01*
X0038770Y0091000D01*
X0037030Y0091000D01*
X0035800Y0089770D01*
X0035800Y0088030D01*
X0037030Y0086800D01*
X0036313Y0087517D02*
X0010200Y0087517D01*
X0010200Y0088115D02*
X0035800Y0088115D01*
X0035800Y0088714D02*
X0010200Y0088714D01*
X0010200Y0089312D02*
X0035800Y0089312D01*
X0035941Y0089911D02*
X0010200Y0089911D01*
X0010200Y0090509D02*
X0036540Y0090509D01*
X0039260Y0090509D02*
X0096700Y0090509D01*
X0096700Y0091108D02*
X0010200Y0091108D01*
X0010200Y0091706D02*
X0087624Y0091706D01*
X0088130Y0091200D02*
X0086900Y0092430D01*
X0086900Y0094170D01*
X0088130Y0095400D01*
X0089870Y0095400D01*
X0091100Y0094170D01*
X0091100Y0092430D01*
X0089870Y0091200D01*
X0088130Y0091200D01*
X0087025Y0092305D02*
X0010200Y0092305D01*
X0010200Y0092903D02*
X0086900Y0092903D01*
X0086900Y0093502D02*
X0010200Y0093502D01*
X0010200Y0094101D02*
X0086900Y0094101D01*
X0087429Y0094699D02*
X0010200Y0094699D01*
X0010200Y0095298D02*
X0088028Y0095298D01*
X0089972Y0095298D02*
X0096700Y0095298D01*
X0096700Y0095896D02*
X0010200Y0095896D01*
X0010200Y0096495D02*
X0021336Y0096495D01*
X0021430Y0096400D02*
X0023170Y0096400D01*
X0024400Y0097630D01*
X0024400Y0099370D01*
X0023170Y0100600D01*
X0021430Y0100600D01*
X0020200Y0099370D01*
X0020200Y0097630D01*
X0021430Y0096400D01*
X0020737Y0097093D02*
X0010200Y0097093D01*
X0010200Y0097692D02*
X0010539Y0097692D01*
X0012461Y0097692D02*
X0020200Y0097692D01*
X0020200Y0098290D02*
X0013060Y0098290D01*
X0013600Y0098889D02*
X0020200Y0098889D01*
X0020317Y0099487D02*
X0013600Y0099487D01*
X0013600Y0100086D02*
X0020916Y0100086D01*
X0023684Y0100086D02*
X0034600Y0100086D01*
X0034600Y0100684D02*
X0013486Y0100684D01*
X0012887Y0101283D02*
X0034713Y0101283D01*
X0034600Y0101170D02*
X0034600Y0099430D01*
X0035830Y0098200D01*
X0037570Y0098200D01*
X0038800Y0099430D01*
X0038800Y0101170D01*
X0037570Y0102400D01*
X0035830Y0102400D01*
X0034600Y0101170D01*
X0035311Y0101881D02*
X0010200Y0101881D01*
X0010200Y0102480D02*
X0055110Y0102480D01*
X0055000Y0102370D02*
X0055000Y0100630D01*
X0056230Y0099400D01*
X0057970Y0099400D01*
X0059200Y0100630D01*
X0059200Y0102370D01*
X0057970Y0103600D01*
X0056230Y0103600D01*
X0055000Y0102370D01*
X0055000Y0101881D02*
X0038089Y0101881D01*
X0038687Y0101283D02*
X0055000Y0101283D01*
X0055000Y0100684D02*
X0038800Y0100684D01*
X0038800Y0100086D02*
X0055545Y0100086D01*
X0056143Y0099487D02*
X0038800Y0099487D01*
X0038258Y0098889D02*
X0071742Y0098889D01*
X0071830Y0098800D02*
X0073570Y0098800D01*
X0074800Y0100030D01*
X0074800Y0101770D01*
X0073570Y0103000D01*
X0071830Y0103000D01*
X0070600Y0101770D01*
X0070600Y0100030D01*
X0071830Y0098800D01*
X0071143Y0099487D02*
X0058057Y0099487D01*
X0058655Y0100086D02*
X0070600Y0100086D01*
X0070600Y0100684D02*
X0059200Y0100684D01*
X0059200Y0101283D02*
X0070600Y0101283D01*
X0070711Y0101881D02*
X0059200Y0101881D01*
X0059090Y0102480D02*
X0071310Y0102480D01*
X0074090Y0102480D02*
X0096700Y0102480D01*
X0096700Y0103078D02*
X0058492Y0103078D01*
X0055708Y0103078D02*
X0010200Y0103078D01*
X0010200Y0103677D02*
X0096700Y0103677D01*
X0096700Y0104275D02*
X0010200Y0104275D01*
X0010200Y0104874D02*
X0093215Y0104874D01*
X0092616Y0105472D02*
X0010200Y0105472D01*
X0010200Y0106071D02*
X0092100Y0106071D01*
X0095385Y0104874D02*
X0096700Y0104874D01*
X0096700Y0105472D02*
X0095984Y0105472D01*
X0096500Y0106071D02*
X0096700Y0106071D01*
X0096700Y0101881D02*
X0074689Y0101881D01*
X0074800Y0101283D02*
X0096700Y0101283D01*
X0096700Y0100684D02*
X0074800Y0100684D01*
X0074800Y0100086D02*
X0096700Y0100086D01*
X0096700Y0099487D02*
X0074257Y0099487D01*
X0073658Y0098889D02*
X0096700Y0098889D01*
X0096700Y0098290D02*
X0037660Y0098290D01*
X0035740Y0098290D02*
X0024400Y0098290D01*
X0024400Y0097692D02*
X0096700Y0097692D01*
X0096700Y0097093D02*
X0023863Y0097093D01*
X0023264Y0096495D02*
X0096700Y0096495D01*
X0096700Y0094699D02*
X0090571Y0094699D01*
X0091100Y0094101D02*
X0096700Y0094101D01*
X0096700Y0093502D02*
X0091100Y0093502D01*
X0091100Y0092903D02*
X0096700Y0092903D01*
X0096700Y0092305D02*
X0090975Y0092305D01*
X0090376Y0091706D02*
X0096700Y0091706D01*
X0095341Y0089911D02*
X0039859Y0089911D01*
X0040000Y0089312D02*
X0094743Y0089312D01*
X0094600Y0088714D02*
X0040000Y0088714D01*
X0040000Y0088115D02*
X0094600Y0088115D01*
X0094600Y0087517D02*
X0072753Y0087517D01*
X0072670Y0087600D02*
X0070930Y0087600D01*
X0069700Y0086370D01*
X0069700Y0084630D01*
X0070930Y0083400D01*
X0072670Y0083400D01*
X0073900Y0084630D01*
X0073900Y0086370D01*
X0072670Y0087600D01*
X0073351Y0086918D02*
X0095112Y0086918D01*
X0095710Y0086320D02*
X0073900Y0086320D01*
X0073900Y0085721D02*
X0096700Y0085721D01*
X0096700Y0085123D02*
X0073900Y0085123D01*
X0073794Y0084524D02*
X0096700Y0084524D01*
X0096700Y0083926D02*
X0073196Y0083926D01*
X0070404Y0083926D02*
X0062644Y0083926D01*
X0062800Y0083770D02*
X0061570Y0085000D01*
X0059830Y0085000D01*
X0058600Y0083770D01*
X0058600Y0082030D01*
X0059830Y0080800D01*
X0061570Y0080800D01*
X0062800Y0082030D01*
X0062800Y0083770D01*
X0062800Y0083327D02*
X0096700Y0083327D01*
X0096700Y0082729D02*
X0062800Y0082729D01*
X0062800Y0082130D02*
X0096700Y0082130D01*
X0096700Y0081532D02*
X0062302Y0081532D01*
X0061703Y0080933D02*
X0096700Y0080933D01*
X0096700Y0080335D02*
X0029750Y0080335D01*
X0029750Y0079774D02*
X0029194Y0078432D01*
X0028168Y0077406D01*
X0026826Y0076850D01*
X0025374Y0076850D01*
X0024032Y0077406D01*
X0023006Y0078432D01*
X0022450Y0079774D01*
X0022450Y0081226D01*
X0023006Y0082568D01*
X0024032Y0083594D01*
X0025374Y0084150D01*
X0026826Y0084150D01*
X0028168Y0083594D01*
X0029194Y0082568D01*
X0029750Y0081226D01*
X0029750Y0079774D01*
X0029734Y0079736D02*
X0096700Y0079736D01*
X0096700Y0079138D02*
X0029486Y0079138D01*
X0029239Y0078539D02*
X0075393Y0078539D01*
X0074615Y0077941D02*
X0028703Y0077941D01*
X0028014Y0077342D02*
X0074117Y0077342D01*
X0069806Y0084524D02*
X0062045Y0084524D01*
X0059354Y0084524D02*
X0057194Y0084524D01*
X0057300Y0085123D02*
X0069700Y0085123D01*
X0069700Y0085721D02*
X0057300Y0085721D01*
X0057300Y0086320D02*
X0069700Y0086320D01*
X0070249Y0086918D02*
X0056751Y0086918D01*
X0056153Y0087517D02*
X0070847Y0087517D01*
X0059697Y0080933D02*
X0029750Y0080933D01*
X0029623Y0081532D02*
X0059098Y0081532D01*
X0058600Y0082130D02*
X0029375Y0082130D01*
X0029033Y0082729D02*
X0058600Y0082729D01*
X0058600Y0083327D02*
X0028435Y0083327D01*
X0027367Y0083926D02*
X0053804Y0083926D01*
X0056596Y0083926D02*
X0058756Y0083926D01*
X0054247Y0087517D02*
X0039487Y0087517D01*
X0038888Y0086918D02*
X0053649Y0086918D01*
X0035142Y0098889D02*
X0024400Y0098889D01*
X0024283Y0099487D02*
X0034600Y0099487D01*
X0028900Y0109300D02*
X0028900Y0151300D01*
X0076900Y0151300D01*
X0076900Y0109300D01*
X0028900Y0109300D01*
X0028900Y0109662D02*
X0076900Y0109662D01*
X0076900Y0110260D02*
X0028900Y0110260D01*
X0028900Y0110859D02*
X0076900Y0110859D01*
X0076900Y0111457D02*
X0028900Y0111457D01*
X0028900Y0112056D02*
X0076900Y0112056D01*
X0076900Y0112654D02*
X0073766Y0112654D01*
X0073611Y0112500D02*
X0074900Y0113789D01*
X0074900Y0115611D01*
X0073611Y0116900D01*
X0071789Y0116900D01*
X0070500Y0115611D01*
X0070500Y0113789D01*
X0071789Y0112500D01*
X0073611Y0112500D01*
X0074364Y0113253D02*
X0076900Y0113253D01*
X0076900Y0113851D02*
X0074900Y0113851D01*
X0074900Y0114450D02*
X0076900Y0114450D01*
X0076900Y0115048D02*
X0074900Y0115048D01*
X0074864Y0115647D02*
X0076900Y0115647D01*
X0076900Y0116245D02*
X0074266Y0116245D01*
X0073667Y0116844D02*
X0076900Y0116844D01*
X0076900Y0117442D02*
X0064012Y0117442D01*
X0064600Y0118030D02*
X0063370Y0116800D01*
X0061630Y0116800D01*
X0060400Y0118030D01*
X0060400Y0119770D01*
X0061630Y0121000D01*
X0063370Y0121000D01*
X0064600Y0119770D01*
X0064600Y0118030D01*
X0064600Y0118041D02*
X0076900Y0118041D01*
X0076900Y0118639D02*
X0064600Y0118639D01*
X0064600Y0119238D02*
X0076900Y0119238D01*
X0076900Y0119837D02*
X0064533Y0119837D01*
X0063935Y0120435D02*
X0076900Y0120435D01*
X0076900Y0121034D02*
X0028900Y0121034D01*
X0028900Y0121632D02*
X0040598Y0121632D01*
X0040630Y0121600D02*
X0042370Y0121600D01*
X0043600Y0122830D01*
X0043600Y0124570D01*
X0042370Y0125800D01*
X0040630Y0125800D01*
X0039400Y0124570D01*
X0039400Y0122830D01*
X0040630Y0121600D01*
X0040630Y0121000D02*
X0039400Y0119770D01*
X0039400Y0118030D01*
X0040630Y0116800D01*
X0042370Y0116800D01*
X0043600Y0118030D01*
X0043600Y0119770D01*
X0042370Y0121000D01*
X0040630Y0121000D01*
X0040065Y0120435D02*
X0028900Y0120435D01*
X0028900Y0119837D02*
X0039467Y0119837D01*
X0039400Y0119238D02*
X0028900Y0119238D01*
X0028900Y0118639D02*
X0039400Y0118639D01*
X0039400Y0118041D02*
X0028900Y0118041D01*
X0028900Y0117442D02*
X0039988Y0117442D01*
X0040586Y0116844D02*
X0028900Y0116844D01*
X0028900Y0116245D02*
X0071134Y0116245D01*
X0070536Y0115647D02*
X0028900Y0115647D01*
X0028900Y0115048D02*
X0070500Y0115048D01*
X0070500Y0114450D02*
X0028900Y0114450D01*
X0028900Y0113851D02*
X0070500Y0113851D01*
X0071036Y0113253D02*
X0028900Y0113253D01*
X0028900Y0112654D02*
X0071634Y0112654D01*
X0071733Y0116844D02*
X0063414Y0116844D01*
X0061586Y0116844D02*
X0058614Y0116844D01*
X0058570Y0116800D02*
X0059800Y0118030D01*
X0059800Y0119770D01*
X0058570Y0121000D01*
X0056830Y0121000D01*
X0055600Y0119770D01*
X0055600Y0118030D01*
X0056830Y0116800D01*
X0058570Y0116800D01*
X0059212Y0117442D02*
X0060988Y0117442D01*
X0060400Y0118041D02*
X0059800Y0118041D01*
X0059800Y0118639D02*
X0060400Y0118639D01*
X0060400Y0119238D02*
X0059800Y0119238D01*
X0059733Y0119837D02*
X0060467Y0119837D01*
X0061065Y0120435D02*
X0059135Y0120435D01*
X0056265Y0120435D02*
X0050135Y0120435D01*
X0049570Y0121000D02*
X0047830Y0121000D01*
X0046600Y0119770D01*
X0046600Y0118030D01*
X0047830Y0116800D01*
X0049570Y0116800D01*
X0050800Y0118030D01*
X0050800Y0119770D01*
X0049570Y0121000D01*
X0050733Y0119837D02*
X0055667Y0119837D01*
X0055600Y0119238D02*
X0050800Y0119238D01*
X0050800Y0118639D02*
X0055600Y0118639D01*
X0055600Y0118041D02*
X0050800Y0118041D01*
X0050212Y0117442D02*
X0056188Y0117442D01*
X0056786Y0116844D02*
X0049614Y0116844D01*
X0047786Y0116844D02*
X0042414Y0116844D01*
X0043012Y0117442D02*
X0047188Y0117442D01*
X0046600Y0118041D02*
X0043600Y0118041D01*
X0043600Y0118639D02*
X0046600Y0118639D01*
X0046600Y0119238D02*
X0043600Y0119238D01*
X0043533Y0119837D02*
X0046667Y0119837D01*
X0047265Y0120435D02*
X0042935Y0120435D01*
X0042402Y0121632D02*
X0064598Y0121632D01*
X0064630Y0121600D02*
X0066370Y0121600D01*
X0067600Y0122830D01*
X0067600Y0124570D01*
X0066370Y0125800D01*
X0064630Y0125800D01*
X0063400Y0124570D01*
X0063400Y0122830D01*
X0064630Y0121600D01*
X0064000Y0122231D02*
X0043000Y0122231D01*
X0043599Y0122829D02*
X0063401Y0122829D01*
X0063400Y0123428D02*
X0043600Y0123428D01*
X0043600Y0124026D02*
X0063400Y0124026D01*
X0063455Y0124625D02*
X0043545Y0124625D01*
X0042947Y0125223D02*
X0064053Y0125223D01*
X0066947Y0125223D02*
X0076900Y0125223D01*
X0076900Y0124625D02*
X0067545Y0124625D01*
X0067600Y0124026D02*
X0076900Y0124026D01*
X0076900Y0123428D02*
X0067600Y0123428D01*
X0067599Y0122829D02*
X0076900Y0122829D01*
X0076900Y0122231D02*
X0067000Y0122231D01*
X0066402Y0121632D02*
X0076900Y0121632D01*
X0076900Y0125822D02*
X0028900Y0125822D01*
X0028900Y0126420D02*
X0076900Y0126420D01*
X0076900Y0127019D02*
X0028900Y0127019D01*
X0028900Y0127617D02*
X0076900Y0127617D01*
X0076900Y0128216D02*
X0028900Y0128216D01*
X0028900Y0128814D02*
X0076900Y0128814D01*
X0076900Y0129413D02*
X0028900Y0129413D01*
X0028900Y0130011D02*
X0076900Y0130011D01*
X0076900Y0130610D02*
X0028900Y0130610D01*
X0028900Y0131208D02*
X0076900Y0131208D01*
X0076900Y0131807D02*
X0028900Y0131807D01*
X0028900Y0132405D02*
X0076900Y0132405D01*
X0076900Y0133004D02*
X0028900Y0133004D01*
X0028900Y0133602D02*
X0076900Y0133602D01*
X0076900Y0134201D02*
X0028900Y0134201D01*
X0028900Y0134799D02*
X0076900Y0134799D01*
X0076900Y0135398D02*
X0028900Y0135398D01*
X0028900Y0135996D02*
X0076900Y0135996D01*
X0076900Y0136595D02*
X0028900Y0136595D01*
X0028900Y0137193D02*
X0076900Y0137193D01*
X0076900Y0137792D02*
X0028900Y0137792D01*
X0028900Y0138390D02*
X0076900Y0138390D01*
X0076900Y0138989D02*
X0028900Y0138989D01*
X0028900Y0139587D02*
X0076900Y0139587D01*
X0076900Y0140186D02*
X0028900Y0140186D01*
X0028900Y0140784D02*
X0076900Y0140784D01*
X0076900Y0141383D02*
X0028900Y0141383D01*
X0028900Y0141981D02*
X0076900Y0141981D01*
X0076900Y0142580D02*
X0028900Y0142580D01*
X0028900Y0143178D02*
X0076900Y0143178D01*
X0076900Y0143777D02*
X0028900Y0143777D01*
X0028900Y0144375D02*
X0076900Y0144375D01*
X0076900Y0144974D02*
X0028900Y0144974D01*
X0028900Y0145572D02*
X0076900Y0145572D01*
X0076900Y0146171D02*
X0028900Y0146171D01*
X0028900Y0146770D02*
X0076900Y0146770D01*
X0076900Y0147368D02*
X0028900Y0147368D01*
X0028900Y0147967D02*
X0076900Y0147967D01*
X0076900Y0148565D02*
X0028900Y0148565D01*
X0028900Y0149164D02*
X0076900Y0149164D01*
X0076900Y0149762D02*
X0028900Y0149762D01*
X0028900Y0150361D02*
X0076900Y0150361D01*
X0076900Y0150959D02*
X0028900Y0150959D01*
X0025300Y0150959D02*
X0010200Y0150959D01*
X0010200Y0150361D02*
X0025300Y0150361D01*
X0025300Y0149762D02*
X0010200Y0149762D01*
X0010200Y0149164D02*
X0025300Y0149164D01*
X0025300Y0148565D02*
X0010200Y0148565D01*
X0010200Y0147967D02*
X0025300Y0147967D01*
X0025300Y0147368D02*
X0010200Y0147368D01*
X0010200Y0146770D02*
X0025300Y0146770D01*
X0025300Y0146171D02*
X0010200Y0146171D01*
X0010200Y0145572D02*
X0025300Y0145572D01*
X0025300Y0144974D02*
X0010200Y0144974D01*
X0010200Y0144375D02*
X0025300Y0144375D01*
X0025300Y0143777D02*
X0010200Y0143777D01*
X0010200Y0143178D02*
X0025300Y0143178D01*
X0025300Y0142580D02*
X0010200Y0142580D01*
X0010200Y0141981D02*
X0025300Y0141981D01*
X0025300Y0141383D02*
X0010200Y0141383D01*
X0010200Y0140784D02*
X0025300Y0140784D01*
X0025300Y0140186D02*
X0010200Y0140186D01*
X0010200Y0139587D02*
X0025300Y0139587D01*
X0025300Y0138989D02*
X0010200Y0138989D01*
X0010200Y0138390D02*
X0025300Y0138390D01*
X0025300Y0137792D02*
X0010200Y0137792D01*
X0010200Y0137193D02*
X0025300Y0137193D01*
X0025300Y0136595D02*
X0010200Y0136595D01*
X0010200Y0135996D02*
X0025300Y0135996D01*
X0025300Y0135398D02*
X0010200Y0135398D01*
X0010200Y0134799D02*
X0025300Y0134799D01*
X0025300Y0134201D02*
X0010200Y0134201D01*
X0010200Y0133602D02*
X0025300Y0133602D01*
X0025300Y0133004D02*
X0010200Y0133004D01*
X0010200Y0132405D02*
X0025300Y0132405D01*
X0025300Y0131807D02*
X0010200Y0131807D01*
X0010200Y0131208D02*
X0025300Y0131208D01*
X0025300Y0130610D02*
X0010200Y0130610D01*
X0010200Y0130011D02*
X0025300Y0130011D01*
X0025300Y0129413D02*
X0010200Y0129413D01*
X0010200Y0128814D02*
X0025300Y0128814D01*
X0025300Y0128216D02*
X0010200Y0128216D01*
X0010200Y0127617D02*
X0025300Y0127617D01*
X0025300Y0127019D02*
X0010200Y0127019D01*
X0010200Y0126420D02*
X0025300Y0126420D01*
X0025300Y0125822D02*
X0010200Y0125822D01*
X0010200Y0125223D02*
X0025300Y0125223D01*
X0025300Y0124625D02*
X0010200Y0124625D01*
X0010200Y0124026D02*
X0025300Y0124026D01*
X0025300Y0123428D02*
X0010200Y0123428D01*
X0010200Y0122829D02*
X0017859Y0122829D01*
X0018430Y0123400D02*
X0017200Y0122170D01*
X0017200Y0120430D01*
X0018430Y0119200D01*
X0020170Y0119200D01*
X0021400Y0120430D01*
X0021400Y0122170D01*
X0020170Y0123400D01*
X0018430Y0123400D01*
X0017261Y0122231D02*
X0010200Y0122231D01*
X0010200Y0121632D02*
X0017200Y0121632D01*
X0017200Y0121034D02*
X0010200Y0121034D01*
X0010200Y0120435D02*
X0017200Y0120435D01*
X0017794Y0119837D02*
X0010200Y0119837D01*
X0010200Y0119238D02*
X0018392Y0119238D01*
X0020208Y0119238D02*
X0025300Y0119238D01*
X0025300Y0119837D02*
X0020806Y0119837D01*
X0021400Y0120435D02*
X0025300Y0120435D01*
X0025300Y0121034D02*
X0021400Y0121034D01*
X0021400Y0121632D02*
X0025300Y0121632D01*
X0025300Y0122231D02*
X0021339Y0122231D01*
X0020741Y0122829D02*
X0025300Y0122829D01*
X0028900Y0122829D02*
X0039401Y0122829D01*
X0039400Y0123428D02*
X0028900Y0123428D01*
X0028900Y0124026D02*
X0039400Y0124026D01*
X0039455Y0124625D02*
X0028900Y0124625D01*
X0028900Y0125223D02*
X0040053Y0125223D01*
X0040000Y0122231D02*
X0028900Y0122231D01*
X0025300Y0118639D02*
X0010200Y0118639D01*
X0010200Y0118041D02*
X0025300Y0118041D01*
X0025300Y0117442D02*
X0010200Y0117442D01*
X0010200Y0116844D02*
X0025300Y0116844D01*
X0025300Y0116245D02*
X0010200Y0116245D01*
X0010200Y0115647D02*
X0025300Y0115647D01*
X0025300Y0115048D02*
X0010200Y0115048D01*
X0010200Y0114450D02*
X0025300Y0114450D01*
X0025300Y0113851D02*
X0010200Y0113851D01*
X0010200Y0113253D02*
X0025300Y0113253D01*
X0025300Y0112654D02*
X0010200Y0112654D01*
X0010200Y0112056D02*
X0025300Y0112056D01*
X0025300Y0111457D02*
X0010200Y0111457D01*
X0010200Y0110859D02*
X0025300Y0110859D01*
X0025300Y0110260D02*
X0010200Y0110260D01*
X0010200Y0109662D02*
X0025300Y0109662D01*
X0025300Y0109063D02*
X0010200Y0109063D01*
X0010200Y0108465D02*
X0025300Y0108465D01*
X0025300Y0107866D02*
X0010200Y0107866D01*
X0010200Y0107268D02*
X0025300Y0107268D01*
X0025300Y0106669D02*
X0010200Y0106669D01*
X0017367Y0083926D02*
X0024833Y0083926D01*
X0023765Y0083327D02*
X0018435Y0083327D01*
X0019033Y0082729D02*
X0023167Y0082729D01*
X0022825Y0082130D02*
X0019375Y0082130D01*
X0019623Y0081532D02*
X0022577Y0081532D01*
X0022450Y0080933D02*
X0019750Y0080933D01*
X0019750Y0080335D02*
X0022450Y0080335D01*
X0022466Y0079736D02*
X0019734Y0079736D01*
X0019486Y0079138D02*
X0022714Y0079138D01*
X0022961Y0078539D02*
X0019239Y0078539D01*
X0018703Y0077941D02*
X0023497Y0077941D01*
X0024186Y0077342D02*
X0018014Y0077342D01*
X0017789Y0073751D02*
X0024411Y0073751D01*
X0023591Y0073153D02*
X0018609Y0073153D01*
X0019200Y0072554D02*
X0023000Y0072554D01*
X0022752Y0071956D02*
X0019448Y0071956D01*
X0014411Y0073751D02*
X0010200Y0073751D01*
X0010200Y0073153D02*
X0013591Y0073153D01*
X0013000Y0072554D02*
X0010200Y0072554D01*
X0010200Y0071956D02*
X0012752Y0071956D01*
X0010200Y0151558D02*
X0025300Y0151558D01*
X0025300Y0152156D02*
X0010200Y0152156D01*
X0010200Y0152755D02*
X0025300Y0152755D01*
X0025300Y0153353D02*
X0010200Y0153353D01*
X0010200Y0153952D02*
X0025300Y0153952D01*
X0023857Y0156346D02*
X0096700Y0156346D01*
X0096700Y0156944D02*
X0025106Y0156944D01*
X0024968Y0156806D02*
X0025994Y0157832D01*
X0026550Y0159174D01*
X0026550Y0160626D01*
X0025994Y0161968D01*
X0024968Y0162994D01*
X0023626Y0163550D01*
X0022174Y0163550D01*
X0020832Y0162994D01*
X0019806Y0161968D01*
X0019250Y0160626D01*
X0019250Y0159174D01*
X0019806Y0157832D01*
X0020832Y0156806D01*
X0022174Y0156250D01*
X0023626Y0156250D01*
X0024968Y0156806D01*
X0025705Y0157543D02*
X0096700Y0157543D01*
X0096700Y0158141D02*
X0026122Y0158141D01*
X0026370Y0158740D02*
X0096700Y0158740D01*
X0096700Y0159338D02*
X0026550Y0159338D01*
X0026550Y0159937D02*
X0096700Y0159937D01*
X0096700Y0160535D02*
X0026550Y0160535D01*
X0026340Y0161134D02*
X0096700Y0161134D01*
X0096700Y0161732D02*
X0026092Y0161732D01*
X0025631Y0162331D02*
X0096700Y0162331D01*
X0096700Y0162929D02*
X0025033Y0162929D01*
X0023680Y0163528D02*
X0096700Y0163528D01*
X0096700Y0164126D02*
X0010200Y0164126D01*
X0010200Y0163528D02*
X0022120Y0163528D01*
X0020767Y0162929D02*
X0010200Y0162929D01*
X0010200Y0162331D02*
X0020169Y0162331D01*
X0019708Y0161732D02*
X0010200Y0161732D01*
X0010200Y0161134D02*
X0019460Y0161134D01*
X0019250Y0160535D02*
X0010200Y0160535D01*
X0010200Y0159937D02*
X0019250Y0159937D01*
X0019250Y0159338D02*
X0010200Y0159338D01*
X0010200Y0158740D02*
X0019430Y0158740D01*
X0019678Y0158141D02*
X0010200Y0158141D01*
X0010200Y0157543D02*
X0020095Y0157543D01*
X0020694Y0156944D02*
X0010200Y0156944D01*
X0010200Y0156346D02*
X0021943Y0156346D01*
X0022174Y0166250D02*
X0020832Y0166806D01*
X0019806Y0167832D01*
X0019250Y0169174D01*
X0019250Y0170626D01*
X0019806Y0171968D01*
X0020832Y0172994D01*
X0022174Y0173550D01*
X0023626Y0173550D01*
X0024968Y0172994D01*
X0025994Y0171968D01*
X0026550Y0170626D01*
X0026550Y0169174D01*
X0025994Y0167832D01*
X0024968Y0166806D01*
X0023626Y0166250D01*
X0022174Y0166250D01*
X0021521Y0166520D02*
X0010200Y0166520D01*
X0010200Y0165922D02*
X0038200Y0165922D01*
X0038200Y0165430D02*
X0039430Y0164200D01*
X0041170Y0164200D01*
X0042400Y0165430D01*
X0042400Y0167170D01*
X0041170Y0168400D01*
X0039430Y0168400D01*
X0038200Y0167170D01*
X0038200Y0165430D01*
X0038307Y0165323D02*
X0010200Y0165323D01*
X0010200Y0164725D02*
X0038905Y0164725D01*
X0038200Y0166520D02*
X0024279Y0166520D01*
X0025281Y0167119D02*
X0038200Y0167119D01*
X0038748Y0167717D02*
X0025879Y0167717D01*
X0026195Y0168316D02*
X0039346Y0168316D01*
X0041254Y0168316D02*
X0096700Y0168316D01*
X0096700Y0168914D02*
X0026442Y0168914D01*
X0026550Y0169513D02*
X0096700Y0169513D01*
X0096700Y0170111D02*
X0026550Y0170111D01*
X0026515Y0170710D02*
X0096700Y0170710D01*
X0096700Y0171308D02*
X0026267Y0171308D01*
X0026019Y0171907D02*
X0096700Y0171907D01*
X0096700Y0172505D02*
X0025456Y0172505D01*
X0024703Y0173104D02*
X0096700Y0173104D01*
X0096700Y0173703D02*
X0010200Y0173703D01*
X0010200Y0174301D02*
X0073729Y0174301D01*
X0073131Y0174900D02*
X0010200Y0174900D01*
X0010200Y0173104D02*
X0021097Y0173104D01*
X0020344Y0172505D02*
X0010200Y0172505D01*
X0010200Y0171907D02*
X0019781Y0171907D01*
X0019533Y0171308D02*
X0010200Y0171308D01*
X0010200Y0170710D02*
X0019285Y0170710D01*
X0019250Y0170111D02*
X0010200Y0170111D01*
X0010200Y0169513D02*
X0019250Y0169513D01*
X0019357Y0168914D02*
X0010200Y0168914D01*
X0010200Y0168316D02*
X0019605Y0168316D01*
X0019921Y0167717D02*
X0010200Y0167717D01*
X0010200Y0167119D02*
X0020519Y0167119D01*
X0010200Y0155747D02*
X0096700Y0155747D01*
X0096700Y0155149D02*
X0010200Y0155149D01*
X0010200Y0154550D02*
X0096700Y0154550D01*
X0100900Y0154550D02*
X0127680Y0154550D01*
X0128230Y0154000D02*
X0127000Y0155230D01*
X0127000Y0156970D01*
X0128230Y0158200D01*
X0129400Y0158200D01*
X0129400Y0159370D01*
X0130630Y0160600D01*
X0131830Y0160600D01*
X0131800Y0160630D01*
X0131800Y0162370D01*
X0133030Y0163600D01*
X0134230Y0163600D01*
X0133600Y0164230D01*
X0133600Y0165970D01*
X0134830Y0167200D01*
X0136570Y0167200D01*
X0137800Y0165970D01*
X0137800Y0164230D01*
X0136570Y0163000D01*
X0135370Y0163000D01*
X0136000Y0162370D01*
X0136000Y0160630D01*
X0134770Y0159400D01*
X0133570Y0159400D01*
X0133600Y0159370D01*
X0133600Y0157630D01*
X0132370Y0156400D01*
X0131200Y0156400D01*
X0131200Y0155230D01*
X0129970Y0154000D01*
X0128230Y0154000D01*
X0127081Y0155149D02*
X0100900Y0155149D01*
X0100900Y0155747D02*
X0127000Y0155747D01*
X0127000Y0156346D02*
X0100900Y0156346D01*
X0100900Y0156944D02*
X0127000Y0156944D01*
X0127573Y0157543D02*
X0100900Y0157543D01*
X0100900Y0158141D02*
X0128171Y0158141D01*
X0129400Y0158740D02*
X0100900Y0158740D01*
X0100900Y0159338D02*
X0129400Y0159338D01*
X0129967Y0159937D02*
X0100900Y0159937D01*
X0100900Y0160535D02*
X0130565Y0160535D01*
X0131800Y0161134D02*
X0100900Y0161134D01*
X0100900Y0161732D02*
X0131800Y0161732D01*
X0131800Y0162331D02*
X0100900Y0162331D01*
X0100900Y0162929D02*
X0132359Y0162929D01*
X0132958Y0163528D02*
X0100900Y0163528D01*
X0100900Y0164126D02*
X0133704Y0164126D01*
X0133600Y0164725D02*
X0100900Y0164725D01*
X0100900Y0165323D02*
X0133600Y0165323D01*
X0133600Y0165922D02*
X0100900Y0165922D01*
X0100900Y0166520D02*
X0134151Y0166520D01*
X0134749Y0167119D02*
X0100900Y0167119D01*
X0100900Y0167717D02*
X0166713Y0167717D01*
X0167230Y0167200D02*
X0166000Y0168430D01*
X0166000Y0170170D01*
X0167230Y0171400D01*
X0168970Y0171400D01*
X0170200Y0170170D01*
X0170200Y0168430D01*
X0168970Y0167200D01*
X0167230Y0167200D01*
X0166114Y0168316D02*
X0122686Y0168316D01*
X0122170Y0167800D02*
X0123400Y0169030D01*
X0123400Y0170770D01*
X0122170Y0172000D01*
X0120430Y0172000D01*
X0119200Y0170770D01*
X0119200Y0169030D01*
X0120430Y0167800D01*
X0122170Y0167800D01*
X0123284Y0168914D02*
X0166000Y0168914D01*
X0166000Y0169513D02*
X0153283Y0169513D01*
X0152770Y0169000D02*
X0154000Y0170230D01*
X0154000Y0171970D01*
X0152770Y0173200D01*
X0151030Y0173200D01*
X0149800Y0171970D01*
X0149800Y0170230D01*
X0151030Y0169000D01*
X0152770Y0169000D01*
X0153881Y0170111D02*
X0166000Y0170111D01*
X0166540Y0170710D02*
X0154000Y0170710D01*
X0154000Y0171308D02*
X0167139Y0171308D01*
X0169061Y0171308D02*
X0173600Y0171308D01*
X0173600Y0170710D02*
X0169660Y0170710D01*
X0170200Y0170111D02*
X0173600Y0170111D01*
X0173600Y0169513D02*
X0170200Y0169513D01*
X0170200Y0168914D02*
X0173600Y0168914D01*
X0173600Y0168316D02*
X0170086Y0168316D01*
X0169487Y0167717D02*
X0173600Y0167717D01*
X0173600Y0167119D02*
X0136651Y0167119D01*
X0137249Y0166520D02*
X0173600Y0166520D01*
X0173600Y0165922D02*
X0137800Y0165922D01*
X0137800Y0165323D02*
X0173600Y0165323D01*
X0173600Y0164725D02*
X0137800Y0164725D01*
X0137696Y0164126D02*
X0173600Y0164126D01*
X0173600Y0163528D02*
X0137098Y0163528D01*
X0136000Y0162331D02*
X0173600Y0162331D01*
X0173600Y0162929D02*
X0135441Y0162929D01*
X0136000Y0161732D02*
X0173600Y0161732D01*
X0173600Y0161134D02*
X0136000Y0161134D01*
X0135905Y0160535D02*
X0173600Y0160535D01*
X0173600Y0159937D02*
X0135307Y0159937D01*
X0133600Y0159338D02*
X0173600Y0159338D01*
X0173600Y0158740D02*
X0133600Y0158740D01*
X0133600Y0158141D02*
X0173600Y0158141D01*
X0173600Y0157543D02*
X0133513Y0157543D01*
X0132914Y0156944D02*
X0173600Y0156944D01*
X0173600Y0156346D02*
X0131200Y0156346D01*
X0131200Y0155747D02*
X0173600Y0155747D01*
X0173600Y0155149D02*
X0131119Y0155149D01*
X0130520Y0154550D02*
X0173600Y0154550D01*
X0173600Y0153952D02*
X0100900Y0153952D01*
X0100900Y0153353D02*
X0173600Y0153353D01*
X0173600Y0152755D02*
X0100900Y0152755D01*
X0100900Y0152156D02*
X0146486Y0152156D01*
X0146830Y0152500D02*
X0145600Y0151270D01*
X0145600Y0149530D01*
X0146830Y0148300D01*
X0148570Y0148300D01*
X0149800Y0149530D01*
X0149800Y0151270D01*
X0148570Y0152500D01*
X0146830Y0152500D01*
X0145888Y0151558D02*
X0100900Y0151558D01*
X0100900Y0150959D02*
X0145600Y0150959D01*
X0145600Y0150361D02*
X0100900Y0150361D01*
X0100900Y0149762D02*
X0145600Y0149762D01*
X0145967Y0149164D02*
X0101806Y0149164D01*
X0101770Y0149200D02*
X0100900Y0149200D01*
X0100900Y0191847D01*
X0106053Y0197000D01*
X0161747Y0197000D01*
X0173600Y0185147D01*
X0173600Y0073967D01*
X0172271Y0075296D01*
X0170149Y0076175D01*
X0167851Y0076175D01*
X0165729Y0075296D01*
X0164104Y0073671D01*
X0163225Y0071549D01*
X0163225Y0069251D01*
X0164035Y0067295D01*
X0161850Y0068200D01*
X0158150Y0068200D01*
X0154732Y0066784D01*
X0152116Y0064168D01*
X0150700Y0060750D01*
X0150700Y0057050D01*
X0152116Y0053632D01*
X0154732Y0051016D01*
X0158150Y0049600D01*
X0161850Y0049600D01*
X0165268Y0051016D01*
X0167884Y0053632D01*
X0169300Y0057050D01*
X0169300Y0060750D01*
X0167884Y0064168D01*
X0167127Y0064925D01*
X0167851Y0064625D01*
X0170149Y0064625D01*
X0172271Y0065504D01*
X0173600Y0066833D01*
X0173600Y0021453D01*
X0168347Y0016200D01*
X0100900Y0016200D01*
X0100900Y0067622D01*
X0101104Y0067129D01*
X0102729Y0065504D01*
X0104851Y0064625D01*
X0107149Y0064625D01*
X0107873Y0064925D01*
X0107116Y0064168D01*
X0105700Y0060750D01*
X0105700Y0057050D01*
X0107116Y0053632D01*
X0109732Y0051016D01*
X0113150Y0049600D01*
X0116850Y0049600D01*
X0120268Y0051016D01*
X0122884Y0053632D01*
X0124300Y0057050D01*
X0124300Y0060750D01*
X0122884Y0064168D01*
X0120268Y0066784D01*
X0116850Y0068200D01*
X0113150Y0068200D01*
X0110965Y0067295D01*
X0111775Y0069251D01*
X0111775Y0071549D01*
X0110896Y0073671D01*
X0109271Y0075296D01*
X0107149Y0076175D01*
X0104851Y0076175D01*
X0102729Y0075296D01*
X0101104Y0073671D01*
X0100900Y0073178D01*
X0100900Y0117764D01*
X0101284Y0117381D01*
X0102203Y0117000D01*
X0103197Y0117000D01*
X0104116Y0117381D01*
X0104819Y0118084D01*
X0105200Y0119003D01*
X0105200Y0119997D01*
X0104819Y0120916D01*
X0104116Y0121619D01*
X0103197Y0122000D01*
X0102203Y0122000D01*
X0101284Y0121619D01*
X0100900Y0121236D01*
X0100900Y0145000D01*
X0101770Y0145000D01*
X0103000Y0146230D01*
X0103000Y0147970D01*
X0101770Y0149200D01*
X0102405Y0148565D02*
X0146565Y0148565D01*
X0148835Y0148565D02*
X0173600Y0148565D01*
X0173600Y0147967D02*
X0103000Y0147967D01*
X0103000Y0147368D02*
X0173600Y0147368D01*
X0173600Y0146770D02*
X0103000Y0146770D01*
X0102941Y0146171D02*
X0173600Y0146171D01*
X0173600Y0145572D02*
X0102342Y0145572D01*
X0100900Y0144974D02*
X0173600Y0144974D01*
X0173600Y0144375D02*
X0100900Y0144375D01*
X0100900Y0143777D02*
X0120407Y0143777D01*
X0120430Y0143800D02*
X0119200Y0142570D01*
X0119200Y0140830D01*
X0120430Y0139600D01*
X0122170Y0139600D01*
X0123400Y0140830D01*
X0123400Y0142570D01*
X0122170Y0143800D01*
X0120430Y0143800D01*
X0119809Y0143178D02*
X0100900Y0143178D01*
X0100900Y0142580D02*
X0119210Y0142580D01*
X0119200Y0141981D02*
X0100900Y0141981D01*
X0100900Y0141383D02*
X0119200Y0141383D01*
X0119246Y0140784D02*
X0100900Y0140784D01*
X0100900Y0140186D02*
X0119844Y0140186D01*
X0122756Y0140186D02*
X0173600Y0140186D01*
X0173600Y0140784D02*
X0123354Y0140784D01*
X0123400Y0141383D02*
X0173600Y0141383D01*
X0173600Y0141981D02*
X0123400Y0141981D01*
X0123390Y0142580D02*
X0173600Y0142580D01*
X0173600Y0143178D02*
X0122791Y0143178D01*
X0122193Y0143777D02*
X0173600Y0143777D01*
X0173600Y0139587D02*
X0100900Y0139587D01*
X0100900Y0138989D02*
X0173600Y0138989D01*
X0173600Y0138390D02*
X0100900Y0138390D01*
X0100900Y0137792D02*
X0173600Y0137792D01*
X0173600Y0137193D02*
X0100900Y0137193D01*
X0100900Y0136595D02*
X0173600Y0136595D01*
X0173600Y0135996D02*
X0132374Y0135996D01*
X0132370Y0136000D02*
X0130630Y0136000D01*
X0129400Y0134770D01*
X0129400Y0133030D01*
X0130630Y0131800D01*
X0132370Y0131800D01*
X0133600Y0133030D01*
X0133600Y0134770D01*
X0132370Y0136000D01*
X0132972Y0135398D02*
X0173600Y0135398D01*
X0173600Y0134799D02*
X0133571Y0134799D01*
X0133600Y0134201D02*
X0173600Y0134201D01*
X0173600Y0133602D02*
X0133600Y0133602D01*
X0133574Y0133004D02*
X0173600Y0133004D01*
X0173600Y0132405D02*
X0132975Y0132405D01*
X0132377Y0131807D02*
X0173600Y0131807D01*
X0173600Y0131208D02*
X0100900Y0131208D01*
X0100900Y0130610D02*
X0173600Y0130610D01*
X0173600Y0130011D02*
X0100900Y0130011D01*
X0100900Y0129413D02*
X0173600Y0129413D01*
X0173600Y0128814D02*
X0100900Y0128814D01*
X0100900Y0128216D02*
X0173600Y0128216D01*
X0173600Y0127617D02*
X0100900Y0127617D01*
X0100900Y0127019D02*
X0173600Y0127019D01*
X0173600Y0126420D02*
X0105914Y0126420D01*
X0105916Y0126419D02*
X0104997Y0126800D01*
X0104003Y0126800D01*
X0103084Y0126419D01*
X0102381Y0125716D01*
X0102000Y0124797D01*
X0102000Y0123803D01*
X0102381Y0122884D01*
X0103084Y0122181D01*
X0104003Y0121800D01*
X0104997Y0121800D01*
X0105916Y0122181D01*
X0106619Y0122884D01*
X0107000Y0123803D01*
X0107000Y0124797D01*
X0106619Y0125716D01*
X0105916Y0126419D01*
X0106514Y0125822D02*
X0165203Y0125822D01*
X0165371Y0125989D02*
X0164611Y0125229D01*
X0164200Y0124237D01*
X0164200Y0123163D01*
X0164611Y0122171D01*
X0165371Y0121411D01*
X0166363Y0121000D01*
X0167264Y0121000D01*
X0166681Y0120416D01*
X0166300Y0119497D01*
X0166300Y0118503D01*
X0166681Y0117584D01*
X0167384Y0116881D01*
X0168303Y0116500D01*
X0169297Y0116500D01*
X0170216Y0116881D01*
X0170919Y0117584D01*
X0171300Y0118503D01*
X0171300Y0119497D01*
X0170919Y0120416D01*
X0170216Y0121119D01*
X0169297Y0121500D01*
X0168518Y0121500D01*
X0169189Y0122171D01*
X0169600Y0123163D01*
X0169600Y0124237D01*
X0169189Y0125229D01*
X0168429Y0125989D01*
X0167437Y0126400D01*
X0166363Y0126400D01*
X0165371Y0125989D01*
X0164608Y0125223D02*
X0142547Y0125223D01*
X0141970Y0125800D02*
X0140230Y0125800D01*
X0139000Y0124570D01*
X0139000Y0122830D01*
X0140230Y0121600D01*
X0141970Y0121600D01*
X0143200Y0122830D01*
X0143200Y0124570D01*
X0141970Y0125800D01*
X0143145Y0124625D02*
X0164361Y0124625D01*
X0164200Y0124026D02*
X0143200Y0124026D01*
X0143200Y0123428D02*
X0164200Y0123428D01*
X0164338Y0122829D02*
X0143199Y0122829D01*
X0142600Y0122231D02*
X0164586Y0122231D01*
X0165150Y0121632D02*
X0142002Y0121632D01*
X0140198Y0121632D02*
X0110138Y0121632D01*
X0109570Y0122200D02*
X0110800Y0120970D01*
X0110800Y0119230D01*
X0109570Y0118000D01*
X0107830Y0118000D01*
X0106600Y0119230D01*
X0106600Y0120970D01*
X0107830Y0122200D01*
X0109570Y0122200D01*
X0110736Y0121034D02*
X0166282Y0121034D01*
X0166699Y0120435D02*
X0131135Y0120435D01*
X0130570Y0121000D02*
X0131800Y0119770D01*
X0131800Y0118030D01*
X0130570Y0116800D01*
X0128830Y0116800D01*
X0127600Y0118030D01*
X0127600Y0119770D01*
X0128830Y0121000D01*
X0130570Y0121000D01*
X0131733Y0119837D02*
X0166441Y0119837D01*
X0166300Y0119238D02*
X0131800Y0119238D01*
X0131800Y0118639D02*
X0166300Y0118639D01*
X0166491Y0118041D02*
X0131800Y0118041D01*
X0131212Y0117442D02*
X0166822Y0117442D01*
X0167472Y0116844D02*
X0130614Y0116844D01*
X0128786Y0116844D02*
X0122214Y0116844D01*
X0122170Y0116800D02*
X0123400Y0118030D01*
X0123400Y0119770D01*
X0122170Y0121000D01*
X0120430Y0121000D01*
X0119200Y0119770D01*
X0119200Y0118030D01*
X0120430Y0116800D01*
X0122170Y0116800D01*
X0122812Y0117442D02*
X0128188Y0117442D01*
X0127600Y0118041D02*
X0123400Y0118041D01*
X0123400Y0118639D02*
X0127600Y0118639D01*
X0127600Y0119238D02*
X0123400Y0119238D01*
X0123333Y0119837D02*
X0127667Y0119837D01*
X0128265Y0120435D02*
X0122735Y0120435D01*
X0119865Y0120435D02*
X0110800Y0120435D01*
X0110800Y0119837D02*
X0119267Y0119837D01*
X0119200Y0119238D02*
X0110800Y0119238D01*
X0110209Y0118639D02*
X0119200Y0118639D01*
X0119200Y0118041D02*
X0109611Y0118041D01*
X0107789Y0118041D02*
X0104777Y0118041D01*
X0105050Y0118639D02*
X0107191Y0118639D01*
X0106600Y0119238D02*
X0105200Y0119238D01*
X0105200Y0119837D02*
X0106600Y0119837D01*
X0106600Y0120435D02*
X0105019Y0120435D01*
X0104702Y0121034D02*
X0106664Y0121034D01*
X0107262Y0121632D02*
X0104086Y0121632D01*
X0103034Y0122231D02*
X0100900Y0122231D01*
X0100900Y0122829D02*
X0102435Y0122829D01*
X0102155Y0123428D02*
X0100900Y0123428D01*
X0100900Y0124026D02*
X0102000Y0124026D01*
X0102000Y0124625D02*
X0100900Y0124625D01*
X0100900Y0125223D02*
X0102176Y0125223D01*
X0102486Y0125822D02*
X0100900Y0125822D01*
X0100900Y0126420D02*
X0103086Y0126420D01*
X0106824Y0125223D02*
X0139653Y0125223D01*
X0139055Y0124625D02*
X0107000Y0124625D01*
X0107000Y0124026D02*
X0139000Y0124026D01*
X0139000Y0123428D02*
X0106845Y0123428D01*
X0106565Y0122829D02*
X0139001Y0122829D01*
X0139600Y0122231D02*
X0105966Y0122231D01*
X0104178Y0117442D02*
X0119788Y0117442D01*
X0120386Y0116844D02*
X0100900Y0116844D01*
X0100900Y0117442D02*
X0101222Y0117442D01*
X0100900Y0116245D02*
X0173600Y0116245D01*
X0173600Y0115647D02*
X0100900Y0115647D01*
X0100900Y0115048D02*
X0173600Y0115048D01*
X0173600Y0114450D02*
X0100900Y0114450D01*
X0100900Y0113851D02*
X0173600Y0113851D01*
X0173600Y0113253D02*
X0100900Y0113253D01*
X0100900Y0112654D02*
X0173600Y0112654D01*
X0173600Y0112056D02*
X0100900Y0112056D01*
X0100900Y0111457D02*
X0173600Y0111457D01*
X0173600Y0110859D02*
X0100900Y0110859D01*
X0100900Y0110260D02*
X0173600Y0110260D01*
X0173600Y0109662D02*
X0100900Y0109662D01*
X0100900Y0109063D02*
X0173600Y0109063D01*
X0173600Y0108465D02*
X0100900Y0108465D01*
X0100900Y0107866D02*
X0173600Y0107866D01*
X0173600Y0107268D02*
X0100900Y0107268D01*
X0100900Y0106669D02*
X0173600Y0106669D01*
X0173600Y0106071D02*
X0100900Y0106071D01*
X0100900Y0105472D02*
X0173600Y0105472D01*
X0173600Y0104874D02*
X0100900Y0104874D01*
X0100900Y0104275D02*
X0173600Y0104275D01*
X0173600Y0103677D02*
X0100900Y0103677D01*
X0100900Y0103078D02*
X0173600Y0103078D01*
X0173600Y0102480D02*
X0100900Y0102480D01*
X0100900Y0101881D02*
X0173600Y0101881D01*
X0173600Y0101283D02*
X0100900Y0101283D01*
X0100900Y0100684D02*
X0173600Y0100684D01*
X0173600Y0100086D02*
X0100900Y0100086D01*
X0100900Y0099487D02*
X0173600Y0099487D01*
X0173600Y0098889D02*
X0100900Y0098889D01*
X0100900Y0098290D02*
X0102655Y0098290D01*
X0102484Y0098219D02*
X0101781Y0097516D01*
X0101400Y0096597D01*
X0101400Y0095603D01*
X0101781Y0094684D01*
X0102484Y0093981D01*
X0103403Y0093600D01*
X0104397Y0093600D01*
X0105316Y0093981D01*
X0106019Y0094684D01*
X0106400Y0095603D01*
X0106400Y0096597D01*
X0106019Y0097516D01*
X0105316Y0098219D01*
X0104397Y0098600D01*
X0103403Y0098600D01*
X0102484Y0098219D01*
X0101956Y0097692D02*
X0100900Y0097692D01*
X0100900Y0097093D02*
X0101605Y0097093D01*
X0101400Y0096495D02*
X0100900Y0096495D01*
X0100900Y0095896D02*
X0101400Y0095896D01*
X0101526Y0095298D02*
X0100900Y0095298D01*
X0100900Y0094699D02*
X0101774Y0094699D01*
X0102364Y0094101D02*
X0100900Y0094101D01*
X0100900Y0093502D02*
X0121500Y0093502D01*
X0121500Y0093204D02*
X0121500Y0094596D01*
X0122033Y0095883D01*
X0123017Y0096867D01*
X0124304Y0097400D01*
X0125696Y0097400D01*
X0126983Y0096867D01*
X0127967Y0095883D01*
X0128500Y0094596D01*
X0128500Y0093204D01*
X0127967Y0091917D01*
X0126983Y0090933D01*
X0125696Y0090400D01*
X0124304Y0090400D01*
X0123017Y0090933D01*
X0122033Y0091917D01*
X0121500Y0093204D01*
X0121624Y0092903D02*
X0100900Y0092903D01*
X0100900Y0092305D02*
X0121872Y0092305D01*
X0122244Y0091706D02*
X0100900Y0091706D01*
X0100900Y0091108D02*
X0122842Y0091108D01*
X0124040Y0090509D02*
X0100900Y0090509D01*
X0100900Y0089911D02*
X0173600Y0089911D01*
X0173600Y0090509D02*
X0155960Y0090509D01*
X0155696Y0090400D02*
X0156983Y0090933D01*
X0157967Y0091917D01*
X0158500Y0093204D01*
X0158500Y0094596D01*
X0157967Y0095883D01*
X0156983Y0096867D01*
X0155696Y0097400D01*
X0154304Y0097400D01*
X0153017Y0096867D01*
X0152033Y0095883D01*
X0151500Y0094596D01*
X0151500Y0093204D01*
X0152033Y0091917D01*
X0153017Y0090933D01*
X0154304Y0090400D01*
X0155696Y0090400D01*
X0157158Y0091108D02*
X0173600Y0091108D01*
X0173600Y0091706D02*
X0157756Y0091706D01*
X0158128Y0092305D02*
X0173600Y0092305D01*
X0173600Y0092903D02*
X0158376Y0092903D01*
X0158500Y0093502D02*
X0173600Y0093502D01*
X0173600Y0094101D02*
X0169036Y0094101D01*
X0168916Y0093981D02*
X0169619Y0094684D01*
X0170000Y0095603D01*
X0170000Y0096597D01*
X0169619Y0097516D01*
X0168916Y0098219D01*
X0167997Y0098600D01*
X0167003Y0098600D01*
X0166084Y0098219D01*
X0165381Y0097516D01*
X0165000Y0096597D01*
X0165000Y0095603D01*
X0165381Y0094684D01*
X0166084Y0093981D01*
X0167003Y0093600D01*
X0167997Y0093600D01*
X0168916Y0093981D01*
X0169626Y0094699D02*
X0173600Y0094699D01*
X0173600Y0095298D02*
X0169874Y0095298D01*
X0170000Y0095896D02*
X0173600Y0095896D01*
X0173600Y0096495D02*
X0170000Y0096495D01*
X0169795Y0097093D02*
X0173600Y0097093D01*
X0173600Y0097692D02*
X0169444Y0097692D01*
X0168745Y0098290D02*
X0173600Y0098290D01*
X0166255Y0098290D02*
X0105145Y0098290D01*
X0105844Y0097692D02*
X0165556Y0097692D01*
X0165205Y0097093D02*
X0156437Y0097093D01*
X0157355Y0096495D02*
X0165000Y0096495D01*
X0165000Y0095896D02*
X0157954Y0095896D01*
X0158209Y0095298D02*
X0165126Y0095298D01*
X0165374Y0094699D02*
X0158457Y0094699D01*
X0158500Y0094101D02*
X0165964Y0094101D01*
X0173600Y0089312D02*
X0100900Y0089312D01*
X0100900Y0088714D02*
X0173600Y0088714D01*
X0173600Y0088115D02*
X0100900Y0088115D01*
X0100900Y0087517D02*
X0173600Y0087517D01*
X0173600Y0086918D02*
X0151859Y0086918D01*
X0151983Y0086867D02*
X0150696Y0087400D01*
X0149304Y0087400D01*
X0148017Y0086867D01*
X0147033Y0085883D01*
X0146500Y0084596D01*
X0146500Y0083204D01*
X0147033Y0081917D01*
X0148017Y0080933D01*
X0141983Y0080933D01*
X0142967Y0081917D01*
X0143500Y0083204D01*
X0143500Y0084596D01*
X0142967Y0085883D01*
X0141983Y0086867D01*
X0140696Y0087400D01*
X0139304Y0087400D01*
X0138017Y0086867D01*
X0137033Y0085883D01*
X0136500Y0084596D01*
X0136500Y0083204D01*
X0137033Y0081917D01*
X0138017Y0080933D01*
X0131983Y0080933D01*
X0132967Y0081917D01*
X0133500Y0083204D01*
X0133500Y0084596D01*
X0132967Y0085883D01*
X0131983Y0086867D01*
X0130696Y0087400D01*
X0129304Y0087400D01*
X0128017Y0086867D01*
X0127033Y0085883D01*
X0126500Y0084596D01*
X0126500Y0083204D01*
X0127033Y0081917D01*
X0128017Y0080933D01*
X0121983Y0080933D01*
X0122967Y0081917D01*
X0123500Y0083204D01*
X0123500Y0084596D01*
X0122967Y0085883D01*
X0121983Y0086867D01*
X0120696Y0087400D01*
X0119304Y0087400D01*
X0118017Y0086867D01*
X0117033Y0085883D01*
X0116500Y0084596D01*
X0116500Y0083204D01*
X0117033Y0081917D01*
X0118017Y0080933D01*
X0100900Y0080933D01*
X0100900Y0080335D02*
X0173600Y0080335D01*
X0173600Y0080933D02*
X0151983Y0080933D01*
X0152967Y0081917D01*
X0153500Y0083204D01*
X0153500Y0084596D01*
X0152967Y0085883D01*
X0151983Y0086867D01*
X0152530Y0086320D02*
X0173600Y0086320D01*
X0173600Y0085721D02*
X0153034Y0085721D01*
X0153282Y0085123D02*
X0173600Y0085123D01*
X0173600Y0084524D02*
X0153500Y0084524D01*
X0153500Y0083926D02*
X0173600Y0083926D01*
X0173600Y0083327D02*
X0153500Y0083327D01*
X0153303Y0082729D02*
X0173600Y0082729D01*
X0173600Y0082130D02*
X0153055Y0082130D01*
X0152582Y0081532D02*
X0173600Y0081532D01*
X0173600Y0079736D02*
X0100900Y0079736D01*
X0100900Y0079138D02*
X0173600Y0079138D01*
X0173600Y0078539D02*
X0100900Y0078539D01*
X0100900Y0077941D02*
X0173600Y0077941D01*
X0173600Y0077342D02*
X0100900Y0077342D01*
X0100900Y0076744D02*
X0173600Y0076744D01*
X0173600Y0076145D02*
X0170221Y0076145D01*
X0171666Y0075547D02*
X0173600Y0075547D01*
X0173600Y0074948D02*
X0172619Y0074948D01*
X0173217Y0074350D02*
X0173600Y0074350D01*
X0167779Y0076145D02*
X0107221Y0076145D01*
X0108666Y0075547D02*
X0166334Y0075547D01*
X0165381Y0074948D02*
X0109619Y0074948D01*
X0110217Y0074350D02*
X0164783Y0074350D01*
X0164184Y0073751D02*
X0110816Y0073751D01*
X0111111Y0073153D02*
X0163889Y0073153D01*
X0163641Y0072554D02*
X0111359Y0072554D01*
X0111606Y0071956D02*
X0163394Y0071956D01*
X0163225Y0071357D02*
X0111775Y0071357D01*
X0111775Y0070759D02*
X0163225Y0070759D01*
X0163225Y0070160D02*
X0111775Y0070160D01*
X0111775Y0069562D02*
X0163225Y0069562D01*
X0163344Y0068963D02*
X0111656Y0068963D01*
X0111408Y0068365D02*
X0163592Y0068365D01*
X0163840Y0067766D02*
X0162898Y0067766D01*
X0167279Y0064773D02*
X0167493Y0064773D01*
X0167877Y0064175D02*
X0173600Y0064175D01*
X0173600Y0064773D02*
X0170507Y0064773D01*
X0171952Y0065372D02*
X0173600Y0065372D01*
X0173600Y0065970D02*
X0172738Y0065970D01*
X0173336Y0066569D02*
X0173600Y0066569D01*
X0173600Y0063576D02*
X0168129Y0063576D01*
X0168377Y0062978D02*
X0173600Y0062978D01*
X0173600Y0062379D02*
X0168625Y0062379D01*
X0168873Y0061781D02*
X0173600Y0061781D01*
X0173600Y0061182D02*
X0169121Y0061182D01*
X0169300Y0060584D02*
X0173600Y0060584D01*
X0173600Y0059985D02*
X0169300Y0059985D01*
X0169300Y0059387D02*
X0173600Y0059387D01*
X0173600Y0058788D02*
X0169300Y0058788D01*
X0169300Y0058190D02*
X0173600Y0058190D01*
X0173600Y0057591D02*
X0169300Y0057591D01*
X0169276Y0056993D02*
X0173600Y0056993D01*
X0173600Y0056394D02*
X0169028Y0056394D01*
X0168780Y0055796D02*
X0173600Y0055796D01*
X0173600Y0055197D02*
X0168533Y0055197D01*
X0168285Y0054599D02*
X0173600Y0054599D01*
X0173600Y0054000D02*
X0168037Y0054000D01*
X0167654Y0053402D02*
X0173600Y0053402D01*
X0173600Y0052803D02*
X0167055Y0052803D01*
X0166457Y0052205D02*
X0173600Y0052205D01*
X0173600Y0051606D02*
X0165858Y0051606D01*
X0165248Y0051008D02*
X0173600Y0051008D01*
X0173600Y0050409D02*
X0163803Y0050409D01*
X0162359Y0049811D02*
X0173600Y0049811D01*
X0173600Y0049212D02*
X0100900Y0049212D01*
X0100900Y0048614D02*
X0173600Y0048614D01*
X0173600Y0048015D02*
X0100900Y0048015D01*
X0100900Y0047417D02*
X0173600Y0047417D01*
X0173600Y0046818D02*
X0100900Y0046818D01*
X0100900Y0046220D02*
X0173600Y0046220D01*
X0173600Y0045621D02*
X0100900Y0045621D01*
X0100900Y0045023D02*
X0173600Y0045023D01*
X0173600Y0044424D02*
X0100900Y0044424D01*
X0100900Y0043826D02*
X0173600Y0043826D01*
X0173600Y0043227D02*
X0164251Y0043227D01*
X0163884Y0043300D02*
X0163800Y0043300D01*
X0163800Y0039700D01*
X0167400Y0039700D01*
X0167400Y0039784D01*
X0167250Y0040538D01*
X0166956Y0041247D01*
X0166529Y0041886D01*
X0165986Y0042429D01*
X0165347Y0042856D01*
X0164638Y0043150D01*
X0163884Y0043300D01*
X0163800Y0043227D02*
X0163200Y0043227D01*
X0163200Y0043300D02*
X0163116Y0043300D01*
X0162362Y0043150D01*
X0161653Y0042856D01*
X0161014Y0042429D01*
X0160471Y0041886D01*
X0160044Y0041247D01*
X0159750Y0040538D01*
X0159600Y0039784D01*
X0159600Y0039700D01*
X0163200Y0039700D01*
X0163200Y0043300D01*
X0162749Y0043227D02*
X0112251Y0043227D01*
X0111884Y0043300D02*
X0112638Y0043150D01*
X0113347Y0042856D01*
X0113986Y0042429D01*
X0114529Y0041886D01*
X0114956Y0041247D01*
X0115250Y0040538D01*
X0115400Y0039784D01*
X0115400Y0039700D01*
X0111800Y0039700D01*
X0111800Y0039100D01*
X0115400Y0039100D01*
X0115400Y0039016D01*
X0115250Y0038262D01*
X0114956Y0037553D01*
X0114529Y0036914D01*
X0113986Y0036371D01*
X0113347Y0035944D01*
X0112638Y0035650D01*
X0111884Y0035500D01*
X0111800Y0035500D01*
X0111800Y0039100D01*
X0111200Y0039100D01*
X0111200Y0035500D01*
X0111116Y0035500D01*
X0110362Y0035650D01*
X0109653Y0035944D01*
X0109014Y0036371D01*
X0108471Y0036914D01*
X0108044Y0037553D01*
X0107750Y0038262D01*
X0107600Y0039016D01*
X0107600Y0039100D01*
X0111200Y0039100D01*
X0111200Y0039700D01*
X0111200Y0043300D01*
X0111116Y0043300D01*
X0110362Y0043150D01*
X0109653Y0042856D01*
X0109014Y0042429D01*
X0108471Y0041886D01*
X0108044Y0041247D01*
X0107750Y0040538D01*
X0107600Y0039784D01*
X0107600Y0039700D01*
X0111200Y0039700D01*
X0111800Y0039700D01*
X0111800Y0043300D01*
X0111884Y0043300D01*
X0111800Y0043227D02*
X0111200Y0043227D01*
X0110749Y0043227D02*
X0100900Y0043227D01*
X0100900Y0042629D02*
X0109312Y0042629D01*
X0108615Y0042030D02*
X0100900Y0042030D01*
X0100900Y0041432D02*
X0108167Y0041432D01*
X0107872Y0040833D02*
X0100900Y0040833D01*
X0100900Y0040234D02*
X0107690Y0040234D01*
X0107600Y0039037D02*
X0100900Y0039037D01*
X0100900Y0038439D02*
X0107715Y0038439D01*
X0107925Y0037840D02*
X0100900Y0037840D01*
X0100900Y0037242D02*
X0108251Y0037242D01*
X0108741Y0036643D02*
X0100900Y0036643D01*
X0100900Y0036045D02*
X0109501Y0036045D01*
X0111200Y0036045D02*
X0111800Y0036045D01*
X0111800Y0036643D02*
X0111200Y0036643D01*
X0111200Y0037242D02*
X0111800Y0037242D01*
X0111800Y0037840D02*
X0111200Y0037840D01*
X0111200Y0038439D02*
X0111800Y0038439D01*
X0111800Y0039037D02*
X0111200Y0039037D01*
X0111200Y0039636D02*
X0100900Y0039636D01*
X0100900Y0035446D02*
X0173600Y0035446D01*
X0173600Y0034848D02*
X0100900Y0034848D01*
X0100900Y0034249D02*
X0173600Y0034249D01*
X0173600Y0033651D02*
X0100900Y0033651D01*
X0100900Y0033052D02*
X0173600Y0033052D01*
X0173600Y0032454D02*
X0100900Y0032454D01*
X0100900Y0031855D02*
X0173600Y0031855D01*
X0173600Y0031257D02*
X0100900Y0031257D01*
X0100900Y0030658D02*
X0173600Y0030658D01*
X0173600Y0030060D02*
X0100900Y0030060D01*
X0100900Y0029461D02*
X0173600Y0029461D01*
X0173600Y0028863D02*
X0100900Y0028863D01*
X0100900Y0028264D02*
X0173600Y0028264D01*
X0173600Y0027666D02*
X0100900Y0027666D01*
X0100900Y0027067D02*
X0173600Y0027067D01*
X0173600Y0026469D02*
X0100900Y0026469D01*
X0100900Y0025870D02*
X0173600Y0025870D01*
X0173600Y0025272D02*
X0100900Y0025272D01*
X0100900Y0024673D02*
X0173600Y0024673D01*
X0173600Y0024075D02*
X0100900Y0024075D01*
X0100900Y0023476D02*
X0173600Y0023476D01*
X0173600Y0022878D02*
X0100900Y0022878D01*
X0100900Y0022279D02*
X0173600Y0022279D01*
X0173600Y0021681D02*
X0100900Y0021681D01*
X0100900Y0021082D02*
X0173229Y0021082D01*
X0172631Y0020484D02*
X0100900Y0020484D01*
X0100900Y0019885D02*
X0172032Y0019885D01*
X0171434Y0019287D02*
X0100900Y0019287D01*
X0100900Y0018688D02*
X0170835Y0018688D01*
X0170237Y0018090D02*
X0100900Y0018090D01*
X0100900Y0017491D02*
X0169638Y0017491D01*
X0169040Y0016893D02*
X0100900Y0016893D01*
X0100900Y0016294D02*
X0168441Y0016294D01*
X0164638Y0035650D02*
X0165347Y0035944D01*
X0165986Y0036371D01*
X0166529Y0036914D01*
X0166956Y0037553D01*
X0167250Y0038262D01*
X0167400Y0039016D01*
X0167400Y0039100D01*
X0163800Y0039100D01*
X0163800Y0039700D01*
X0163200Y0039700D01*
X0163200Y0039100D01*
X0163800Y0039100D01*
X0163800Y0035500D01*
X0163884Y0035500D01*
X0164638Y0035650D01*
X0163800Y0036045D02*
X0163200Y0036045D01*
X0163200Y0035500D02*
X0163200Y0039100D01*
X0159600Y0039100D01*
X0159600Y0039016D01*
X0159750Y0038262D01*
X0160044Y0037553D01*
X0160471Y0036914D01*
X0161014Y0036371D01*
X0161653Y0035944D01*
X0162362Y0035650D01*
X0163116Y0035500D01*
X0163200Y0035500D01*
X0163200Y0036643D02*
X0163800Y0036643D01*
X0163800Y0037242D02*
X0163200Y0037242D01*
X0163200Y0037840D02*
X0163800Y0037840D01*
X0163800Y0038439D02*
X0163200Y0038439D01*
X0163200Y0039037D02*
X0163800Y0039037D01*
X0163800Y0039636D02*
X0173600Y0039636D01*
X0173600Y0040234D02*
X0167310Y0040234D01*
X0167128Y0040833D02*
X0173600Y0040833D01*
X0173600Y0041432D02*
X0166833Y0041432D01*
X0166385Y0042030D02*
X0173600Y0042030D01*
X0173600Y0042629D02*
X0165688Y0042629D01*
X0163800Y0042629D02*
X0163200Y0042629D01*
X0163200Y0042030D02*
X0163800Y0042030D01*
X0163800Y0041432D02*
X0163200Y0041432D01*
X0163200Y0040833D02*
X0163800Y0040833D01*
X0163800Y0040234D02*
X0163200Y0040234D01*
X0163200Y0039636D02*
X0157000Y0039636D01*
X0157000Y0040096D02*
X0156467Y0041383D01*
X0155483Y0042367D01*
X0154196Y0042900D01*
X0152804Y0042900D01*
X0151517Y0042367D01*
X0150533Y0041383D01*
X0150000Y0040096D01*
X0150000Y0038704D01*
X0150533Y0037417D01*
X0151517Y0036433D01*
X0152804Y0035900D01*
X0154196Y0035900D01*
X0155483Y0036433D01*
X0156467Y0037417D01*
X0157000Y0038704D01*
X0157000Y0040096D01*
X0156943Y0040234D02*
X0159690Y0040234D01*
X0159872Y0040833D02*
X0156695Y0040833D01*
X0156418Y0041432D02*
X0160167Y0041432D01*
X0160615Y0042030D02*
X0155820Y0042030D01*
X0154852Y0042629D02*
X0161312Y0042629D01*
X0159600Y0039037D02*
X0157000Y0039037D01*
X0156890Y0038439D02*
X0159715Y0038439D01*
X0159925Y0037840D02*
X0156642Y0037840D01*
X0156292Y0037242D02*
X0160251Y0037242D01*
X0160741Y0036643D02*
X0155693Y0036643D01*
X0154546Y0036045D02*
X0161501Y0036045D01*
X0165499Y0036045D02*
X0173600Y0036045D01*
X0173600Y0036643D02*
X0166259Y0036643D01*
X0166749Y0037242D02*
X0173600Y0037242D01*
X0173600Y0037840D02*
X0167075Y0037840D01*
X0167285Y0038439D02*
X0173600Y0038439D01*
X0173600Y0039037D02*
X0167400Y0039037D01*
X0157641Y0049811D02*
X0117359Y0049811D01*
X0118803Y0050409D02*
X0156197Y0050409D01*
X0154752Y0051008D02*
X0120248Y0051008D01*
X0120858Y0051606D02*
X0154142Y0051606D01*
X0153543Y0052205D02*
X0121457Y0052205D01*
X0122055Y0052803D02*
X0152945Y0052803D01*
X0152346Y0053402D02*
X0122654Y0053402D01*
X0123037Y0054000D02*
X0151963Y0054000D01*
X0151715Y0054599D02*
X0123285Y0054599D01*
X0123533Y0055197D02*
X0151467Y0055197D01*
X0151220Y0055796D02*
X0123780Y0055796D01*
X0124028Y0056394D02*
X0150972Y0056394D01*
X0150724Y0056993D02*
X0124276Y0056993D01*
X0124300Y0057591D02*
X0150700Y0057591D01*
X0150700Y0058190D02*
X0124300Y0058190D01*
X0124300Y0058788D02*
X0150700Y0058788D01*
X0150700Y0059387D02*
X0124300Y0059387D01*
X0124300Y0059985D02*
X0150700Y0059985D01*
X0150700Y0060584D02*
X0124300Y0060584D01*
X0124121Y0061182D02*
X0150879Y0061182D01*
X0151127Y0061781D02*
X0123873Y0061781D01*
X0123625Y0062379D02*
X0151375Y0062379D01*
X0151623Y0062978D02*
X0123377Y0062978D01*
X0123129Y0063576D02*
X0151871Y0063576D01*
X0152123Y0064175D02*
X0122877Y0064175D01*
X0122279Y0064773D02*
X0152721Y0064773D01*
X0153320Y0065372D02*
X0121680Y0065372D01*
X0121082Y0065970D02*
X0153918Y0065970D01*
X0154517Y0066569D02*
X0120483Y0066569D01*
X0119343Y0067168D02*
X0155657Y0067168D01*
X0157102Y0067766D02*
X0117898Y0067766D01*
X0112102Y0067766D02*
X0111160Y0067766D01*
X0107721Y0064773D02*
X0107507Y0064773D01*
X0107123Y0064175D02*
X0100900Y0064175D01*
X0100900Y0064773D02*
X0104493Y0064773D01*
X0103048Y0065372D02*
X0100900Y0065372D01*
X0100900Y0065970D02*
X0102262Y0065970D01*
X0101664Y0066569D02*
X0100900Y0066569D01*
X0100900Y0067168D02*
X0101088Y0067168D01*
X0100900Y0063576D02*
X0106871Y0063576D01*
X0106623Y0062978D02*
X0100900Y0062978D01*
X0100900Y0062379D02*
X0106375Y0062379D01*
X0106127Y0061781D02*
X0100900Y0061781D01*
X0100900Y0061182D02*
X0105879Y0061182D01*
X0105700Y0060584D02*
X0100900Y0060584D01*
X0100900Y0059985D02*
X0105700Y0059985D01*
X0105700Y0059387D02*
X0100900Y0059387D01*
X0100900Y0058788D02*
X0105700Y0058788D01*
X0105700Y0058190D02*
X0100900Y0058190D01*
X0100900Y0057591D02*
X0105700Y0057591D01*
X0105724Y0056993D02*
X0100900Y0056993D01*
X0100900Y0056394D02*
X0105972Y0056394D01*
X0106220Y0055796D02*
X0100900Y0055796D01*
X0100900Y0055197D02*
X0106467Y0055197D01*
X0106715Y0054599D02*
X0100900Y0054599D01*
X0100900Y0054000D02*
X0106963Y0054000D01*
X0107346Y0053402D02*
X0100900Y0053402D01*
X0100900Y0052803D02*
X0107945Y0052803D01*
X0108543Y0052205D02*
X0100900Y0052205D01*
X0100900Y0051606D02*
X0109142Y0051606D01*
X0109752Y0051008D02*
X0100900Y0051008D01*
X0100900Y0050409D02*
X0111197Y0050409D01*
X0112641Y0049811D02*
X0100900Y0049811D01*
X0111200Y0042629D02*
X0111800Y0042629D01*
X0111800Y0042030D02*
X0111200Y0042030D01*
X0111200Y0041432D02*
X0111800Y0041432D01*
X0111800Y0040833D02*
X0111200Y0040833D01*
X0111200Y0040234D02*
X0111800Y0040234D01*
X0111800Y0039636D02*
X0118000Y0039636D01*
X0118000Y0040096D02*
X0118000Y0038704D01*
X0118533Y0037417D01*
X0119517Y0036433D01*
X0120804Y0035900D01*
X0122196Y0035900D01*
X0123483Y0036433D01*
X0124467Y0037417D01*
X0125000Y0038704D01*
X0125000Y0040096D01*
X0124467Y0041383D01*
X0123483Y0042367D01*
X0122196Y0042900D01*
X0120804Y0042900D01*
X0119517Y0042367D01*
X0118533Y0041383D01*
X0118000Y0040096D01*
X0118057Y0040234D02*
X0115310Y0040234D01*
X0115128Y0040833D02*
X0118305Y0040833D01*
X0118582Y0041432D02*
X0114833Y0041432D01*
X0114385Y0042030D02*
X0119180Y0042030D01*
X0120148Y0042629D02*
X0113688Y0042629D01*
X0115400Y0039037D02*
X0118000Y0039037D01*
X0118110Y0038439D02*
X0115285Y0038439D01*
X0115075Y0037840D02*
X0118358Y0037840D01*
X0118708Y0037242D02*
X0114749Y0037242D01*
X0114259Y0036643D02*
X0119307Y0036643D01*
X0120454Y0036045D02*
X0113499Y0036045D01*
X0122546Y0036045D02*
X0152454Y0036045D01*
X0151307Y0036643D02*
X0123693Y0036643D01*
X0124292Y0037242D02*
X0150708Y0037242D01*
X0150358Y0037840D02*
X0124642Y0037840D01*
X0124890Y0038439D02*
X0150110Y0038439D01*
X0150000Y0039037D02*
X0125000Y0039037D01*
X0125000Y0039636D02*
X0150000Y0039636D01*
X0150057Y0040234D02*
X0124943Y0040234D01*
X0124695Y0040833D02*
X0150305Y0040833D01*
X0150582Y0041432D02*
X0124418Y0041432D01*
X0123820Y0042030D02*
X0151180Y0042030D01*
X0152148Y0042629D02*
X0122852Y0042629D01*
X0101184Y0073751D02*
X0100900Y0073751D01*
X0100900Y0074350D02*
X0101783Y0074350D01*
X0102381Y0074948D02*
X0100900Y0074948D01*
X0100900Y0075547D02*
X0103334Y0075547D01*
X0104779Y0076145D02*
X0100900Y0076145D01*
X0100900Y0081532D02*
X0117418Y0081532D01*
X0116945Y0082130D02*
X0100900Y0082130D01*
X0100900Y0082729D02*
X0116697Y0082729D01*
X0116500Y0083327D02*
X0100900Y0083327D01*
X0100900Y0083926D02*
X0116500Y0083926D01*
X0116500Y0084524D02*
X0100900Y0084524D01*
X0100900Y0085123D02*
X0116718Y0085123D01*
X0116966Y0085721D02*
X0100900Y0085721D01*
X0100900Y0086320D02*
X0117470Y0086320D01*
X0118141Y0086918D02*
X0100900Y0086918D01*
X0105436Y0094101D02*
X0121500Y0094101D01*
X0121543Y0094699D02*
X0106026Y0094699D01*
X0106274Y0095298D02*
X0121791Y0095298D01*
X0122046Y0095896D02*
X0106400Y0095896D01*
X0106400Y0096495D02*
X0122645Y0096495D01*
X0123563Y0097093D02*
X0106195Y0097093D01*
X0121859Y0086918D02*
X0128141Y0086918D01*
X0127470Y0086320D02*
X0122530Y0086320D01*
X0123034Y0085721D02*
X0126966Y0085721D01*
X0126718Y0085123D02*
X0123282Y0085123D01*
X0123500Y0084524D02*
X0126500Y0084524D01*
X0126500Y0083926D02*
X0123500Y0083926D01*
X0123500Y0083327D02*
X0126500Y0083327D01*
X0126697Y0082729D02*
X0123303Y0082729D01*
X0123055Y0082130D02*
X0126945Y0082130D01*
X0127418Y0081532D02*
X0122582Y0081532D01*
X0121983Y0080933D02*
X0120696Y0080400D01*
X0119304Y0080400D01*
X0118017Y0080933D01*
X0125960Y0090509D02*
X0134040Y0090509D01*
X0134304Y0090400D02*
X0135696Y0090400D01*
X0136983Y0090933D01*
X0137967Y0091917D01*
X0138500Y0093204D01*
X0138500Y0094596D01*
X0137967Y0095883D01*
X0136983Y0096867D01*
X0135696Y0097400D01*
X0134304Y0097400D01*
X0133017Y0096867D01*
X0132033Y0095883D01*
X0131500Y0094596D01*
X0131500Y0093204D01*
X0132033Y0091917D01*
X0133017Y0090933D01*
X0134304Y0090400D01*
X0132842Y0091108D02*
X0127158Y0091108D01*
X0127756Y0091706D02*
X0132244Y0091706D01*
X0131872Y0092305D02*
X0128128Y0092305D01*
X0128376Y0092903D02*
X0131624Y0092903D01*
X0131500Y0093502D02*
X0128500Y0093502D01*
X0128500Y0094101D02*
X0131500Y0094101D01*
X0131543Y0094699D02*
X0128457Y0094699D01*
X0128209Y0095298D02*
X0131791Y0095298D01*
X0132046Y0095896D02*
X0127954Y0095896D01*
X0127355Y0096495D02*
X0132645Y0096495D01*
X0133563Y0097093D02*
X0126437Y0097093D01*
X0136437Y0097093D02*
X0143563Y0097093D01*
X0143017Y0096867D02*
X0142033Y0095883D01*
X0141500Y0094596D01*
X0141500Y0093204D01*
X0142033Y0091917D01*
X0143017Y0090933D01*
X0144304Y0090400D01*
X0145696Y0090400D01*
X0146983Y0090933D01*
X0147967Y0091917D01*
X0148500Y0093204D01*
X0148500Y0094596D01*
X0147967Y0095883D01*
X0146983Y0096867D01*
X0145696Y0097400D01*
X0144304Y0097400D01*
X0143017Y0096867D01*
X0142645Y0096495D02*
X0137355Y0096495D01*
X0137954Y0095896D02*
X0142046Y0095896D01*
X0141791Y0095298D02*
X0138209Y0095298D01*
X0138457Y0094699D02*
X0141543Y0094699D01*
X0141500Y0094101D02*
X0138500Y0094101D01*
X0138500Y0093502D02*
X0141500Y0093502D01*
X0141624Y0092903D02*
X0138376Y0092903D01*
X0138128Y0092305D02*
X0141872Y0092305D01*
X0142244Y0091706D02*
X0137756Y0091706D01*
X0137158Y0091108D02*
X0142842Y0091108D01*
X0144040Y0090509D02*
X0135960Y0090509D01*
X0138141Y0086918D02*
X0131859Y0086918D01*
X0132530Y0086320D02*
X0137470Y0086320D01*
X0136966Y0085721D02*
X0133034Y0085721D01*
X0133282Y0085123D02*
X0136718Y0085123D01*
X0136500Y0084524D02*
X0133500Y0084524D01*
X0133500Y0083926D02*
X0136500Y0083926D01*
X0136500Y0083327D02*
X0133500Y0083327D01*
X0133303Y0082729D02*
X0136697Y0082729D01*
X0136945Y0082130D02*
X0133055Y0082130D01*
X0132582Y0081532D02*
X0137418Y0081532D01*
X0138017Y0080933D02*
X0139304Y0080400D01*
X0140696Y0080400D01*
X0141983Y0080933D01*
X0142582Y0081532D02*
X0147418Y0081532D01*
X0146945Y0082130D02*
X0143055Y0082130D01*
X0143303Y0082729D02*
X0146697Y0082729D01*
X0146500Y0083327D02*
X0143500Y0083327D01*
X0143500Y0083926D02*
X0146500Y0083926D01*
X0146500Y0084524D02*
X0143500Y0084524D01*
X0143282Y0085123D02*
X0146718Y0085123D01*
X0146966Y0085721D02*
X0143034Y0085721D01*
X0142530Y0086320D02*
X0147470Y0086320D01*
X0148141Y0086918D02*
X0141859Y0086918D01*
X0145960Y0090509D02*
X0154040Y0090509D01*
X0152842Y0091108D02*
X0147158Y0091108D01*
X0147756Y0091706D02*
X0152244Y0091706D01*
X0151872Y0092305D02*
X0148128Y0092305D01*
X0148376Y0092903D02*
X0151624Y0092903D01*
X0151500Y0093502D02*
X0148500Y0093502D01*
X0148500Y0094101D02*
X0151500Y0094101D01*
X0151543Y0094699D02*
X0148457Y0094699D01*
X0148209Y0095298D02*
X0151791Y0095298D01*
X0152046Y0095896D02*
X0147954Y0095896D01*
X0147355Y0096495D02*
X0152645Y0096495D01*
X0153563Y0097093D02*
X0146437Y0097093D01*
X0148017Y0080933D02*
X0149304Y0080400D01*
X0150696Y0080400D01*
X0151983Y0080933D01*
X0131983Y0080933D02*
X0130696Y0080400D01*
X0129304Y0080400D01*
X0128017Y0080933D01*
X0101314Y0121632D02*
X0100900Y0121632D01*
X0100900Y0131807D02*
X0130623Y0131807D01*
X0130025Y0132405D02*
X0100900Y0132405D01*
X0100900Y0133004D02*
X0129426Y0133004D01*
X0129400Y0133602D02*
X0100900Y0133602D01*
X0100900Y0134201D02*
X0129400Y0134201D01*
X0129429Y0134799D02*
X0100900Y0134799D01*
X0100900Y0135398D02*
X0130028Y0135398D01*
X0130626Y0135996D02*
X0100900Y0135996D01*
X0096700Y0164725D02*
X0041695Y0164725D01*
X0042293Y0165323D02*
X0096700Y0165323D01*
X0096700Y0165922D02*
X0042400Y0165922D01*
X0042400Y0166520D02*
X0096700Y0166520D01*
X0096700Y0167119D02*
X0042400Y0167119D01*
X0041852Y0167717D02*
X0096700Y0167717D01*
X0100900Y0168316D02*
X0119914Y0168316D01*
X0119316Y0168914D02*
X0100900Y0168914D01*
X0100900Y0169513D02*
X0119200Y0169513D01*
X0119200Y0170111D02*
X0100900Y0170111D01*
X0100900Y0170710D02*
X0119200Y0170710D01*
X0119739Y0171308D02*
X0100900Y0171308D01*
X0100900Y0171907D02*
X0120337Y0171907D01*
X0122263Y0171907D02*
X0149800Y0171907D01*
X0149800Y0171308D02*
X0122861Y0171308D01*
X0123400Y0170710D02*
X0149800Y0170710D01*
X0149919Y0170111D02*
X0123400Y0170111D01*
X0123400Y0169513D02*
X0150517Y0169513D01*
X0150336Y0172505D02*
X0100900Y0172505D01*
X0100900Y0173104D02*
X0150934Y0173104D01*
X0152866Y0173104D02*
X0173600Y0173104D01*
X0173600Y0172505D02*
X0153464Y0172505D01*
X0154000Y0171907D02*
X0173600Y0171907D01*
X0173600Y0173703D02*
X0100900Y0173703D01*
X0100900Y0174301D02*
X0173600Y0174301D01*
X0173600Y0174900D02*
X0121469Y0174900D01*
X0120970Y0174400D02*
X0122200Y0175630D01*
X0122200Y0177370D01*
X0120970Y0178600D01*
X0119230Y0178600D01*
X0118000Y0177370D01*
X0118000Y0175630D01*
X0119230Y0174400D01*
X0120970Y0174400D01*
X0122068Y0175498D02*
X0173600Y0175498D01*
X0173600Y0176097D02*
X0122200Y0176097D01*
X0122200Y0176695D02*
X0173600Y0176695D01*
X0173600Y0177294D02*
X0122200Y0177294D01*
X0121678Y0177892D02*
X0173600Y0177892D01*
X0173600Y0178491D02*
X0121079Y0178491D01*
X0119121Y0178491D02*
X0100900Y0178491D01*
X0100900Y0179089D02*
X0173600Y0179089D01*
X0173600Y0179688D02*
X0100900Y0179688D01*
X0100900Y0180286D02*
X0173600Y0180286D01*
X0173600Y0180885D02*
X0100900Y0180885D01*
X0100900Y0181483D02*
X0128347Y0181483D01*
X0128830Y0181000D02*
X0130570Y0181000D01*
X0131800Y0182230D01*
X0131800Y0183970D01*
X0130570Y0185200D01*
X0128830Y0185200D01*
X0127600Y0183970D01*
X0127600Y0182230D01*
X0128830Y0181000D01*
X0127748Y0182082D02*
X0100900Y0182082D01*
X0100900Y0182680D02*
X0127600Y0182680D01*
X0127600Y0183279D02*
X0100900Y0183279D01*
X0100900Y0183877D02*
X0127600Y0183877D01*
X0128106Y0184476D02*
X0100900Y0184476D01*
X0100900Y0185074D02*
X0128704Y0185074D01*
X0130696Y0185074D02*
X0173600Y0185074D01*
X0173600Y0184476D02*
X0131294Y0184476D01*
X0131800Y0183877D02*
X0173600Y0183877D01*
X0173600Y0183279D02*
X0131800Y0183279D01*
X0131800Y0182680D02*
X0173600Y0182680D01*
X0173600Y0182082D02*
X0131652Y0182082D01*
X0131053Y0181483D02*
X0173600Y0181483D01*
X0173075Y0185673D02*
X0100900Y0185673D01*
X0100900Y0186271D02*
X0172476Y0186271D01*
X0171878Y0186870D02*
X0100900Y0186870D01*
X0100900Y0187468D02*
X0171279Y0187468D01*
X0170681Y0188067D02*
X0100900Y0188067D01*
X0100900Y0188665D02*
X0170082Y0188665D01*
X0169483Y0189264D02*
X0100900Y0189264D01*
X0100900Y0189862D02*
X0168885Y0189862D01*
X0168286Y0190461D02*
X0100900Y0190461D01*
X0100900Y0191059D02*
X0167688Y0191059D01*
X0167089Y0191658D02*
X0162228Y0191658D01*
X0161770Y0191200D02*
X0160030Y0191200D01*
X0158800Y0192430D01*
X0158800Y0194170D01*
X0160030Y0195400D01*
X0161770Y0195400D01*
X0163000Y0194170D01*
X0163000Y0192430D01*
X0161770Y0191200D01*
X0162826Y0192256D02*
X0166491Y0192256D01*
X0165892Y0192855D02*
X0163000Y0192855D01*
X0163000Y0193453D02*
X0165294Y0193453D01*
X0164695Y0194052D02*
X0163000Y0194052D01*
X0162519Y0194650D02*
X0164097Y0194650D01*
X0163498Y0195249D02*
X0161921Y0195249D01*
X0162900Y0195847D02*
X0104900Y0195847D01*
X0104302Y0195249D02*
X0159879Y0195249D01*
X0159281Y0194650D02*
X0103703Y0194650D01*
X0103105Y0194052D02*
X0158800Y0194052D01*
X0158800Y0193453D02*
X0102506Y0193453D01*
X0101908Y0192855D02*
X0158800Y0192855D01*
X0158974Y0192256D02*
X0101309Y0192256D01*
X0100900Y0191658D02*
X0159572Y0191658D01*
X0162301Y0196446D02*
X0105499Y0196446D01*
X0100900Y0177892D02*
X0118522Y0177892D01*
X0118000Y0177294D02*
X0100900Y0177294D01*
X0100900Y0176695D02*
X0118000Y0176695D01*
X0118000Y0176097D02*
X0100900Y0176097D01*
X0100900Y0175498D02*
X0118132Y0175498D01*
X0118731Y0174900D02*
X0100900Y0174900D01*
X0096700Y0174900D02*
X0077069Y0174900D01*
X0076471Y0174301D02*
X0096700Y0174301D01*
X0148914Y0152156D02*
X0173600Y0152156D01*
X0173600Y0151558D02*
X0149512Y0151558D01*
X0149800Y0150959D02*
X0173600Y0150959D01*
X0173600Y0150361D02*
X0149800Y0150361D01*
X0149800Y0149762D02*
X0173600Y0149762D01*
X0173600Y0149164D02*
X0149433Y0149164D01*
X0168597Y0125822D02*
X0173600Y0125822D01*
X0173600Y0125223D02*
X0169192Y0125223D01*
X0169439Y0124625D02*
X0173600Y0124625D01*
X0173600Y0124026D02*
X0169600Y0124026D01*
X0169600Y0123428D02*
X0173600Y0123428D01*
X0173600Y0122829D02*
X0169462Y0122829D01*
X0169214Y0122231D02*
X0173600Y0122231D01*
X0173600Y0121632D02*
X0168650Y0121632D01*
X0170302Y0121034D02*
X0173600Y0121034D01*
X0173600Y0120435D02*
X0170901Y0120435D01*
X0171159Y0119837D02*
X0173600Y0119837D01*
X0173600Y0119238D02*
X0171300Y0119238D01*
X0171300Y0118639D02*
X0173600Y0118639D01*
X0173600Y0118041D02*
X0171109Y0118041D01*
X0170778Y0117442D02*
X0173600Y0117442D01*
X0173600Y0116844D02*
X0170128Y0116844D01*
M02*
