G75*
%MOIN*%
%OFA0B0*%
%FSLAX25Y25*%
%IPPOS*%
%LPD*%
%AMOC8*
5,1,8,0,0,1.08239X$1,22.5*
%
%ADD10R,0.03698X0.02517*%
%ADD11C,0.00825*%
%ADD12R,0.18698X0.18698*%
%ADD13R,0.03343X0.00784*%
%ADD14R,0.00784X0.03343*%
%ADD15R,0.00981X0.04918*%
%ADD16R,0.06887X0.08461*%
D10*
X0058582Y0088960D03*
X0052179Y0089160D03*
X0052179Y0092900D03*
X0052179Y0096640D03*
X0058582Y0096440D03*
X0068779Y0096440D03*
X0068779Y0092700D03*
X0068779Y0088960D03*
X0074782Y0088960D03*
X0074782Y0096440D03*
X0084979Y0096440D03*
X0084979Y0092700D03*
X0084979Y0088960D03*
X0041982Y0089160D03*
X0041982Y0096640D03*
X0036818Y0096760D03*
X0036818Y0104240D03*
X0026621Y0104240D03*
X0026621Y0100500D03*
X0026621Y0096760D03*
D11*
X0026262Y0088162D02*
X0028738Y0088162D01*
X0026262Y0088162D02*
X0026262Y0090638D01*
X0028738Y0090638D01*
X0028738Y0088162D01*
X0028738Y0088986D02*
X0026262Y0088986D01*
X0026262Y0089810D02*
X0028738Y0089810D01*
X0028738Y0090634D02*
X0026262Y0090634D01*
X0032262Y0088162D02*
X0034738Y0088162D01*
X0032262Y0088162D02*
X0032262Y0090638D01*
X0034738Y0090638D01*
X0034738Y0088162D01*
X0034738Y0088986D02*
X0032262Y0088986D01*
X0032262Y0089810D02*
X0034738Y0089810D01*
X0034738Y0090634D02*
X0032262Y0090634D01*
X0043662Y0104138D02*
X0046138Y0104138D01*
X0046138Y0101662D01*
X0043662Y0101662D01*
X0043662Y0104138D01*
X0043662Y0102486D02*
X0046138Y0102486D01*
X0046138Y0103310D02*
X0043662Y0103310D01*
X0043662Y0104134D02*
X0046138Y0104134D01*
X0049662Y0104138D02*
X0052138Y0104138D01*
X0052138Y0101662D01*
X0049662Y0101662D01*
X0049662Y0104138D01*
X0049662Y0102486D02*
X0052138Y0102486D01*
X0052138Y0103310D02*
X0049662Y0103310D01*
X0049662Y0104134D02*
X0052138Y0104134D01*
X0059862Y0104138D02*
X0062338Y0104138D01*
X0062338Y0101662D01*
X0059862Y0101662D01*
X0059862Y0104138D01*
X0059862Y0102486D02*
X0062338Y0102486D01*
X0062338Y0103310D02*
X0059862Y0103310D01*
X0059862Y0104134D02*
X0062338Y0104134D01*
X0065862Y0104138D02*
X0068338Y0104138D01*
X0068338Y0101662D01*
X0065862Y0101662D01*
X0065862Y0104138D01*
X0065862Y0102486D02*
X0068338Y0102486D01*
X0068338Y0103310D02*
X0065862Y0103310D01*
X0065862Y0104134D02*
X0068338Y0104134D01*
X0075462Y0104138D02*
X0077938Y0104138D01*
X0077938Y0101662D01*
X0075462Y0101662D01*
X0075462Y0104138D01*
X0075462Y0102486D02*
X0077938Y0102486D01*
X0077938Y0103310D02*
X0075462Y0103310D01*
X0075462Y0104134D02*
X0077938Y0104134D01*
X0081462Y0104138D02*
X0083938Y0104138D01*
X0083938Y0101662D01*
X0081462Y0101662D01*
X0081462Y0104138D01*
X0081462Y0102486D02*
X0083938Y0102486D01*
X0083938Y0103310D02*
X0081462Y0103310D01*
X0081462Y0104134D02*
X0083938Y0104134D01*
X0084738Y0114062D02*
X0082262Y0114062D01*
X0082262Y0116538D01*
X0084738Y0116538D01*
X0084738Y0114062D01*
X0084738Y0114886D02*
X0082262Y0114886D01*
X0082262Y0115710D02*
X0084738Y0115710D01*
X0084738Y0116534D02*
X0082262Y0116534D01*
X0078738Y0114062D02*
X0076262Y0114062D01*
X0076262Y0116538D01*
X0078738Y0116538D01*
X0078738Y0114062D01*
X0078738Y0114886D02*
X0076262Y0114886D01*
X0076262Y0115710D02*
X0078738Y0115710D01*
X0078738Y0116534D02*
X0076262Y0116534D01*
X0030338Y0113462D02*
X0027862Y0113462D01*
X0027862Y0115938D01*
X0030338Y0115938D01*
X0030338Y0113462D01*
X0030338Y0114286D02*
X0027862Y0114286D01*
X0027862Y0115110D02*
X0030338Y0115110D01*
X0030338Y0115934D02*
X0027862Y0115934D01*
X0027862Y0120062D02*
X0030338Y0120062D01*
X0027862Y0120062D02*
X0027862Y0122538D01*
X0030338Y0122538D01*
X0030338Y0120062D01*
X0030338Y0120886D02*
X0027862Y0120886D01*
X0027862Y0121710D02*
X0030338Y0121710D01*
X0030338Y0122534D02*
X0027862Y0122534D01*
X0024338Y0120062D02*
X0021862Y0120062D01*
X0021862Y0122538D01*
X0024338Y0122538D01*
X0024338Y0120062D01*
X0024338Y0120886D02*
X0021862Y0120886D01*
X0021862Y0121710D02*
X0024338Y0121710D01*
X0024338Y0122534D02*
X0021862Y0122534D01*
X0021862Y0113462D02*
X0024338Y0113462D01*
X0021862Y0113462D02*
X0021862Y0115938D01*
X0024338Y0115938D01*
X0024338Y0113462D01*
X0024338Y0114286D02*
X0021862Y0114286D01*
X0021862Y0115110D02*
X0024338Y0115110D01*
X0024338Y0115934D02*
X0021862Y0115934D01*
X0021662Y0109938D02*
X0024138Y0109938D01*
X0024138Y0107462D01*
X0021662Y0107462D01*
X0021662Y0109938D01*
X0021662Y0108286D02*
X0024138Y0108286D01*
X0024138Y0109110D02*
X0021662Y0109110D01*
X0021662Y0109934D02*
X0024138Y0109934D01*
X0027662Y0109938D02*
X0030138Y0109938D01*
X0030138Y0107462D01*
X0027662Y0107462D01*
X0027662Y0109938D01*
X0027662Y0108286D02*
X0030138Y0108286D01*
X0030138Y0109110D02*
X0027662Y0109110D01*
X0027662Y0109934D02*
X0030138Y0109934D01*
D12*
X0053500Y0130500D03*
D13*
X0069445Y0129516D03*
X0069445Y0131484D03*
X0069445Y0133453D03*
X0069445Y0135421D03*
X0069445Y0137390D03*
X0069445Y0139358D03*
X0069445Y0141327D03*
X0069445Y0143295D03*
X0069445Y0127547D03*
X0069445Y0125579D03*
X0069445Y0123610D03*
X0069445Y0121642D03*
X0069445Y0119673D03*
X0069445Y0117705D03*
X0037555Y0117705D03*
X0037555Y0119673D03*
X0037555Y0121642D03*
X0037555Y0123610D03*
X0037555Y0125579D03*
X0037555Y0127547D03*
X0037555Y0129516D03*
X0037555Y0131484D03*
X0037555Y0133453D03*
X0037555Y0135421D03*
X0037555Y0137390D03*
X0037555Y0139358D03*
X0037555Y0141327D03*
X0037555Y0143295D03*
D14*
X0040705Y0146445D03*
X0042673Y0146445D03*
X0044642Y0146445D03*
X0046610Y0146445D03*
X0048579Y0146445D03*
X0050547Y0146445D03*
X0052516Y0146445D03*
X0054484Y0146445D03*
X0056453Y0146445D03*
X0058421Y0146445D03*
X0060390Y0146445D03*
X0062358Y0146445D03*
X0064327Y0146445D03*
X0066295Y0146445D03*
X0066295Y0114555D03*
X0064327Y0114555D03*
X0062358Y0114555D03*
X0060390Y0114555D03*
X0058421Y0114555D03*
X0056453Y0114555D03*
X0054484Y0114555D03*
X0052516Y0114555D03*
X0050547Y0114555D03*
X0048579Y0114555D03*
X0046610Y0114555D03*
X0044642Y0114555D03*
X0042673Y0114555D03*
X0040705Y0114555D03*
D15*
X0044300Y0170900D03*
X0046269Y0170900D03*
X0048237Y0170900D03*
X0050206Y0170900D03*
X0052174Y0170900D03*
X0054143Y0170900D03*
X0056111Y0170900D03*
X0058080Y0170900D03*
X0060048Y0170900D03*
X0062017Y0170900D03*
X0063985Y0170900D03*
X0065954Y0170900D03*
X0067922Y0170900D03*
X0069891Y0170900D03*
X0071859Y0170900D03*
X0073828Y0170900D03*
D16*
X0081702Y0179955D03*
X0036426Y0179955D03*
M02*
